<?xml version="1.0" encoding="UTF-8"?>
<svg width="160px" height="159px" viewBox="0 0 160 159" version="1.1" xmlns="http://www.w3.org/2000/svg" xmlns:xlink="http://www.w3.org/1999/xlink">
    <!-- Generator: Sketch 40.3 (33839) - http://www.bohemiancoding.com/sketch -->
    <title>category-lg_cr</title>
    <desc>Created with Sketch.</desc>
    <defs></defs>
    <g id="Page-1" stroke="none" stroke-width="1" fill="none" fill-rule="evenodd">
        <g id="category-lg_cr">
            <path d="M159.047,0.543 L78.472,0.543 C35.345,1.297 0.592,36.461 0.592,79.774 C0.592,123.532 36.066,159 79.815,159 C123.438,159 158.819,123.748 159.037,80.178 C159.049,79.774 159.047,0.543 159.047,0.543 Z" id="Fill-236" fill="#DA2F2A"></path>
            <path d="M132.289,29.976 L136.182,29.976 C137.529,29.976 138.855,30.585 138.855,32.125 C138.855,32.949 138.459,33.729 137.656,34.038 L137.656,34.06 C138.47,34.252 138.705,35.161 138.77,35.889 C138.791,36.209 138.822,37.332 139.09,37.611 L137.123,37.611 C136.951,37.354 136.92,36.605 136.898,36.391 C136.844,35.621 136.717,34.83 135.785,34.83 L134.277,34.83 L134.277,37.611 L132.289,37.611 L132.289,29.976 L132.289,29.976 Z M134.277,33.29 L135.945,33.29 C136.545,33.29 136.865,32.969 136.865,32.392 C136.865,31.825 136.416,31.569 135.861,31.569 L134.277,31.569 L134.277,33.29 L134.277,33.29 Z" id="Fill-238" fill="#FFFFFF"></path>
            <polyline id="Fill-239" fill="#FFFFFF" points="139.795 29.976 145.881 29.976 145.881 31.569 141.785 31.569 141.785 32.906 145.527 32.906 145.527 34.446 141.785 34.446 141.785 35.9 145.986 35.9 145.986 37.611 139.795 37.611 139.795 29.976"></polyline>
            <path d="M146.906,29.976 L150.189,29.976 C152.531,29.976 153.932,31.398 153.932,33.761 C153.932,36.263 152.51,37.611 150.189,37.611 L146.906,37.611 L146.906,29.976 L146.906,29.976 Z M148.896,35.9 L149.837,35.9 C151.345,35.867 151.943,35.28 151.943,33.75 C151.943,32.36 151.195,31.686 149.837,31.686 L148.896,31.686 L148.896,35.9 L148.896,35.9 Z" id="Fill-240" fill="#FFFFFF"></path>
            <polyline id="Fill-241" fill="#FFFFFF" points="132.289 38.395 134.277 38.395 134.277 44.319 137.838 44.319 137.838 46.03 132.289 46.03 132.289 38.395"></polyline>
            <polygon id="Fill-242" fill="#FFFFFF" points="138.395 46.03 140.385 46.03 140.385 38.395 138.395 38.395"></polygon>
            <path d="M142.887,43.463 C142.929,44.362 143.484,44.65 144.33,44.65 C144.928,44.65 145.549,44.436 145.549,43.869 C145.549,43.196 144.458,43.068 143.357,42.757 C142.266,42.448 141.121,41.955 141.121,40.555 C141.121,38.887 142.801,38.235 144.233,38.235 C145.752,38.235 147.281,38.972 147.291,40.694 L145.303,40.694 C145.334,39.998 144.683,39.774 144.072,39.774 C143.645,39.774 143.111,39.924 143.111,40.426 C143.111,41.014 144.212,41.121 145.324,41.432 C146.426,41.741 147.537,42.255 147.537,43.634 C147.537,45.57 145.891,46.19 144.212,46.19 C142.459,46.19 140.908,45.42 140.896,43.463 L142.887,43.463" id="Fill-243" fill="#FFFFFF"></path>
            <polyline id="Fill-244" fill="#FFFFFF" points="153.825 40.106 151.547 40.106 151.547 46.03 149.559 46.03 149.559 40.106 147.281 40.106 147.281 38.395 153.825 38.395 153.825 40.106"></polyline>
            <path d="M147.049,12.114 C145.516,13.594 145.188,15.739 146.313,16.905 C147.439,18.071 149.596,17.816 151.127,16.335 C152.66,14.855 152.99,12.71 151.863,11.544 C150.737,10.378 148.582,10.634 147.049,12.114" id="Fill-245" fill="#FFFFFF"></path>
            <path d="M145.822,19.311 C144.291,20.791 143.963,22.936 145.088,24.101 C146.215,25.268 148.369,25.012 149.9,23.532 C151.434,22.052 151.764,19.907 150.637,18.74 C149.512,17.574 147.355,17.83 145.822,19.311" id="Fill-246" fill="#FFFFFF"></path>
            <path d="M135.295,8.782 C133.762,10.263 133.434,12.407 134.559,13.574 C135.686,14.739 137.842,14.484 139.373,13.003 C140.904,11.524 141.234,9.378 140.108,8.212 C138.982,7.047 136.826,7.301 135.295,8.782" id="Fill-247" fill="#FFFFFF"></path>
            <path d="M142.549,7.647 C141.016,9.127 140.687,11.272 141.813,12.437 C142.939,13.603 145.094,13.349 146.627,11.867 C148.158,10.388 148.488,8.241 147.361,7.076 C146.236,5.91 144.08,6.166 142.549,7.647" id="Fill-249" fill="#FFFFFF"></path>
            <path d="M143.938,20.752 C143.938,24.082 141.238,26.782 137.908,26.782 C134.577,26.782 131.877,24.082 131.877,20.752 C131.877,17.422 134.577,14.723 137.908,14.723 C141.238,14.723 143.938,17.422 143.938,20.752" id="Fill-251" fill="#FFFFFF"></path>
            <path d="M129.933,17.142 C129.933,22.453 125.627,26.757 120.316,26.757 C115.008,26.757 110.703,22.453 110.703,17.142 C110.703,11.833 115.008,7.529 120.316,7.529 L129.945,7.529 L129.933,17.142" id="Fill-252" fill="#FFFFFF"></path>
            <path d="M130.037,38.222 C130.037,43.565 125.706,47.897 120.363,47.897 C115.021,47.897 110.689,43.565 110.689,38.222 C110.689,32.878 115.021,28.547 120.363,28.547 C125.706,28.547 130.037,32.878 130.037,38.222" id="Fill-253" fill="#FFFFFF"></path>
            <polygon id="Fill-254" fill="#DA2F2A" points="116.049 39.24 116.479 39.24 116.479 37.293 116.049 37.293"></polygon>
            <path d="M118.232,39.092 C118.085,39.22 117.881,39.284 117.621,39.284 C117.357,39.284 117.153,39.221 117.008,39.093 C116.863,38.966 116.791,38.77 116.791,38.504 L116.791,37.293 L117.221,37.293 L117.221,38.504 C117.221,38.557 117.225,38.609 117.234,38.659 C117.242,38.71 117.262,38.756 117.291,38.795 C117.32,38.833 117.36,38.865 117.412,38.89 C117.465,38.914 117.533,38.927 117.621,38.927 C117.773,38.927 117.879,38.893 117.938,38.824 C117.996,38.756 118.025,38.65 118.025,38.504 L118.025,37.293 L118.453,37.293 L118.453,38.504 C118.453,38.768 118.379,38.964 118.232,39.092" id="Fill-255" fill="#DA2F2A"></path>
            <path d="M120.017,37.813 C119.991,37.772 119.959,37.736 119.922,37.704 C119.883,37.674 119.84,37.65 119.791,37.632 C119.743,37.615 119.693,37.607 119.641,37.607 C119.544,37.607 119.462,37.625 119.395,37.662 C119.327,37.699 119.273,37.75 119.23,37.813 C119.189,37.875 119.158,37.947 119.14,38.027 C119.121,38.107 119.111,38.19 119.111,38.275 C119.111,38.357 119.121,38.437 119.14,38.514 C119.158,38.591 119.189,38.66 119.23,38.722 C119.273,38.784 119.327,38.833 119.395,38.871 C119.462,38.908 119.544,38.927 119.641,38.927 C119.771,38.927 119.873,38.887 119.947,38.807 C120.021,38.727 120.066,38.621 120.082,38.49 L120.497,38.49 C120.486,38.613 120.457,38.722 120.412,38.821 C120.367,38.919 120.307,39.002 120.232,39.072 C120.158,39.141 120.07,39.194 119.971,39.23 C119.87,39.266 119.76,39.284 119.641,39.284 C119.491,39.284 119.357,39.258 119.238,39.206 C119.119,39.155 119.018,39.083 118.936,38.992 C118.854,38.902 118.791,38.795 118.748,38.672 C118.705,38.549 118.683,38.417 118.683,38.275 C118.683,38.129 118.705,37.994 118.748,37.869 C118.791,37.745 118.854,37.637 118.936,37.543 C119.018,37.45 119.119,37.378 119.238,37.325 C119.357,37.273 119.491,37.246 119.641,37.246 C119.748,37.246 119.85,37.262 119.944,37.293 C120.04,37.324 120.125,37.368 120.201,37.428 C120.276,37.487 120.338,37.56 120.388,37.648 C120.438,37.735 120.468,37.834 120.48,37.948 L120.066,37.948 C120.059,37.899 120.042,37.854 120.017,37.813" id="Fill-256" fill="#DA2F2A"></path>
            <polyline id="Fill-257" fill="#DA2F2A" points="121.16 37.293 121.973 38.6 121.979 38.6 121.979 37.293 122.379 37.293 122.379 39.24 121.951 39.24 121.141 37.937 121.135 37.937 121.135 39.24 120.734 39.24 120.734 37.293 121.16 37.293"></polyline>
            <path d="M120.131,40.306 C120.094,40.345 120.059,40.384 120.021,40.421 C119.457,40.985 118.68,41.333 117.818,41.333 C116.958,41.333 116.182,40.985 115.617,40.421 C115.053,39.857 114.705,39.08 114.705,38.219 C114.705,37.359 115.053,36.581 115.617,36.017 C116.182,35.453 116.958,35.106 117.818,35.105 C118.68,35.106 119.457,35.453 120.021,36.017 C120.086,36.082 120.147,36.151 120.207,36.221 L121.479,36.221 C120.771,34.925 119.396,34.047 117.816,34.046 C115.512,34.047 113.646,35.913 113.646,38.217 C113.646,40.52 115.512,42.387 117.816,42.387 C119.357,42.387 120.704,41.55 121.426,40.306 L120.131,40.306" id="Fill-258" fill="#DA2F2A"></path>
            <path d="M154.721,31.611 C154.119,31.611 153.69,31.159 153.69,30.564 C153.69,29.933 154.166,29.516 154.721,29.516 C155.27,29.516 155.746,29.933 155.746,30.564 C155.746,31.194 155.27,31.611 154.721,31.611 L154.721,31.611 Z M154.721,29.699 C154.268,29.699 153.914,30.054 153.914,30.564 C153.914,31.039 154.223,31.428 154.721,31.428 C155.168,31.428 155.521,31.075 155.521,30.564 C155.521,30.054 155.168,29.699 154.721,29.699 L154.721,29.699 Z M155.25,30.765 C155.203,31.031 155,31.197 154.754,31.197 C154.396,31.197 154.16,30.924 154.16,30.564 C154.16,30.225 154.385,29.964 154.748,29.961 C155.004,29.961 155.211,30.11 155.248,30.384 L155.057,30.384 C155.029,30.241 154.908,30.143 154.748,30.143 C154.514,30.143 154.385,30.331 154.385,30.564 C154.385,30.807 154.527,31.014 154.754,31.014 C154.92,31.014 155.037,30.91 155.057,30.765 L155.25,30.765 L155.25,30.765 Z" id="Fill-259" fill="#FFFFFF"></path>
            <path d="M41.074,68.404 C40.909,67.234 39.788,66.344 38.503,66.344 C36.179,66.344 35.306,68.322 35.306,70.381 C35.306,72.342 36.179,74.32 38.503,74.32 C40.085,74.32 40.975,73.233 41.172,71.683 L43.677,71.683 C43.414,74.616 41.387,76.495 38.503,76.495 C34.861,76.495 32.718,73.776 32.718,70.381 C32.718,66.888 34.861,64.168 38.503,64.168 C41.09,64.168 43.265,65.685 43.579,68.404 L41.074,68.404" id="Fill-260" fill="#FFFFFF"></path>
            <path d="M47.993,69.772 L50.827,69.772 C51.98,69.772 52.607,69.278 52.607,68.091 C52.607,66.953 51.98,66.459 50.827,66.459 L47.993,66.459 L47.993,69.772 L47.993,69.772 Z M45.405,64.449 L51.75,64.449 C53.859,64.449 55.194,65.915 55.194,67.696 C55.194,69.079 54.634,70.117 53.332,70.645 L53.332,70.678 C54.601,71.008 54.963,72.243 55.045,73.43 C55.095,74.172 55.079,75.556 55.54,76.215 L52.953,76.215 C52.64,75.474 52.672,74.336 52.541,73.397 C52.359,72.161 51.881,71.617 50.58,71.617 L47.993,71.617 L47.993,76.215 L45.405,76.215 L45.405,64.449 L45.405,64.449 Z" id="Fill-261" fill="#FFFFFF"></path>
            <polygon id="Fill-262" fill="#FFFFFF" points="57.268 76.215 59.855 76.215 59.855 64.449 57.268 64.449"></polygon>
            <polyline id="Fill-263" fill="#FFFFFF" points="64.698 66.624 61.172 66.624 61.172 64.449 70.812 64.449 70.812 66.624 67.286 66.624 67.286 76.215 64.698 76.215 64.698 66.624"></polyline>
            <polygon id="Fill-264" fill="#FFFFFF" points="72.128 76.215 74.715 76.215 74.715 64.449 72.128 64.449"></polygon>
            <path d="M84.801,68.404 C84.635,67.234 83.515,66.344 82.229,66.344 C79.906,66.344 79.032,68.322 79.032,70.381 C79.032,72.342 79.906,74.32 82.229,74.32 C83.812,74.32 84.701,73.233 84.898,71.683 L87.404,71.683 C87.141,74.616 85.113,76.495 82.229,76.495 C78.587,76.495 76.445,73.776 76.445,70.381 C76.445,66.888 78.587,64.168 82.229,64.168 C84.816,64.168 86.992,65.685 87.305,68.404 L84.801,68.404" id="Fill-265" fill="#FFFFFF"></path>
            <path d="M91.773,71.666 L94.822,71.666 L93.34,67.349 L93.307,67.349 L91.773,71.666 L91.773,71.666 Z M92.021,64.449 L94.674,64.449 L99.074,76.215 L96.389,76.215 L95.498,73.595 L91.098,73.595 L90.176,76.215 L87.555,76.215 L92.021,64.449 L92.021,64.449 Z" id="Fill-266" fill="#FFFFFF"></path>
            <polyline id="Fill-267" fill="#FFFFFF" points="100.176 64.449 102.764 64.449 102.764 74.039 108.498 74.039 108.498 76.215 100.176 76.215 100.176 64.449"></polyline>
            <polyline id="Fill-268" fill="#FFFFFF" points="109.815 64.449 112.402 64.449 112.402 74.039 118.137 74.039 118.137 76.215 109.815 76.215 109.815 64.449"></polyline>
            <polyline id="Fill-269" fill="#FFFFFF" points="120.953 71.634 116.619 64.449 119.536 64.449 122.288 69.096 125.023 64.449 127.908 64.449 123.541 71.699 123.541 76.215 120.953 76.215 120.953 71.634"></polyline>
            <polyline id="Fill-270" fill="#FFFFFF" points="22.683 81.925 31.482 81.925 31.482 84.101 25.27 84.101 25.27 86.622 30.972 86.622 30.972 88.632 25.27 88.632 25.27 91.516 31.614 91.516 31.614 93.692 22.683 93.692 22.683 81.925"></polyline>
            <polyline id="Fill-271" fill="#FFFFFF" points="33.491 81.925 36.062 81.925 40.972 89.819 41.005 89.819 41.005 81.925 43.428 81.925 43.428 93.692 40.84 93.692 35.946 85.815 35.913 85.815 35.913 93.692 33.491 93.692 33.491 81.925"></polyline>
            <path d="M48.348,91.516 L50.655,91.516 C52.155,91.516 53.588,90.594 53.588,87.99 C53.588,85.616 52.764,84.101 50.194,84.101 L48.348,84.101 L48.348,91.516 L48.348,91.516 Z M45.761,81.925 L50.836,81.925 C53.885,81.925 56.176,83.837 56.176,87.742 C56.176,91.154 54.429,93.692 50.836,93.692 L45.761,93.692 L45.761,81.925 L45.761,81.925 Z" id="Fill-272" fill="#FFFFFF"></path>
            <path d="M60.474,89.143 L63.523,89.143 L62.04,84.825 L62.006,84.825 L60.474,89.143 L60.474,89.143 Z M60.721,81.925 L63.375,81.925 L67.774,93.692 L65.088,93.692 L64.198,91.072 L59.798,91.072 L58.875,93.692 L56.255,93.692 L60.721,81.925 L60.721,81.925 Z" id="Fill-273" fill="#FFFFFF"></path>
            <polyline id="Fill-274" fill="#FFFFFF" points="68.878 81.925 71.449 81.925 76.359 89.819 76.393 89.819 76.393 81.925 78.815 81.925 78.815 93.692 76.228 93.692 71.333 85.815 71.3 85.815 71.3 93.692 68.878 93.692 68.878 81.925"></polyline>
            <path d="M89.689,92.357 C88.783,93.527 87.596,93.972 86.459,93.972 C82.816,93.972 80.674,91.252 80.674,87.858 C80.674,84.365 82.816,81.645 86.459,81.645 C88.865,81.645 91.139,83.128 91.42,85.798 L88.947,85.798 C88.65,84.496 87.678,83.821 86.459,83.821 C84.135,83.821 83.262,85.798 83.262,87.858 C83.262,89.819 84.135,91.796 86.459,91.796 C88.14,91.796 89.111,90.89 89.26,89.259 L86.656,89.259 L86.656,87.33 L91.601,87.33 L91.601,93.692 L89.953,93.692 L89.689,92.357" id="Fill-275" fill="#FFFFFF"></path>
            <polyline id="Fill-276" fill="#FFFFFF" points="93.789 81.925 102.589 81.925 102.589 84.101 96.377 84.101 96.377 86.622 102.078 86.622 102.078 88.632 96.377 88.632 96.377 91.516 102.721 91.516 102.721 93.692 93.789 93.692 93.789 81.925"></polyline>
            <path d="M107.152,87.248 L109.986,87.248 C111.14,87.248 111.766,86.754 111.766,85.568 C111.766,84.43 111.14,83.936 109.986,83.936 L107.152,83.936 L107.152,87.248 L107.152,87.248 Z M104.564,81.925 L110.908,81.925 C113.018,81.925 114.354,83.392 114.354,85.172 C114.354,86.556 113.793,87.594 112.49,88.121 L112.49,88.155 C113.76,88.485 114.123,89.72 114.205,90.907 C114.254,91.649 114.238,93.032 114.699,93.692 L112.111,93.692 C111.799,92.95 111.832,91.813 111.699,90.873 C111.519,89.638 111.041,89.094 109.738,89.094 L107.152,89.094 L107.152,93.692 L104.564,93.692 L104.564,81.925 L104.564,81.925 Z" id="Fill-277" fill="#FFFFFF"></path>
            <polyline id="Fill-278" fill="#FFFFFF" points="116.559 81.925 125.358 81.925 125.358 84.101 119.146 84.101 119.146 86.622 124.848 86.622 124.848 88.632 119.146 88.632 119.146 91.516 125.49 91.516 125.49 93.692 116.559 93.692 116.559 81.925"></polyline>
            <path d="M129.92,91.516 L132.229,91.516 C133.728,91.516 135.161,90.594 135.161,87.99 C135.161,85.616 134.338,84.101 131.766,84.101 L129.92,84.101 L129.92,91.516 L129.92,91.516 Z M127.334,81.925 L132.409,81.925 C135.457,81.925 137.748,83.837 137.748,87.742 C137.748,91.154 136.002,93.692 132.409,93.692 L127.334,93.692 L127.334,81.925 L127.334,81.925 Z" id="Fill-279" fill="#FFFFFF"></path>
            <path d="M78.054,105.157 C77.955,104.449 77.276,103.909 76.498,103.909 C75.09,103.909 74.562,105.107 74.562,106.355 C74.562,107.542 75.09,108.74 76.498,108.74 C77.456,108.74 77.995,108.08 78.114,107.143 L79.631,107.143 C79.472,108.919 78.244,110.057 76.498,110.057 C74.292,110.057 72.995,108.41 72.995,106.355 C72.995,104.239 74.292,102.592 76.498,102.592 C78.064,102.592 79.382,103.51 79.571,105.157 L78.054,105.157" id="Fill-280" fill="#FFFFFF"></path>
            <path d="M82.25,105.985 L83.967,105.985 C84.666,105.985 85.045,105.686 85.045,104.967 C85.045,104.279 84.666,103.979 83.967,103.979 L82.25,103.979 L82.25,105.985 L82.25,105.985 Z M80.684,102.762 L84.525,102.762 C85.803,102.762 86.611,103.65 86.611,104.728 C86.611,105.566 86.271,106.195 85.484,106.514 L85.484,106.533 C86.252,106.734 86.472,107.482 86.521,108.2 C86.551,108.65 86.541,109.488 86.82,109.887 L85.254,109.887 C85.064,109.438 85.084,108.749 85.005,108.181 C84.895,107.432 84.605,107.103 83.817,107.103 L82.25,107.103 L82.25,109.887 L80.684,109.887 L80.684,102.762 L80.684,102.762 Z" id="Fill-281" fill="#FFFFFF"></path>
            <polyline id="Fill-282" fill="#FFFFFF" points="140.553 71.125 148.191 78.61 140.553 86.097 144.174 86.097 151.825 78.61 144.166 71.125 140.553 71.125"></polyline>
            <polyline id="Fill-283" fill="#FFFFFF" points="18.243 71.125 10.604 78.61 18.243 86.097 14.622 86.097 6.97 78.61 14.629 71.125 18.243 71.125"></polyline>
        </g>
    </g>
</svg>