<?xml version="1.0" encoding="UTF-8"?>
<svg width="159px" height="159px" viewBox="0 0 159 159" version="1.1" xmlns="http://www.w3.org/2000/svg" xmlns:xlink="http://www.w3.org/1999/xlink">
    <!-- Generator: Sketch 40.3 (33839) - http://www.bohemiancoding.com/sketch -->
    <title>category-lg_dd</title>
    <desc>Created with Sketch.</desc>
    <defs></defs>
    <g id="Page-1" stroke="none" stroke-width="1" fill="none" fill-rule="evenodd">
        <g id="category-lg_dd">
            <path d="M158.95,0.511 L78.376,0.511 C35.249,1.265 0.496,36.429 0.496,79.742 C0.496,123.499 35.97,158.968 79.719,158.968 C123.341,158.968 158.723,123.716 158.941,80.146 C158.952,79.741 158.95,0.511 158.95,0.511 Z" id="Fill-40" fill-opacity="0.6" fill="#000000"></path>
            <path d="M132.193,29.944 L136.085,29.944 C137.432,29.944 138.758,30.553 138.758,32.093 C138.758,32.917 138.363,33.697 137.561,34.007 L137.561,34.029 C138.374,34.221 138.608,35.13 138.673,35.857 C138.694,36.178 138.726,37.301 138.994,37.579 L137.026,37.579 C136.855,37.322 136.823,36.573 136.801,36.36 C136.748,35.59 136.62,34.799 135.689,34.799 L134.182,34.799 L134.182,37.579 L132.193,37.579 L132.193,29.944 L132.193,29.944 Z M134.182,33.259 L135.85,33.259 C136.449,33.259 136.77,32.938 136.77,32.361 C136.77,31.794 136.32,31.537 135.764,31.537 L134.182,31.537 L134.182,33.259 L134.182,33.259 Z" id="Fill-41" fill="#FFFFFF"></path>
            <polyline id="Fill-42" fill="#FFFFFF" points="139.699 29.944 145.784 29.944 145.784 31.537 141.688 31.537 141.688 32.874 145.431 32.874 145.431 34.413 141.688 34.413 141.688 35.868 145.891 35.868 145.891 37.579 139.699 37.579 139.699 29.944"></polyline>
            <path d="M146.811,29.944 L150.093,29.944 C152.435,29.944 153.836,31.366 153.836,33.73 C153.836,36.232 152.414,37.579 150.093,37.579 L146.811,37.579 L146.811,29.944 L146.811,29.944 Z M148.799,35.868 L149.741,35.868 C151.249,35.836 151.847,35.248 151.847,33.718 C151.847,32.328 151.099,31.655 149.741,31.655 L148.799,31.655 L148.799,35.868 L148.799,35.868 Z" id="Fill-43" fill="#FFFFFF"></path>
            <polyline id="Fill-44" fill="#FFFFFF" points="132.193 38.363 134.182 38.363 134.182 44.287 137.742 44.287 137.742 45.998 132.193 45.998 132.193 38.363"></polyline>
            <polygon id="Fill-45" fill="#FFFFFF" points="138.299 45.997 140.288 45.997 140.288 38.363 138.299 38.363"></polygon>
            <path d="M142.79,43.432 C142.833,44.33 143.389,44.618 144.233,44.618 C144.832,44.618 145.452,44.405 145.452,43.838 C145.452,43.164 144.362,43.036 143.26,42.726 C142.169,42.416 141.025,41.924 141.025,40.523 C141.025,38.855 142.704,38.203 144.137,38.203 C145.655,38.203 147.185,38.941 147.195,40.662 L145.207,40.662 C145.238,39.967 144.586,39.742 143.977,39.742 C143.549,39.742 143.014,39.892 143.014,40.395 C143.014,40.983 144.116,41.09 145.228,41.4 C146.329,41.71 147.441,42.223 147.441,43.603 C147.441,45.538 145.794,46.158 144.116,46.158 C142.362,46.158 140.812,45.389 140.801,43.432 L142.79,43.432" id="Fill-46" fill="#FFFFFF"></path>
            <polyline id="Fill-47" fill="#FFFFFF" points="153.729 40.074 151.451 40.074 151.451 45.998 149.462 45.998 149.462 40.074 147.185 40.074 147.185 38.363 153.729 38.363 153.729 40.074"></polyline>
            <path d="M146.953,12.082 C145.42,13.563 145.091,15.707 146.217,16.873 C147.343,18.039 149.499,17.784 151.031,16.304 C152.564,14.823 152.894,12.678 151.767,11.513 C150.641,10.347 148.485,10.603 146.953,12.082" id="Fill-48" fill="#FFFFFF"></path>
            <path d="M145.727,19.28 C144.195,20.759 143.866,22.905 144.992,24.07 C146.118,25.236 148.273,24.981 149.805,23.501 C151.338,22.02 151.667,19.875 150.541,18.709 C149.416,17.543 147.26,17.799 145.727,19.28" id="Fill-49" fill="#FFFFFF"></path>
            <path d="M135.198,8.75 C133.666,10.231 133.337,12.376 134.463,13.542 C135.589,14.707 137.745,14.452 139.277,12.972 C140.809,11.492 141.138,9.346 140.012,8.181 C138.886,7.015 136.73,7.27 135.198,8.75" id="Fill-50" fill="#FFFFFF"></path>
            <path d="M142.452,7.615 C140.92,9.096 140.59,11.24 141.715,12.405 C142.843,13.571 144.998,13.317 146.53,11.836 C148.063,10.356 148.392,8.21 147.265,7.045 C146.14,5.879 143.984,6.135 142.452,7.615" id="Fill-52" fill="#FFFFFF"></path>
            <path d="M143.841,20.721 C143.841,24.051 141.141,26.751 137.811,26.751 C134.481,26.751 131.781,24.051 131.781,20.721 C131.781,17.391 134.481,14.692 137.811,14.692 C141.141,14.692 143.841,17.391 143.841,20.721" id="Fill-54" fill="#FFFFFF"></path>
            <path d="M129.836,17.111 C129.836,22.422 125.53,26.726 120.221,26.726 C114.911,26.726 110.606,22.422 110.606,17.111 C110.606,11.801 114.911,7.497 120.221,7.497 L129.849,7.497 L129.836,17.111" id="Fill-55" fill="#FFFFFF"></path>
            <path d="M129.941,38.191 C129.941,43.533 125.609,47.865 120.266,47.865 C114.924,47.865 110.592,43.533 110.592,38.191 C110.592,32.846 114.924,28.516 120.266,28.516 C125.609,28.516 129.941,32.846 129.941,38.191" id="Fill-56" fill="#FFFFFF"></path>
            <polygon id="Fill-57" fill="#666666" points="115.953 39.209 116.381 39.209 116.381 37.261 115.953 37.261"></polygon>
            <path d="M118.136,39.061 C117.989,39.189 117.785,39.253 117.525,39.253 C117.261,39.253 117.057,39.189 116.912,39.062 C116.768,38.935 116.695,38.738 116.695,38.473 L116.695,37.261 L117.124,37.261 L117.124,38.473 C117.124,38.526 117.128,38.577 117.137,38.628 C117.146,38.679 117.166,38.724 117.195,38.763 C117.224,38.802 117.264,38.834 117.316,38.859 C117.368,38.883 117.438,38.896 117.525,38.896 C117.678,38.896 117.783,38.862 117.841,38.793 C117.899,38.725 117.929,38.618 117.929,38.473 L117.929,37.261 L118.357,37.261 L118.357,38.473 C118.357,38.737 118.283,38.932 118.136,39.061" id="Fill-58" fill="#666666"></path>
            <path d="M119.92,37.781 C119.895,37.74 119.863,37.704 119.825,37.673 C119.787,37.642 119.744,37.618 119.695,37.601 C119.647,37.584 119.597,37.575 119.544,37.575 C119.447,37.575 119.366,37.594 119.298,37.631 C119.231,37.668 119.176,37.718 119.134,37.781 C119.093,37.844 119.062,37.915 119.043,37.995 C119.024,38.075 119.015,38.158 119.015,38.243 C119.015,38.326 119.024,38.405 119.043,38.482 C119.062,38.56 119.093,38.629 119.134,38.691 C119.176,38.753 119.231,38.802 119.298,38.84 C119.366,38.877 119.447,38.896 119.544,38.896 C119.675,38.896 119.777,38.856 119.851,38.776 C119.924,38.696 119.969,38.59 119.986,38.459 L120.4,38.459 C120.39,38.581 120.361,38.691 120.316,38.789 C120.271,38.887 120.21,38.971 120.136,39.04 C120.062,39.11 119.974,39.162 119.874,39.198 C119.774,39.235 119.664,39.253 119.544,39.253 C119.395,39.253 119.26,39.227 119.142,39.175 C119.022,39.123 118.922,39.052 118.84,38.961 C118.758,38.87 118.695,38.763 118.652,38.64 C118.608,38.518 118.586,38.385 118.586,38.243 C118.586,38.098 118.608,37.963 118.652,37.838 C118.695,37.714 118.758,37.605 118.84,37.512 C118.922,37.419 119.022,37.347 119.142,37.294 C119.26,37.241 119.395,37.215 119.544,37.215 C119.651,37.215 119.752,37.23 119.848,37.261 C119.944,37.292 120.029,37.337 120.104,37.396 C120.18,37.455 120.242,37.529 120.292,37.616 C120.34,37.703 120.372,37.803 120.384,37.916 L119.969,37.916 C119.962,37.867 119.946,37.822 119.92,37.781" id="Fill-59" fill="#666666"></path>
            <polyline id="Fill-60" fill="#666666" points="121.063 37.261 121.876 38.568 121.882 38.568 121.882 37.261 122.283 37.261 122.283 39.209 121.855 39.209 121.044 37.905 121.039 37.905 121.039 39.209 120.638 39.209 120.638 37.261 121.063 37.261"></polyline>
            <path d="M120.034,40.275 C119.998,40.314 119.961,40.352 119.924,40.39 C119.36,40.953 118.583,41.302 117.723,41.302 C116.861,41.302 116.085,40.953 115.52,40.39 C114.956,39.826 114.608,39.049 114.608,38.188 C114.608,37.327 114.956,36.55 115.52,35.986 C116.085,35.422 116.861,35.074 117.723,35.073 C118.583,35.074 119.36,35.422 119.924,35.986 C119.99,36.051 120.051,36.119 120.11,36.19 L121.381,36.19 C120.674,34.894 119.299,34.015 117.719,34.015 C115.416,34.015 113.549,35.882 113.549,38.186 C113.549,40.488 115.416,42.356 117.719,42.356 C119.261,42.356 120.608,41.519 121.329,40.275 L120.034,40.275" id="Fill-61" fill="#666666"></path>
            <path d="M154.625,31.579 C154.022,31.579 153.594,31.128 153.594,30.532 C153.594,29.902 154.07,29.485 154.625,29.485 C155.173,29.485 155.649,29.902 155.649,30.532 C155.649,31.162 155.173,31.579 154.625,31.579 L154.625,31.579 Z M154.625,29.667 C154.171,29.667 153.818,30.022 153.818,30.532 C153.818,31.008 154.126,31.397 154.625,31.397 C155.072,31.397 155.425,31.044 155.425,30.532 C155.425,30.022 155.072,29.667 154.625,29.667 L154.625,29.667 Z M155.154,30.734 C155.106,30.999 154.904,31.165 154.658,31.165 C154.3,31.165 154.064,30.893 154.064,30.532 C154.064,30.193 154.289,29.933 154.652,29.93 C154.907,29.93 155.115,30.078 155.151,30.353 L154.96,30.353 C154.933,30.21 154.812,30.112 154.652,30.112 C154.417,30.112 154.289,30.3 154.289,30.532 C154.289,30.776 154.431,30.983 154.658,30.983 C154.823,30.983 154.941,30.879 154.96,30.734 L155.154,30.734 L155.154,30.734 Z" id="Fill-62" fill="#FFFFFF"></path>
            <path d="M62.864,74.29 L65.17,74.29 C66.67,74.29 68.104,73.367 68.104,70.763 C68.104,68.39 67.28,66.874 64.709,66.874 L62.864,66.874 L62.864,74.29 L62.864,74.29 Z M60.276,64.698 L65.352,64.698 C68.401,64.698 70.691,66.611 70.691,70.516 C70.691,73.927 68.944,76.465 65.352,76.465 L60.276,76.465 L60.276,64.698 L60.276,64.698 Z" id="Fill-63" fill="#FFFFFF"></path>
            <path d="M74.99,71.917 L78.039,71.917 L76.555,67.599 L76.522,67.599 L74.99,71.917 L74.99,71.917 Z M75.237,64.698 L77.89,64.698 L82.29,76.465 L79.604,76.465 L78.714,73.845 L74.314,73.845 L73.391,76.465 L70.771,76.465 L75.237,64.698 L75.237,64.698 Z" id="Fill-64" fill="#FFFFFF"></path>
            <polyline id="Fill-65" fill="#FFFFFF" points="84.692 66.874 81.166 66.874 81.166 64.698 90.806 64.698 90.806 66.874 87.28 66.874 87.28 76.465 84.692 76.465 84.692 66.874"></polyline>
            <path d="M93.886,71.917 L96.935,71.917 L95.452,67.599 L95.418,67.599 L93.886,71.917 L93.886,71.917 Z M94.133,64.698 L96.787,64.698 L101.187,76.465 L98.5,76.465 L97.61,73.845 L93.21,73.845 L92.288,76.465 L89.667,76.465 L94.133,64.698 L94.133,64.698 Z" id="Fill-66" fill="#FFFFFF"></path>
            <path d="M39.997,91.766 L42.303,91.766 C43.803,91.766 45.237,90.843 45.237,88.239 C45.237,85.866 44.413,84.351 41.842,84.351 L39.997,84.351 L39.997,91.766 L39.997,91.766 Z M37.409,82.175 L42.485,82.175 C45.534,82.175 47.824,84.087 47.824,87.992 C47.824,91.404 46.077,93.942 42.485,93.942 L37.409,93.942 L37.409,82.175 L37.409,82.175 Z" id="Fill-67" fill="#FFFFFF"></path>
            <polyline id="Fill-68" fill="#FFFFFF" points="49.618 82.175 58.417 82.175 58.417 84.351 52.205 84.351 52.205 86.872 57.907 86.872 57.907 88.883 52.205 88.883 52.205 91.766 58.549 91.766 58.549 93.942 49.618 93.942 49.618 82.175"></polyline>
            <polyline id="Fill-69" fill="#FFFFFF" points="60.294 82.175 68.566 82.175 68.566 84.351 62.881 84.351 62.881 87.07 67.809 87.07 67.809 89.08 62.881 89.08 62.881 93.942 60.294 93.942 60.294 82.175"></polyline>
            <polygon id="Fill-70" fill="#FFFFFF" points="70.064 93.942 72.651 93.942 72.651 82.175 70.064 82.175"></polygon>
            <path d="M82.769,86.13 C82.604,84.96 81.483,84.071 80.198,84.071 C77.874,84.071 77,86.048 77,88.108 C77,90.069 77.874,92.047 80.198,92.047 C81.78,92.047 82.669,90.959 82.867,89.41 L85.372,89.41 C85.108,92.343 83.082,94.222 80.198,94.222 C76.556,94.222 74.414,91.503 74.414,88.108 C74.414,84.614 76.556,81.895 80.198,81.895 C82.785,81.895 84.96,83.411 85.273,86.13 L82.769,86.13" id="Fill-71" fill="#FFFFFF"></path>
            <polygon id="Fill-72" fill="#FFFFFF" points="87.133 93.942 89.72 93.942 89.72 82.175 87.133 82.175"></polygon>
            <polyline id="Fill-73" fill="#FFFFFF" points="91.993 82.175 100.793 82.175 100.793 84.351 94.581 84.351 94.581 86.872 100.282 86.872 100.282 88.883 94.581 88.883 94.581 91.766 100.925 91.766 100.925 93.942 91.993 93.942 91.993 82.175"></polyline>
            <polyline id="Fill-74" fill="#FFFFFF" points="102.669 82.175 105.24 82.175 110.151 90.069 110.184 90.069 110.184 82.175 112.606 82.175 112.606 93.942 110.019 93.942 105.125 86.065 105.092 86.065 105.092 93.942 102.669 93.942 102.669 82.175"></polyline>
            <polyline id="Fill-75" fill="#FFFFFF" points="117.606 84.351 114.08 84.351 114.08 82.175 123.72 82.175 123.72 84.351 120.194 84.351 120.194 93.942 117.606 93.942 117.606 84.351"></polyline>
            <path d="M74.937,108.825 L76.336,108.825 C77.246,108.825 78.115,108.266 78.115,106.687 C78.115,105.247 77.616,104.328 76.056,104.328 L74.937,104.328 L74.937,108.825 L74.937,108.825 Z M73.368,103.009 L76.446,103.009 C78.295,103.009 79.685,104.168 79.685,106.537 C79.685,108.606 78.625,110.145 76.446,110.145 L73.368,110.145 L73.368,103.009 L73.368,103.009 Z" id="Fill-76" fill="#FFFFFF"></path>
            <path d="M82.357,108.825 L83.756,108.825 C84.666,108.825 85.535,108.266 85.535,106.687 C85.535,105.247 85.036,104.328 83.476,104.328 L82.357,104.328 L82.357,108.825 L82.357,108.825 Z M80.788,103.009 L83.866,103.009 C85.715,103.009 87.104,104.168 87.104,106.537 C87.104,108.606 86.045,110.145 83.866,110.145 L80.788,110.145 L80.788,103.009 L80.788,103.009 Z" id="Fill-77" fill="#FFFFFF"></path>
        </g>
    </g>
</svg>