<?xml version="1.0" encoding="UTF-8"?>
<svg width="159px" height="159px" viewBox="0 0 159 159" version="1.1" xmlns="http://www.w3.org/2000/svg" xmlns:xlink="http://www.w3.org/1999/xlink">
    <!-- Generator: Sketch 40.3 (33839) - http://www.bohemiancoding.com/sketch -->
    <title>category-lg_en</title>
    <desc>Created with Sketch.</desc>
    <defs></defs>
    <g id="Page-1" stroke="none" stroke-width="1" fill="none" fill-rule="evenodd">
        <g id="category-lg_en">
            <path d="M158.85,79.77 L158.85,0.543 L78.275,0.543 L78.275,0.576 C35.148,1.297 0.396,36.461 0.396,79.774 C0.396,123.532 35.87,159 79.619,159 C123.24,159 158.623,123.748 158.841,80.178 L158.85,80.178 L158.85,79.848 C158.85,79.824 158.851,79.799 158.851,79.774 C158.851,79.774 158.85,79.771 158.85,79.77" id="Fill-197" fill="#DA2F2A"></path>
            <path d="M132.092,29.976 L135.985,29.976 C137.332,29.976 138.658,30.585 138.658,32.125 C138.658,32.949 138.262,33.729 137.46,34.038 L137.46,34.06 C138.273,34.252 138.508,35.161 138.572,35.889 C138.594,36.209 138.626,37.332 138.893,37.611 L136.925,37.611 C136.754,37.354 136.722,36.605 136.701,36.391 C136.647,35.621 136.519,34.83 135.589,34.83 L134.082,34.83 L134.082,37.611 L132.092,37.611 L132.092,29.976 L132.092,29.976 Z M134.082,33.29 L135.75,33.29 C136.348,33.29 136.669,32.969 136.669,32.392 C136.669,31.825 136.22,31.569 135.664,31.569 L134.082,31.569 L134.082,33.29 L134.082,33.29 Z" id="Fill-199" fill="#FFFFFF"></path>
            <polyline id="Fill-200" fill="#FFFFFF" points="139.599 29.976 145.683 29.976 145.683 31.569 141.588 31.569 141.588 32.906 145.331 32.906 145.331 34.446 141.588 34.446 141.588 35.9 145.791 35.9 145.791 37.611 139.599 37.611 139.599 29.976"></polyline>
            <path d="M146.71,29.976 L149.993,29.976 C152.335,29.976 153.736,31.398 153.736,33.761 C153.736,36.263 152.313,37.611 149.993,37.611 L146.71,37.611 L146.71,29.976 L146.71,29.976 Z M148.699,35.9 L149.64,35.9 C151.148,35.867 151.747,35.28 151.747,33.75 C151.747,32.36 150.998,31.686 149.64,31.686 L148.699,31.686 L148.699,35.9 L148.699,35.9 Z" id="Fill-201" fill="#FFFFFF"></path>
            <polyline id="Fill-202" fill="#FFFFFF" points="132.092 38.395 134.082 38.395 134.082 44.319 137.642 44.319 137.642 46.03 132.092 46.03 132.092 38.395"></polyline>
            <polygon id="Fill-203" fill="#FFFFFF" points="138.198 46.03 140.187 46.03 140.187 38.395 138.198 38.395"></polygon>
            <path d="M142.689,43.463 C142.732,44.362 143.288,44.65 144.133,44.65 C144.732,44.65 145.352,44.436 145.352,43.869 C145.352,43.196 144.261,43.068 143.16,42.757 C142.069,42.448 140.925,41.955 140.925,40.555 C140.925,38.887 142.604,38.235 144.037,38.235 C145.555,38.235 147.084,38.972 147.095,40.694 L145.106,40.694 C145.138,39.998 144.486,39.774 143.876,39.774 C143.449,39.774 142.914,39.924 142.914,40.426 C142.914,41.014 144.015,41.121 145.127,41.432 C146.229,41.741 147.341,42.255 147.341,43.634 C147.341,45.57 145.694,46.19 144.015,46.19 C142.262,46.19 140.711,45.42 140.701,43.463 L142.689,43.463" id="Fill-204" fill="#FFFFFF"></path>
            <polyline id="Fill-205" fill="#FFFFFF" points="153.628 40.106 151.351 40.106 151.351 46.03 149.362 46.03 149.362 40.106 147.084 40.106 147.084 38.395 153.628 38.395 153.628 40.106"></polyline>
            <path d="M146.853,12.114 C145.32,13.594 144.99,15.739 146.116,16.905 C147.243,18.071 149.398,17.816 150.931,16.335 C152.463,14.855 152.793,12.71 151.667,11.544 C150.541,10.378 148.384,10.634 146.853,12.114" id="Fill-206" fill="#FFFFFF"></path>
            <path d="M145.626,19.311 C144.095,20.791 143.766,22.936 144.891,24.101 C146.018,25.268 148.172,25.012 149.704,23.532 C151.237,22.052 151.566,19.907 150.44,18.74 C149.315,17.574 147.16,17.83 145.626,19.311" id="Fill-207" fill="#FFFFFF"></path>
            <path d="M135.098,8.782 C133.565,10.263 133.236,12.407 134.363,13.574 C135.488,14.739 137.645,14.484 139.176,13.003 C140.708,11.524 141.038,9.378 139.912,8.212 C138.786,7.047 136.63,7.301 135.098,8.782" id="Fill-208" fill="#FFFFFF"></path>
            <path d="M142.352,7.647 C140.819,9.127 140.49,11.272 141.615,12.437 C142.742,13.603 144.897,13.349 146.43,11.867 C147.962,10.388 148.292,8.241 147.165,7.076 C146.04,5.91 143.884,6.166 142.352,7.647" id="Fill-210" fill="#FFFFFF"></path>
            <path d="M143.741,20.752 C143.741,24.082 141.041,26.782 137.71,26.782 C134.38,26.782 131.681,24.082 131.681,20.752 C131.681,17.422 134.38,14.723 137.71,14.723 C141.041,14.723 143.741,17.422 143.741,20.752" id="Fill-212" fill="#FFFFFF"></path>
            <path d="M129.736,17.142 C129.736,22.453 125.43,26.757 120.121,26.757 C114.811,26.757 110.506,22.453 110.506,17.142 C110.506,11.833 114.811,7.529 120.121,7.529 L129.748,7.529 L129.736,17.142" id="Fill-213" fill="#FFFFFF"></path>
            <path d="M129.841,38.222 C129.841,43.565 125.509,47.897 120.166,47.897 C114.824,47.897 110.492,43.565 110.492,38.222 C110.492,32.878 114.824,28.547 120.166,28.547 C125.509,28.547 129.841,32.878 129.841,38.222" id="Fill-214" fill="#FFFFFF"></path>
            <polygon id="Fill-215" fill="#DA2F2A" points="115.853 39.24 116.281 39.24 116.281 37.293 115.853 37.293"></polygon>
            <path d="M118.036,39.092 C117.888,39.22 117.685,39.284 117.424,39.284 C117.161,39.284 116.957,39.221 116.812,39.093 C116.667,38.966 116.595,38.77 116.595,38.504 L116.595,37.293 L117.023,37.293 L117.023,38.504 C117.023,38.557 117.028,38.609 117.037,38.659 C117.046,38.71 117.065,38.756 117.094,38.795 C117.123,38.833 117.164,38.865 117.215,38.89 C117.268,38.914 117.337,38.927 117.424,38.927 C117.577,38.927 117.683,38.893 117.741,38.824 C117.799,38.756 117.828,38.65 117.828,38.504 L117.828,37.293 L118.256,37.293 L118.256,38.504 C118.256,38.768 118.183,38.964 118.036,39.092" id="Fill-216" fill="#DA2F2A"></path>
            <path d="M119.82,37.813 C119.794,37.772 119.763,37.736 119.725,37.704 C119.686,37.674 119.643,37.65 119.595,37.632 C119.546,37.615 119.496,37.607 119.443,37.607 C119.347,37.607 119.265,37.625 119.198,37.662 C119.13,37.699 119.076,37.75 119.034,37.813 C118.992,37.875 118.962,37.947 118.943,38.027 C118.924,38.107 118.914,38.19 118.914,38.275 C118.914,38.357 118.924,38.437 118.943,38.514 C118.962,38.591 118.992,38.66 119.034,38.722 C119.076,38.784 119.13,38.833 119.198,38.871 C119.265,38.908 119.347,38.927 119.443,38.927 C119.574,38.927 119.677,38.887 119.75,38.807 C119.824,38.727 119.869,38.621 119.885,38.49 L120.3,38.49 C120.29,38.613 120.261,38.722 120.215,38.821 C120.17,38.919 120.11,39.002 120.036,39.072 C119.961,39.141 119.874,39.194 119.773,39.23 C119.673,39.266 119.563,39.284 119.443,39.284 C119.294,39.284 119.16,39.258 119.041,39.206 C118.922,39.155 118.821,39.083 118.74,38.992 C118.658,38.902 118.595,38.795 118.551,38.672 C118.507,38.549 118.486,38.417 118.486,38.275 C118.486,38.129 118.507,37.994 118.551,37.869 C118.595,37.745 118.658,37.637 118.74,37.543 C118.821,37.45 118.922,37.378 119.041,37.325 C119.16,37.273 119.294,37.246 119.443,37.246 C119.551,37.246 119.652,37.262 119.748,37.293 C119.843,37.324 119.929,37.368 120.004,37.428 C120.08,37.487 120.142,37.56 120.191,37.648 C120.24,37.735 120.271,37.834 120.284,37.948 L119.869,37.948 C119.862,37.899 119.845,37.854 119.82,37.813" id="Fill-217" fill="#DA2F2A"></path>
            <polyline id="Fill-218" fill="#DA2F2A" points="120.963 37.293 121.776 38.6 121.782 38.6 121.782 37.293 122.183 37.293 122.183 39.24 121.754 39.24 120.944 37.937 120.938 37.937 120.938 39.24 120.538 39.24 120.538 37.293 120.963 37.293"></polyline>
            <path d="M119.934,40.306 C119.898,40.345 119.861,40.384 119.824,40.421 C119.26,40.985 118.482,41.333 117.622,41.333 C116.761,41.333 115.984,40.985 115.42,40.421 C114.855,39.857 114.508,39.08 114.508,38.219 C114.508,37.359 114.855,36.581 115.42,36.017 C115.984,35.453 116.761,35.106 117.622,35.105 C118.482,35.106 119.26,35.453 119.824,36.017 C119.889,36.082 119.951,36.151 120.01,36.221 L121.281,36.221 C120.574,34.925 119.199,34.047 117.619,34.046 C115.316,34.047 113.449,35.913 113.449,38.217 C113.449,40.52 115.316,42.387 117.619,42.387 C119.161,42.387 120.507,41.55 121.229,40.306 L119.934,40.306" id="Fill-219" fill="#DA2F2A"></path>
            <path d="M154.524,31.611 C153.922,31.611 153.494,31.159 153.494,30.564 C153.494,29.933 153.97,29.516 154.524,29.516 C155.073,29.516 155.549,29.933 155.549,30.564 C155.549,31.194 155.073,31.611 154.524,31.611 L154.524,31.611 Z M154.524,29.699 C154.071,29.699 153.718,30.054 153.718,30.564 C153.718,31.039 154.026,31.428 154.524,31.428 C154.972,31.428 155.325,31.075 155.325,30.564 C155.325,30.054 154.972,29.699 154.524,29.699 L154.524,29.699 Z M155.053,30.765 C155.006,31.031 154.804,31.197 154.558,31.197 C154.199,31.197 153.964,30.924 153.964,30.564 C153.964,30.225 154.188,29.964 154.552,29.961 C154.807,29.961 155.014,30.11 155.05,30.384 L154.86,30.384 C154.832,30.241 154.712,30.143 154.552,30.143 C154.317,30.143 154.188,30.331 154.188,30.564 C154.188,30.807 154.331,31.014 154.558,31.014 C154.723,31.014 154.84,30.91 154.86,30.765 L155.053,30.765 L155.053,30.765 Z" id="Fill-220" fill="#FFFFFF"></path>
            <polyline id="Fill-221" fill="#FFFFFF" points="22.175 73.659 30.975 73.659 30.975 75.835 24.762 75.835 24.762 78.357 30.464 78.357 30.464 80.366 24.762 80.366 24.762 83.25 31.106 83.25 31.106 85.426 22.175 85.426 22.175 73.659"></polyline>
            <polyline id="Fill-222" fill="#FFFFFF" points="32.983 73.659 35.554 73.659 40.464 81.553 40.498 81.553 40.498 73.659 42.92 73.659 42.92 85.426 40.333 85.426 35.438 77.549 35.405 77.549 35.405 85.426 32.983 85.426 32.983 73.659"></polyline>
            <path d="M47.833,83.25 L50.139,83.25 C51.639,83.25 53.073,82.328 53.073,79.724 C53.073,77.351 52.249,75.835 49.678,75.835 L47.833,75.835 L47.833,83.25 L47.833,83.25 Z M45.245,73.659 L50.321,73.659 C53.37,73.659 55.66,75.572 55.66,79.477 C55.66,82.888 53.913,85.426 50.321,85.426 L45.245,85.426 L45.245,73.659 L45.245,73.659 Z" id="Fill-223" fill="#FFFFFF"></path>
            <path d="M59.958,80.877 L63.007,80.877 L61.524,76.56 L61.491,76.56 L59.958,80.877 L59.958,80.877 Z M60.206,73.659 L62.859,73.659 L67.259,85.426 L64.573,85.426 L63.683,82.806 L59.283,82.806 L58.36,85.426 L55.74,85.426 L60.206,73.659 L60.206,73.659 Z" id="Fill-224" fill="#FFFFFF"></path>
            <polyline id="Fill-225" fill="#FFFFFF" points="68.37 73.659 70.941 73.659 75.852 81.553 75.885 81.553 75.885 73.659 78.307 73.659 78.307 85.426 75.72 85.426 70.826 77.549 70.792 77.549 70.792 85.426 68.37 85.426 68.37 73.659"></polyline>
            <path d="M89.181,84.091 C88.275,85.261 87.088,85.706 85.951,85.706 C82.309,85.706 80.167,82.987 80.167,79.592 C80.167,76.099 82.309,73.379 85.951,73.379 C88.357,73.379 90.631,74.863 90.912,77.532 L88.439,77.532 C88.143,76.231 87.17,75.555 85.951,75.555 C83.627,75.555 82.754,77.532 82.754,79.592 C82.754,81.553 83.627,83.531 85.951,83.531 C87.632,83.531 88.604,82.624 88.752,80.993 L86.149,80.993 L86.149,79.065 L91.093,79.065 L91.093,85.426 L89.445,85.426 L89.181,84.091" id="Fill-226" fill="#FFFFFF"></path>
            <polyline id="Fill-227" fill="#FFFFFF" points="93.281 73.659 102.081 73.659 102.081 75.835 95.869 75.835 95.869 78.357 101.57 78.357 101.57 80.366 95.869 80.366 95.869 83.25 102.213 83.25 102.213 85.426 93.281 85.426 93.281 73.659"></polyline>
            <path d="M106.644,78.983 L109.478,78.983 C110.632,78.983 111.258,78.489 111.258,77.302 C111.258,76.164 110.632,75.67 109.478,75.67 L106.644,75.67 L106.644,78.983 L106.644,78.983 Z M104.057,73.659 L110.401,73.659 C112.51,73.659 113.845,75.126 113.845,76.907 C113.845,78.29 113.285,79.328 111.983,79.856 L111.983,79.889 C113.252,80.219 113.615,81.454 113.697,82.641 C113.747,83.383 113.73,84.767 114.191,85.426 L111.604,85.426 C111.291,84.685 111.324,83.547 111.192,82.608 C111.011,81.372 110.533,80.828 109.231,80.828 L106.644,80.828 L106.644,85.426 L104.057,85.426 L104.057,73.659 L104.057,73.659 Z" id="Fill-228" fill="#FFFFFF"></path>
            <polyline id="Fill-229" fill="#FFFFFF" points="116.051 73.659 124.851 73.659 124.851 75.835 118.638 75.835 118.638 78.357 124.34 78.357 124.34 80.366 118.638 80.366 118.638 83.25 124.982 83.25 124.982 85.426 116.051 85.426 116.051 73.659"></polyline>
            <path d="M129.413,83.25 L131.72,83.25 C133.22,83.25 134.653,82.328 134.653,79.724 C134.653,77.351 133.83,75.835 131.258,75.835 L129.413,75.835 L129.413,83.25 L129.413,83.25 Z M126.826,73.659 L131.901,73.659 C134.95,73.659 137.241,75.572 137.241,79.477 C137.241,82.888 135.494,85.426 131.901,85.426 L126.826,85.426 L126.826,73.659 L126.826,73.659 Z" id="Fill-230" fill="#FFFFFF"></path>
            <polyline id="Fill-231" fill="#FFFFFF" points="73.118 103.595 78.455 103.595 78.455 104.914 74.687 104.914 74.687 106.443 78.145 106.443 78.145 107.662 74.687 107.662 74.687 109.411 78.535 109.411 78.535 110.731 73.118 110.731 73.118 103.595"></polyline>
            <polyline id="Fill-232" fill="#FFFFFF" points="79.678 103.595 81.237 103.595 84.215 108.382 84.235 108.382 84.235 103.595 85.705 103.595 85.705 110.731 84.135 110.731 81.167 105.953 81.147 105.953 81.147 110.731 79.678 110.731 79.678 103.595"></polyline>
            <polyline id="Fill-233" fill="#FFFFFF" points="140.356 71.125 147.995 78.61 140.356 86.097 143.977 86.097 151.628 78.61 143.97 71.125 140.356 71.125"></polyline>
            <polyline id="Fill-234" fill="#FFFFFF" points="18.045 71.125 10.407 78.61 18.045 86.097 14.425 86.097 6.774 78.61 14.432 71.125 18.045 71.125"></polyline>
        </g>
    </g>
</svg>