<?xml version="1.0" encoding="UTF-8"?>
<svg width="159px" height="159px" viewBox="0 0 159 159" version="1.1" xmlns="http://www.w3.org/2000/svg" xmlns:xlink="http://www.w3.org/1999/xlink">
    <!-- Generator: Sketch 40.3 (33839) - http://www.bohemiancoding.com/sketch -->
    <title>category-lg_ew</title>
    <desc>Created with Sketch.</desc>
    <defs></defs>
    <g id="Page-1" stroke="none" stroke-width="1" fill="none" fill-rule="evenodd">
        <g id="category-lg_ew" transform="translate(-1.000000, 0.000000)">
            <path d="M159.445,79.77 L159.445,0.543 L78.871,0.543 L78.871,0.576 C35.744,1.297 0.992,36.461 0.992,79.774 C0.992,123.532 36.465,159 80.215,159 C123.836,159 159.219,123.748 159.438,80.178 L159.445,80.178 L159.445,79.848 C159.445,79.824 159.447,79.799 159.447,79.774 C159.447,79.774 159.445,79.771 159.445,79.77" id="Fill-285" fill="#DA2F2A"></path>
            <path d="M132.689,29.976 L136.582,29.976 C137.928,29.976 139.254,30.585 139.254,32.125 C139.254,32.949 138.859,33.729 138.057,34.038 L138.057,34.06 C138.869,34.252 139.105,35.161 139.168,35.889 C139.189,36.209 139.223,37.332 139.49,37.611 L137.521,37.611 C137.352,37.354 137.318,36.605 137.297,36.391 C137.244,35.621 137.115,34.83 136.186,34.83 L134.678,34.83 L134.678,37.611 L132.689,37.611 L132.689,29.976 L132.689,29.976 Z M134.678,33.29 L136.346,33.29 C136.945,33.29 137.266,32.969 137.266,32.392 C137.266,31.825 136.816,31.569 136.26,31.569 L134.678,31.569 L134.678,33.29 L134.678,33.29 Z" id="Fill-287" fill="#FFFFFF"></path>
            <polyline id="Fill-288" fill="#FFFFFF" points="140.195 29.976 146.279 29.976 146.279 31.569 142.184 31.569 142.184 32.906 145.928 32.906 145.928 34.446 142.184 34.446 142.184 35.9 146.387 35.9 146.387 37.611 140.195 37.611 140.195 29.976"></polyline>
            <path d="M147.307,29.976 L150.59,29.976 C152.932,29.976 154.332,31.398 154.332,33.761 C154.332,36.263 152.91,37.611 150.59,37.611 L147.307,37.611 L147.307,29.976 L147.307,29.976 Z M149.295,35.9 L150.236,35.9 C151.744,35.867 152.344,35.28 152.344,33.75 C152.344,32.36 151.594,31.686 150.236,31.686 L149.295,31.686 L149.295,35.9 L149.295,35.9 Z" id="Fill-289" fill="#FFFFFF"></path>
            <polyline id="Fill-290" fill="#FFFFFF" points="132.689 38.395 134.678 38.395 134.678 44.319 138.238 44.319 138.238 46.03 132.689 46.03 132.689 38.395"></polyline>
            <polygon id="Fill-291" fill="#FFFFFF" points="138.795 46.03 140.783 46.03 140.783 38.395 138.795 38.395"></polygon>
            <path d="M143.285,43.463 C143.328,44.362 143.885,44.65 144.729,44.65 C145.328,44.65 145.949,44.436 145.949,43.869 C145.949,43.196 144.857,43.068 143.756,42.757 C142.666,42.448 141.521,41.955 141.521,40.555 C141.521,38.887 143.201,38.235 144.633,38.235 C146.152,38.235 147.682,38.972 147.691,40.694 L145.703,40.694 C145.734,39.998 145.082,39.774 144.473,39.774 C144.045,39.774 143.51,39.924 143.51,40.426 C143.51,41.014 144.611,41.121 145.725,41.432 C146.826,41.741 147.938,42.255 147.938,43.634 C147.938,45.57 146.291,46.19 144.611,46.19 C142.857,46.19 141.309,45.42 141.297,43.463 L143.285,43.463" id="Fill-292" fill="#FFFFFF"></path>
            <polyline id="Fill-293" fill="#FFFFFF" points="154.225 40.106 151.947 40.106 151.947 46.03 149.959 46.03 149.959 40.106 147.682 40.106 147.682 38.395 154.225 38.395 154.225 40.106"></polyline>
            <path d="M147.449,12.114 C145.916,13.594 145.588,15.739 146.713,16.905 C147.84,18.071 149.996,17.816 151.527,16.335 C153.061,14.855 153.391,12.71 152.264,11.544 C151.137,10.378 148.98,10.634 147.449,12.114" id="Fill-294" fill="#FFFFFF"></path>
            <path d="M146.223,19.311 C144.691,20.791 144.361,22.936 145.488,24.101 C146.615,25.268 148.77,25.012 150.301,23.532 C151.834,22.052 152.162,19.907 151.037,18.74 C149.912,17.574 147.756,17.83 146.223,19.311" id="Fill-295" fill="#FFFFFF"></path>
            <path d="M135.695,8.782 C134.162,10.263 133.832,12.407 134.959,13.574 C136.086,14.739 138.24,14.484 139.773,13.003 C141.305,11.524 141.635,9.378 140.508,8.212 C139.383,7.047 137.227,7.301 135.695,8.782" id="Fill-296" fill="#FFFFFF"></path>
            <path d="M142.949,7.647 C141.416,9.127 141.086,11.272 142.211,12.437 C143.34,13.603 145.494,13.349 147.027,11.867 C148.559,10.388 148.889,8.241 147.762,7.076 C146.637,5.91 144.48,6.166 142.949,7.647" id="Fill-298" fill="#FFFFFF"></path>
            <path d="M144.338,20.752 C144.338,24.082 141.637,26.782 138.307,26.782 C134.977,26.782 132.277,24.082 132.277,20.752 C132.277,17.422 134.977,14.723 138.307,14.723 C141.637,14.723 144.338,17.422 144.338,20.752" id="Fill-300" fill="#FFFFFF"></path>
            <path d="M130.332,17.142 C130.332,22.453 126.025,26.757 120.717,26.757 C115.406,26.757 111.102,22.453 111.102,17.142 C111.102,11.833 115.406,7.529 120.717,7.529 L130.344,7.529 L130.332,17.142" id="Fill-301" fill="#FFFFFF"></path>
            <path d="M130.438,38.222 C130.438,43.565 126.105,47.897 120.762,47.897 C115.42,47.897 111.088,43.565 111.088,38.222 C111.088,32.878 115.42,28.547 120.762,28.547 C126.105,28.547 130.438,32.878 130.438,38.222" id="Fill-302" fill="#FFFFFF"></path>
            <polygon id="Fill-303" fill="#DA2F2A" points="116.449 39.24 116.877 39.24 116.877 37.293 116.449 37.293"></polygon>
            <path d="M118.633,39.092 C118.484,39.22 118.281,39.284 118.021,39.284 C117.758,39.284 117.553,39.221 117.408,39.093 C117.264,38.966 117.191,38.77 117.191,38.504 L117.191,37.293 L117.619,37.293 L117.619,38.504 C117.619,38.557 117.625,38.609 117.633,38.659 C117.643,38.71 117.662,38.756 117.691,38.795 C117.721,38.833 117.76,38.865 117.813,38.89 C117.863,38.914 117.934,38.927 118.021,38.927 C118.174,38.927 118.279,38.893 118.338,38.824 C118.396,38.756 118.424,38.65 118.424,38.504 L118.424,37.293 L118.854,37.293 L118.854,38.504 C118.854,38.768 118.779,38.964 118.633,39.092" id="Fill-304" fill="#DA2F2A"></path>
            <path d="M120.416,37.813 C120.391,37.772 120.359,37.736 120.32,37.704 C120.283,37.674 120.24,37.65 120.191,37.632 C120.143,37.615 120.092,37.607 120.039,37.607 C119.943,37.607 119.861,37.625 119.795,37.662 C119.727,37.699 119.672,37.75 119.631,37.813 C119.588,37.875 119.559,37.947 119.539,38.027 C119.52,38.107 119.51,38.19 119.51,38.275 C119.51,38.357 119.52,38.437 119.539,38.514 C119.559,38.591 119.588,38.66 119.631,38.722 C119.672,38.784 119.727,38.833 119.795,38.871 C119.861,38.908 119.943,38.927 120.039,38.927 C120.172,38.927 120.273,38.887 120.348,38.807 C120.42,38.727 120.465,38.621 120.482,38.49 L120.896,38.49 C120.887,38.613 120.857,38.722 120.813,38.821 C120.768,38.919 120.707,39.002 120.633,39.072 C120.557,39.141 120.471,39.194 120.371,39.23 C120.27,39.266 120.16,39.284 120.039,39.284 C119.891,39.284 119.756,39.258 119.637,39.206 C119.518,39.155 119.418,39.083 119.336,38.992 C119.254,38.902 119.191,38.795 119.148,38.672 C119.104,38.549 119.082,38.417 119.082,38.275 C119.082,38.129 119.104,37.994 119.148,37.869 C119.191,37.745 119.254,37.637 119.336,37.543 C119.418,37.45 119.518,37.378 119.637,37.325 C119.756,37.273 119.891,37.246 120.039,37.246 C120.146,37.246 120.248,37.262 120.344,37.293 C120.439,37.324 120.525,37.368 120.602,37.428 C120.676,37.487 120.738,37.56 120.787,37.648 C120.836,37.735 120.867,37.834 120.881,37.948 L120.465,37.948 C120.459,37.899 120.441,37.854 120.416,37.813" id="Fill-305" fill="#DA2F2A"></path>
            <polyline id="Fill-306" fill="#DA2F2A" points="121.561 37.293 122.373 38.6 122.379 38.6 122.379 37.293 122.779 37.293 122.779 39.24 122.352 39.24 121.541 37.937 121.535 37.937 121.535 39.24 121.135 39.24 121.135 37.293 121.561 37.293"></polyline>
            <path d="M120.529,40.306 C120.494,40.345 120.457,40.384 120.42,40.421 C119.855,40.985 119.078,41.333 118.219,41.333 C117.357,41.333 116.58,40.985 116.016,40.421 C115.453,39.857 115.105,39.08 115.104,38.219 C115.105,37.359 115.453,36.581 116.016,36.017 C116.58,35.453 117.357,35.106 118.219,35.105 C119.078,35.106 119.855,35.453 120.42,36.017 C120.486,36.082 120.547,36.151 120.605,36.221 L121.877,36.221 C121.17,34.925 119.795,34.047 118.215,34.046 C115.912,34.047 114.045,35.913 114.045,38.217 C114.045,40.52 115.912,42.387 118.215,42.387 C119.758,42.387 121.104,41.55 121.826,40.306 L120.529,40.306" id="Fill-307" fill="#DA2F2A"></path>
            <path d="M155.121,31.611 C154.52,31.611 154.09,31.159 154.09,30.564 C154.09,29.933 154.566,29.516 155.121,29.516 C155.67,29.516 156.145,29.933 156.145,30.564 C156.145,31.194 155.67,31.611 155.121,31.611 L155.121,31.611 Z M155.121,29.699 C154.668,29.699 154.314,30.054 154.314,30.564 C154.314,31.039 154.623,31.428 155.121,31.428 C155.568,31.428 155.922,31.075 155.922,30.564 C155.922,30.054 155.568,29.699 155.121,29.699 L155.121,29.699 Z M155.65,30.765 C155.602,31.031 155.4,31.197 155.154,31.197 C154.795,31.197 154.561,30.924 154.561,30.564 C154.561,30.225 154.785,29.964 155.148,29.961 C155.404,29.961 155.611,30.11 155.646,30.384 L155.457,30.384 C155.428,30.241 155.309,30.143 155.148,30.143 C154.914,30.143 154.785,30.331 154.785,30.564 C154.785,30.807 154.928,31.014 155.154,31.014 C155.32,31.014 155.438,30.91 155.457,30.765 L155.65,30.765 L155.65,30.765 Z" id="Fill-308" fill="#FFFFFF"></path>
            <polyline id="Fill-309" fill="#FFFFFF" points="45.518 64.589 54.318 64.589 54.318 66.765 48.105 66.765 48.105 69.286 53.807 69.286 53.807 71.296 48.105 71.296 48.105 74.18 54.451 74.18 54.451 76.356 45.518 76.356 45.518 64.589"></polyline>
            <polyline id="Fill-310" fill="#FFFFFF" points="59.424 70.193 55.635 64.589 58.633 64.589 60.941 68.347 63.33 64.589 66.164 64.589 62.391 70.209 66.494 76.356 63.412 76.356 60.842 72.285 58.223 76.356 55.305 76.356 59.424 70.193"></polyline>
            <polyline id="Fill-311" fill="#FFFFFF" points="70.514 66.765 66.986 66.765 66.986 64.589 76.627 64.589 76.627 66.765 73.1 66.765 73.1 76.356 70.514 76.356 70.514 66.765"></polyline>
            <polygon id="Fill-312" fill="#FFFFFF" points="77.959 76.356 80.547 76.356 80.547 64.589 77.959 64.589"></polygon>
            <polyline id="Fill-313" fill="#FFFFFF" points="82.803 64.589 85.375 64.589 90.285 72.483 90.318 72.483 90.318 64.589 92.74 64.589 92.74 76.356 90.154 76.356 85.26 68.479 85.227 68.479 85.227 76.356 82.803 76.356 82.803 64.589"></polyline>
            <path d="M102.84,68.544 C102.674,67.374 101.555,66.485 100.268,66.485 C97.945,66.485 97.072,68.462 97.072,70.522 C97.072,72.483 97.945,74.46 100.268,74.46 C101.85,74.46 102.74,73.373 102.938,71.824 L105.443,71.824 C105.18,74.757 103.152,76.636 100.268,76.636 C96.627,76.636 94.484,73.916 94.484,70.522 C94.484,67.029 96.627,64.309 100.268,64.309 C102.855,64.309 105.031,65.825 105.344,68.544 L102.84,68.544" id="Fill-314" fill="#FFFFFF"></path>
            <polyline id="Fill-315" fill="#FFFFFF" points="109.791 66.765 106.264 66.765 106.264 64.589 115.904 64.589 115.904 66.765 112.379 66.765 112.379 76.356 109.791 76.356 109.791 66.765"></polyline>
            <polygon id="Fill-316" fill="#FFFFFF" points="30.611 93.832 33.199 93.832 33.199 82.066 30.611 82.066"></polygon>
            <polyline id="Fill-317" fill="#FFFFFF" points="35.439 82.066 38.01 82.066 42.922 89.959 42.953 89.959 42.953 82.066 45.377 82.066 45.377 93.832 42.789 93.832 37.895 85.955 37.861 85.955 37.861 93.832 35.439 93.832 35.439 82.066"></polyline>
            <polyline id="Fill-318" fill="#FFFFFF" points="54.768 84.241 51.24 84.241 51.24 82.066 60.881 82.066 60.881 84.241 57.354 84.241 57.354 93.832 54.768 93.832 54.768 84.241"></polyline>
            <polyline id="Fill-319" fill="#FFFFFF" points="62.195 82.066 64.783 82.066 64.783 86.581 69.547 86.581 69.547 82.066 72.133 82.066 72.133 93.832 69.547 93.832 69.547 88.756 64.783 88.756 64.783 93.832 62.195 93.832 62.195 82.066"></polyline>
            <polyline id="Fill-320" fill="#FFFFFF" points="74.371 82.066 83.172 82.066 83.172 84.241 76.959 84.241 76.959 86.763 82.66 86.763 82.66 88.773 76.959 88.773 76.959 91.657 83.305 91.657 83.305 93.832 74.371 93.832 74.371 82.066"></polyline>
            <polyline id="Fill-321" fill="#FFFFFF" points="100.768 93.832 98.197 93.832 96.203 85.824 96.17 85.824 94.209 93.832 91.59 93.832 88.475 82.066 91.063 82.066 92.924 90.074 92.957 90.074 95 82.066 97.424 82.066 99.434 90.174 99.467 90.174 101.395 82.066 103.932 82.066 100.768 93.832"></polyline>
            <polygon id="Fill-322" fill="#FFFFFF" points="105.082 93.832 107.67 93.832 107.67 82.066 105.082 82.066"></polygon>
            <polyline id="Fill-323" fill="#FFFFFF" points="109.91 82.066 112.498 82.066 112.498 91.657 118.232 91.657 118.232 93.832 109.91 93.832 109.91 82.066"></polyline>
            <path d="M122.234,91.657 L124.541,91.657 C126.041,91.657 127.475,90.735 127.475,88.13 C127.475,85.757 126.65,84.241 124.08,84.241 L122.234,84.241 L122.234,91.657 L122.234,91.657 Z M119.646,82.066 L124.723,82.066 C127.771,82.066 130.063,83.978 130.063,87.883 C130.063,91.294 128.316,93.832 124.723,93.832 L119.646,93.832 L119.646,82.066 L119.646,82.066 Z" id="Fill-324" fill="#FFFFFF"></path>
            <polyline id="Fill-325" fill="#FFFFFF" points="72.891 102.9 78.229 102.9 78.229 104.219 74.461 104.219 74.461 105.747 77.918 105.747 77.918 106.967 74.461 106.967 74.461 108.716 78.309 108.716 78.309 110.035 72.891 110.035 72.891 102.9"></polyline>
            <polyline id="Fill-326" fill="#FFFFFF" points="86.277 110.035 84.719 110.035 83.51 105.178 83.488 105.178 82.299 110.035 80.711 110.035 78.822 102.9 80.391 102.9 81.52 107.757 81.539 107.757 82.779 102.9 84.248 102.9 85.469 107.817 85.488 107.817 86.656 102.9 88.197 102.9 86.277 110.035"></polyline>
            <polyline id="Fill-327" fill="#FFFFFF" points="140.811 71.125 148.449 78.61 140.811 86.097 144.432 86.097 152.084 78.61 144.424 71.125 140.811 71.125"></polyline>
            <polyline id="Fill-328" fill="#FFFFFF" points="18.5 71.125 10.861 78.61 18.5 86.097 14.879 86.097 7.229 78.61 14.887 71.125 18.5 71.125"></polyline>
        </g>
    </g>
</svg>