<?xml version="1.0" encoding="UTF-8"?>
<svg width="159px" height="159px" viewBox="0 0 159 159" version="1.1" xmlns="http://www.w3.org/2000/svg" xmlns:xlink="http://www.w3.org/1999/xlink">
    <!-- Generator: Sketch 40.3 (33839) - http://www.bohemiancoding.com/sketch -->
    <title>category-lg_ex</title>
    <desc>Created with Sketch.</desc>
    <defs></defs>
    <g id="Page-1" stroke="none" stroke-width="1" fill="none" fill-rule="evenodd">
        <g id="category-lg_ex">
            <path d="M158.744,79.77 L158.744,0.543 L78.172,0.543 L78.172,0.576 C35.043,1.297 0.291,36.461 0.291,79.774 C0.291,123.531 35.766,158.999 79.514,158.999 C123.137,158.999 158.518,123.747 158.736,80.178 L158.744,80.178 L158.744,79.848 C158.744,79.824 158.746,79.799 158.746,79.774 C158.746,79.774 158.746,79.771 158.744,79.77" id="Fill-330" fill="#000000"></path>
            <path d="M131.988,29.976 L135.881,29.976 C137.229,29.976 138.553,30.585 138.553,32.125 C138.553,32.949 138.158,33.729 137.355,34.038 L137.355,34.06 C138.168,34.252 138.404,35.161 138.469,35.889 C138.49,36.209 138.521,37.332 138.789,37.611 L136.822,37.611 C136.65,37.354 136.619,36.605 136.598,36.391 C136.543,35.621 136.416,34.83 135.484,34.83 L133.977,34.83 L133.977,37.611 L131.988,37.611 L131.988,29.976 L131.988,29.976 Z M133.977,33.29 L135.645,33.29 C136.244,33.29 136.564,32.969 136.564,32.392 C136.564,31.825 136.115,31.569 135.561,31.569 L133.977,31.569 L133.977,33.29 L133.977,33.29 Z" id="Fill-332" fill="#FFFFFF"></path>
            <polyline id="Fill-333" fill="#FFFFFF" points="139.494 29.976 145.58 29.976 145.58 31.569 141.484 31.569 141.484 32.906 145.227 32.906 145.227 34.446 141.484 34.446 141.484 35.9 145.686 35.9 145.686 37.611 139.494 37.611 139.494 29.976"></polyline>
            <path d="M146.605,29.976 L149.889,29.976 C152.23,29.976 153.631,31.398 153.631,33.761 C153.631,36.263 152.209,37.611 149.889,37.611 L146.605,37.611 L146.605,29.976 L146.605,29.976 Z M148.596,35.9 L149.535,35.9 C151.043,35.867 151.643,35.28 151.643,33.75 C151.643,32.36 150.895,31.686 149.535,31.686 L148.596,31.686 L148.596,35.9 L148.596,35.9 Z" id="Fill-334" fill="#FFFFFF"></path>
            <polyline id="Fill-335" fill="#FFFFFF" points="131.988 38.395 133.977 38.395 133.977 44.319 137.537 44.319 137.537 46.03 131.988 46.03 131.988 38.395"></polyline>
            <polygon id="Fill-336" fill="#FFFFFF" points="138.094 46.03 140.082 46.03 140.082 38.395 138.094 38.395"></polygon>
            <path d="M142.586,43.463 C142.627,44.362 143.184,44.65 144.029,44.65 C144.627,44.65 145.248,44.436 145.248,43.869 C145.248,43.196 144.156,43.068 143.057,42.757 C141.965,42.448 140.82,41.955 140.82,40.555 C140.82,38.887 142.5,38.235 143.932,38.235 C145.451,38.235 146.98,38.972 146.99,40.694 L145.002,40.694 C145.033,39.998 144.381,39.774 143.771,39.774 C143.344,39.774 142.811,39.924 142.811,40.426 C142.811,41.014 143.91,41.121 145.023,41.432 C146.125,41.741 147.236,42.255 147.236,43.634 C147.236,45.57 145.59,46.19 143.91,46.19 C142.158,46.19 140.607,45.42 140.596,43.463 L142.586,43.463" id="Fill-337" fill="#FFFFFF"></path>
            <polyline id="Fill-338" fill="#FFFFFF" points="153.523 40.106 151.246 40.106 151.246 46.03 149.258 46.03 149.258 40.106 146.98 40.106 146.98 38.395 153.523 38.395 153.523 40.106"></polyline>
            <path d="M146.748,12.114 C145.215,13.594 144.887,15.739 146.012,16.905 C147.139,18.071 149.295,17.816 150.826,16.335 C152.359,14.855 152.689,12.71 151.563,11.544 C150.436,10.378 148.281,10.634 146.748,12.114" id="Fill-339" fill="#FFFFFF"></path>
            <path d="M145.521,19.311 C143.99,20.791 143.662,22.936 144.787,24.101 C145.914,25.268 148.068,25.012 149.6,23.532 C151.133,22.052 151.463,19.907 150.336,18.74 C149.211,17.574 147.055,17.83 145.521,19.311" id="Fill-340" fill="#FFFFFF"></path>
            <path d="M134.994,8.782 C133.461,10.263 133.133,12.407 134.258,13.574 C135.385,14.739 137.541,14.484 139.072,13.003 C140.604,11.524 140.934,9.378 139.807,8.212 C138.682,7.047 136.525,7.301 134.994,8.782" id="Fill-341" fill="#FFFFFF"></path>
            <path d="M142.248,7.647 C140.715,9.127 140.385,11.272 141.512,12.437 C142.639,13.603 144.793,13.349 146.326,11.867 C147.857,10.388 148.188,8.241 147.061,7.076 C145.936,5.91 143.779,6.166 142.248,7.647" id="Fill-343" fill="#FFFFFF"></path>
            <path d="M143.637,20.752 C143.637,24.082 140.938,26.782 137.607,26.782 C134.275,26.782 131.576,24.082 131.576,20.752 C131.576,17.422 134.275,14.723 137.607,14.723 C140.938,14.723 143.637,17.422 143.637,20.752" id="Fill-345" fill="#FFFFFF"></path>
            <path d="M129.631,17.142 C129.631,22.453 125.326,26.757 120.016,26.757 C114.707,26.757 110.402,22.453 110.402,17.142 C110.402,11.833 114.707,7.529 120.016,7.529 L129.645,7.529 L129.631,17.142" id="Fill-346" fill="#FFFFFF"></path>
            <path d="M129.736,38.222 C129.736,43.565 125.404,47.897 120.063,47.897 C114.719,47.897 110.389,43.565 110.389,38.222 C110.389,32.878 114.719,28.547 120.063,28.547 C125.404,28.547 129.736,32.878 129.736,38.222" id="Fill-347" fill="#FFFFFF"></path>
            <polygon id="Fill-348" fill="#FFFFFF" points="115.748 39.24 116.178 39.24 116.178 37.293 115.748 37.293"></polygon>
            <path d="M117.932,39.092 C117.783,39.22 117.58,39.284 117.32,39.284 C117.057,39.284 116.852,39.221 116.707,39.093 C116.563,38.966 116.49,38.77 116.49,38.504 L116.49,37.293 L116.92,37.293 L116.92,38.504 C116.92,38.557 116.924,38.609 116.934,38.659 C116.941,38.71 116.961,38.756 116.99,38.795 C117.02,38.833 117.059,38.865 117.111,38.89 C117.164,38.914 117.232,38.927 117.32,38.927 C117.473,38.927 117.578,38.893 117.637,38.824 C117.695,38.756 117.725,38.65 117.725,38.504 L117.725,37.293 L118.152,37.293 L118.152,38.504 C118.152,38.768 118.078,38.964 117.932,39.092" id="Fill-349" fill="#FFFFFF"></path>
            <path d="M119.715,37.813 C119.689,37.772 119.658,37.736 119.621,37.704 C119.582,37.674 119.539,37.65 119.49,37.632 C119.443,37.615 119.393,37.607 119.34,37.607 C119.242,37.607 119.16,37.625 119.094,37.662 C119.025,37.699 118.973,37.75 118.93,37.813 C118.889,37.875 118.857,37.947 118.838,38.027 C118.82,38.107 118.811,38.19 118.811,38.275 C118.811,38.357 118.82,38.437 118.838,38.514 C118.857,38.591 118.889,38.66 118.93,38.722 C118.973,38.784 119.025,38.833 119.094,38.871 C119.16,38.908 119.242,38.927 119.34,38.927 C119.471,38.927 119.572,38.887 119.646,38.807 C119.721,38.727 119.766,38.621 119.781,38.49 L120.195,38.49 C120.186,38.613 120.156,38.722 120.111,38.821 C120.066,38.919 120.006,39.002 119.932,39.072 C119.857,39.141 119.77,39.194 119.67,39.23 C119.568,39.266 119.459,39.284 119.34,39.284 C119.189,39.284 119.057,39.258 118.938,39.206 C118.818,39.155 118.717,39.083 118.635,38.992 C118.553,38.902 118.49,38.795 118.447,38.672 C118.404,38.549 118.381,38.417 118.381,38.275 C118.381,38.129 118.404,37.994 118.447,37.869 C118.49,37.745 118.553,37.637 118.635,37.543 C118.717,37.45 118.818,37.378 118.938,37.325 C119.057,37.273 119.189,37.246 119.34,37.246 C119.447,37.246 119.549,37.262 119.643,37.293 C119.738,37.324 119.824,37.368 119.9,37.428 C119.975,37.487 120.037,37.56 120.086,37.648 C120.137,37.735 120.166,37.834 120.18,37.948 L119.766,37.948 C119.758,37.899 119.74,37.854 119.715,37.813" id="Fill-350" fill="#FFFFFF"></path>
            <polyline id="Fill-351" fill="#FFFFFF" points="120.859 37.293 121.672 38.6 121.678 38.6 121.678 37.293 122.078 37.293 122.078 39.24 121.65 39.24 120.84 37.937 120.834 37.937 120.834 39.24 120.434 39.24 120.434 37.293 120.859 37.293"></polyline>
            <path d="M119.83,40.306 C119.793,40.345 119.758,40.384 119.719,40.421 C119.156,40.985 118.379,41.333 117.518,41.333 C116.656,41.333 115.881,40.985 115.316,40.421 C114.752,39.857 114.404,39.08 114.404,38.219 C114.404,37.359 114.752,36.581 115.316,36.017 C115.881,35.453 116.656,35.106 117.518,35.105 C118.379,35.106 119.156,35.453 119.719,36.017 C119.785,36.082 119.846,36.151 119.906,36.221 L121.178,36.221 C120.469,34.925 119.096,34.047 117.516,34.046 C115.211,34.047 113.344,35.913 113.344,38.217 C113.344,40.52 115.211,42.387 117.516,42.387 C119.057,42.387 120.402,41.55 121.125,40.306 L119.83,40.306" id="Fill-352" fill="#FFFFFF"></path>
            <path d="M154.42,31.611 C153.818,31.611 153.389,31.159 153.389,30.564 C153.389,29.933 153.865,29.516 154.42,29.516 C154.969,29.516 155.445,29.933 155.445,30.564 C155.445,31.194 154.969,31.611 154.42,31.611 L154.42,31.611 Z M154.42,29.699 C153.967,29.699 153.613,30.054 153.613,30.564 C153.613,31.039 153.922,31.428 154.42,31.428 C154.867,31.428 155.221,31.075 155.221,30.564 C155.221,30.054 154.867,29.699 154.42,29.699 L154.42,29.699 Z M154.949,30.765 C154.902,31.031 154.699,31.197 154.453,31.197 C154.096,31.197 153.859,30.924 153.859,30.564 C153.859,30.225 154.084,29.964 154.447,29.961 C154.703,29.961 154.91,30.11 154.945,30.384 L154.756,30.384 C154.729,30.241 154.607,30.143 154.447,30.143 C154.213,30.143 154.084,30.331 154.084,30.564 C154.084,30.807 154.227,31.014 154.453,31.014 C154.619,31.014 154.736,30.91 154.756,30.765 L154.949,30.765 L154.949,30.765 Z" id="Fill-353" fill="#FFFFFF"></path>
            <polyline id="Fill-354" fill="#FFFFFF" points="41.697 73.659 50.498 73.659 50.498 75.835 44.285 75.835 44.285 78.357 49.986 78.357 49.986 80.366 44.285 80.366 44.285 83.25 50.631 83.25 50.631 85.426 41.697 85.426 41.697 73.659"></polyline>
            <polyline id="Fill-355" fill="#FFFFFF" points="55.604 79.263 51.814 73.659 54.813 73.659 57.121 77.417 59.51 73.659 62.344 73.659 58.57 79.28 62.674 85.426 59.592 85.426 57.021 81.356 54.402 85.426 51.484 85.426 55.604 79.263"></polyline>
            <polyline id="Fill-356" fill="#FFFFFF" points="66.693 75.835 63.166 75.835 63.166 73.659 72.807 73.659 72.807 75.835 69.279 75.835 69.279 85.426 66.693 85.426 66.693 75.835"></polyline>
            <polygon id="Fill-357" fill="#FFFFFF" points="74.123 85.426 76.711 85.426 76.711 73.659 74.123 73.659"></polygon>
            <polyline id="Fill-358" fill="#FFFFFF" points="78.949 73.659 81.521 73.659 86.432 81.553 86.465 81.553 86.465 73.659 88.887 73.659 88.887 85.426 86.301 85.426 81.406 77.549 81.373 77.549 81.373 85.426 78.949 85.426 78.949 73.659"></polyline>
            <path d="M98.971,77.615 C98.805,76.445 97.686,75.555 96.398,75.555 C94.076,75.555 93.203,77.532 93.203,79.592 C93.203,81.553 94.076,83.531 96.398,83.531 C97.98,83.531 98.871,82.444 99.068,80.894 L101.574,80.894 C101.311,83.827 99.283,85.706 96.398,85.706 C92.758,85.706 90.615,82.987 90.615,79.592 C90.615,76.099 92.758,73.379 96.398,73.379 C98.986,73.379 101.162,74.896 101.475,77.615 L98.971,77.615" id="Fill-359" fill="#FFFFFF"></path>
            <polyline id="Fill-360" fill="#FFFFFF" points="105.92 75.835 102.393 75.835 102.393 73.659 112.033 73.659 112.033 75.835 108.506 75.835 108.506 85.426 105.92 85.426 105.92 75.835"></polyline>
            <polyline id="Fill-361" fill="#FFFFFF" points="70.414 103.595 75.752 103.595 75.752 104.914 71.984 104.914 71.984 106.443 75.441 106.443 75.441 107.662 71.984 107.662 71.984 109.411 75.832 109.411 75.832 110.731 70.414 110.731 70.414 103.595"></polyline>
            <polyline id="Fill-362" fill="#FFFFFF" points="78.844 106.992 76.545 103.595 78.363 103.595 79.764 105.873 81.213 103.595 82.932 103.595 80.643 107.003 83.131 110.731 81.262 110.731 79.703 108.262 78.113 110.731 76.346 110.731 78.844 106.992"></polyline>
        </g>
    </g>
</svg>