<?xml version="1.0" encoding="UTF-8"?>
<svg width="159px" height="159px" viewBox="0 0 159 159" version="1.1" xmlns="http://www.w3.org/2000/svg" xmlns:xlink="http://www.w3.org/1999/xlink">
    <!-- Generator: Sketch 40.3 (33839) - http://www.bohemiancoding.com/sketch -->
    <title>category-lg_lc</title>
    <desc>Created with Sketch.</desc>
    <defs></defs>
    <g id="Page-1" stroke="none" stroke-width="1" fill="none" fill-rule="evenodd">
        <g id="category-lg_lc" transform="translate(-1.000000, 0.000000)">
            <path d="M159.445,79.738 L159.445,0.511 L78.872,0.511 L78.872,0.545 C35.744,1.265 0.992,36.429 0.992,79.742 C0.992,123.499 36.465,158.968 80.215,158.968 C123.836,158.968 159.219,123.716 159.438,80.146 L159.445,80.146 L159.445,79.817 C159.445,79.792 159.447,79.767 159.447,79.742 C159.447,79.741 159.445,79.739 159.445,79.738" id="Fill-78" fill="#DA2F2A"></path>
            <path d="M132.688,29.944 L136.58,29.944 C137.928,29.944 139.254,30.553 139.254,32.093 C139.254,32.917 138.858,33.697 138.057,34.007 L138.057,34.029 C138.869,34.221 139.104,35.13 139.168,35.857 C139.189,36.178 139.223,37.301 139.489,37.578 L137.521,37.578 C137.351,37.322 137.318,36.573 137.297,36.36 C137.244,35.59 137.115,34.799 136.186,34.799 L134.678,34.799 L134.678,37.578 L132.688,37.578 L132.688,29.944 L132.688,29.944 Z M134.678,33.259 L136.346,33.259 C136.944,33.259 137.266,32.938 137.266,32.361 C137.266,31.794 136.816,31.537 136.26,31.537 L134.678,31.537 L134.678,33.259 L134.678,33.259 Z" id="Fill-79" fill="#FFFFFF"></path>
            <polyline id="Fill-80" fill="#FFFFFF" points="140.195 29.944 146.279 29.944 146.279 31.537 142.184 31.537 142.184 32.874 145.927 32.874 145.927 34.413 142.184 34.413 142.184 35.868 146.387 35.868 146.387 37.578 140.195 37.578 140.195 29.944"></polyline>
            <path d="M147.307,29.944 L150.59,29.944 C152.932,29.944 154.332,31.366 154.332,33.729 C154.332,36.232 152.91,37.578 150.59,37.578 L147.307,37.578 L147.307,29.944 L147.307,29.944 Z M149.295,35.868 L150.236,35.868 C151.744,35.836 152.343,35.248 152.343,33.718 C152.343,32.328 151.594,31.655 150.236,31.655 L149.295,31.655 L149.295,35.868 L149.295,35.868 Z" id="Fill-81" fill="#FFFFFF"></path>
            <polyline id="Fill-82" fill="#FFFFFF" points="132.688 38.363 134.678 38.363 134.678 44.287 138.238 44.287 138.238 45.998 132.688 45.998 132.688 38.363"></polyline>
            <polygon id="Fill-83" fill="#FFFFFF" points="138.795 45.997 140.783 45.997 140.783 38.363 138.795 38.363"></polygon>
            <path d="M143.285,43.432 C143.328,44.33 143.885,44.618 144.729,44.618 C145.328,44.618 145.948,44.405 145.948,43.838 C145.948,43.164 144.857,43.036 143.756,42.726 C142.666,42.416 141.521,41.924 141.521,40.523 C141.521,38.855 143.2,38.203 144.633,38.203 C146.151,38.203 147.68,38.941 147.691,40.662 L145.702,40.662 C145.734,39.967 145.082,39.742 144.473,39.742 C144.045,39.742 143.51,39.892 143.51,40.395 C143.51,40.983 144.611,41.09 145.724,41.4 C146.824,41.71 147.938,42.223 147.938,43.603 C147.938,45.538 146.291,46.158 144.611,46.158 C142.857,46.158 141.307,45.388 141.297,43.432 L143.285,43.432" id="Fill-84" fill="#FFFFFF"></path>
            <polyline id="Fill-85" fill="#FFFFFF" points="154.225 40.074 151.947 40.074 151.947 45.998 149.959 45.998 149.959 40.074 147.681 40.074 147.681 38.363 154.225 38.363 154.225 40.074"></polyline>
            <path d="M147.449,12.082 C145.916,13.563 145.586,15.707 146.713,16.873 C147.84,18.039 149.994,17.784 151.527,16.304 C153.06,14.823 153.389,12.678 152.263,11.513 C151.137,10.347 148.98,10.603 147.449,12.082" id="Fill-86" fill="#FFFFFF"></path>
            <path d="M146.223,19.28 C144.691,20.759 144.361,22.905 145.488,24.07 C146.613,25.236 148.77,24.981 150.301,23.501 C151.834,22.02 152.162,19.875 151.037,18.709 C149.912,17.543 147.756,17.799 146.223,19.28" id="Fill-87" fill="#FFFFFF"></path>
            <path d="M135.694,8.75 C134.162,10.231 133.832,12.376 134.959,13.542 C136.084,14.707 138.24,14.452 139.772,12.972 C141.305,11.492 141.634,9.346 140.508,8.181 C139.383,7.015 137.227,7.27 135.694,8.75" id="Fill-88" fill="#FFFFFF"></path>
            <path d="M142.947,7.615 C141.416,9.096 141.086,11.24 142.211,12.405 C143.338,13.571 145.494,13.317 147.025,11.836 C148.559,10.356 148.888,8.21 147.762,7.045 C146.636,5.879 144.48,6.135 142.947,7.615" id="Fill-90" fill="#FFFFFF"></path>
            <path d="M144.337,20.721 C144.337,24.051 141.637,26.751 138.307,26.751 C134.977,26.751 132.277,24.051 132.277,20.721 C132.277,17.391 134.977,14.692 138.307,14.692 C141.637,14.692 144.337,17.391 144.337,20.721" id="Fill-92" fill="#FFFFFF"></path>
            <path d="M130.332,17.111 C130.332,22.422 126.025,26.726 120.717,26.726 C115.406,26.726 111.102,22.422 111.102,17.111 C111.102,11.801 115.406,7.497 120.717,7.497 L130.344,7.497 L130.332,17.111" id="Fill-93" fill="#FFFFFF"></path>
            <path d="M130.438,38.191 C130.438,43.533 126.105,47.865 120.762,47.865 C115.42,47.865 111.088,43.533 111.088,38.191 C111.088,32.846 115.42,28.516 120.762,28.516 C126.105,28.516 130.438,32.846 130.438,38.191" id="Fill-94" fill="#FFFFFF"></path>
            <polygon id="Fill-95" fill="#DA2F2A" points="116.449 39.209 116.877 39.209 116.877 37.261 116.449 37.261"></polygon>
            <path d="M118.632,39.061 C118.484,39.189 118.281,39.253 118.021,39.253 C117.757,39.253 117.553,39.189 117.408,39.062 C117.264,38.935 117.191,38.738 117.191,38.473 L117.191,37.261 L117.619,37.261 L117.619,38.473 C117.619,38.526 117.624,38.577 117.633,38.628 C117.643,38.679 117.661,38.724 117.69,38.763 C117.719,38.802 117.76,38.834 117.813,38.859 C117.863,38.883 117.934,38.896 118.021,38.896 C118.174,38.896 118.279,38.862 118.337,38.793 C118.395,38.725 118.424,38.618 118.424,38.473 L118.424,37.261 L118.853,37.261 L118.853,38.473 C118.853,38.737 118.779,38.932 118.632,39.061" id="Fill-96" fill="#DA2F2A"></path>
            <path d="M120.416,37.781 C120.391,37.74 120.359,37.704 120.32,37.673 C120.283,37.642 120.239,37.618 120.191,37.601 C120.143,37.584 120.092,37.575 120.039,37.575 C119.943,37.575 119.861,37.594 119.794,37.631 C119.727,37.668 119.672,37.718 119.631,37.781 C119.588,37.844 119.559,37.915 119.539,37.995 C119.52,38.075 119.51,38.158 119.51,38.243 C119.51,38.326 119.52,38.405 119.539,38.482 C119.559,38.56 119.588,38.629 119.631,38.691 C119.672,38.753 119.727,38.802 119.794,38.84 C119.861,38.877 119.943,38.896 120.039,38.896 C120.17,38.896 120.273,38.856 120.347,38.776 C120.42,38.696 120.465,38.59 120.481,38.459 L120.896,38.459 C120.885,38.581 120.857,38.691 120.813,38.789 C120.766,38.887 120.707,38.971 120.632,39.04 C120.557,39.11 120.47,39.162 120.369,39.198 C120.27,39.235 120.16,39.253 120.039,39.253 C119.891,39.253 119.756,39.227 119.637,39.175 C119.518,39.123 119.418,39.052 119.336,38.961 C119.254,38.87 119.191,38.763 119.147,38.64 C119.104,38.518 119.082,38.385 119.082,38.243 C119.082,38.098 119.104,37.963 119.147,37.838 C119.191,37.714 119.254,37.605 119.336,37.512 C119.418,37.419 119.518,37.347 119.637,37.294 C119.756,37.241 119.891,37.215 120.039,37.215 C120.146,37.215 120.248,37.23 120.344,37.261 C120.439,37.292 120.525,37.337 120.6,37.396 C120.676,37.455 120.738,37.529 120.787,37.616 C120.836,37.703 120.867,37.803 120.88,37.916 L120.465,37.916 C120.458,37.866 120.441,37.822 120.416,37.781" id="Fill-97" fill="#DA2F2A"></path>
            <polyline id="Fill-98" fill="#DA2F2A" points="121.56 37.261 122.373 38.568 122.378 38.568 122.378 37.261 122.779 37.261 122.779 39.209 122.351 39.209 121.541 37.905 121.535 37.905 121.535 39.209 121.134 39.209 121.134 37.261 121.56 37.261"></polyline>
            <path d="M120.529,40.275 C120.494,40.314 120.457,40.352 120.42,40.39 C119.855,40.953 119.078,41.302 118.219,41.302 C117.357,41.302 116.58,40.953 116.016,40.39 C115.451,39.826 115.104,39.049 115.104,38.188 C115.104,37.327 115.451,36.55 116.016,35.986 C116.58,35.422 117.357,35.074 118.219,35.073 C119.078,35.074 119.855,35.422 120.42,35.986 C120.485,36.051 120.547,36.118 120.605,36.19 L121.877,36.19 C121.17,34.894 119.795,34.015 118.215,34.015 C115.912,34.015 114.045,35.882 114.045,38.186 C114.045,40.488 115.912,42.356 118.215,42.356 C119.758,42.356 121.104,41.519 121.824,40.275 L120.529,40.275" id="Fill-99" fill="#DA2F2A"></path>
            <path d="M155.12,31.579 C154.518,31.579 154.09,31.128 154.09,30.532 C154.09,29.902 154.566,29.485 155.12,29.485 C155.669,29.485 156.145,29.902 156.145,30.532 C156.145,31.161 155.669,31.579 155.12,31.579 L155.12,31.579 Z M155.12,29.667 C154.666,29.667 154.314,30.022 154.314,30.532 C154.314,31.008 154.622,31.397 155.12,31.397 C155.568,31.397 155.922,31.044 155.922,30.532 C155.922,30.022 155.568,29.667 155.12,29.667 L155.12,29.667 Z M155.649,30.734 C155.602,30.999 155.4,31.164 155.154,31.164 C154.795,31.164 154.561,30.893 154.561,30.532 C154.561,30.193 154.784,29.933 155.148,29.93 C155.402,29.93 155.61,30.078 155.646,30.353 L155.457,30.353 C155.428,30.21 155.309,30.112 155.148,30.112 C154.913,30.112 154.784,30.3 154.784,30.532 C154.784,30.776 154.928,30.983 155.154,30.983 C155.318,30.983 155.438,30.879 155.457,30.734 L155.649,30.734 L155.649,30.734 Z" id="Fill-100" fill="#FFFFFF"></path>
            <polyline id="Fill-101" fill="#FFFFFF" points="55.511 64.698 58.098 64.698 58.098 74.29 63.833 74.29 63.833 76.465 55.511 76.465 55.511 64.698"></polyline>
            <polyline id="Fill-102" fill="#FFFFFF" points="65.149 64.698 73.949 64.698 73.949 66.874 67.736 66.874 67.736 69.395 73.438 69.395 73.438 71.406 67.736 71.406 67.736 74.29 74.081 74.29 74.081 76.465 65.149 76.465 65.149 64.698"></polyline>
            <path d="M79.149,71.917 L82.197,71.917 L80.714,67.599 L80.681,67.599 L79.149,71.917 L79.149,71.917 Z M79.396,64.698 L82.049,64.698 L86.449,76.465 L83.764,76.465 L82.873,73.845 L78.473,73.845 L77.55,76.465 L74.93,76.465 L79.396,64.698 L79.396,64.698 Z" id="Fill-103" fill="#FFFFFF"></path>
            <path d="M89.199,72.559 C89.199,74.125 90.418,74.735 91.803,74.735 C92.709,74.735 94.094,74.471 94.094,73.268 C94.094,71.999 92.33,71.785 90.6,71.323 C88.853,70.862 87.09,70.186 87.09,67.978 C87.09,65.572 89.363,64.419 91.489,64.419 C93.945,64.419 96.203,65.489 96.203,68.209 L93.697,68.209 C93.615,66.792 92.609,66.429 91.374,66.429 C90.551,66.429 89.594,66.775 89.594,67.764 C89.594,68.67 90.154,68.785 93.104,69.544 C93.961,69.758 96.598,70.302 96.598,72.971 C96.598,75.13 94.9,76.745 91.703,76.745 C89.1,76.745 86.66,75.46 86.693,72.559 L89.199,72.559" id="Fill-104" fill="#FFFFFF"></path>
            <polyline id="Fill-105" fill="#FFFFFF" points="100.699 66.874 97.172 66.874 97.172 64.698 106.813 64.698 106.813 66.874 103.286 66.874 103.286 76.465 100.699 76.465 100.699 66.874"></polyline>
            <path d="M47.535,86.13 C47.37,84.96 46.249,84.071 44.964,84.071 C42.64,84.071 41.767,86.048 41.767,88.108 C41.767,90.069 42.64,92.047 44.964,92.047 C46.546,92.047 47.436,90.959 47.633,89.41 L50.138,89.41 C49.875,92.343 47.848,94.222 44.964,94.222 C41.322,94.222 39.179,91.503 39.179,88.108 C39.179,84.614 41.322,81.895 44.964,81.895 C47.551,81.895 49.726,83.411 50.04,86.13 L47.535,86.13" id="Fill-106" fill="#FFFFFF"></path>
            <path d="M57.14,92.047 C59.463,92.047 60.336,90.069 60.336,88.108 C60.336,86.048 59.463,84.071 57.14,84.071 C54.816,84.071 53.942,86.048 53.942,88.108 C53.942,90.069 54.816,92.047 57.14,92.047 L57.14,92.047 Z M57.14,81.895 C60.782,81.895 62.924,84.614 62.924,88.108 C62.924,91.503 60.782,94.222 57.14,94.222 C53.498,94.222 51.355,91.503 51.355,88.108 C51.355,84.614 53.498,81.895 57.14,81.895 L57.14,81.895 Z" id="Fill-107" fill="#FFFFFF"></path>
            <polyline id="Fill-108" fill="#FFFFFF" points="64.651 82.175 67.222 82.175 72.133 90.069 72.166 90.069 72.166 82.175 74.588 82.175 74.588 93.942 72.001 93.942 67.107 86.065 67.074 86.065 67.074 93.942 64.651 93.942 64.651 82.175"></polyline>
            <path d="M84.672,86.13 C84.506,84.96 83.386,84.071 82.101,84.071 C79.777,84.071 78.903,86.048 78.903,88.108 C78.903,90.069 79.777,92.047 82.101,92.047 C83.683,92.047 84.572,90.959 84.77,89.41 L87.275,89.41 C87.012,92.343 84.984,94.222 82.101,94.222 C78.458,94.222 76.316,91.503 76.316,88.108 C76.316,84.614 78.458,81.895 82.101,81.895 C84.688,81.895 86.863,83.411 87.176,86.13 L84.672,86.13" id="Fill-109" fill="#FFFFFF"></path>
            <polyline id="Fill-110" fill="#FFFFFF" points="89.089 82.175 97.889 82.175 97.889 84.351 91.676 84.351 91.676 86.872 97.378 86.872 97.378 88.883 91.676 88.883 91.676 91.766 98.021 91.766 98.021 93.942 89.089 93.942 89.089 82.175"></polyline>
            <path d="M102.484,87.498 L105.318,87.498 C106.473,87.498 107.098,87.004 107.098,85.817 C107.098,84.68 106.473,84.186 105.318,84.186 L102.484,84.186 L102.484,87.498 L102.484,87.498 Z M99.896,82.175 L106.242,82.175 C108.352,82.175 109.686,83.642 109.686,85.422 C109.686,86.806 109.125,87.844 107.824,88.371 L107.824,88.405 C109.092,88.734 109.455,89.97 109.537,91.156 C109.587,91.898 109.57,93.282 110.031,93.942 L107.444,93.942 C107.131,93.2 107.164,92.063 107.033,91.124 C106.852,89.888 106.373,89.344 105.071,89.344 L102.484,89.344 L102.484,93.942 L99.896,93.942 L99.896,82.175 L99.896,82.175 Z" id="Fill-111" fill="#FFFFFF"></path>
            <polyline id="Fill-112" fill="#FFFFFF" points="111.808 82.175 114.379 82.175 119.289 90.069 119.322 90.069 119.322 82.175 121.744 82.175 121.744 93.942 119.157 93.942 114.264 86.065 114.23 86.065 114.23 93.942 111.808 93.942 111.808 82.175"></polyline>
            <polyline id="Fill-113" fill="#FFFFFF" points="74.922 103.009 76.492 103.009 76.492 108.825 79.97 108.825 79.97 110.145 74.922 110.145 74.922 103.009"></polyline>
            <path d="M85.229,105.407 C85.13,104.698 84.45,104.158 83.67,104.158 C82.262,104.158 81.731,105.357 81.731,106.607 C81.731,107.796 82.262,108.995 83.67,108.995 C84.63,108.995 85.17,108.336 85.289,107.396 L86.809,107.396 C86.648,109.176 85.42,110.315 83.67,110.315 C81.462,110.315 80.163,108.666 80.163,106.607 C80.163,104.488 81.462,102.839 83.67,102.839 C85.24,102.839 86.559,103.758 86.749,105.407 L85.229,105.407" id="Fill-114" fill="#FFFFFF"></path>
            <polyline id="Fill-115" fill="#FFFFFF" points="142.134 71.094 149.771 78.578 142.134 86.066 145.754 86.066 153.406 78.578 145.747 71.094 142.134 71.094"></polyline>
        </g>
    </g>
</svg>