<?xml version="1.0" encoding="UTF-8"?>
<svg width="160px" height="159px" viewBox="0 0 160 159" version="1.1" xmlns="http://www.w3.org/2000/svg" xmlns:xlink="http://www.w3.org/1999/xlink">
    <!-- Generator: Sketch 40.3 (33839) - http://www.bohemiancoding.com/sketch -->
    <title>category-lg_nt</title>
    <desc>Created with Sketch.</desc>
    <defs></defs>
    <g id="Page-1" stroke="none" stroke-width="1" fill="none" fill-rule="evenodd">
        <g id="category-lg_nt">
            <path d="M159.084,79.738 L159.084,0.511 L78.51,0.511 L78.51,0.545 C35.383,1.265 0.631,36.429 0.631,79.742 C0.631,123.499 36.104,158.968 79.854,158.968 C123.475,158.968 158.857,123.716 159.076,80.146 L159.084,80.146 L159.084,79.817 C159.084,79.792 159.086,79.767 159.086,79.742 C159.086,79.741 159.084,79.739 159.084,79.738" id="Fill-116" fill="#DA2F2A"></path>
            <path d="M132.326,29.944 L136.219,29.944 C137.566,29.944 138.893,30.553 138.893,32.093 C138.893,32.917 138.496,33.697 137.695,34.007 L137.695,34.029 C138.508,34.221 138.742,35.13 138.807,35.857 C138.828,36.178 138.859,37.301 139.127,37.579 L137.16,37.579 C136.988,37.322 136.957,36.573 136.936,36.36 C136.883,35.59 136.754,34.799 135.824,34.799 L134.316,34.799 L134.316,37.579 L132.326,37.579 L132.326,29.944 L132.326,29.944 Z M134.316,33.259 L135.984,33.259 C136.582,33.259 136.904,32.938 136.904,32.361 C136.904,31.794 136.455,31.537 135.898,31.537 L134.316,31.537 L134.316,33.259 L134.316,33.259 Z" id="Fill-117" fill="#FFFFFF"></path>
            <polyline id="Fill-118" fill="#FFFFFF" points="139.834 29.944 145.918 29.944 145.918 31.537 141.822 31.537 141.822 32.874 145.564 32.874 145.564 34.413 141.822 34.413 141.822 35.868 146.025 35.868 146.025 37.579 139.834 37.579 139.834 29.944"></polyline>
            <path d="M146.945,29.944 L150.227,29.944 C152.568,29.944 153.971,31.366 153.971,33.73 C153.971,36.232 152.547,37.579 150.227,37.579 L146.945,37.579 L146.945,29.944 L146.945,29.944 Z M148.934,35.868 L149.875,35.868 C151.383,35.836 151.98,35.248 151.98,33.718 C151.98,32.328 151.232,31.655 149.875,31.655 L148.934,31.655 L148.934,35.868 L148.934,35.868 Z" id="Fill-119" fill="#FFFFFF"></path>
            <polyline id="Fill-120" fill="#FFFFFF" points="132.326 38.363 134.316 38.363 134.316 44.287 137.877 44.287 137.877 45.998 132.326 45.998 132.326 38.363"></polyline>
            <polygon id="Fill-121" fill="#FFFFFF" points="138.434 45.997 140.422 45.997 140.422 38.363 138.434 38.363"></polygon>
            <path d="M142.924,43.432 C142.967,44.33 143.523,44.618 144.367,44.618 C144.967,44.618 145.586,44.405 145.586,43.838 C145.586,43.164 144.496,43.036 143.395,42.726 C142.303,42.416 141.16,41.924 141.16,40.523 C141.16,38.855 142.838,38.203 144.271,38.203 C145.789,38.203 147.318,38.941 147.33,40.662 L145.34,40.662 C145.373,39.967 144.721,39.742 144.111,39.742 C143.684,39.742 143.148,39.892 143.148,40.395 C143.148,40.983 144.25,41.09 145.361,41.4 C146.463,41.71 147.574,42.223 147.574,43.603 C147.574,45.538 145.928,46.158 144.25,46.158 C142.496,46.158 140.945,45.389 140.936,43.432 L142.924,43.432" id="Fill-122" fill="#FFFFFF"></path>
            <polyline id="Fill-123" fill="#FFFFFF" points="153.863 40.074 151.586 40.074 151.586 45.998 149.596 45.998 149.596 40.074 147.318 40.074 147.318 38.363 153.863 38.363 153.863 40.074"></polyline>
            <path d="M147.088,12.082 C145.555,13.563 145.225,15.707 146.352,16.873 C147.477,18.039 149.633,17.784 151.166,16.304 C152.697,14.823 153.027,12.678 151.9,11.513 C150.775,10.347 148.619,10.603 147.088,12.082" id="Fill-124" fill="#FFFFFF"></path>
            <path d="M145.861,19.28 C144.328,20.759 144,22.905 145.125,24.07 C146.252,25.236 148.406,24.981 149.938,23.501 C151.473,22.02 151.801,19.875 150.674,18.709 C149.549,17.543 147.395,17.799 145.861,19.28" id="Fill-125" fill="#FFFFFF"></path>
            <path d="M135.332,8.75 C133.801,10.231 133.471,12.376 134.598,13.542 C135.723,14.707 137.879,14.452 139.41,12.972 C140.943,11.492 141.271,9.346 140.146,8.181 C139.02,7.015 136.863,7.27 135.332,8.75" id="Fill-126" fill="#FFFFFF"></path>
            <path d="M142.586,7.615 C141.055,9.096 140.725,11.24 141.85,12.405 C142.977,13.571 145.131,13.317 146.664,11.836 C148.197,10.356 148.525,8.21 147.398,7.045 C146.273,5.879 144.119,6.135 142.586,7.615" id="Fill-128" fill="#FFFFFF"></path>
            <path d="M143.975,20.721 C143.975,24.051 141.275,26.751 137.945,26.751 C134.615,26.751 131.916,24.051 131.916,20.721 C131.916,17.391 134.615,14.692 137.945,14.692 C141.275,14.692 143.975,17.391 143.975,20.721" id="Fill-130" fill="#FFFFFF"></path>
            <path d="M129.971,17.111 C129.971,22.422 125.664,26.726 120.355,26.726 C115.045,26.726 110.74,22.422 110.74,17.111 C110.74,11.801 115.045,7.497 120.355,7.497 L129.982,7.497 L129.971,17.111" id="Fill-131" fill="#FFFFFF"></path>
            <path d="M130.076,38.191 C130.076,43.533 125.744,47.865 120.4,47.865 C115.059,47.865 110.727,43.533 110.727,38.191 C110.727,32.846 115.059,28.516 120.4,28.516 C125.744,28.516 130.076,32.846 130.076,38.191" id="Fill-132" fill="#FFFFFF"></path>
            <polygon id="Fill-133" fill="#DA2F2A" points="116.088 39.209 116.516 39.209 116.516 37.261 116.088 37.261"></polygon>
            <path d="M118.27,39.061 C118.123,39.189 117.918,39.253 117.658,39.253 C117.395,39.253 117.191,39.189 117.047,39.062 C116.902,38.935 116.83,38.738 116.83,38.473 L116.83,37.261 L117.258,37.261 L117.258,38.473 C117.258,38.526 117.262,38.577 117.271,38.628 C117.281,38.679 117.299,38.724 117.328,38.763 C117.357,38.802 117.398,38.834 117.449,38.859 C117.502,38.883 117.572,38.896 117.658,38.896 C117.811,38.896 117.916,38.862 117.975,38.793 C118.033,38.725 118.063,38.618 118.063,38.473 L118.063,37.261 L118.49,37.261 L118.49,38.473 C118.49,38.737 118.418,38.932 118.27,39.061" id="Fill-134" fill="#DA2F2A"></path>
            <path d="M120.055,37.781 C120.029,37.74 119.996,37.704 119.959,37.673 C119.92,37.642 119.877,37.618 119.83,37.601 C119.781,37.584 119.73,37.575 119.678,37.575 C119.582,37.575 119.5,37.594 119.432,37.631 C119.365,37.668 119.311,37.718 119.268,37.781 C119.227,37.844 119.195,37.915 119.178,37.995 C119.158,38.075 119.148,38.158 119.148,38.243 C119.148,38.326 119.158,38.405 119.178,38.482 C119.195,38.56 119.227,38.629 119.268,38.691 C119.311,38.753 119.365,38.802 119.432,38.84 C119.5,38.877 119.582,38.896 119.678,38.896 C119.809,38.896 119.91,38.856 119.984,38.776 C120.059,38.696 120.104,38.59 120.119,38.459 L120.535,38.459 C120.523,38.581 120.496,38.691 120.449,38.789 C120.404,38.887 120.344,38.971 120.27,39.04 C120.195,39.11 120.107,39.162 120.008,39.198 C119.908,39.235 119.799,39.253 119.678,39.253 C119.529,39.253 119.395,39.227 119.275,39.175 C119.156,39.123 119.055,39.052 118.975,38.961 C118.893,38.87 118.83,38.763 118.785,38.64 C118.742,38.518 118.721,38.385 118.721,38.243 C118.721,38.098 118.742,37.963 118.785,37.838 C118.83,37.714 118.893,37.605 118.975,37.512 C119.055,37.419 119.156,37.347 119.275,37.294 C119.395,37.241 119.529,37.215 119.678,37.215 C119.785,37.215 119.887,37.23 119.982,37.261 C120.078,37.292 120.162,37.337 120.238,37.396 C120.314,37.455 120.377,37.529 120.426,37.616 C120.475,37.703 120.506,37.803 120.518,37.916 L120.104,37.916 C120.096,37.867 120.08,37.822 120.055,37.781" id="Fill-135" fill="#DA2F2A"></path>
            <polyline id="Fill-136" fill="#DA2F2A" points="121.197 37.261 122.01 38.568 122.016 38.568 122.016 37.261 122.418 37.261 122.418 39.209 121.988 39.209 121.178 37.905 121.174 37.905 121.174 39.209 120.771 39.209 120.771 37.261 121.197 37.261"></polyline>
            <path d="M120.168,40.275 C120.133,40.314 120.096,40.352 120.059,40.39 C119.494,40.953 118.717,41.302 117.857,41.302 C116.996,41.302 116.219,40.953 115.654,40.39 C115.09,39.826 114.742,39.049 114.742,38.188 C114.742,37.327 115.09,36.55 115.654,35.986 C116.219,35.422 116.996,35.074 117.857,35.073 C118.717,35.074 119.494,35.422 120.059,35.986 C120.123,36.051 120.186,36.119 120.244,36.19 L121.516,36.19 C120.809,34.894 119.434,34.015 117.854,34.015 C115.551,34.015 113.684,35.882 113.684,38.186 C113.684,40.488 115.551,42.356 117.854,42.356 C119.395,42.356 120.742,41.519 121.463,40.275 L120.168,40.275" id="Fill-137" fill="#DA2F2A"></path>
            <path d="M154.758,31.579 C154.156,31.579 153.729,31.128 153.729,30.532 C153.729,29.902 154.205,29.485 154.758,29.485 C155.307,29.485 155.783,29.902 155.783,30.532 C155.783,31.162 155.307,31.579 154.758,31.579 L154.758,31.579 Z M154.758,29.667 C154.305,29.667 153.951,30.022 153.951,30.532 C153.951,31.008 154.26,31.397 154.758,31.397 C155.207,31.397 155.559,31.044 155.559,30.532 C155.559,30.022 155.207,29.667 154.758,29.667 L154.758,29.667 Z M155.287,30.734 C155.24,30.999 155.039,31.165 154.793,31.165 C154.434,31.165 154.199,30.893 154.199,30.532 C154.199,30.193 154.422,29.933 154.787,29.93 C155.041,29.93 155.248,30.078 155.285,30.353 L155.094,30.353 C155.066,30.21 154.945,30.112 154.787,30.112 C154.551,30.112 154.422,30.3 154.422,30.532 C154.422,30.776 154.564,30.983 154.793,30.983 C154.957,30.983 155.074,30.879 155.094,30.734 L155.287,30.734 L155.287,30.734 Z" id="Fill-138" fill="#FFFFFF"></path>
            <polyline id="Fill-139" fill="#FFFFFF" points="58.064 64.425 60.637 64.425 65.547 72.319 65.58 72.319 65.58 64.425 68.002 64.425 68.002 76.192 65.416 76.192 60.521 68.315 60.488 68.315 60.488 76.192 58.064 76.192 58.064 64.425"></polyline>
            <polyline id="Fill-140" fill="#FFFFFF" points="70.34 64.425 79.141 64.425 79.141 66.601 72.928 66.601 72.928 69.122 78.629 69.122 78.629 71.133 72.928 71.133 72.928 74.016 79.271 74.016 79.271 76.192 70.34 76.192 70.34 64.425"></polyline>
            <path d="M84.336,71.643 L87.385,71.643 L85.902,67.325 L85.869,67.325 L84.336,71.643 L84.336,71.643 Z M84.584,64.425 L87.236,64.425 L91.637,76.192 L88.951,76.192 L88.061,73.571 L83.66,73.571 L82.738,76.192 L80.117,76.192 L84.584,64.425 L84.584,64.425 Z" id="Fill-141" fill="#FFFFFF"></path>
            <path d="M95.326,69.748 L98.16,69.748 C99.313,69.748 99.939,69.254 99.939,68.067 C99.939,66.93 99.313,66.436 98.16,66.436 L95.326,66.436 L95.326,69.748 L95.326,69.748 Z M92.738,64.425 L99.082,64.425 C101.191,64.425 102.527,65.892 102.527,67.672 C102.527,69.056 101.967,70.094 100.664,70.621 L100.664,70.655 C101.934,70.984 102.297,72.22 102.379,73.406 C102.428,74.148 102.412,75.532 102.873,76.192 L100.285,76.192 C99.973,75.45 100.006,74.313 99.873,73.374 C99.693,72.138 99.215,71.594 97.912,71.594 L95.326,71.594 L95.326,76.192 L92.738,76.192 L92.738,64.425 L92.738,64.425 Z" id="Fill-142" fill="#FFFFFF"></path>
            <polyline id="Fill-143" fill="#FFFFFF" points="28.279 84.07 24.752 84.07 24.752 81.894 34.393 81.894 34.393 84.07 30.865 84.07 30.865 93.66 28.279 93.66 28.279 84.07"></polyline>
            <polyline id="Fill-144" fill="#FFFFFF" points="35.709 81.894 38.297 81.894 38.297 86.409 43.059 86.409 43.059 81.894 45.646 81.894 45.646 93.66 43.059 93.66 43.059 88.585 38.297 88.585 38.297 93.66 35.709 93.66 35.709 81.894"></polyline>
            <path d="M50.471,87.217 L53.305,87.217 C54.459,87.217 55.086,86.722 55.086,85.536 C55.086,84.399 54.459,83.905 53.305,83.905 L50.471,83.905 L50.471,87.217 L50.471,87.217 Z M47.883,81.894 L54.229,81.894 C56.338,81.894 57.672,83.361 57.672,85.14 C57.672,86.525 57.111,87.563 55.811,88.09 L55.811,88.123 C57.08,88.453 57.441,89.689 57.523,90.875 C57.574,91.617 57.557,93.001 58.018,93.66 L55.432,93.66 C55.117,92.919 55.15,91.781 55.02,90.842 C54.838,89.607 54.359,89.063 53.059,89.063 L50.471,89.063 L50.471,93.66 L47.883,93.66 L47.883,81.894 L47.883,81.894 Z" id="Fill-145" fill="#FFFFFF"></path>
            <polyline id="Fill-146" fill="#FFFFFF" points="59.746 81.894 68.547 81.894 68.547 84.07 62.334 84.07 62.334 86.591 68.035 86.591 68.035 88.601 62.334 88.601 62.334 91.485 68.678 91.485 68.678 93.66 59.746 93.66 59.746 81.894"></polyline>
            <path d="M73.836,89.112 L76.885,89.112 L75.402,84.794 L75.369,84.794 L73.836,89.112 L73.836,89.112 Z M74.084,81.894 L76.736,81.894 L81.137,93.66 L78.451,93.66 L77.561,91.04 L73.16,91.04 L72.238,93.66 L69.617,93.66 L74.084,81.894 L74.084,81.894 Z" id="Fill-147" fill="#FFFFFF"></path>
            <polyline id="Fill-148" fill="#FFFFFF" points="83.541 84.07 80.014 84.07 80.014 81.894 89.654 81.894 89.654 84.07 86.127 84.07 86.127 93.66 83.541 93.66 83.541 84.07"></polyline>
            <polyline id="Fill-149" fill="#FFFFFF" points="90.916 81.894 99.717 81.894 99.717 84.07 93.504 84.07 93.504 86.591 99.205 86.591 99.205 88.601 93.504 88.601 93.504 91.485 99.85 91.485 99.85 93.66 90.916 93.66 90.916 81.894"></polyline>
            <polyline id="Fill-150" fill="#FFFFFF" points="101.725 81.894 104.297 81.894 109.207 89.788 109.24 89.788 109.24 81.894 111.662 81.894 111.662 93.66 109.076 93.66 104.182 85.783 104.148 85.783 104.148 93.66 101.725 93.66 101.725 81.894"></polyline>
            <polyline id="Fill-151" fill="#FFFFFF" points="114.064 81.894 122.865 81.894 122.865 84.07 116.652 84.07 116.652 86.591 122.354 86.591 122.354 88.601 116.652 88.601 116.652 91.485 122.998 91.485 122.998 93.66 114.064 93.66 114.064 81.894"></polyline>
            <path d="M127.461,91.485 L129.768,91.485 C131.268,91.485 132.701,90.562 132.701,87.958 C132.701,85.585 131.877,84.07 129.307,84.07 L127.461,84.07 L127.461,91.485 L127.461,91.485 Z M124.873,81.894 L129.949,81.894 C132.998,81.894 135.289,83.806 135.289,87.711 C135.289,91.122 133.543,93.66 129.949,93.66 L124.873,93.66 L124.873,81.894 L124.873,81.894 Z" id="Fill-152" fill="#FFFFFF"></path>
            <polygon id="Fill-153" fill="#FFFFFF" points="75.725 102.727 78.703 107.515 78.723 107.515 78.723 102.727 80.191 102.727 80.191 109.864 78.623 109.864 75.654 105.086 75.635 105.086 75.635 109.864 74.164 109.864 74.164 102.727"></polygon>
            <polyline id="Fill-154" fill="#FFFFFF" points="83.104 104.047 80.965 104.047 80.965 102.727 86.813 102.727 86.813 104.047 84.674 104.047 84.674 109.864 83.104 109.864 83.104 104.047"></polyline>
            <polyline id="Fill-155" fill="#FFFFFF" points="141.395 71.094 149.033 78.578 141.395 86.066 145.016 86.066 152.666 78.578 145.008 71.094 141.395 71.094"></polyline>
            <polyline id="Fill-156" fill="#FFFFFF" points="19.084 71.094 11.445 78.578 19.084 86.066 15.463 86.066 7.811 78.578 15.471 71.094 19.084 71.094"></polyline>
        </g>
    </g>
</svg>