<?xml version="1.0" encoding="UTF-8"?>
<svg width="159px" height="159px" viewBox="0 0 159 159" version="1.1" xmlns="http://www.w3.org/2000/svg" xmlns:xlink="http://www.w3.org/1999/xlink">
    <!-- Generator: Sketch 40.3 (33839) - http://www.bohemiancoding.com/sketch -->
    <title>category-lg_vu</title>
    <desc>Created with Sketch.</desc>
    <defs></defs>
    <g id="Page-1" stroke="none" stroke-width="1" fill="none" fill-rule="evenodd">
        <g id="category-lg_vu">
            <path d="M158.454,79.77 L158.454,0.543 L77.88,0.543 L77.88,0.576 C34.752,1.297 0,36.461 0,79.774 C0,123.532 35.474,159 79.224,159 C122.845,159 158.227,123.748 158.446,80.178 L158.454,80.178 L158.454,79.848 C158.454,79.824 158.456,79.799 158.456,79.774 C158.456,79.774 158.454,79.771 158.454,79.77" id="Fill-158" fill="#DA2F2A"></path>
            <path d="M131.697,29.976 L135.589,29.976 C136.937,29.976 138.262,30.585 138.262,32.125 C138.262,32.949 137.867,33.729 137.065,34.038 L137.065,34.06 C137.877,34.252 138.113,35.161 138.177,35.889 C138.198,36.209 138.23,37.332 138.498,37.611 L136.53,37.611 C136.359,37.354 136.327,36.605 136.306,36.391 C136.252,35.621 136.124,34.83 135.193,34.83 L133.686,34.83 L133.686,37.611 L131.697,37.611 L131.697,29.976 L131.697,29.976 Z M133.686,33.29 L135.354,33.29 C135.953,33.29 136.273,32.969 136.273,32.392 C136.273,31.825 135.824,31.569 135.269,31.569 L133.686,31.569 L133.686,33.29 L133.686,33.29 Z" id="Fill-160" fill="#FFFFFF"></path>
            <polyline id="Fill-161" fill="#FFFFFF" points="139.204 29.976 145.288 29.976 145.288 31.569 141.192 31.569 141.192 32.906 144.935 32.906 144.935 34.446 141.192 34.446 141.192 35.9 145.395 35.9 145.395 37.611 139.204 37.611 139.204 29.976"></polyline>
            <path d="M146.315,29.976 L149.598,29.976 C151.939,29.976 153.34,31.398 153.34,33.761 C153.34,36.263 151.918,37.611 149.598,37.611 L146.315,37.611 L146.315,29.976 L146.315,29.976 Z M148.304,35.9 L149.245,35.9 C150.752,35.867 151.351,35.28 151.351,33.75 C151.351,32.36 150.603,31.686 149.245,31.686 L148.304,31.686 L148.304,35.9 L148.304,35.9 Z" id="Fill-162" fill="#FFFFFF"></path>
            <polyline id="Fill-163" fill="#FFFFFF" points="131.697 38.395 133.686 38.395 133.686 44.319 137.247 44.319 137.247 46.03 131.697 46.03 131.697 38.395"></polyline>
            <polygon id="Fill-164" fill="#FFFFFF" points="137.803 46.03 139.792 46.03 139.792 38.395 137.803 38.395"></polygon>
            <path d="M142.294,43.463 C142.336,44.362 142.893,44.65 143.737,44.65 C144.336,44.65 144.957,44.436 144.957,43.869 C144.957,43.196 143.866,43.068 142.765,42.757 C141.674,42.448 140.53,41.955 140.53,40.555 C140.53,38.887 142.208,38.235 143.641,38.235 C145.16,38.235 146.689,38.972 146.699,40.694 L144.71,40.694 C144.743,39.998 144.09,39.774 143.481,39.774 C143.053,39.774 142.519,39.924 142.519,40.426 C142.519,41.014 143.62,41.121 144.732,41.432 C145.833,41.741 146.945,42.255 146.945,43.634 C146.945,45.57 145.299,46.19 143.62,46.19 C141.866,46.19 140.316,45.42 140.305,43.463 L142.294,43.463" id="Fill-165" fill="#FFFFFF"></path>
            <polyline id="Fill-166" fill="#FFFFFF" points="153.233 40.106 150.956 40.106 150.956 46.03 148.966 46.03 148.966 40.106 146.689 40.106 146.689 38.395 153.233 38.395 153.233 40.106"></polyline>
            <path d="M146.457,12.114 C144.924,13.594 144.595,15.739 145.721,16.905 C146.847,18.071 149.003,17.816 150.535,16.335 C152.068,14.855 152.398,12.71 151.271,11.544 C150.145,10.378 147.989,10.634 146.457,12.114" id="Fill-167" fill="#FFFFFF"></path>
            <path d="M145.231,19.311 C143.699,20.791 143.37,22.936 144.496,24.101 C145.623,25.268 147.777,25.012 149.309,23.532 C150.842,22.052 151.171,19.907 150.044,18.74 C148.919,17.574 146.764,17.83 145.231,19.311" id="Fill-168" fill="#FFFFFF"></path>
            <path d="M134.703,8.782 C133.17,10.263 132.841,12.407 133.967,13.574 C135.093,14.739 137.249,14.484 138.781,13.003 C140.313,11.524 140.642,9.378 139.516,8.212 C138.391,7.047 136.234,7.301 134.703,8.782" id="Fill-169" fill="#FFFFFF"></path>
            <path d="M141.957,7.647 C140.424,9.127 140.094,11.272 141.22,12.437 C142.347,13.603 144.502,13.349 146.035,11.867 C147.566,10.388 147.896,8.241 146.77,7.076 C145.644,5.91 143.489,6.166 141.957,7.647" id="Fill-171" fill="#FFFFFF"></path>
            <path d="M143.345,20.752 C143.345,24.082 140.646,26.782 137.315,26.782 C133.985,26.782 131.285,24.082 131.285,20.752 C131.285,17.422 133.985,14.723 137.315,14.723 C140.646,14.723 143.345,17.422 143.345,20.752" id="Fill-173" fill="#FFFFFF"></path>
            <path d="M129.34,17.142 C129.34,22.453 125.034,26.757 119.725,26.757 C114.415,26.757 110.11,22.453 110.11,17.142 C110.11,11.833 114.415,7.529 119.725,7.529 L129.353,7.529 L129.34,17.142" id="Fill-174" fill="#FFFFFF"></path>
            <path d="M129.446,38.222 C129.446,43.565 125.114,47.897 119.771,47.897 C114.428,47.897 110.097,43.565 110.097,38.222 C110.097,32.878 114.428,28.547 119.771,28.547 C125.114,28.547 129.446,32.878 129.446,38.222" id="Fill-175" fill="#FFFFFF"></path>
            <polygon id="Fill-176" fill="#DA2F2A" points="115.458 39.24 115.886 39.24 115.886 37.293 115.458 37.293"></polygon>
            <path d="M117.64,39.092 C117.493,39.22 117.289,39.284 117.029,39.284 C116.765,39.284 116.561,39.221 116.417,39.093 C116.271,38.966 116.199,38.77 116.199,38.504 L116.199,37.293 L116.628,37.293 L116.628,38.504 C116.628,38.557 116.632,38.609 116.642,38.659 C116.65,38.71 116.669,38.756 116.699,38.795 C116.728,38.833 116.768,38.865 116.82,38.89 C116.872,38.914 116.941,38.927 117.029,38.927 C117.182,38.927 117.287,38.893 117.345,38.824 C117.404,38.756 117.433,38.65 117.433,38.504 L117.433,37.293 L117.861,37.293 L117.861,38.504 C117.861,38.768 117.788,38.964 117.64,39.092" id="Fill-177" fill="#DA2F2A"></path>
            <path d="M119.424,37.813 C119.399,37.772 119.367,37.736 119.329,37.704 C119.291,37.674 119.248,37.65 119.199,37.632 C119.151,37.615 119.101,37.607 119.048,37.607 C118.952,37.607 118.87,37.625 118.802,37.662 C118.735,37.699 118.681,37.75 118.639,37.813 C118.597,37.875 118.566,37.947 118.547,38.027 C118.528,38.107 118.519,38.19 118.519,38.275 C118.519,38.357 118.528,38.437 118.547,38.514 C118.566,38.591 118.597,38.66 118.639,38.722 C118.681,38.784 118.735,38.833 118.802,38.871 C118.87,38.908 118.952,38.927 119.048,38.927 C119.179,38.927 119.281,38.887 119.355,38.807 C119.429,38.727 119.474,38.621 119.49,38.49 L119.905,38.49 C119.894,38.613 119.866,38.722 119.82,38.821 C119.774,38.919 119.714,39.002 119.64,39.072 C119.565,39.141 119.478,39.194 119.378,39.23 C119.278,39.266 119.168,39.284 119.048,39.284 C118.899,39.284 118.765,39.258 118.646,39.206 C118.526,39.155 118.426,39.083 118.344,38.992 C118.262,38.902 118.199,38.795 118.156,38.672 C118.112,38.549 118.09,38.417 118.09,38.275 C118.09,38.129 118.112,37.994 118.156,37.869 C118.199,37.745 118.262,37.637 118.344,37.543 C118.426,37.45 118.526,37.378 118.646,37.325 C118.765,37.273 118.899,37.246 119.048,37.246 C119.155,37.246 119.257,37.262 119.352,37.293 C119.448,37.324 119.533,37.368 119.609,37.428 C119.684,37.487 119.747,37.56 119.795,37.648 C119.845,37.735 119.875,37.834 119.888,37.948 L119.474,37.948 C119.466,37.899 119.45,37.854 119.424,37.813" id="Fill-178" fill="#DA2F2A"></path>
            <polyline id="Fill-179" fill="#DA2F2A" points="120.568 37.293 121.381 38.6 121.386 38.6 121.386 37.293 121.788 37.293 121.788 39.24 121.359 39.24 120.548 37.937 120.543 37.937 120.543 39.24 120.142 39.24 120.142 37.293 120.568 37.293"></polyline>
            <path d="M119.538,40.306 C119.502,40.345 119.466,40.384 119.428,40.421 C118.864,40.985 118.087,41.333 117.227,41.333 C116.366,41.333 115.589,40.985 115.024,40.421 C114.46,39.857 114.112,39.08 114.112,38.219 C114.112,37.359 114.46,36.581 115.024,36.017 C115.589,35.453 116.366,35.106 117.227,35.105 C118.087,35.106 118.864,35.453 119.428,36.017 C119.494,36.082 119.555,36.151 119.614,36.221 L120.886,36.221 C120.178,34.925 118.804,34.047 117.224,34.046 C114.92,34.047 113.053,35.913 113.053,38.217 C113.053,40.52 114.92,42.387 117.224,42.387 C118.765,42.387 120.112,41.55 120.833,40.306 L119.538,40.306" id="Fill-180" fill="#DA2F2A"></path>
            <path d="M154.128,31.611 C153.526,31.611 153.098,31.159 153.098,30.564 C153.098,29.933 153.574,29.516 154.128,29.516 C154.677,29.516 155.153,29.933 155.153,30.564 C155.153,31.194 154.677,31.611 154.128,31.611 L154.128,31.611 Z M154.128,29.699 C153.675,29.699 153.322,30.054 153.322,30.564 C153.322,31.039 153.63,31.428 154.128,31.428 C154.577,31.428 154.929,31.075 154.929,30.564 C154.929,30.054 154.577,29.699 154.128,29.699 L154.128,29.699 Z M154.658,30.765 C154.61,31.031 154.409,31.197 154.162,31.197 C153.804,31.197 153.569,30.924 153.569,30.564 C153.569,30.225 153.792,29.964 154.157,29.961 C154.412,29.961 154.619,30.11 154.655,30.384 L154.464,30.384 C154.437,30.241 154.316,30.143 154.157,30.143 C153.921,30.143 153.792,30.331 153.792,30.564 C153.792,30.807 153.936,31.014 154.162,31.014 C154.328,31.014 154.445,30.91 154.464,30.765 L154.658,30.765 L154.658,30.765 Z" id="Fill-181" fill="#FFFFFF"></path>
            <polyline id="Fill-182" fill="#FFFFFF" points="30.615 85.426 27.698 85.426 23.874 73.659 26.544 73.659 29.165 81.932 29.197 81.932 31.851 73.659 34.52 73.659 30.615 85.426"></polyline>
            <path d="M45.625,80.977 C45.625,84.157 43.747,85.706 40.599,85.706 C37.435,85.706 35.589,84.174 35.589,80.977 L35.589,73.659 L38.176,73.659 L38.176,80.977 C38.176,82.262 38.506,83.531 40.599,83.531 C42.445,83.531 43.038,82.723 43.038,80.977 L43.038,73.659 L45.625,73.659 L45.625,80.977" id="Fill-183" fill="#FFFFFF"></path>
            <polyline id="Fill-184" fill="#FFFFFF" points="47.909 73.659 50.497 73.659 50.497 83.25 56.231 83.25 56.231 85.426 47.909 85.426 47.909 73.659"></polyline>
            <polyline id="Fill-185" fill="#FFFFFF" points="57.547 73.659 60.118 73.659 65.029 81.553 65.062 81.553 65.062 73.659 67.484 73.659 67.484 85.426 64.897 85.426 60.002 77.549 59.97 77.549 59.97 85.426 57.547 85.426 57.547 73.659"></polyline>
            <polyline id="Fill-186" fill="#FFFFFF" points="69.808 73.659 78.607 73.659 78.607 75.835 72.395 75.835 72.395 78.357 78.097 78.357 78.097 80.366 72.395 80.366 72.395 83.25 78.739 83.25 78.739 85.426 69.808 85.426 69.808 73.659"></polyline>
            <path d="M83.203,78.983 L86.038,78.983 C87.191,78.983 87.817,78.489 87.817,77.302 C87.817,76.164 87.191,75.67 86.038,75.67 L83.203,75.67 L83.203,78.983 L83.203,78.983 Z M80.616,73.659 L86.96,73.659 C89.07,73.659 90.404,75.126 90.404,76.907 C90.404,78.29 89.844,79.328 88.543,79.856 L88.543,79.889 C89.811,80.219 90.174,81.454 90.256,82.641 C90.306,83.383 90.289,84.767 90.75,85.426 L88.163,85.426 C87.85,84.685 87.883,83.547 87.751,82.608 C87.57,81.372 87.092,80.828 85.79,80.828 L83.203,80.828 L83.203,85.426 L80.616,85.426 L80.616,73.659 L80.616,73.659 Z" id="Fill-187" fill="#FFFFFF"></path>
            <path d="M95.829,80.877 L98.877,80.877 L97.394,76.56 L97.361,76.56 L95.829,80.877 L95.829,80.877 Z M96.076,73.659 L98.729,73.659 L103.129,85.426 L100.443,85.426 L99.553,82.806 L95.153,82.806 L94.23,85.426 L91.61,85.426 L96.076,73.659 L96.076,73.659 Z" id="Fill-188" fill="#FFFFFF"></path>
            <path d="M106.818,83.415 L109.586,83.415 C110.608,83.415 111.498,83.086 111.498,81.866 C111.498,80.663 110.74,80.186 109.636,80.186 L106.818,80.186 L106.818,83.415 L106.818,83.415 Z M106.818,78.422 L109.438,78.422 C110.344,78.422 111.02,78.01 111.02,77.022 C111.02,75.901 110.163,75.67 109.24,75.67 L106.818,75.67 L106.818,78.422 L106.818,78.422 Z M104.23,73.659 L109.768,73.659 C112.009,73.659 113.525,74.385 113.525,76.576 C113.525,77.73 112.948,78.537 111.926,79.032 C113.36,79.444 114.085,80.548 114.085,82.015 C114.085,84.405 112.058,85.426 109.932,85.426 L104.23,85.426 L104.23,73.659 L104.23,73.659 Z" id="Fill-189" fill="#FFFFFF"></path>
            <polyline id="Fill-190" fill="#FFFFFF" points="115.886 73.659 118.473 73.659 118.473 83.25 124.208 83.25 124.208 85.426 115.886 85.426 115.886 73.659"></polyline>
            <polyline id="Fill-191" fill="#FFFFFF" points="125.524 73.659 134.324 73.659 134.324 75.835 128.111 75.835 128.111 78.357 133.813 78.357 133.813 80.366 128.111 80.366 128.111 83.25 134.456 83.25 134.456 85.426 125.524 85.426 125.524 73.659"></polyline>
            <polyline id="Fill-192" fill="#FFFFFF" points="76.655 110.731 74.886 110.731 72.567 103.595 74.186 103.595 75.775 108.612 75.795 108.612 77.404 103.595 79.023 103.595 76.655 110.731"></polyline>
            <path d="M85.753,108.032 C85.753,109.961 84.614,110.901 82.705,110.901 C80.786,110.901 79.667,109.971 79.667,108.032 L79.667,103.595 L81.236,103.595 L81.236,108.032 C81.236,108.812 81.436,109.581 82.705,109.581 C83.824,109.581 84.184,109.092 84.184,108.032 L84.184,103.595 L85.753,103.595 L85.753,108.032" id="Fill-193" fill="#FFFFFF"></path>
            <polyline id="Fill-194" fill="#FFFFFF" points="141.095 71.125 148.733 78.61 141.095 86.097 144.715 86.097 152.367 78.61 144.708 71.125 141.095 71.125"></polyline>
            <polyline id="Fill-195" fill="#FFFFFF" points="18.784 71.125 11.146 78.61 18.784 86.097 15.163 86.097 7.512 78.61 15.17 71.125 18.784 71.125"></polyline>
        </g>
    </g>
</svg>