<?xml version="1.0" encoding="UTF-8" standalone="no"?><!DOCTYPE svg PUBLIC "-//W3C//DTD SVG 1.1//EN"
        "http://www.w3.org/Graphics/SVG/1.1/DTD/svg11.dtd">
<svg width="100%" height="100%" viewBox="0 0 2550 1994" version="1.1"
     xmlns="http://www.w3.org/2000/svg"
     xmlns:xlink="http://www.w3.org/1999/xlink" xml:space="preserve"
     xmlns:serif="http://www.serif.com/"
     style="fill-rule:evenodd;clip-rule:evenodd;stroke-linecap:round;stroke-linejoin:round;stroke-miterlimit:1.5;">
    <MetaInfo xmlns="http://www.prognoz.ru"><Geo><GeoItem X="0" Y="0" Latitude="51.24177020918754" Longitude="7.105611562728882"/><GeoItem
            X="2550" Y="1994" Latitude="51.236776961813064" Longitude="7.115809321403503"/></Geo></MetaInfo>
        <path id="Alle-Wege-in-einem-Pfad" serif:id="Alle Wege in einem Pfad" d="M1665.93,361.635c2.072,-0.715 4.219,-1.62 5.456,-2.039" style="fill:none;stroke:#fe0000;stroke-width:2.08px;"/>
            <path id="Alle-Wege-in-einem-Pfad1" serif:id="Alle Wege in einem Pfad"
                  d="M1155.9,1219.51c-1.481,-3.311 -2.853,-6.666 -4.106,-10.059c-5.495,-14.878 -9.019,-34.39 -13.236,-52.573"
                  style="fill:none;stroke:#fe0000;stroke-width:2.08px;"/>
            <path d="M1155.9,1219.51c-11.666,-29.938 -0.16,-37.569 30.744,-26.525"
                  style="fill:none;stroke:#fe0000;stroke-width:2.08px;"/>
            <path d="M1186.65,1192.98c-14.015,-4.68 -30.401,-7.957 -39.813,-16.523c-5.169,-4.703 -6.392,-12.242 -8.271,-19.584"
                  style="fill:none;stroke:#fe0000;stroke-width:2.08px;"/>
        <path id="Alle-Wege-in-einem-Pfad2" serif:id="Alle Wege in einem Pfad"
              d="M1722.53,338.446c2.366,-1.088 3.836,-1.785 4.026,-1.906c1.035,-0.663 2.141,-1.343 3.307,-2.047"
              style="fill:none;stroke:#fe0000;stroke-width:2.08px;"/>
        <path id="Alle-Wege-in-einem-Pfad3" serif:id="Alle Wege in einem Pfad"
              d="M1083.55,718.032c-11.331,8.48 -20.503,15.956 -36.858,21.608c-16.952,5.858 -33.226,10.854 -50.164,13.248c-11.718,1.656 -27.626,3.076 -43.199,3.922"
              style="fill:none;stroke:#fe0000;stroke-width:2.08px;"/>
        <path id="Alle-Wege-in-einem-Pfad4" serif:id="Alle Wege in einem Pfad"
              d="M905.062,756.816c-13.666,-1.132 -27.889,-3.401 -39.922,-6.435c-15.786,-3.981 -63.212,-23.136 -75.634,-27.245c-2.62,-0.867 -5.338,-1.3 -8.102,-1.432"
              style="fill:none;stroke:#fe0000;stroke-width:2.08px;"/>
        <path id="Alle-Wege-in-einem-Pfad5" serif:id="Alle Wege in einem Pfad"
              d="M756.553,725.246c-8.803,2.33 -18.17,6.168 -28.006,10.218c-12.328,5.076 -29.294,10.374 -44.602,11.253c-12.567,0.721 -28.768,-2.244 -42.33,-5.132"
              style="fill:none;stroke:#fe0000;stroke-width:2.08px;"/>
            <path id="Alle-Wege-in-einem-Pfad6" serif:id="Alle Wege in einem Pfad"
                  d="M1640.25,1549.8c-6.869,3.235 -13.907,5.796 -20.017,6.312c-5.643,0.476 -12.576,-1.042 -19.796,-3.521"
                  style="fill:none;stroke:#fe0000;stroke-width:2.08px;"/>
            <path d="M1640.32,1565.11c-7.423,-1.699 -8.431,-10.921 -0.07,-15.306"
                  style="fill:none;stroke:#fe0000;stroke-width:2.08px;"/>
            <path d="M1640.25,1565.07c-13.918,-2.608 -26.043,-7.591 -39.898,-12.477"
                  style="fill:none;stroke:#fe0000;stroke-width:2.08px;"/>
        <path id="Alle-Wege-in-einem-Pfad7" serif:id="Alle Wege in einem Pfad"
              d="M586.449,711.409c-4.156,-6.755 -7.326,-14.629 -9.15,-22.847c-3.297,-14.856 -2.732,-33.804 -0.95,-50.001c1.783,-16.196 7.635,-32.042 11.167,-47.533c3.213,-14.086 7.102,-28.621 8.663,-43.032"
              style="fill:none;stroke:#fe0000;stroke-width:2.08px;"/>
        <path id="Alle-Wege-in-einem-Pfad8" serif:id="Alle Wege in einem Pfad"
              d="M604.569,543.355l7.302,6.695l-0.292,43.553l156.254,118.966"
              style="fill:none;stroke:#fe0000;stroke-width:2.08px;"/>
        <path id="Alle-Wege-in-einem-Pfad9" serif:id="Alle Wege in einem Pfad"
              d="M597.123,528.676c0.109,-12.777 -0.361,-26.262 0.73,-39.779c1.139,-14.11 2.168,-29.381 4.323,-44.032"
              style="fill:none;stroke:#fe0000;stroke-width:2.08px;"/>
        <path id="Alle-Wege-in-einem-Pfad10" serif:id="Alle Wege in einem Pfad"
              d="M602.176,444.865c0.838,-5.702 1.848,-11.31 3.1,-16.719c6.343,-27.389 13.338,-42.649 21.004,-57.442c6.031,-11.637 14.582,-21.862 24.327,-30.639"
              style="fill:none;stroke:#fe0000;stroke-width:2.08px;"/>

            <path id="Alle-Wege-in-einem-Pfad11" serif:id="Alle Wege in einem Pfad"
                  d="M1779.84,1513.69c2.515,-1.421 4.849,-2.716 6.927,-3.833c9.304,-5.002 18.5,-11.362 27.853,-16.274c1.244,-0.654 2.549,-1.348 3.907,-2.074"
                  style="fill:none;stroke:#fe0000;stroke-width:2.08px;"/>
            <path d="M1779.84,1513.69c12.655,-7.092 17.22,-0.747 14.485,14.939"
                  style="fill:none;stroke:#fe0000;stroke-width:2.08px;"/>
            <path d="M1794.32,1528.63c2.99,-14.022 7.682,-27.108 24.202,-37.075"
                  style="fill:none;stroke:#fe0000;stroke-width:2.08px;"/>
        <path id="Alle-Wege-in-einem-Pfad12" serif:id="Alle Wege in einem Pfad"
              d="M602.176,444.865l37.403,-5.776l3.403,-37.529l22.576,-33.008l-14.951,-28.487"
              style="fill:none;stroke:#fe0000;stroke-width:2.08px;"/>
        <path id="Alle-Wege-in-einem-Pfad13" serif:id="Alle Wege in einem Pfad"
              d="M1837.81,394.533c-0.679,-1.425 -1.296,-2.857 -1.813,-4.194c-2.438,-6.297 -5.512,-16.932 -8.052,-25.464c-2.581,-8.667 -5.404,-19.22 -7.932,-26.538c-2.07,-5.993 -4.678,-11.821 -7.735,-17.375c-3.019,-5.483 -6.267,-10.702 -9.343,-14.996"
              style="fill:none;stroke:#fe0000;stroke-width:2.08px;"/>
        <path id="Alle-Wege-in-einem-Pfad14" serif:id="Alle Wege in einem Pfad"
              d="M1760.56,650.892c0,-0 -11.13,-9.22 -15.833,-16.626c-5.612,-8.838 -9.15,-19.912 -12.152,-39.608c-1.83,-12.005 -4.309,-22.959 -8.152,-34.649c-3.843,-11.69 -12.807,-31.624 -16.235,-41.998c-6.698,-20.27 -11.742,-32 -21.853,-45.705c-6.819,-9.243 -14.079,-18.113 -22.3,-26.115"
              style="fill:none;stroke:#fe0000;stroke-width:2.08px;"/>
        <rect id="Kreuzung1" x="1227.94" y="376.743" width="57.824" height="62.399" style="fill:#a9d3df;"/>
            <path id="_2-3" serif:id="2-3" d="M1244.35,439.142c4.687,-20.274 21.643,-36.044 41.42,-33.396"
                  style="fill:none;stroke:#fe0000;stroke-width:2.08px;"/>
            <path id="_1-3" serif:id="1-3" d="M1234.66,376.743c10.461,14.235 27.406,23.966 51.108,29.003"
                  style="fill:none;stroke:#fe0000;stroke-width:2.08px;"/>
            <path id="_1-2" serif:id="1-2" d="M1244.35,439.142c4.149,-22.251 2.43,-40.976 -9.688,-62.399"
                  style="fill:none;stroke:#fe0000;stroke-width:2.08px;"/>
        <path id="Alle-Wege-in-einem-Pfad15" serif:id="Alle Wege in einem Pfad"
              d="M1583.76,334.618c-1.08,-0.081 -2.12,-0.153 -3.114,-0.214c-1.544,-0.095 -3.165,-0.221 -4.832,-0.363"
              style="fill:none;stroke:#fe0000;stroke-width:2.08px;"/>
        <path id="Alle-Wege-in-einem-Pfad16" serif:id="Alle Wege in einem Pfad"
              d="M1767.18,306.984c2.606,-2.485 5.097,-4.948 7.398,-7.258"
              style="fill:none;stroke:#fe0000;stroke-width:2.08px;"/>
        <rect x="1937.97" y="1287.37" width="108.2" height="66.277" style="fill:#a9d3df;"/>
            <path id="Alle-Wege-in-einem-Pfad17" serif:id="Alle Wege in einem Pfad"
                  d="M2039.71,1287.37c-6.276,11.256 -13.989,22.338 -22.845,28.745c-15.106,10.929 -36.53,10.738 -55.116,15.872c-6.639,1.834 -14.838,3.888 -23.626,6.128"
                  style="fill:none;stroke:#fe0000;stroke-width:2.08px;"/>
            <path d="M1938.12,1317.33l108.045,19.143" style="fill:none;stroke:#fe0000;stroke-width:2.08px;"/>
            <path d="M1938.12,1338.14c26.489,-7.132 32.784,-17.03 0,-20.816"
                  style="fill:none;stroke:#fe0000;stroke-width:2.08px;"/>
            <path d="M2039.71,1287.37c-6.755,13.471 -12.881,23.304 -11.503,31.123c1.287,7.308 9.565,12.857 17.961,17.975"
                  style="fill:none;stroke:#fe0000;stroke-width:2.08px;"/>
        <path id="Alle-Wege-in-einem-Pfad18" serif:id="Alle Wege in einem Pfad"
              d="M1798.72,264.748c6.323,-11.75 18.031,-33.84 23.133,-43.16c3.081,-5.63 6.906,-13.539 9.74,-17.106c2.28,-2.87 3.939,-4.445 7.719,-4.158c4.362,0.331 8.428,3.478 9.804,9.028c1.31,5.284 2.758,14.353 4.17,24.638"
              style="fill:none;stroke:#fe0000;stroke-width:2.08px;"/>
        <path id="Alle-Wege-in-einem-Pfad19" serif:id="Alle Wege in einem Pfad"
              d="M1854.95,246.758c1.523,12.182 2.912,24.601 3.922,33.617c1.844,16.461 3.901,33.758 3.858,49.59"
              style="fill:none;stroke:#fe0000;stroke-width:2.08px;"/>

            <path id="Alle-Wege-in-einem-Pfad20" serif:id="Alle Wege in einem Pfad"
                  d="M1789.41,1647.62c-10.201,1.97 -21.292,4.457 -29.701,6.981"
                  style="fill:none;stroke:#fe0000;stroke-width:2.08px;"/>
            <path d="M1759.71,1654.61c9.493,-2.546 12.622,-7.764 14.87,-19.164"
                  style="fill:none;stroke:#fe0000;stroke-width:2.08px;"/>
            <path d="M1789.44,1647.62c-11.349,2.36 -16.961,-1.117 -14.889,-12.258"
                  style="fill:none;stroke:#fe0000;stroke-width:2.08px;"/>
        <path id="Alle-Wege-in-einem-Pfad21" serif:id="Alle Wege in einem Pfad"
              d="M1862.12,346.151c-0.722,10.312 -2.081,20.59 -4.03,30.724c-0.622,3.232 -1.346,6.677 -2.15,10.263"
              style="fill:none;stroke:#fe0000;stroke-width:2.08px;"/>
        <path id="Alle-Wege-in-einem-Pfad22" serif:id="Alle Wege in einem Pfad"
              d="M1849.13,414.218c-2.284,8.303 -4.699,16.496 -7.031,23.887c-5.676,17.987 -12.404,35.24 -18.821,52.977c-0.733,2.024 -1.49,4.159 -2.269,6.391"
              style="fill:none;stroke:#fe0000;stroke-width:2.08px;"/>
        <path id="Alle-Wege-in-einem-Pfad23" serif:id="Alle Wege in einem Pfad"
              d="M1320.39,876.05c-13.237,-1.682 -25.925,-4.34 -37.406,-8.424c-9.69,-3.447 -19.478,-8.09 -29.018,-13.367"
              style="fill:none;stroke:#fe0000;stroke-width:2.08px;"/>
        <path id="Alle-Wege-in-einem-Pfad24" serif:id="Alle Wege in einem Pfad"
              d="M1199.64,817.284c-0.937,-0.735 -1.855,-1.46 -2.754,-2.173c-17.559,-13.917 -33.401,-33.998 -44.128,-50.704c-9.637,-15.009 -16.857,-35.357 -22.863,-47.219c-4.034,-7.967 -12.542,-17.469 -19.407,-18.15c-6.293,-0.623 -26.226,18.457 -26.944,18.994"
              style="fill:none;stroke:#fe0000;stroke-width:2.08px;"/>

            <path id="Alle-Wege-in-einem-Pfad25" serif:id="Alle Wege in einem Pfad"
                  d="M1445.63,915.746c-0.372,3.024 -0.692,5.841 -0.941,8.392c-0.828,8.486 -1.224,18.405 -1.326,26.831"
                  style="fill:none;stroke:#fe0000;stroke-width:2.08px;"/>
            <path d="M1421.39,936.258c10.764,1.337 21.576,-6.464 24.242,-20.272"
                  style="fill:none;stroke:#fe0000;stroke-width:2.08px;"/>
            <path d="M1443.34,950.969c-0.508,-7.292 -11.818,-12.915 -21.948,-14.711"
                  style="fill:none;stroke:#fe0000;stroke-width:2.08px;"/>
        <path id="Alle-Wege-in-einem-Pfad26" serif:id="Alle Wege in einem Pfad"
              d="M1556.13,332.622c-0.359,-0.006 -0.714,-0.009 -1.066,-0.01c-5.107,-0.016 -14.679,0.994 -19.752,0.442c-15.817,-1.721 -26.483,-1.697 -37.353,-7.142c-3.139,-1.573 -8.954,-7.375 -11.811,-10.645c-8.541,-9.775 -14.151,-22.139 -19.069,-31.295"
              style="fill:none;stroke:#fe0000;stroke-width:2.08px;"/>

            <path id="Alle-Wege-in-einem-Pfad27" serif:id="Alle Wege in einem Pfad"
                  d="M1456.28,828.844c-0.582,5.968 -1.194,11.929 -1.726,17.877c-1.673,18.716 -5.46,42.897 -7.984,61.767"
                  style="fill:none;stroke:#fe0000;stroke-width:2.08px;"/>
            <path id="Alle-Wege-in-einem-Pfad28" serif:id="Alle Wege in einem Pfad"
                  d="M1504.87,871.293c-29.907,4.19 -63.214,5.448 -95.325,6.472"
                  style="fill:none;stroke:#fe0000;stroke-width:2.08px;"/>
            <path d="M1409.54,877.765c24.097,-1.193 43.226,-20.631 46.713,-48.921"
                  style="fill:none;stroke:#fe0000;stroke-width:2.08px;"/>
            <path d="M1456.25,828.844c-3.266,38.024 10.859,47.598 48.612,42.449"
                  style="fill:none;stroke:#fe0000;stroke-width:2.08px;"/>
            <path d="M1504.87,871.293c-35.339,4.854 -55,13.716 -58.3,37.195"
                  style="fill:none;stroke:#fe0000;stroke-width:2.08px;"/>
            <path d="M1446.57,908.488c4.046,-26.105 -13.418,-31.812 -37.025,-30.723"
                  style="fill:none;stroke:#fe0000;stroke-width:2.08px;"/>
        <path id="Alle-Wege-in-einem-Pfad29" serif:id="Alle Wege in einem Pfad"
              d="M1812.8,521.709c-7.653,22.917 -16.441,49.394 -25.117,70.632c-12.504,30.608 -29.556,64.196 -43.719,89.884c-12.436,22.555 -30.108,44.05 -44.213,63.057c-12.908,17.393 -24.913,34.313 -40.927,48.898c-16.272,14.821 -35.719,28.79 -55.509,39.953c-10.765,6.072 -23.76,12.88 -37.785,19.035"
              style="fill:none;stroke:#fe0000;stroke-width:2.08px;"/>
        <path id="Alle-Wege-in-einem-Pfad30" serif:id="Alle Wege in einem Pfad"
              d="M1530.99,865.832c-7.22,2.062 -14.46,3.714 -21.585,4.798c-1.504,0.229 -3.019,0.45 -4.542,0.663"
              style="fill:none;stroke:#fe0000;stroke-width:2.08px;"/>

            <path d="M597.112,528.676c-0.131,6.593 -0.243,12.745 -0.933,19.32"
                  style="fill:none;stroke:#fe0000;stroke-width:2.08px;"/>
            <path d="M596.179,547.996c0.412,-5.766 3.346,-8.532 8.39,-4.641"
                  style="fill:none;stroke:#fe0000;stroke-width:2.08px;"/>
            <path d="M597.112,528.676c0.117,5.874 1.086,9.51 7.457,14.679"
                  style="fill:none;stroke:#fe0000;stroke-width:2.08px;"/>
        <path id="Alle-Wege-in-einem-Pfad31" serif:id="Alle Wege in einem Pfad"
              d="M1409.54,877.765c-3.839,0.122 -7.66,0.241 -11.457,0.361c-14.078,0.447 -29.003,0.758 -43.926,0.355"
              style="fill:none;stroke:#fe0000;stroke-width:2.08px;"/>
        <path id="Alle-Wege-in-einem-Pfad32" serif:id="Alle Wege in einem Pfad"
              d="M1458.22,264.115c-0.994,-3.214 -1.867,-6.462 -2.708,-9.662c-1.293,-4.922 -2.314,-10.457 -2.608,-15.627c-0.302,-5.314 0.138,-10.246 -0.189,-13.966c-0.572,-6.521 -0.557,-10.613 -3.884,-16.251c-3.874,-6.564 -16.714,-11.207 -19.355,-20.134c-3.786,-12.793 -7.697,-56.13 -9.272,-73.718c-0.46,-5.139 -0.388,-5.973 0.791,-7.259c1.178,-1.285 6.281,-0.452 6.281,-0.452l232.616,18.628c0,0 2.383,0.125 3.175,0.851c0.792,0.726 1.577,3.507 1.577,3.507c-0,-0 4.846,19.805 6.543,28.717c1.561,8.192 2.206,13.5 4.648,21.474c1.17,3.822 4.49,16.227 4.49,16.227"
              style="fill:none;stroke:#fe0000;stroke-width:2.08px;"/>
        <path id="Alle-Wege-in-einem-Pfad33" serif:id="Alle Wege in einem Pfad"
              d="M1446.57,908.488c-0.338,2.523 -0.652,4.95 -0.937,7.258"
              style="fill:none;stroke:#fe0000;stroke-width:2.08px;"/>
        <path id="Alle-Wege-in-einem-Pfad34" serif:id="Alle Wege in einem Pfad"
              d="M1671.38,343.391c0,-0 -61.837,-6.36 -67.941,-6.959"
              style="fill:none;stroke:#fe0000;stroke-width:2.08px;"/>

            <path id="Alle-Wege-in-einem-Pfad35" serif:id="Alle Wege in einem Pfad"
                  d="M1134.85,988.342c1.344,-1.772 2.678,-3.544 3.985,-5.318c7.253,-9.846 13.009,-19.916 18.714,-29.822"
                  style="fill:none;stroke:#fe0000;stroke-width:2.08px;"/>
            <path d="M1157.55,953.202c-3.973,7.136 -7.502,12.329 -11.646,13.923c-4.302,1.655 -9.237,-0.47 -14.398,-3.016"
                  style="fill:none;stroke:#fe0000;stroke-width:2.08px;"/>
            <path d="M1134.86,988.342c3.72,-5.804 7.713,-11.846 6.571,-16.348c-0.902,-3.55 -6.025,-5.929 -9.919,-7.947"
                  style="fill:none;stroke:#fe0000;stroke-width:2.08px;"/>
        <path id="Alle-Wege-in-einem-Pfad36" serif:id="Alle Wege in einem Pfad"
              d="M1828.44,521.709c1.602,1.682 3.017,3.148 3.951,4.075c21.003,20.847 72.636,80.065 114.266,120.872"
              style="fill:none;stroke:#fe0000;stroke-width:2.08px;"/>
        <path id="Alle-Wege-in-einem-Pfad37" serif:id="Alle Wege in einem Pfad"
              d="M1985.26,680.863c19.092,14.944 39.712,28.865 57.887,41.479c4.616,3.204 9.165,6.215 13.479,9.152"
              style="fill:none;stroke:#fe0000;stroke-width:2.08px;"/>
        <path id="Alle-Wege-in-einem-Pfad38" serif:id="Alle Wege in einem Pfad"
              d="M2086.9,762.866c3.296,7.241 5.623,15.225 7.976,23.215c3.882,13.185 7.1,26.563 9.043,36.47c2.979,15.195 0.952,30.95 -1.641,46.216c-3.643,21.45 -13.616,56.348 -19.488,82.308c-5.525,24.424 -11.941,52.588 -15.744,73.455c-3.121,17.128 -5.632,34.399 -7.071,51.749c-1.468,17.689 -1.545,37.657 -1.736,54.387c-0.037,3.17 -0.045,6.339 -0.034,9.509"
              style="fill:none;stroke:#fe0000;stroke-width:2.08px;"/>

            <path id="Alle-Wege-in-einem-Pfad39" serif:id="Alle Wege in einem Pfad"
                  d="M1253.97,854.259c-20.351,-11.257 -39.577,-25.4 -54.323,-36.975"
                  style="fill:none;stroke:#fe0000;stroke-width:2.08px;"/>
            <path d="M1203.35,875.683c6.903,-12.541 14.149,-25.445 12.54,-36.956c-1.089,-7.791 -7.344,-14.657 -16.246,-21.436"
                  style="fill:none;stroke:#fe0000;stroke-width:2.08px;"/>
            <path d="M1253.97,854.267c-9.809,-4.701 -21.71,-3.373 -30.584,0.32c-9.642,4.013 -14.465,12.573 -20.008,21.096"
                  style="fill:none;stroke:#fe0000;stroke-width:2.08px;"/>
        <path id="Alle-Wege-in-einem-Pfad40" serif:id="Alle Wege in einem Pfad"
              d="M2060.02,1201.88c0.338,7.235 0.491,14.386 -0.01,21.227c-1.048,14.299 -3.453,28.64 -9.261,41.748c-2.895,6.535 -6.61,14.567 -11.04,22.513"
              style="fill:none;stroke:#fe0000;stroke-width:2.08px;"/>
        <path id="Alle-Wege-in-einem-Pfad41" serif:id="Alle Wege in einem Pfad"
              d="M1938.12,1338.12c-20.45,5.213 -44.082,11.437 -58.629,18.251c-18.072,8.466 -33.054,25.494 -47.891,38.459c-14.781,12.915 -40.01,41.769 -53.981,55.556c-19.115,18.864 -35.05,34.719 -57.321,52.434c-18.101,14.398 -44.675,26.955 -60.068,36.052c-5.6,3.31 -12.698,7.499 -19.986,10.931"
              style="fill:none;stroke:#fe0000;stroke-width:2.08px;"/>
        <path d="M869.777,811.941c0,-0 14.743,23.121 18.421,32.974c3.077,8.244 3.773,17.347 3.649,26.145c-0.132,9.461 -4.04,20.337 -5.848,28.883c-1.512,7.149 -4.817,16.378 -1.024,23.08c2.291,4.048 8.163,10.921 14.607,17.932c10.74,11.685 24.027,23.751 24.027,23.751l11.39,10.946"
              style="fill:none;stroke:#fe0000;stroke-width:2.08px;"/>
        <path id="Alle-Wege-in-einem-Pfad42" serif:id="Alle Wege in einem Pfad"
              d="M1600.43,1552.59c-9.973,-3.423 -20.495,-8.678 -28.927,-13.037c-16.545,-8.551 -31.129,-23.973 -45.45,-38.786c-13.936,-14.416 -17.936,-28.086 -29.774,-44.27c-12.191,-16.665 -28.115,-37.366 -39.119,-50.583c-8.434,-10.13 -17.764,-22.641 -29.225,-29.152c-16.19,-9.197 -43.939,-18.295 -67.645,-26.023c-28.933,-9.431 -78.812,-22.592 -103.438,-32.169c-16.128,-6.271 -31.049,-14.19 -44.324,-25.289c-13.617,-11.385 -27.441,-27.009 -37.564,-40.981c-7.405,-10.221 -13.899,-21.238 -19.066,-32.791"
              style="fill:none;stroke:#fe0000;stroke-width:2.08px;"/>
        <path id="Alle-Wege-in-einem-Pfad43" serif:id="Alle Wege in einem Pfad"
              d="M1138.56,1156.88c-0.73,-3.146 -1.481,-6.253 -2.266,-9.289c-1.94,-7.501 -3.98,-16.607 -6.371,-26.458"
              style="fill:none;stroke:#fe0000;stroke-width:2.08px;"/>
        <path id="Alle-Wege-in-einem-Pfad44" serif:id="Alle Wege in einem Pfad"
              d="M1120.43,1087.06c-6.113,-18.435 -12.809,-36.937 -10.707,-52.554c2.258,-16.776 14.019,-31.498 25.135,-46.16"
              style="fill:none;stroke:#fe0000;stroke-width:2.08px;"/>
        <path id="Alle-Wege-in-einem-Pfad45" serif:id="Alle Wege in einem Pfad"
              d="M1157.55,953.202c2.106,-3.656 4.205,-7.29 6.37,-10.883c12.284,-20.384 28.057,-47.324 39.425,-66.636"
              style="fill:none;stroke:#fe0000;stroke-width:2.08px;"/>

            <path id="Alle-Wege-in-einem-Pfad46" serif:id="Alle Wege in einem Pfad"
                  d="M953.327,756.81c-13.214,0.718 -26.187,1.023 -36.154,0.708c-3.937,-0.125 -7.999,-0.362 -12.111,-0.702"
                  style="fill:none;stroke:#fe0000;stroke-width:2.08px;"/>
            <path d="M905.062,780.099c22.472,-14.017 23.39,-22.408 0,-23.289"
                  style="fill:none;stroke:#fe0000;stroke-width:2.08px;"/>
            <path d="M953.327,756.81c-19.126,2.362 -31.601,12.038 -48.265,23.289"
                  style="fill:none;stroke:#fe0000;stroke-width:2.08px;"/>
        <path id="Alle-Wege-in-einem-Pfad47" serif:id="Alle Wege in einem Pfad"
              d="M1186.65,1192.98c41.166,14.874 116.988,42.469 156.3,56.562c35.569,12.751 80.037,29.043 106.75,38.13c12.757,4.339 25.856,9.444 38.965,13.662"
              style="fill:none;stroke:#fe0000;stroke-width:2.08px;"/>
        <path id="Alle-Wege-in-einem-Pfad48" serif:id="Alle Wege in einem Pfad"
              d="M1567.57,1314.23c23.174,-2.863 52.613,-8.846 75.631,-14.522c20.452,-5.044 43.636,-12.154 61.234,-14.861c14.594,-2.245 22.845,-2.883 37.552,-1.568c14.954,1.337 36.977,5.971 52.169,8.69c27.072,4.847 89.596,17.064 117.003,21.658c8.032,1.346 17.899,2.561 26.811,3.696"
              style="fill:none;stroke:#fe0000;stroke-width:2.08px;"/>
        <path id="Alle-Wege-in-einem-Pfad49" serif:id="Alle Wege in einem Pfad"
              d="M1552.88,1278.16c18.619,-21.673 43.982,-51.224 59.524,-68.589c17.786,-19.871 38.053,-40.785 53.927,-58.529c13.978,-15.626 30.032,-30.634 41.316,-47.935c11.284,-17.3 20.815,-36.199 28.152,-55.507c3.901,-10.265 7.134,-21.624 10.087,-33.11c2.941,-11.44 5.603,-23.006 7.999,-34.41c3.323,-15.819 5.667,-35.041 7.97,-52.478c0.317,-2.393 0.614,-5.15 0.888,-8.064"
              style="fill:none;stroke:#fe0000;stroke-width:2.08px;"/>
        
            <path id="Alle-Wege-in-einem-Pfad50" serif:id="Alle Wege in einem Pfad"
                  d="M1354.16,878.481c-11.383,-0.308 -22.765,-1.032 -33.767,-2.431"
                  style="fill:none;stroke:#fe0000;stroke-width:2.08px;"/>
            <path d="M1337.41,895.714c-1.163,-9.204 2.658,-17.632 16.751,-17.241"
                  style="fill:none;stroke:#fe0000;stroke-width:2.08px;"/>
            <path d="M1320.39,876.05c11.112,1.541 15.068,8.89 17.016,19.664"
                  style="fill:none;stroke:#fe0000;stroke-width:2.08px;"/>
        <path id="Alle-Wege-in-einem-Pfad51" serif:id="Alle Wege in einem Pfad"
              d="M1759.04,838.438c-4.142,-23.632 -14.542,-70.649 -23.394,-88.612c-5.215,-10.583 -19.863,-25.74 -19.863,-25.74"
              style="fill:none;stroke:#fe0000;stroke-width:2.08px;"/>
        <path id="Alle-Wege-in-einem-Pfad52" serif:id="Alle Wege in einem Pfad"
              d="M1964.23,634.394c-4.509,-11.997 -15.825,-38.553 -21.633,-55.167c-5.24,-14.994 -10.956,-30.505 -13.597,-45.669c-2.594,-14.899 -4.835,-31.015 -1.442,-44.544c3.393,-13.529 10.783,-24.314 19.67,-33.254c8.34,-8.39 18.164,-15.218 28.77,-19.589c10.474,-4.316 25.714,-8.99 36.997,-10.011c11.468,-1.038 25.298,-1.391 35.889,2.626c10.592,4.017 20.1,13.335 27.371,21.871c7.219,8.474 13.662,19.408 15.812,29.411c2.15,10.004 -1.019,20.208 -3.375,30.215c-2.547,10.819 -6.944,22.425 -10.625,34.029c-5.99,18.882 -16.968,61.992 -19.507,81.534c-1.556,11.984 1.434,23.999 3.438,35.916c2.671,15.885 10.935,46.931 14.061,59.491c0.225,0.905 0.526,1.944 0.859,3.048"
              style="fill:none;stroke:#fe0000;stroke-width:2.08px;"/>
        <path id="Alle-Wege-in-einem-Pfad53" serif:id="Alle Wege in einem Pfad"
              d="M1797.68,919.543c1.02,1.936 1.983,3.837 2.867,5.676c9.755,20.293 28.23,49.565 46.009,71.346c17,20.826 41.997,41.544 62.566,60.601"
              style="fill:none;stroke:#fe0000;stroke-width:2.08px;"/>
        <path id="Alle-Wege-in-einem-Pfad54" serif:id="Alle Wege in einem Pfad"
              d="M1943.37,1090.16c12.2,11.653 24.625,22.971 36.422,31.801c17.182,12.86 37.949,22.905 54.394,32.798"
              style="fill:none;stroke:#fe0000;stroke-width:2.08px;"/>
        
            <path id="Alle-Wege-in-einem-Pfad55" serif:id="Alle Wege in einem Pfad"
                  d="M1909.12,1057.17c2.168,2.008 4.286,3.997 6.34,5.967c8.891,8.521 18.331,17.877 27.909,27.027"
                  style="fill:none;stroke:#fe0000;stroke-width:2.08px;"/>
            <path id="Alle-Wege-in-einem-Pfad56" serif:id="Alle Wege in einem Pfad"
                  d="M1956.01,1048.53c-3.798,0.623 -7.181,0.779 -9.661,0.123c-5.747,-1.523 -6.96,-12.519 -7.416,-19.109c-0.133,-1.918 -0.34,-4.162 -0.601,-6.671"
                  style="fill:none;stroke:#fe0000;stroke-width:2.08px;"/>
            <path d="M1938.36,1022.88c1.357,11.787 3.318,32.923 -4.528,39.355c-11.352,9.306 -17.798,0.13 -24.702,-5.065"
                  style="fill:none;stroke:#fe0000;stroke-width:2.08px;"/>
            <path d="M1956.01,1048.53c-26.201,6.757 -30.336,23.943 -12.639,41.627"
                  style="fill:none;stroke:#fe0000;stroke-width:2.08px;"/>
            <path d="M1943.37,1090.16c-12.364,-11.564 -11.64,-24.456 -6.417,-32.994c3.308,-5.409 2.764,-21.152 1.401,-34.244"
                  style="fill:none;stroke:#fe0000;stroke-width:2.08px;"/>
            <path d="M1956.01,1048.53c-6.562,1.404 -19.275,2.946 -20.159,7.334c-2.83,14.052 -19.567,8.323 -26.729,1.299"
                  style="fill:none;stroke:#fe0000;stroke-width:2.08px;"/>
        <path id="Alle-Wege-in-einem-Pfad57" serif:id="Alle Wege in einem Pfad"
              d="M2092.07,1201.88c13.833,12.295 29.704,26.803 41.473,39.082c14.657,15.292 31.158,33.991 40.053,49.034c4.669,7.897 10.281,16.49 12.604,25.884c1.263,5.105 1.044,10.68 1.052,16.033c0.011,8.525 -0.358,16.53 -2.929,24.658c-2.733,8.639 -8.423,19.517 -15.325,25.87c-3.848,3.542 -8.642,5.875 -13.849,7.757"
              style="fill:none;stroke:#fe0000;stroke-width:2.08px;"/>
        <path id="Alle-Wege-in-einem-Pfad58" serif:id="Alle Wege in einem Pfad"
              d="M2130.68,1397.05c-9.071,1.927 -18.949,3.58 -26.214,5.409c-8.658,2.182 -20.622,4.882 -26.303,7.355c-3.372,1.467 -7.638,3.312 -8.626,6.855c-1.005,3.603 0.933,11.068 3.5,15.244c3.013,4.901 8.313,11.581 13,16.201c5.603,5.521 14.929,9.696 23.223,13.641c9.664,4.595 28.065,12.451 40.997,18.171"
              style="fill:none;stroke:#fe0000;stroke-width:2.08px;"/>
        
            <path id="Alle-Wege-in-einem-Pfad59" serif:id="Alle Wege in einem Pfad"
                  d="M1129.92,1121.13c-2.63,-10.837 -5.685,-22.576 -9.498,-34.074"
                  style="fill:none;stroke:#fe0000;stroke-width:2.08px;"/>
            <path d="M1129.92,1121.13c-4.908,-17.554 -15.076,-18.345 -27.826,-9.613"
                  style="fill:none;stroke:#fe0000;stroke-width:2.08px;"/>
            <path d="M1102.05,1111.51c10.547,-6.937 20.719,-16.111 18.372,-24.454"
                  style="fill:none;stroke:#fe0000;stroke-width:2.08px;"/>
        
            <path id="Alle-Wege-in-einem-Pfad60" serif:id="Alle Wege in einem Pfad"
                  d="M958.177,983.922c-9.643,4.271 -20.043,8.524 -28.763,6.769c-4.839,-0.975 -10.524,-3.77 -16.898,-7.39"
                  style="fill:none;stroke:#fe0000;stroke-width:2.08px;"/>
            <path d="M934.999,975.652c4.493,4.942 -0.385,13.296 -8.684,13.834c-4.014,0.26 -9.151,-3.533 -13.799,-6.182"
                  style="fill:none;stroke:#fe0000;stroke-width:2.08px;"/>
            <path d="M934.999,975.652c7.364,6.191 14.654,12.139 23.178,8.27"
                  style="fill:none;stroke:#fe0000;stroke-width:2.08px;"/>
        <path id="Alle-Wege-in-einem-Pfad61" serif:id="Alle Wege in einem Pfad"
              d="M1640.32,1565.12c4.648,0.877 11.19,1.1 16.293,0.456c10.54,-1.33 30.115,-4.462 42.938,-9.575c11.962,-4.77 23.887,-10.49 35.438,-16.666c12.375,-6.617 31.258,-17.958 44.851,-25.638"
              style="fill:none;stroke:#fe0000;stroke-width:2.08px;"/>
        <path id="Alle-Wege-in-einem-Pfad62" serif:id="Alle Wege in einem Pfad"
              d="M1818.53,1491.51c11.496,-6.143 26.694,-14.486 39.324,-18.626c13.256,-4.345 27.3,-6.643 41.201,-5.478c15.594,1.306 36.543,8.69 52.283,14.099c14.418,4.955 30.801,12.632 42.476,16.198c8.967,2.739 18.248,4.575 27.62,4.261c9.841,-0.33 20.778,-3.125 31.208,-4.729c12.543,-1.928 30.948,-3.036 44.662,-2.357c12.306,0.609 25.44,2.304 36.855,2.935c4.962,0.275 10.717,0.49 16.105,0.546"
              style="fill:none;stroke:#fe0000;stroke-width:2.08px;"/>
        <path id="Alle-Wege-in-einem-Pfad63" serif:id="Alle Wege in einem Pfad" d="M1794.32,1528.63l-19.767,106.734"
              style="fill:none;stroke:#fe0000;stroke-width:2.08px;"/>
        
            <path id="Alle-Wege-in-einem-Pfad64" serif:id="Alle Wege in einem Pfad"
                  d="M2150.26,1479.93c3.584,1.585 6.747,3.006 9.189,4.148c6.063,2.836 16.236,6.757 18.785,10.336c2.248,3.158 -2.645,8.604 -4.669,11.909c-2.238,3.655 -8.804,8.963 -13.479,11.111c-2.763,1.269 -6.116,2.325 -9.826,3.258"
                  style="fill:none;stroke:#fe0000;stroke-width:2.08px;"/>
            <path d="M2150.26,1498.38c12.223,0.422 18.729,2.21 19.345,6.525c0.533,3.737 -5.058,10.917 -19.345,15.783"
                  style="fill:none;stroke:#fe0000;stroke-width:2.08px;"/>
            <path d="M2150.26,1479.93c15.317,6.63 23.032,9.369 23.254,12.403c0.233,3.167 -7.547,6.344 -23.254,6.001"
                  style="fill:none;stroke:#fe0000;stroke-width:2.08px;"/>
        <path id="Alle-Wege-in-einem-Pfad65" serif:id="Alle Wege in einem Pfad"
              d="M2150.26,1520.69c-6.329,1.59 -13.696,2.817 -20.939,4.119c-17.311,3.111 -52.131,5.748 -69.925,8.836c-13.916,2.416 -28.958,-0.165 -41.604,2.392c-11.974,2.421 -23.788,6.808 -34.177,13.235c-14.482,8.96 -39.045,29.701 -53.583,39.326c-10.721,7.098 -22.845,14.329 -34.308,20.154c-11.827,6.01 -23.06,12.102 -35.789,17.103c-8.998,3.534 -22.349,8.317 -34.686,12.809c-10.702,3.896 -20.808,6.235 -28.97,7.685c-2.214,0.393 -4.519,0.82 -6.871,1.274"
              style="fill:none;stroke:#fe0000;stroke-width:2.08px;"/>
        
            <path id="Alle-Wege-in-einem-Pfad66" serif:id="Alle Wege in einem Pfad"
                  d="M1488.66,1301.34c5.045,1.623 10.092,3.115 15.121,4.381c11.6,2.92 16.678,5.321 27.547,7.015c6.41,1 25.8,2.7 32.958,1.888c1.078,-0.122 2.172,-0.252 3.281,-0.389"
                  style="fill:none;stroke:#fe0000;stroke-width:2.08px;"/>
            <path d="M1488.66,1301.34c27.34,6.985 46.13,2.157 64.217,-23.173"
                  style="fill:none;stroke:#fe0000;stroke-width:2.08px;"/>
            <path d="M1567.57,1314.15c-26.286,3.33 -30.953,-17.103 -14.69,-35.982"
                  style="fill:none;stroke:#fe0000;stroke-width:2.08px;"/>
        <path id="Alle-Wege-in-einem-Pfad67" serif:id="Alle Wege in einem Pfad"
              d="M1759.71,1654.61c-2.236,0.672 -4.282,1.346 -6.071,2.013c-6.817,2.544 -14.02,7.179 -19.51,11.954c-9.734,8.465 -27.711,26.452 -41.223,34.606c-11.937,7.203 -25.223,12.944 -37.736,14.926c-12.688,2.009 -27.548,2.031 -35.923,7.949c-7.997,5.65 -13.993,14.075 -19.292,22.309c-5.449,8.469 -10.332,22.755 -13.406,28.506c-1.223,2.289 -4.103,6.618 -4.103,6.618"
              style="fill:none;stroke:#fe0000;stroke-width:2.08px;"/>
        
            <path d="M767.833,712.569c6.993,5.729 0.401,9.429 -11.28,12.677"
                  style="fill:none;stroke:#fe0000;stroke-width:2.08px;"/>
            <path d="M767.833,712.569c3.524,2.758 4.64,4.254 6.228,5.667c2.576,2.291 4.076,3.262 7.343,3.468"
                  style="fill:none;stroke:#fe0000;stroke-width:2.08px;"/>
            <path d="M781.404,721.704c-9.76,-0.38 -17.273,1.197 -24.851,3.542"
                  style="fill:none;stroke:#fe0000;stroke-width:2.08px;"/>
        <path id="Alle-Wege-in-einem-Pfad68" serif:id="Alle Wege in einem Pfad"
              d="M1131.51,964.049c-3.733,-1.722 -7.573,-3.012 -10.081,-2.58c-6.358,1.096 -9.244,15.122 -16.863,15.461c-10.683,0.475 -31.577,-10.841 -47.238,-12.61c-15.491,-1.75 -31.98,-0.263 -46.726,1.994c-14.273,2.185 -26.595,7.62 -39.543,12.183c-3.956,1.394 -8.334,3.412 -12.881,5.425"
              style="fill:none;stroke:#fe0000;stroke-width:2.08px;"/>
        
            <path d="M882.016,793.291c-6.556,3.481 -12.996,6.581 -17,7.7c-9.507,2.657 -16.264,1.1 -24.112,-2.555c-1.173,-0.546 -2.34,-1.244 -3.504,-2.024"
                  style="fill:none;stroke:#fe0000;stroke-width:2.08px;"/>
            <path d="M854.086,816.855c-1.998,-7.845 11.941,-10.4 15.691,-4.914"
                  style="fill:none;stroke:#fe0000;stroke-width:2.08px;"/>
            <path d="M854.08,816.855c-3.042,-8.52 -8.06,-13.449 -16.68,-20.438"
                  style="fill:none;stroke:#fe0000;stroke-width:2.08px;"/>
            <path d="M869.777,811.941c-4.548,-8.327 1.288,-12.872 12.239,-18.65"
                  style="fill:none;stroke:#fe0000;stroke-width:2.08px;"/>
            <path d="M869.777,811.941c-6.509,-8.327 -19.192,-6.593 -32.377,-15.475"
                  style="fill:none;stroke:#fe0000;stroke-width:2.08px;"/>
            <path d="M854.106,816.855c-2.554,-8.176 13.864,-15.427 27.91,-23.564"
                  style="fill:none;stroke:#fe0000;stroke-width:2.08px;"/>
        <path id="Alle-Wege-in-einem-Pfad69" serif:id="Alle Wege in einem Pfad"
              d="M912.516,983.301c-6.594,-3.746 -13.926,-8.374 -21.819,-12.782c-14.118,-7.882 -25.242,-13.703 -32.866,-17.196c-6.037,-2.768 -14.329,-3.088 -20.948,-3.641c-9.909,-0.83 -26.903,-0.58 -40.291,0.493c-17.967,1.439 -49.07,2.732 -64.885,5.386c-9.359,1.57 -18.723,4.453 -26.473,9.931c-10.094,7.136 -23.324,18.289 -32.048,29.324c-2.339,2.958 -5.123,7.568 -7.738,11.204"
              style="fill:none;stroke:#fe0000;stroke-width:2.08px;"/>
        
            <path id="Alle-Wege-in-einem-Pfad70" serif:id="Alle Wege in einem Pfad"
                  d="M665.448,1006.02c-5.844,8.128 -10.685,17.325 -14.595,24.791c-3.42,6.531 -7.459,14.012 -11.245,21.44"
                  style="fill:none;stroke:#fe0000;stroke-width:2.08px;"/>
            <path d="M619.512,1041.95c14.224,-10.505 38.271,-11.383 58.725,-11.492"
                  style="fill:none;stroke:#fe0000;stroke-width:2.08px;"/>
            <path d="M619.512,1041.92c18.131,-13.331 29.394,-8.074 20.086,10.332"
                  style="fill:none;stroke:#fe0000;stroke-width:2.08px;"/>
            <path d="M665.448,1006.02c-6.362,8.558 -10.187,15.486 -7.709,19.541c2.268,3.714 10.088,4.916 20.498,4.897"
                  style="fill:none;stroke:#fe0000;stroke-width:2.08px;"/>
            <path d="M619.512,1041.92c17.315,-13.453 38.964,-26.461 45.936,-35.905"
                  style="fill:none;stroke:#fe0000;stroke-width:2.08px;"/>
            <path d="M639.628,1052.25c3.637,-8.056 7.519,-15.573 14.369,-19.038c6.285,-3.18 15.285,-2.631 24.24,-2.755"
                  style="fill:none;stroke:#fe0000;stroke-width:2.08px;"/>
        <path id="Alle-Wege-in-einem-Pfad71" serif:id="Alle Wege in einem Pfad"
              d="M639.608,1052.25c-2.583,5.067 -5.048,10.111 -7.119,14.811c-2.984,6.772 -6.294,14.638 -10.091,23.174c-4.138,9.302 -7.265,19.3 -10.457,26.986c-5.241,12.62 -10.396,25.674 -15.678,38.277c-6.233,14.87 -16.653,35.319 -21.716,50.948c-4.47,13.795 -6.47,32.237 -7.165,42.822c-0.459,6.978 -1.322,14.979 2.491,20.687c3.814,5.709 12.469,9.895 19.891,12.564c17.063,6.137 59.8,18.596 82.986,24.257c18.503,4.517 41.147,7.928 56.127,10.707c11.234,2.084 21.72,3.767 29.752,4.966c4.777,0.714 10.94,1.572 14.439,1.23c2.432,-0.238 8.111,-2.3 10.554,-2.284c4.263,0.027 12.696,2.216 19.02,3.446c10.894,2.12 36.988,9.949 46.345,9.273c5.5,-0.398 4.968,-10.491 9.233,-12.933c4.266,-2.442 12.68,-2.526 16.919,-0.76c4.238,1.766 4.891,12.439 9.998,12.552c13.86,0.308 55.513,-5.816 68.562,-10.509c5.866,-2.11 7.118,-12.945 7.465,-19.17c0.378,-6.801 -0.726,-16.634 -1.121,-22.248c-0.284,-4.049 -1.741,-8.541 0.063,-12.178c1.824,-3.677 8.241,-5.397 8.811,-10.264c0.945,-8.071 -2.841,-25.201 -3.14,-38.161c-0.309,-13.334 1.155,-31.41 3.36,-41.465c1.52,-6.931 4.718,-13.982 9.87,-18.861c6.178,-5.851 17.499,-12.096 27.196,-16.243c9.697,-4.147 20.562,-6.124 30.986,-8.638c10.659,-2.571 22.56,-3.086 32.965,-6.787c10.406,-3.702 21.772,-10.888 29.468,-15.421c0.8,-0.472 1.63,-0.99 2.476,-1.541"
              style="fill:none;stroke:#fe0000;stroke-width:2.08px;"/>
        
            <path id="Alle-Wege-in-einem-Pfad72" serif:id="Alle Wege in einem Pfad"
                  d="M1565.53,853.168c-11.067,4.855 -22.775,9.304 -34.536,12.664"
                  style="fill:none;stroke:#fe0000;stroke-width:2.08px;"/>
            <path d="M1530.99,865.832c7.866,-1.967 13.699,-3.733 16.64,-7.74c3.457,-4.71 3.278,-12.121 3.003,-20.766"
                  style="fill:none;stroke:#fe0000;stroke-width:2.08px;"/>
            <path d="M1565.53,853.168c-4.496,2.013 -10.385,4.859 -13.025,1.798c-2.618,-3.038 -2.005,-11.952 -1.868,-17.64"
                  style="fill:none;stroke:#fe0000;stroke-width:2.08px;"/>
        <path id="Alle-Wege-in-einem-Pfad73" serif:id="Alle Wege in einem Pfad"
              d="M1550.6,837.326c0.062,-4.201 0.053,-8.472 -0.123,-11.621c-0.71,-12.689 -2.602,-32.97 -4.091,-49.461c-1.504,-16.645 -4.177,-38.058 -4.929,-54.909c-0.8,-17.961 -0.99,-33.74 -0.876,-52.86c0.129,-21.701 0.909,-53.653 1.652,-72.843c0.512,-13.232 2.225,-30.508 2.72,-40.388"
              style="fill:none;stroke:#fe0000;stroke-width:2.08px;"/>
        
            <path id="Alle-Wege-in-einem-Pfad74" serif:id="Alle Wege in einem Pfad"
                  d="M689.387,802.755c7.702,3.83 14.825,7.979 18.193,11.007c6.566,5.904 8.131,13.754 9.176,22.479"
                  style="fill:none;stroke:#fe0000;stroke-width:2.08px;"/>
            <path d="M716.756,836.241c-0.913,-10.652 3.651,-20.761 20.573,-20.366"
                  style="fill:none;stroke:#fe0000;stroke-width:2.08px;"/>
            <path d="M737.329,815.875c-18.875,-0.063 -32.774,-4.964 -47.942,-13.12"
                  style="fill:none;stroke:#fe0000;stroke-width:2.08px;"/>
        
            <path id="Alle-Wege-in-einem-Pfad75" serif:id="Alle Wege in einem Pfad"
                  d="M1762.74,919.543c0.79,-8.413 1.379,-18.13 1.622,-24.16c0.831,-20.644 -1.757,-36.595 -5.323,-56.945"
                  style="fill:none;stroke:#fe0000;stroke-width:2.08px;"/>
            <path d="M1762.74,919.543c2.153,-16.442 9.994,-21.863 15.777,-21.872c5.863,-0.009 12.258,7.374 19.164,21.872"
                  style="fill:none;stroke:#fe0000;stroke-width:2.08px;"/>
            <path d="M1797.68,919.543c-6.727,-13.737 -13.131,-20.449 -18.95,-31.077c-8.522,-15.565 -17.246,-32.453 -19.692,-50.028"
                  style="fill:none;stroke:#fe0000;stroke-width:2.08px;"/>
        
            <path id="Alle-Wege-in-einem-Pfad76" serif:id="Alle Wege in einem Pfad"
                  d="M2058.2,1140.17c0.044,12.163 0.387,24.326 0.62,36.487c0.159,8.283 0.803,16.809 1.197,25.221"
                  style="fill:none;stroke:#fe0000;stroke-width:2.08px;"/>
            <path id="Alle-Wege-in-einem-Pfad77" serif:id="Alle Wege in einem Pfad"
                  d="M2034.19,1154.76c2.672,1.608 5.23,3.211 7.639,4.822c13.855,9.263 23.876,19.151 36.418,30.126c4.156,3.637 8.858,7.764 13.823,12.176"
                  style="fill:none;stroke:#fe0000;stroke-width:2.08px;"/>
            <path d="M2060.04,1201.87c-0.505,-9.843 2.425,-14.255 6.949,-14.833c5.471,-0.699 14.033,4.656 25.063,14.843"
                  style="fill:none;stroke:#fe0000;stroke-width:2.08px;"/>
            <path d="M2034.19,1154.76c7.203,3.627 14.684,3.86 18.85,0.853c3.446,-2.487 5.198,-8.182 5.144,-15.437"
                  style="fill:none;stroke:#fe0000;stroke-width:2.08px;"/>
            <path d="M2058.25,1140.17c-0.151,11.957 0.097,24.331 4.704,33.619c5.791,11.673 17.763,18.264 29.119,28.089"
                  style="fill:none;stroke:#fe0000;stroke-width:2.08px;"/>
            <path d="M2034.19,1154.76c17.524,11.285 24.933,27.742 25.843,47.124"
                  style="fill:none;stroke:#fe0000;stroke-width:2.08px;"/>
        
            <path id="Alle-Wege-in-einem-Pfad78" serif:id="Alle Wege in einem Pfad"
                  d="M2056.63,731.494c8.958,6.1 16.904,11.878 22.339,18.392c3.236,3.877 5.789,8.272 7.932,12.98"
                  style="fill:none;stroke:#fe0000;stroke-width:2.08px;"/>
            <path d="M2056.63,731.546c4.441,3.041 11.577,7.881 16.074,6.053c3.979,-1.617 5.534,-8.418 4.148,-13.298"
                  style="fill:none;stroke:#fe0000;stroke-width:2.08px;"/>
            <path d="M2086.9,762.866c-3.155,-9.038 -3.991,-14.645 -5.999,-23.645c-0.856,-3.839 -2.542,-9.624 -3.982,-14.92"
                  style="fill:none;stroke:#fe0000;stroke-width:2.08px;"/>
        
            <path id="Alle-Wege-in-einem-Pfad79" serif:id="Alle Wege in einem Pfad"
                  d="M1946.66,646.656c6.243,6.119 12.26,11.824 17.916,16.924c6.538,5.896 13.504,11.662 20.686,17.283"
                  style="fill:none;stroke:#fe0000;stroke-width:2.08px;"/>
            <path d="M1946.66,646.676c3.223,3.27 13.759,11.47 17.937,8.526c4.016,-2.83 1.293,-16.56 -0.508,-21.16"
                  style="fill:none;stroke:#fe0000;stroke-width:2.08px;"/>
            <path d="M1985.27,680.863c0,0 -8.446,-7.232 -12.464,-8.122c-5.468,-1.21 -11.621,3.942 -12.226,8.122"
                  style="fill:none;stroke:#fe0000;stroke-width:2.08px;"/>
            <path d="M1985.27,680.863c-3.592,-2.617 -10.949,-7.531 -13.726,-13.939c-4.256,-9.821 -3.548,-22.693 -7.338,-32.603"
                  style="fill:none;stroke:#fe0000;stroke-width:2.08px;"/>
            <path d="M1946.66,646.676c7.218,7.409 14.838,14.417 15.142,17.478c0.387,3.916 -0.429,9.081 -1.226,16.709"
                  style="fill:none;stroke:#fe0000;stroke-width:2.08px;"/>
            <path d="M1960.53,680.863c0.875,-7.437 4.538,-24.58 5.606,-30.824c1.009,-5.896 -0.873,-12.751 -1.881,-15.541"
                  style="fill:none;stroke:#fe0000;stroke-width:2.08px;"/>
        <path d="M1745.05,592.949l-1.236,-7.589" style="fill:none;stroke:#fe0000;stroke-width:2.08px;"/>
        
            <path id="Alle-Wege-in-einem-Pfad80" serif:id="Alle Wege in einem Pfad"
                  d="M1972.9,771.684c0.638,-5.059 1.127,-9.927 0.89,-11.978c-0.249,-2.151 -5.127,-4.098 -10.086,-6.345"
                  style="fill:none;stroke:#fe0000;stroke-width:2.08px;"/>
            <path d="M1984.06,762.52l-20.357,-9.159" style="fill:none;stroke:#fe0000;stroke-width:2.08px;"/>
            <path d="M1972.9,771.684c0.871,-6.325 4.472,-11.897 11.161,-9.164"
                  style="fill:none;stroke:#fe0000;stroke-width:2.08px;"/>
        <path d="M1735.5,485.048l6.181,3.068" style="fill:none;stroke:#fe0000;stroke-width:2.08px;"/>
        <path d="M1791.64,503.027l11.06,2.114" style="fill:none;stroke:#fe0000;stroke-width:2.08px;"/>
        <path d="M678.237,1030.43l8.049,0.026c12.741,0.032 18.153,-1.504 23.37,-7.577c0,0 23.666,-23.602 30.247,-31.579c3.97,-4.813 7.74,-12.243 9.237,-16.282c0.921,-2.486 0.208,-10.314 0.208,-10.314"
              style="fill:none;stroke:#fe0000;stroke-width:2.08px;"/>
        
            <path id="Alle-Wege-in-einem-Pfad81" serif:id="Alle Wege in einem Pfad"
                  d="M1821.01,497.473c-2.525,7.23 -5.286,15.473 -8.213,24.236"
                  style="fill:none;stroke:#fe0000;stroke-width:2.08px;"/>
            <path d="M1802.7,505.141c10.001,1.729 15.342,-0.279 18.312,-7.668"
                  style="fill:none;stroke:#fe0000;stroke-width:2.08px;"/>
            <path d="M1828.49,521.709c-5.115,-5.224 -13.128,-7.671 -15.691,0"
                  style="fill:none;stroke:#fe0000;stroke-width:2.08px;"/>
            <path d="M1812.8,521.709c2.756,-8.781 -0.11,-14.57 -10.099,-16.568"
                  style="fill:none;stroke:#fe0000;stroke-width:2.08px;"/>
            <path d="M1828.48,521.709c-7.237,-8.967 -9.232,-17.168 -7.463,-24.236"
                  style="fill:none;stroke:#fe0000;stroke-width:2.08px;"/>
        
            <path id="Alle-Wege-in-einem-Pfad82" serif:id="Alle Wege in einem Pfad"
                  d="M1855.94,387.138c-1.914,8.536 -4.282,17.876 -6.812,27.08"
                  style="fill:none;stroke:#fe0000;stroke-width:2.08px;"/>
            <path d="M1837.81,394.533c-0,-0 1.412,4.727 4.282,5.817c2.32,0.881 18.25,-3.353 22.053,-3.646"
                  style="fill:none;stroke:#fe0000;stroke-width:2.08px;"/>
            <path d="M1855.94,387.138c-2.311,8.791 -5.425,15.971 -9.086,16.242c-2.54,0.188 -6.574,-3.83 -9.053,-8.847"
                  style="fill:none;stroke:#fe0000;stroke-width:2.08px;"/>
            <path d="M1849.13,414.218c1.155,-4.502 -2.915,-8.891 -6.499,-13.085c-1.927,-2.255 -3.056,-3.508 -4.828,-6.6"
                  style="fill:none;stroke:#fe0000;stroke-width:2.08px;"/>
        
            <path id="Alle-Wege-in-einem-Pfad83" serif:id="Alle Wege in einem Pfad"
                  d="M1862.73,329.965c-0.001,0.31 -0.003,0.62 -0.005,0.929c-0.041,5.085 -0.242,10.175 -0.598,15.257"
                  style="fill:none;stroke:#fe0000;stroke-width:2.08px;"/>
            <path d="M1862.12,346.151c0.542,-7.7 4.042,-10.005 10.7,-6.537"
                  style="fill:none;stroke:#fe0000;stroke-width:2.08px;"/>
            <path d="M1862.73,329.965c-0.135,3.634 3.668,6.798 10.097,9.649"
                  style="fill:none;stroke:#fe0000;stroke-width:2.08px;"/>
        <path d="M1872.83,339.614c1.404,0.636 3.005,1.444 3.955,2.195c2.534,2.001 1.933,8.725 3.07,10.257c0.904,1.219 4.553,3.818 5.24,5.952c1.203,3.735 1.214,10.965 1.622,15.42c0.271,2.968 0.464,6.951 -0.363,9.814c-0.87,3.011 -5.701,9.129 -8.531,11.229c-3.187,2.364 -7.065,1.821 -10.103,2.083c-0.959,0.082 -2.501,0.122 -3.574,0.14"
              style="fill:none;stroke:#fe0000;stroke-width:2.08px;"/>
        
            <path id="Alle-Wege-in-einem-Pfad84" serif:id="Alle Wege in einem Pfad"
                  d="M1853.28,233.99c0.565,4.117 1.125,8.427 1.667,12.768"
                  style="fill:none;stroke:#fe0000;stroke-width:2.08px;"/>
            <path d="M1853.29,233.99c1.119,5.476 5.133,7.305 11.702,6.083"
                  style="fill:none;stroke:#fe0000;stroke-width:2.08px;"/>
            <path d="M1864.99,240.073c-7.437,1.117 -10.471,2.369 -10.046,6.685"
                  style="fill:none;stroke:#fe0000;stroke-width:2.08px;"/>
        <path d="M1875.65,238.703l-10.654,1.37" style="fill:none;stroke:#fe0000;stroke-width:2.08px;"/>
        
            <path id="Alle-Wege-in-einem-Pfad85" serif:id="Alle Wege in einem Pfad"
                  d="M1680.33,196.45c3.064,10.884 9.561,19.213 11.266,28.924c0.833,4.741 1.343,9.994 1.64,15.55"
                  style="fill:none;stroke:#fe0000;stroke-width:2.08px;"/>
            <path d="M1669.85,219.107c10.966,-0.463 14.258,-8.207 10.482,-22.657"
                  style="fill:none;stroke:#fe0000;stroke-width:2.08px;"/>
            <path d="M1669.85,219.107c13.925,1.151 22.354,7.792 23.388,21.817"
                  style="fill:none;stroke:#fe0000;stroke-width:2.08px;"/>
        
            <path id="Alle-Wege-in-einem-Pfad86" serif:id="Alle Wege in einem Pfad"
                  d="M1729.87,334.493c6.489,-3.919 14.847,-8.581 23.324,-15.229c4.752,-3.727 9.539,-8.037 13.989,-12.28"
                  style="fill:none;stroke:#fe0000;stroke-width:2.08px;"/>
            <path id="Alle-Wege-in-einem-Pfad87" serif:id="Alle Wege in einem Pfad"
                  d="M1693.33,277.22c-0.068,3.639 -0.13,7.23 -0.162,10.724c-0.109,11.951 -1.775,35.678 -2.211,50.502"
                  style="fill:none;stroke:#fe0000;stroke-width:2.08px;"/>
            <path d="M1693.34,277.22c-0.1,11.064 7.567,22.199 19.697,30.906c10.779,7.738 34.392,17.898 54.142,-1.142"
                  style="fill:none;stroke:#fe0000;stroke-width:2.08px;"/>
        <path id="Alle-Wege-in-einem-Pfad88" serif:id="Alle Wege in einem Pfad"
              d="M1693.24,240.924c0.612,11.424 0.326,24.128 0.099,36.296"
              style="fill:none;stroke:#fe0000;stroke-width:2.08px;"/>
        
            <path d="M1671.38,343.41c15.923,2.255 14.577,9.989 0,16.186"
                  style="fill:none;stroke:#fe0000;stroke-width:2.08px;"/>
            <path d="M1671.38,343.41c10.149,0.881 19.08,1.073 19.584,-4.964"
                  style="fill:none;stroke:#fe0000;stroke-width:2.08px;"/>
            <path d="M1690.97,338.446c-0.169,2.349 8.697,5.925 17.449,5.422c5.508,-0.317 9.916,-3.169 14.152,-5.422"
                  style="fill:none;stroke:#fe0000;stroke-width:2.08px;"/>
            <path d="M1723.28,338.446l-51.899,21.566" style="fill:none;stroke:#fe0000;stroke-width:2.08px;"/>
        <path d="M1669.85,219.107l-21.462,-1.493l21.462,1.493Z" style="fill:none;stroke:#fe0000;stroke-width:2.08px;"/>
        
            <path id="Alle-Wege-in-einem-Pfad89" serif:id="Alle Wege in einem Pfad"
                  d="M1774.58,299.726c7.776,-8.825 15.811,-20.36 24.139,-34.978"
                  style="fill:none;stroke:#fe0000;stroke-width:2.08px;"/>
            <path d="M1774.58,299.726c4.13,-4.123 8.258,-3.972 11.206,-3.541c6.329,0.925 14.252,5.237 17.149,9.781"
                  style="fill:none;stroke:#fe0000;stroke-width:2.08px;"/>
            <path d="M1798.72,264.748c-3.681,7.215 -6.967,14.656 -6.187,21.665c0.747,6.725 5.379,13.026 10.403,19.553"
                  style="fill:none;stroke:#fe0000;stroke-width:2.08px;"/>
        
            <path id="Alle-Wege-in-einem-Pfad90" serif:id="Alle Wege in einem Pfad"
                  d="M1467.08,283.972c-2.251,-4.008 -7.123,-14.246 -8.857,-19.857"
                  style="fill:none;stroke:#fe0000;stroke-width:2.08px;"/>
            <path d="M1472.48,270.452c-7.949,1.152 -9.23,5.942 -5.401,13.52"
                  style="fill:none;stroke:#fe0000;stroke-width:2.08px;"/>
            <path d="M1458.22,264.115c1.795,4.513 6.214,6.896 14.258,6.337"
                  style="fill:none;stroke:#fe0000;stroke-width:2.08px;"/>
        <path d="M1478.21,269.796l-5.729,0.656" style="fill:none;stroke:#fe0000;stroke-width:2.08px;"/>
        
            <path id="Alle-Wege-in-einem-Pfad91" serif:id="Alle Wege in einem Pfad"
                  d="M1575.82,334.041c-6.44,-0.545 -13.574,-1.318 -19.683,-1.419"
                  style="fill:none;stroke:#fe0000;stroke-width:2.08px;"/>
            <path d="M1566.82,323.047c-0.776,7.407 -4.636,9.424 -10.692,9.575"
                  style="fill:none;stroke:#fe0000;stroke-width:2.08px;"/>
            <path d="M1566.82,323.047c-0.576,7.062 2.841,10.327 8.991,10.994"
                  style="fill:none;stroke:#fe0000;stroke-width:2.08px;"/>
        <path id="Alle-Wege-in-einem-Pfad92" serif:id="Alle Wege in einem Pfad"
              d="M2011.38,1004.04c0,-0 0.821,19.25 -1.96,24.576c-2.541,4.868 -19.598,10.174 -30.069,13.5c-6.948,2.207 -15.934,5.198 -23.341,6.413"
              style="fill:none;stroke:#fe0000;stroke-width:2.08px;"/>
        <path id="Alle-Wege-in-einem-Pfad93" serif:id="Alle Wege in einem Pfad"
              d="M1938.34,1022.88c-2.32,-22.285 -8.932,-65.501 -5.997,-87.265c2.567,-19.041 20.57,-34.722 26.19,-51.347c5.229,-15.469 6.474,-31.798 7.72,-48.079c1.322,-17.278 3.53,-39.331 4.749,-50.389c0.265,-2.407 1.178,-8.382 1.901,-14.112"
              style="fill:none;stroke:#fe0000;stroke-width:2.08px;"/>
        <path id="Alle-Wege-in-einem-Pfad94" serif:id="Alle Wege in einem Pfad"
              d="M1963.7,753.361c-5.129,-2.324 -10.344,-4.969 -10.606,-8.492c-0.411,-5.518 0.059,-9.609 1.848,-21.071c2.6,-16.648 4.357,-33.626 5.571,-42.935"
              style="fill:none;stroke:#fe0000;stroke-width:2.08px;"/>
        
            <path id="Alle-Wege-in-einem-Pfad95" serif:id="Alle Wege in einem Pfad"
                  d="M1603.44,336.432c-7.203,-0.707 -14.006,-1.388 -19.683,-1.814"
                  style="fill:none;stroke:#fe0000;stroke-width:2.08px;"/>
            <path d="M1592.51,343.665c0.276,-5.83 3.828,-8.258 10.938,-7.233"
                  style="fill:none;stroke:#fe0000;stroke-width:2.08px;"/>
            <path d="M1592.51,343.665c0.278,-5.15 -1.853,-8.69 -8.745,-9.047"
                  style="fill:none;stroke:#fe0000;stroke-width:2.08px;"/>
        
            <path id="Alle-Wege-in-einem-Pfad96" serif:id="Alle Wege in einem Pfad"
                  d="M581.324,788.866c9.748,-1.195 19.453,-1.686 28.666,-1.828c11.616,-0.179 22.034,0.311 31.625,1.445"
                  style="fill:none;stroke:#fe0000;stroke-width:2.08px;"/>
            <path id="Alle-Wege-in-einem-Pfad97" serif:id="Alle Wege in einem Pfad"
                  d="M641.615,741.585c-4.428,-0.943 -8.574,-1.877 -12.221,-2.673c-11.807,-2.574 -23.432,-6.831 -32.715,-15.07c-3.822,-3.392 -7.275,-7.63 -10.23,-12.433"
                  style="fill:none;stroke:#fe0000;stroke-width:2.08px;"/>
            <path d="M586.449,711.409c5.005,8.625 21.854,39.539 23.175,50.25c1.947,15.798 -12.248,24.354 -28.3,27.207"
                  style="fill:none;stroke:#fe0000;stroke-width:2.08px;"/>
            <path d="M586.449,711.409c9.814,20.72 20.571,46.051 25.593,58.703c4.952,12.476 24.529,17.795 29.573,18.371"
                  style="fill:none;stroke:#fe0000;stroke-width:2.08px;"/>
            <path d="M641.615,741.585c-13.77,-2.396 -28.261,1.885 -30.903,8.371c-3.766,9.243 -0.224,19.574 -3.618,28.066c-3.305,8.27 -18.392,9.546 -25.77,10.844"
                  style="fill:none;stroke:#fe0000;stroke-width:2.08px;"/>
            <path d="M641.615,741.585c-19.878,-4.126 -33.086,3.03 -34.012,12.565c-0.685,7.059 -1.92,11.926 7.46,19.571c5.444,4.437 16.519,12.97 26.552,14.762"
                  style="fill:none;stroke:#fe0000;stroke-width:2.08px;"/>
        <path id="Alle-Wege-in-einem-Pfad98" serif:id="Alle Wege in einem Pfad"
              d="M1984.06,762.52c6.099,2.416 20.098,8.584 27.879,12.027c7.403,3.275 19.368,7.553 21.776,15.281c2.912,9.342 -2.984,33.764 -5.661,45.329c-2.073,8.954 -9.702,9.347 -11.259,18.405c-3.038,17.676 -7.311,64.322 -8.87,85.022c-1.077,14.308 -0.624,32.771 -0.483,42.56c0.078,5.444 2.851,5.866 3.521,9.564c0.38,2.092 0.421,13.336 0.421,13.336"
              style="fill:none;stroke:#fe0000;stroke-width:2.08px;"/>
        <path d="M1591.37,357.096l1.132,-13.431" style="fill:none;stroke:#fe0000;stroke-width:2.08px;"/>
        <path d="M841.732,850.239c-0,0 10.315,-16.235 12.377,-21.799c1.797,-4.851 -0.007,-11.585 -0.007,-11.585"
              style="fill:none;stroke:#fe0000;stroke-width:2.08px;"/>
        <path d="M1568.43,304.038l-1.61,19.009" style="fill:none;stroke:#fe0000;stroke-width:2.08px;"/>
        
            <path id="_3" serif:id="3"
                  d="M1555.07,424.032c3.229,-0.78 8.378,-1.524 9.772,-1.808c9.33,-1.898 16.599,-0.122 20.315,5.236c2.91,4.195 -0.244,12.106 -3.239,18.7"
                  style="fill:none;stroke:#fe0000;stroke-width:2.08px;"/>
            <path d="M1555.07,424.042c13.031,-3.982 23.171,-9.528 28.636,-21.289c5.443,-11.715 6.028,-30.459 7.672,-45.657"
                  style="fill:none;stroke:#fe0000;stroke-width:2.08px;"/>
            <path d="M1555.07,424.056c20.866,-4.341 29.86,-20.555 45.979,-30.48c18.997,-11.697 41.622,-25.461 65.216,-32.029"
                  style="fill:none;stroke:#fe0000;stroke-width:2.08px;"/>
            <path d="M1555.07,424.044c21.193,-3.864 42.528,-6.475 61.713,-2.844c17.334,3.28 34.971,12.786 47.253,24.96"
                  style="fill:none;stroke:#fe0000;stroke-width:2.08px;"/>
            <path d="M1666.26,361.528c-7.453,2.133 -12.259,4.536 -16.608,6.902c-33.772,18.374 -30.163,40.525 -7.094,60.533c4.672,4.053 15.522,11.523 21.473,17.197"
                  style="fill:none;stroke:#fe0000;stroke-width:2.08px;"/>
        
            <path id="Alle-Wege-in-einem-Pfad99" serif:id="Alle Wege in einem Pfad"
                  d="M2155.15,1390.2c-4.131,1.493 -8.522,2.703 -12.91,4.009c-3.47,1.033 -7.43,1.967 -11.557,2.843"
                  style="fill:none;stroke:#fe0000;stroke-width:2.08px;"/>
            <path d="M2130.68,1386.76c7.673,4.327 6.224,8.632 -0,10.295"
                  style="fill:none;stroke:#fe0000;stroke-width:2.08px;"/>
            <path d="M2155.05,1390.2c-8.186,2.425 -16.277,0.385 -24.365,-3.443"
                  style="fill:none;stroke:#fe0000;stroke-width:2.08px;"/>
        <path id="Alle-Wege-in-einem-Pfad100" serif:id="Alle Wege in einem Pfad"
              d="M2046.17,1336.47c7.798,5.061 15.51,10.03 20.923,13.431c12.347,7.758 23.136,14.557 36.675,22.394c2.22,1.286 4.515,2.599 6.902,3.949c3.653,2.066 12.382,6.596 20.013,10.515"
              style="fill:none;stroke:#fe0000;stroke-width:2.08px;"/>
        <path id="Alle-Wege-in-einem-Pfad101" serif:id="Alle Wege in einem Pfad"
              d="M619.512,1041.93c-15.847,12.464 -33.556,25.072 -44.053,31.641c-7.748,4.848 -16.31,9.011 -24.89,11.503c-11.297,3.283 -23.01,3.38 -34.643,4.301c-22.055,1.746 -48.793,-1.396 -72.616,-6.338c-27.867,-5.78 -74.463,-19.667 -94.588,-28.346c-10.648,-4.593 -20.109,-13.974 -23.436,-22.831c-3.327,-8.856 1.353,-26.154 6.662,-35.048c9.606,-16.095 33.969,-47.738 45.902,-62.61c6.416,-7.996 14.144,-15.782 21.569,-22.851c15.656,-14.903 56.087,-49.946 73.06,-65.187c9.37,-8.414 19.554,-17.599 29.712,-25.283c11.741,-8.881 25.292,-15.635 37.473,-21.129c13.04,-5.882 27.396,-9.141 41.66,-10.89"
              style="fill:none;stroke:#fe0000;stroke-width:2.08px;"/>
        <path id="Alle-Wege-in-einem-Pfad102" serif:id="Alle Wege in einem Pfad"
              d="M641.615,788.483c8.807,1.042 16.916,2.627 24.614,4.738c5.652,1.55 14.75,5.352 23.158,9.534"
              style="fill:none;stroke:#fe0000;stroke-width:2.08px;"/>
        <path id="Alle-Wege-in-einem-Pfad103" serif:id="Alle Wege in einem Pfad"
              d="M716.756,836.241c0.027,0.231 0.055,0.462 0.082,0.694c1.796,15.435 2.899,70.251 3.239,89.509c0.074,4.235 1.095,31.531 1.095,31.531"
              style="fill:none;stroke:#fe0000;stroke-width:2.08px;"/>
        <path d="M905.062,780.099c0,0 -11.696,7.166 -23.046,13.192"
              style="fill:none;stroke:#fe0000;stroke-width:2.08px;"/>
        <path d="M837.4,796.412c-5.801,-3.888 -11.552,-9.819 -17.888,-9.257c-4.555,0.404 -11.664,3.942 -21.224,10.421c-5.532,3.75 -15.859,9.62 -23.096,13.705c-7.061,3.986 -14.406,3.941 -19.279,4.172c-5.882,0.278 -12.648,0.371 -18.584,0.422"
              style="fill:none;stroke:#fe0000;stroke-width:2.08px;"/>
        
            <path id="_31" serif:id="3" d="M1545.9,516.093c-6.667,13.531 -18.806,34.439 -25.663,39.151"
                  style="fill:none;stroke:#fe0000;stroke-width:2.08px;"/>
            <path d="M1544.95,555.244c0.267,-9.452 -3.043,-14.725 -6.255,-15.492c-6.345,-1.514 -9.445,9.605 -18.46,15.492"
                  style="fill:none;stroke:#fe0000;stroke-width:2.08px;"/>
            <path d="M1544.95,555.244c0.288,-6.431 -0.774,-12.022 -1.006,-18.002c-0.274,-7.046 -1.278,-13.997 1.965,-21.149"
                  style="fill:none;stroke:#fe0000;stroke-width:2.08px;"/>
        <path id="_32" serif:id="3"
              d="M1520.23,555.244c-16.937,11.073 -38.502,12.277 -52.935,14.515c-6.713,1.041 -15.313,2.319 -22.676,3.568"
              style="fill:none;stroke:#fe0000;stroke-width:2.08px;"/>
        
        
            <path id="Alle-Wege-in-einem-Pfad104" serif:id="Alle Wege in einem Pfad"
                  d="M1406.82,555.244c3.927,8.894 7.213,17.58 9.515,25.621c1.918,6.697 3.799,13.535 5.638,20.472"
                  style="fill:none;stroke:#fe0000;stroke-width:2.08px;"/>
            <path d="M1406.82,555.244c3.521,8.816 6.944,15.439 13.772,18.083c5.886,2.28 14.657,1.278 24.026,0"
                  style="fill:none;stroke:#fe0000;stroke-width:2.08px;"/>
            <path d="M1444.62,573.327c-9.649,1.472 -17.524,1.83 -21.39,5.828c-4.122,4.264 -3.836,12.418 -1.255,22.182"
                  style="fill:none;stroke:#fe0000;stroke-width:2.08px;"/>
        <path id="Alle-Wege-in-einem-Pfad105" serif:id="Alle Wege in einem Pfad"
              d="M1421.98,601.337c6.568,24.777 12.602,50.823 17.853,76.207c6.779,32.774 15.462,71.406 17.999,99.602c1.545,17.177 0.126,34.464 -1.553,51.698"
              style="fill:none;stroke:#fe0000;stroke-width:2.08px;"/>
        <path id="Alle-Wege-in-einem-Pfad106" serif:id="Alle Wege in einem Pfad"
              d="M1443.36,950.969c-0.045,3.745 -0.032,7.195 0.027,10.093c0.134,6.584 1.718,18.677 5.447,24.104c7.939,11.555 24.791,27.807 41.687,43.725c12.688,11.953 28.507,24.09 40.653,34.502c10.198,8.743 23.155,17.003 36.011,23.918c15.555,8.367 41.912,19.913 57.319,26.285c11.53,4.768 56.021,22.156 56.021,22.156"
              style="fill:none;stroke:#fe0000;stroke-width:2.08px;"/>
        <path id="Alle-Wege-in-einem-Pfad107" serif:id="Alle Wege in einem Pfad"
              d="M1345.57,455.344c6.998,10.734 15.14,22.056 21.791,31.327c13.279,18.51 28.751,44.317 39.459,68.573"
              style="fill:none;stroke:#fe0000;stroke-width:2.08px;"/>
        
            <path id="_33" serif:id="3" d="M1299.86,408.441c13.317,2.269 45.957,7.75 74.915,12.079"
                  style="fill:none;stroke:#fe0000;stroke-width:2.08px;"/>
            <path d="M1299.86,408.441c14.897,4.475 28.875,23.104 45.717,46.903"
                  style="fill:none;stroke:#fe0000;stroke-width:2.08px;"/>
            <path d="M1374.77,420.52c-8.3,-1.331 -18.879,3.461 -24.936,10.818c-6.757,8.205 -8.343,19.367 -4.262,24.006"
                  style="fill:none;stroke:#fe0000;stroke-width:2.08px;"/>
        <path id="_34" serif:id="3"
              d="M1581.91,446.16c-5.038,11.095 -10.729,22.362 -14.328,29.045c-5.746,10.671 -13.663,25.015 -21.157,39.826c-0.179,0.353 -0.356,0.707 -0.533,1.062"
              style="fill:none;stroke:#fe0000;stroke-width:2.08px;"/>
        <path d="M1337.41,895.714c0.252,1.828 0.536,3.537 0.851,4.976c1.709,7.785 4.963,20.415 10.3,23.101c2.424,1.22 7.051,1.724 10.29,2.323c16.338,3.02 43.908,7.328 62.539,10.144"
              style="fill:none;stroke:#fe0000;stroke-width:2.08px;"/>
        
            <path id="_5" serif:id="5"
                  d="M1150.35,531.995c-17.996,2.489 -38.125,-0.302 -53.406,-6.156c-12.037,-4.611 -22.491,-13.478 -31.777,-22.383"
                  style="fill:none;stroke:#fe0000;stroke-width:2.08px;"/>
            <path d="M1065.17,503.456c9.505,8.301 17.779,18.609 24.165,31.313c5.238,10.418 9.481,23.892 9.758,26.958"
                  style="fill:none;stroke:#fe0000;stroke-width:2.08px;"/>
            <path d="M1099.09,561.727c-0.957,-13.582 20.598,-25.316 51.26,-29.732"
                  style="fill:none;stroke:#fe0000;stroke-width:2.08px;"/>
        <path id="_7" serif:id="7"
              d="M1099.09,561.727c0.304,3.481 0.67,7.141 1.099,10.939c1.639,14.493 6.175,40.433 8.143,57.639c1.906,16.677 5.29,40.841 5.808,50.629c0.396,7.472 -3.65,18.104 -3.65,18.104"
              style="fill:none;stroke:#fe0000;stroke-width:2.08px;"/>
        <path id="_6" serif:id="6"
              d="M1244.35,439.142c-1.286,6.209 -2.635,11.629 -3.961,15.156c-6.303,16.767 -13.364,33.68 -26.485,45.875c-14.174,13.174 -37.567,26.391 -57.06,30.669c-2.122,0.466 -4.289,0.849 -6.488,1.153"
              style="fill:none;stroke:#fe0000;stroke-width:2.08px;"/>
        
            <path id="_3-4" serif:id="3-4" d="M1013.08,463.58l24.501,-16.31"
                  style="fill:none;stroke:#fe0000;stroke-width:2.08px;"/>
            <path id="_4-5" serif:id="4-5" d="M1037.58,447.27c-10.356,6.832 -9.657,13.94 -2.682,22.649"
                  style="fill:none;stroke:#fe0000;stroke-width:2.08px;"/>
            <path id="_3-5" serif:id="3-5" d="M1013.08,463.58c8.434,-6.101 14.208,-4.109 21.819,6.339"
                  style="fill:none;stroke:#fe0000;stroke-width:2.08px;"/>
        <path id="_51" serif:id="5"
              d="M1065.17,503.456c-3.939,-3.777 -7.667,-7.56 -11.217,-11.028c-5.502,-5.374 -12.997,-14.659 -19.051,-22.509"
              style="fill:none;stroke:#fe0000;stroke-width:2.08px;"/>
        
            <path id="_1-31" serif:id="1-3" d="M880.75,347.502l26.717,39.884"
                  style="fill:none;stroke:#fe0000;stroke-width:2.08px;"/>
            <path id="_2-31" serif:id="2-3"
                  d="M846.702,366.894c8.451,3.385 22.685,7.492 35.458,8.403c12.949,0.924 23.145,8.535 25.307,12.089"
                  style="fill:none;stroke:#fe0000;stroke-width:2.08px;"/>
            <path id="_1-21" serif:id="1-2" d="M846.702,366.894c18.532,5.367 38.951,-10.646 34.048,-19.392"
                  style="fill:none;stroke:#fe0000;stroke-width:2.08px;"/>
        <path id="_331" serif:id="33"
              d="M650.607,340.065c0.44,-0.397 0.882,-0.79 1.327,-1.181c11.78,-10.34 23.754,-19.299 36.256,-25.89c9.368,-4.939 23.203,-11.476 38.718,-13.145c10.115,-1.088 22.985,-1.618 36.164,3.88c11.092,4.627 19.912,13.478 30.343,23.58c10.727,10.39 22.794,22.152 32.224,28.952c6.282,4.53 14.228,8.036 21.063,10.633"
              style="fill:none;stroke:#fe0000;stroke-width:2.08px;"/>
        <path id="_52" serif:id="5"
              d="M1374.77,420.52c26.603,3.977 54.003,7.65 71.533,8.862c35.442,2.451 84.925,0.109 108.761,-5.35"
              style="fill:none;stroke:#fe0000;stroke-width:2.08px;"/>
        <path id="_4" serif:id="4"
              d="M1285.77,405.746c3.448,0.818 7.001,1.517 10.656,2.101c-0,-0 1.214,0.212 3.435,0.594"
              style="fill:none;stroke:#fe0000;stroke-width:2.08px;"/>
        <path id="_35" serif:id="3" d="M1037.58,447.27c42.789,-28.547 122.856,-81.985 169.348,-113.126l27.727,42.599"
              style="fill:none;stroke:#fe0000;stroke-width:2.08px;"/>
        <path id="_2" serif:id="2"
              d="M907.467,387.386c0,0 31.19,46.415 46.88,69.558c3.407,5.025 6.604,8.357 11.542,11.892c12.819,9.176 30.387,5.901 42.746,-2.257m0,-0l4.447,-2.999"
              style="fill:none;stroke:#fe0000;stroke-width:2.08px;"/>
        <path id="_11" serif:id="1" d="M866.51,326.218c4.571,6.833 14.24,21.284 14.24,21.284"
              style="fill:none;stroke:#fe0000;stroke-width:2.08px;"/>
</svg>