<?xml version="1.0" encoding="UTF-8" standalone="no"?><!DOCTYPE svg PUBLIC "-//W3C//DTD SVG 1.1//EN" "http://www.w3.org/Graphics/SVG/1.1/DTD/svg11.dtd">
<svg width="100%" height="100%" viewBox="0 0 2550 1994" version="1.1"
    xmlns="http://www.w3.org/2000/svg"
    xmlns:xlink="http://www.w3.org/1999/xlink" xml:space="preserve"
    xmlns:serif="http://www.serif.com/" style="fill-rule:evenodd;clip-rule:evenodd;stroke-linecap:round;stroke-linejoin:round;stroke-miterlimit:1.5;">
    <MetaInfo xmlns="http://www.prognoz.ru">
        <Geo>
            <GeoItem X="0" Y="0" Latitude="51.24177020918754" Longitude="7.105611562728882"/>
            <GeoItem X="2550" Y="1994" Latitude="51.236776961813064" Longitude="7.115809321403503"/>
        </Geo>
    </MetaInfo>
    <rect id="Elefanten" x="617.029" y="988.925" width="355.518" height="361.092" style="fill:#a9d3df;stroke:#000;stroke-width:1.67px;"/><rect id="Affenhaus" x="874.702" y="759.337" width="292.597" height="199.839" style="fill:#a9d3df;stroke:#000;stroke-width:1.67px;"/><rect id="KleinesAffenhaus" x="731.886" y="817.879" width="88.027" height="116.08" style="fill:#a9d3df;stroke:#000;stroke-width:1.67px;"/><rect id="Okavagoo" x="1010.96" y="984.266" width="90.405" height="120.243" style="fill:#a9d3df;stroke:#000;stroke-width:1.67px;"/><rect id="Tiger1" serif:id="Tiger" x="2166.76" y="1135.87" width="162.772" height="306.066" style="fill:#a9d3df;stroke:#000;stroke-width:1.67px;"/><rect id="Seelöwen1" serif:id="Seelöwen" x="1632.69" y="360.577" width="99.364" height="86.955" style="fill:#a9d3df;stroke:#000;stroke-width:1.67px;"/><rect id="Brillenpinguine1" serif:id="Brillenpinguine" x="1699.84" y="200.315" width="98.611" height="116.073" style="fill:#a9d3df;stroke:#000;stroke-width:1.67px;"/><rect id="Südamerikahaus" x="1532.95" y="229.434" width="80.227" height="91.22" style="fill:#a9d3df;stroke:#000;stroke-width:1.67px;"/><rect id="Biber" x="1891.43" y="369.008" width="16.138" height="16.679" style="fill:#a9d3df;stroke:#000;stroke-width:1.67px;"/><rect id="Vogelhaus" x="1565.3" y="543.564" width="137.437" height="233.759" style="fill:#a9d3df;stroke:#000;stroke-width:1.67px;"/><rect id="Gibbons" x="604.102" y="377.108" width="230.881" height="173.991" style="fill:#a9d3df;stroke:#000;stroke-width:1.67px;"/><rect id="Katzenhaus" x="1962.77" y="754.842" width="92.75" height="271.529" style="fill:#a9d3df;stroke:#000;stroke-width:1.67px;"/><rect id="Löwen1" serif:id="Löwen" x="1562.23" y="1504.63" width="661.525" height="370.509" style="fill:#a9d3df;stroke:#000;stroke-width:1.67px;"/><rect id="Lachender-Hans" serif:id="Lachender Hans" x="1091.92" y="1158.67" width="49.218" height="62.708" style="fill:#a9d3df;stroke:#000;stroke-width:1.67px;"/><rect id="Kangurus" x="478.738" y="778.707" width="230.055" height="177.909" style="fill:#a9d3df;stroke:#000;stroke-width:1.67px;"/><rect id="Okapis" x="1422.2" y="110.83" width="248.899" height="131.798" style="fill:#a9d3df;stroke:#000;stroke-width:1.67px;"/><rect id="Kirk-DikDiks" serif:id="Kirk DikDiks" x="1417.5" y="53.127" width="139.888" height="53.562" style="fill:#a9d3df;stroke:#000;stroke-width:1.67px;"/><rect id="JuniorZoo" x="1927.31" y="425.857" width="167.579" height="307.742" style="fill:#a9d3df;stroke:#000;stroke-width:1.67px;"/><rect id="Steinböcke" x="1837.42" y="388.348" width="129.093" height="264.948" style="fill:#a9d3df;stroke:#000;stroke-width:1.67px;"/><rect id="Pinguine" x="1704.51" y="465.41" width="108.132" height="145.833" style="fill:#a9d3df;stroke:#000;stroke-width:1.67px;"/><rect id="Altes-Ottergehege" serif:id="Altes Ottergehege" x="1710.93" y="334.352" width="49.835" height="51.697" style="fill:#a9d3df;stroke:#000;stroke-width:1.67px;"/><rect id="Eisbären" x="1731.58" y="345.794" width="107.389" height="146.18" style="fill:#a9d3df;stroke:#000;stroke-width:1.67px;"/><rect id="Terrarium" x="1859.37" y="193.008" width="166.198" height="140.209" style="fill:#a9d3df;stroke:#000;stroke-width:1.67px;"/><rect id="Aquarium" x="1859.37" y="193.008" width="166.198" height="140.209" style="fill:#a9d3df;stroke:#000;stroke-width:1.67px;"/><rect id="Musikmuschel" x="1022.11" y="501.87" width="55.052" height="52.896" style="fill:#a9d3df;stroke:#000;stroke-width:1.67px;"/><rect id="Eingang" x="799.693" y="259.306" width="113.16" height="91.099" style="fill:#a9d3df;stroke:#000;stroke-width:1.67px;"/><rect id="Yaks1" serif:id="Yaks" x="1125.07" y="651.647" width="338.575" height="233.673" style="fill:#a9d3df;stroke:#000;stroke-width:1.67px;"/><rect id="Ententeicj" x="1100.61" y="530.542" width="157.247" height="119.42" style="fill:#a9d3df;stroke:#000;stroke-width:1.67px;"/><rect id="Ziesel" x="1204.76" y="454.72" width="103.482" height="95.529" style="fill:#a9d3df;stroke:#000;stroke-width:1.67px;"/><rect id="Tierwelt-Patagoniens" serif:id="Tierwelt Patagoniens" x="1545.02" y="899.587" width="518.163" height="429.602" style="fill:#a9d3df;stroke:#000;stroke-width:1.67px;"/><rect id="Emus" x="1421.34" y="740.47" width="347.011" height="207.584" style="fill:#a9d3df;stroke:#000;stroke-width:1.67px;"/><rect id="Pelikane" x="1577.74" y="931.566" width="188.907" height="198.845" style="fill:#a9d3df;stroke:#000;stroke-width:1.67px;"/><rect id="Bären" x="1087.32" y="838.1" width="363.692" height="253.471" style="fill:#a9d3df;stroke:#000;stroke-width:1.67px;"/><rect id="Rothunde" x="1121.69" y="1074.32" width="173.468" height="160.05" style="fill:#a9d3df;stroke:#000;stroke-width:1.67px;"/><rect id="Zebras" x="1748.88" y="705.42" width="212.147" height="361.868" style="fill:#a9d3df;stroke:#000;stroke-width:1.67px;"/><rect id="Waldrapp" x="1757.58" y="619.452" width="48.539" height="91.46" style="fill:#a9d3df;stroke:#000;stroke-width:1.67px;"/><rect id="Pinselohrschweine" x="1772.59" y="521.427" width="69.679" height="130.066" style="fill:#a9d3df;stroke:#000;stroke-width:1.67px;"/><rect id="Bongos" x="1829.39" y="524.247" width="124.42" height="190.725" style="fill:#a9d3df;stroke:#000;stroke-width:1.67px;"/>
</svg>