<?xml version="1.0" encoding="UTF-8" standalone="no"?><!DOCTYPE svg PUBLIC "-//W3C//DTD SVG 1.1//EN" "http://www.w3.org/Graphics/SVG/1.1/DTD/svg11.dtd">
<svg width="100%" height="100%" viewBox="0 0 2550 1994" version="1.1"
    xmlns="http://www.w3.org/2000/svg"
    xmlns:xlink="http://www.w3.org/1999/xlink" xml:space="preserve"
    xmlns:serif="http://www.serif.com/" style="fill-rule:evenodd;clip-rule:evenodd;stroke-linecap:round;stroke-linejoin:round;stroke-miterlimit:1.5;">
    <MetaInfo xmlns="http://www.prognoz.ru">
        <Geo>
            <GeoItem X="0" Y="0" Latitude="51.24177020918754" Longitude="7.105611562728882"/>
            <GeoItem X="2550" Y="1994" Latitude="51.236776961813064" Longitude="7.115809321403503"/>
        </Geo>
    </MetaInfo>
    <circle id="Brillenpinguine2" serif:id="Brillenpinguine" cx="1734.55" cy="296.25" r="1.25"/><circle id="Kirk-Dik-Dik" cx="1459.55" cy="78.649" r="1.25"/><circle id="Taskine2" serif:id="Taskine" cx="1724.55" cy="1413.65" r="1.25"/><circle id="Rentiere1" serif:id="Rentiere" cx="1649.55" cy="1468.65" r="1.25"/><circle id="Kiang1" serif:id="Kiang" cx="1529.55" cy="1448.65" r="1.25"/><circle id="Juiniorzoo" cx="2024.55" cy="497.25" r="1.25"/><circle id="Löwenhaus1" serif:id="Löwenhaus" cx="1608.55" cy="1796.75" r="1.25"/><circle id="Löwenhöhle" cx="1938.55" cy="1616.75" r="1.25"/><circle id="Löwenturm" cx="2038.55" cy="1571.75" r="1.25"/><circle id="Tiger3" serif:id="Tiger" cx="2263.55" cy="1341.75" r="1.25"/><circle id="Okapis2" serif:id="Okapis" cx="1634.57" cy="223.649" r="1.25"/><circle id="Südamerikahaus2" serif:id="Südamerikahaus" cx="1569.57" cy="278.649" r="1.25"/><circle id="Vogelhaus2" serif:id="Vogelhaus" cx="1669.57" cy="613.649" r="1.25"/><circle id="Freiflughalle1" serif:id="Freiflughalle" cx="1630.9" cy="730.61" r="1.25"/><circle id="Yaks2" serif:id="Yaks" cx="1289.57" cy="808.649" r="1.25"/><circle id="Okavango" cx="1044.57" cy="1078.65" r="1.25"/><circle id="Elefantenhaus1" serif:id="Elefantenhaus" cx="867.567" cy="1302.15" r="1.25"/><circle id="Affenhaus2" serif:id="Affenhaus" cx="1039.57" cy="873.649" r="1.25"/><circle id="Musikmuschel2" serif:id="Musikmuschel" cx="1043.07" cy="533.649" r="1.25"/><circle id="Gibbons1" serif:id="Gibbons" cx="637.567" cy="452.149" r="1.25"/><circle id="Eingang2" serif:id="Eingang" cx="861.438" cy="309.839" r="1.25"/>
</svg>