<?xml version="1.0" encoding="UTF-8" standalone="no"?><!DOCTYPE svg PUBLIC "-//W3C//DTD SVG 1.1//EN" "http://www.w3.org/Graphics/SVG/1.1/DTD/svg11.dtd"><svg width="100%" height="100%" viewBox="0 0 2550 1994" version="1.1" xmlns="http://www.w3.org/2000/svg" xmlns:xlink="http://www.w3.org/1999/xlink" xml:space="preserve" xmlns:serif="http://www.serif.com/" style="fill-rule:evenodd;clip-rule:evenodd;stroke-linecap:round;stroke-linejoin:round;stroke-miterlimit:1.5;"><MetaInfo xmlns="http://www.prognoz.ru"><Geo><GeoItem X="0" Y="0" Latitude="51.24177020918754" Longitude="7.105611562728882"/><GeoItem X="2550" Y="1994" Latitude="51.236776961813064" Longitude="7.115809321403503"/></Geo></MetaInfo><g id="Zoo"><g id="simple-weg" serif:id="simple weg"><path d="M866.51,326.218c29.191,43.635 58.377,87.273 87.837,130.726c3.407,5.025 6.604,8.357 11.542,11.892c12.819,9.176 30.387,5.901 42.746,-2.257c66.335,-43.789 132.257,-88.201 198.296,-132.435l24.101,37.335c14.607,20.3 36.933,31.821 65.39,36.368c0,0 105.945,18.496 149.883,21.535c37.842,2.617 91.384,-3.004 113.737,-4.991c7.664,-0.681 25.456,-3.436 26.511,3.442c1.256,8.188 -11.009,32.595 -18.967,47.372c-5.746,10.671 -13.663,25.015 -21.157,39.826c-7.095,14.023 -13.713,28.59 -21.138,36.478c-14.819,15.744 -45.495,17.257 -61.411,19.725c-9.743,1.511 -28.045,3.059 -35.207,6.734c-6.86,3.519 -7.644,8.62 -7.043,16.307c1.684,21.531 17.292,79.457 23.465,110.93c5.069,25.85 12.816,77.981 12.816,77.981" style="fill:none;stroke:#000;stroke-width:4.17px;"/></g></g></svg>