<?xml version="1.0" encoding="UTF-8" standalone="no"?><!DOCTYPE svg PUBLIC "-//W3C//DTD SVG 1.1//EN" "http://www.w3.org/Graphics/SVG/1.1/DTD/svg11.dtd"><svg width="100%" height="100%" viewBox="0 0 2550 1994" version="1.1" xmlns="http://www.w3.org/2000/svg" xmlns:xlink="http://www.w3.org/1999/xlink" xml:space="preserve" xmlns:serif="http://www.serif.com/" style="fill-rule:evenodd;clip-rule:evenodd;stroke-linecap:round;stroke-linejoin:round;stroke-miterlimit:1.5;"><MetaInfo xmlns="http://www.prognoz.ru"><Geo><GeoItem X="0" Y="0" Latitude="51.24177020918754" Longitude="7.105611562728882"/><GeoItem X="2550" Y="1994" Latitude="51.236776961813064" Longitude="7.115809321403503"/></Geo></MetaInfo><g id="Zoo"><g id="simple-weg" serif:id="simple weg"><path id="Teich-außen-0" serif:id="Teich außen 0" d="M650.607,340.065c0.44,-0.397 0.882,-0.79 1.327,-1.181c11.78,-10.34 23.754,-19.299 36.256,-25.89c9.368,-4.939 23.203,-11.476 38.718,-13.145c10.115,-1.088 22.985,-1.618 36.164,3.88c11.092,4.627 19.912,13.478 30.343,23.58c10.727,10.39 22.794,22.152 32.224,28.952c7.323,5.281 16.907,9.169 24.357,11.849c6.517,2.345 13.562,2.821 20.343,4.231l27.839,1.189c18.66,27.849 37.359,55.669 56.169,83.414c3.407,5.025 6.604,8.357 11.542,11.892c12.819,9.176 30.387,5.901 42.746,-2.257" style="fill:none;stroke:#000;stroke-width:1.67px;"/><path id="Teich-außen-2" serif:id="Teich außen 2" d="M1083.55,718.032c-11.331,8.48 -20.503,15.956 -36.858,21.608c-16.952,5.858 -33.226,10.854 -50.164,13.248c-21.66,3.062 -57.64,5.316 -79.353,4.63c-17.021,-0.538 -36.379,-3.19 -52.033,-7.137c-15.786,-3.981 -63.212,-23.136 -75.634,-27.245c-5.468,-1.81 -11.358,-1.729 -17.219,-0.967" style="fill:none;stroke:#000;stroke-width:1.67px;"/><path id="Teich-außen" serif:id="Teich außen" d="M772.287,722.169c-3.709,0.483 -7.408,1.239 -10.981,1.962c-10.16,2.054 -21.132,6.546 -32.759,11.333c-12.328,5.076 -29.294,10.374 -44.602,11.253c-16.67,0.956 -39.733,-4.573 -54.551,-7.805c-11.807,-2.574 -23.432,-6.831 -32.715,-15.07c-9.199,-8.165 -16.259,-21.219 -19.38,-35.28c-3.297,-14.856 -2.732,-33.804 -0.95,-50.001c1.783,-16.196 7.635,-32.042 11.167,-47.533c3.416,-14.98 7.599,-30.468 8.931,-45.775c0.253,-2.901 0.416,-5.86 0.52,-8.868" style="fill:none;stroke:#000;stroke-width:1.67px;"/><path id="Hängebrücke" d="M596.967,536.385l14.904,13.665l-0.292,43.553l160.053,121.858l0.655,6.708" style="fill:none;stroke:#000;stroke-width:1.67px;"/><path id="Gibbon---Hängebrücke" serif:id="Gibbon - Hängebrücke" d="M596.967,536.385c0.52,-14.997 -0.427,-31.219 0.886,-47.488c1.139,-14.11 2.168,-29.381 4.323,-44.032" style="fill:none;stroke:#000;stroke-width:1.67px;"/><path id="Gibbon-außen" serif:id="Gibbon außen" d="M602.176,444.865c0.838,-5.702 1.848,-11.31 3.1,-16.719c6.343,-27.389 13.338,-42.649 21.004,-57.442c6.031,-11.637 14.582,-21.862 24.327,-30.639" style="fill:none;stroke:#000;stroke-width:1.87px;"/><path id="Gibbon-innen" serif:id="Gibbon innen" d="M602.176,444.865l37.403,-6.276l3.403,-37.529l22.576,-33.008l-14.951,-27.987" style="fill:none;stroke:#000;stroke-width:1.87px;"/></g></g></svg>