<?xml version="1.0" encoding="UTF-8" standalone="no"?><!DOCTYPE svg PUBLIC "-//W3C//DTD SVG 1.1//EN" "http://www.w3.org/Graphics/SVG/1.1/DTD/svg11.dtd"><svg width="100%" height="100%" viewBox="0 0 2550 1994" version="1.1" xmlns="http://www.w3.org/2000/svg" xmlns:xlink="http://www.w3.org/1999/xlink" xml:space="preserve" xmlns:serif="http://www.serif.com/" style="fill-rule:evenodd;clip-rule:evenodd;stroke-linecap:round;stroke-linejoin:round;stroke-miterlimit:1.5;"><MetaInfo xmlns="http://www.prognoz.ru"><Geo><GeoItem X="0" Y="0" Latitude="51.24177020918754" Longitude="7.105611562728882"/><GeoItem X="2550" Y="1994" Latitude="51.236776961813064" Longitude="7.115809321403503"/></Geo></MetaInfo><g id="Zoo"><g><g id="Layer7"><path d="M866.51,326.218c10.141,15.159 21.516,32.16 31.668,47.312" style="fill:none;stroke:#fe0000;stroke-width:2.08px;"/><path d="M1008.63,466.579c0.503,-0.333 132.758,-88.537 198.296,-132.435l24.101,37.335c14.607,20.3 36.933,31.821 65.39,36.368c-0,-0 105.945,18.496 149.883,21.535c37.842,2.617 91.384,-3.004 113.737,-4.991c7.664,-0.681 25.456,-3.436 26.511,3.442c1.256,8.188 -11.009,32.595 -18.967,47.372c-5.746,10.671 -13.663,25.015 -21.157,39.826c-7.095,14.023 -13.713,28.59 -21.138,36.478c-14.819,15.744 -45.495,17.257 -61.411,19.725c-9.743,1.511 -28.045,3.059 -35.207,6.734c-6.86,3.519 -7.644,8.62 -7.043,16.307c1.684,21.531 17.292,79.457 23.465,110.93c5.069,25.85 12.816,77.981 12.816,77.981" style="fill:none;stroke:#fe0000;stroke-width:2.08px;"/><path d="M1606.71,403.788c21.553,-14.814 48.463,-35.428 64.658,-44.443c9.876,-5.499 23.83,-6.201 32.509,-9.65c6.96,-2.765 13.517,-6.626 19.566,-11.042c6.658,-4.861 18.089,-10.247 29.745,-19.389c12.123,-9.508 24.47,-22.803 30.87,-29.125c6.922,-6.838 9.437,-15.714 14.056,-24.278c6.155,-11.412 18.465,-34.65 23.733,-44.273c3.081,-5.63 6.906,-13.539 9.74,-17.106c2.28,-2.87 3.939,-4.445 7.719,-4.158c4.362,0.331 8.428,3.478 9.804,9.028c3.305,13.331 7.49,50.766 9.759,71.023c1.88,16.783 3.982,34.435 3.853,50.519c-0.124,15.404 -1.719,30.854 -4.628,45.981c-3.437,17.868 -9.989,42.204 -15.993,61.23c-5.676,17.987 -12.404,35.24 -18.821,52.977c-9.311,25.731 -22.581,69.393 -35.599,101.259c-12.504,30.608 -29.556,64.196 -43.719,89.884c-12.436,22.555 -30.108,44.05 -44.213,63.057c-12.908,17.393 -24.913,34.313 -40.927,48.898c-16.272,14.821 -35.719,28.79 -55.509,39.953c-24.473,13.804 -60.466,31.41 -93.906,36.497c-34.586,5.262 -74.151,6.319 -111.324,7.496c-37.737,1.196 -81.566,1.427 -115.099,-10.5c-31.672,-11.266 -64.391,-35.311 -86.095,-52.515c-17.559,-13.917 -33.401,-33.998 -44.128,-50.704c-9.637,-15.009 -16.857,-35.357 -22.863,-47.219c-4.034,-7.967 -12.542,-17.469 -19.407,-18.15c-6.293,-0.623 -26.226,18.457 -26.944,18.994" style="fill:none;stroke:#fe0000;stroke-width:2.08px;"/><path d="M1083.55,718.032c-11.331,8.48 -20.503,15.956 -36.858,21.608c-16.952,5.858 -33.226,10.854 -50.164,13.248c-21.66,3.062 -57.64,5.316 -79.353,4.63c-17.021,-0.538 -36.379,-3.19 -52.033,-7.137c-15.786,-3.981 -63.212,-23.136 -75.634,-27.245c-5.468,-1.81 -11.358,-1.729 -17.219,-0.967" style="fill:none;stroke:#fe0000;stroke-width:2.08px;"/><path d="M772.287,722.169c-3.709,0.483 -7.408,1.239 -10.981,1.962c-10.16,2.054 -21.132,6.546 -32.759,11.333c-12.328,5.076 -29.294,10.374 -44.602,11.253c-16.67,0.956 -39.733,-4.573 -54.551,-7.805c-11.807,-2.574 -23.432,-6.831 -32.715,-15.07c-9.199,-8.165 -16.259,-21.219 -19.38,-35.28c-3.297,-14.856 -2.732,-33.804 -0.95,-50.001c1.783,-16.196 7.635,-32.042 11.167,-47.533c3.416,-14.98 7.599,-30.468 8.931,-45.775c0.253,-2.901 0.416,-5.86 0.52,-8.868" style="fill:none;stroke:#fe0000;stroke-width:2.08px;"/><path d="M596.967,536.385l14.904,13.665l-0.292,43.553l160.053,121.858l0.655,6.708" style="fill:none;stroke:#fe0000;stroke-width:2.08px;"/><path d="M596.967,536.385c0.52,-14.997 -0.427,-31.219 0.886,-47.488c1.139,-14.11 2.168,-29.381 4.323,-44.032" style="fill:none;stroke:#fe0000;stroke-width:2.08px;"/><path d="M602.176,444.865c0.838,-5.702 1.848,-11.31 3.1,-16.719c6.343,-27.389 13.338,-42.649 21.004,-57.442c6.031,-11.637 14.582,-21.862 24.327,-30.639" style="fill:none;stroke:#fe0000;stroke-width:2.08px;"/><path d="M602.176,444.865l37.403,-5.776l3.403,-37.529l22.576,-33.008l-14.951,-28.487" style="fill:none;stroke:#fe0000;stroke-width:2.08px;"/><path d="M650.607,340.065c0.44,-0.397 0.882,-0.79 1.327,-1.181c11.78,-10.34 23.754,-19.299 36.256,-25.89c9.368,-4.939 23.203,-11.476 38.718,-13.145c10.115,-1.088 22.985,-1.618 36.164,3.88c11.092,4.627 19.912,13.478 30.343,23.58c10.727,10.39 22.794,22.152 32.224,28.952c7.323,5.281 16.907,9.169 24.357,11.849c6.517,2.345 13.562,2.821 20.343,4.231l27.839,1.189c18.66,27.849 37.359,55.669 56.169,83.414c3.407,5.025 6.604,8.357 11.542,11.892c12.819,9.176 30.387,5.901 42.746,-2.257" style="fill:none;stroke:#fe0000;stroke-width:2.08px;"/></g></g></g></svg>