<?xml version="1.0" encoding="UTF-8" standalone="no"?><!DOCTYPE svg PUBLIC "-//W3C//DTD SVG 1.1//EN" "http://www.w3.org/Graphics/SVG/1.1/DTD/svg11.dtd">
<svg width="100%" height="100%" viewBox="0 0 2550 1994" version="1.1"
    xmlns="http://www.w3.org/2000/svg"
    xmlns:xlink="http://www.w3.org/1999/xlink" xml:space="preserve"
    xmlns:serif="http://www.serif.com/" style="fill-rule:evenodd;clip-rule:evenodd;stroke-linecap:round;stroke-linejoin:round;stroke-miterlimit:1.5;">
    <MetaInfo xmlns="http://www.prognoz.ru">
        <Geo>
            <GeoItem X="0" Y="0" Latitude="51.24177020918754" Longitude="7.105611562728882"/>
            <GeoItem X="2550" Y="1994" Latitude="51.236776961813064" Longitude="7.115809321403503"/>
        </Geo>
    </MetaInfo>
    <path id="Alle-Wege-in-einem-Pfad" serif:id="Alle Wege in einem Pfad" d="M1334.28,414.187c-0,0 -2.973,17.047 2.888,27.445c7.89,13.994 20.6,31.654 30.202,45.039c18.148,25.298 40.392,64.225 48.974,94.194c8.766,30.611 16.77,64.187 23.491,96.679c6.779,32.774 15.462,71.406 17.999,99.602c2.08,23.124 -1.212,46.45 -3.279,69.575c-2.19,24.498 -8.002,58.36 -9.862,77.417c-1.196,12.258 -1.49,27.503 -1.299,36.924c0.134,6.584 1.718,18.677 5.447,24.104c7.939,11.555 24.791,27.807 41.687,43.725c12.688,11.953 28.507,24.09 40.653,34.502c10.198,8.743 23.155,17.003 36.011,23.918c15.555,8.367 41.912,19.913 57.319,26.285c11.53,4.768 56.021,22.156 56.021,22.156" style="fill:none;stroke:#fe0000;stroke-width:2.08px;"/><path id="Alle-Wege-in-einem-Pfad1" serif:id="Alle Wege in einem Pfad" d="M866.51,326.218c10.141,15.159 21.516,32.16 31.668,47.312" style="fill:none;stroke:#fe0000;stroke-width:2.08px;"/><path id="Alle-Wege-in-einem-Pfad2" serif:id="Alle Wege in einem Pfad" d="M1008.63,466.579c0.503,-0.333 132.758,-88.537 198.296,-132.435l24.101,37.335c14.607,20.3 36.933,31.821 65.39,36.368c-0,-0 105.945,18.496 149.883,21.535c37.842,2.617 91.692,-0.23 113.238,-6.501c16.27,-4.735 31.876,-14.706 32.93,-7.829c1.256,8.188 -16.929,45.376 -24.887,60.153c-5.746,10.671 -13.663,25.015 -21.157,39.826c-7.095,14.023 -12.815,29.544 -21.138,36.478c-17.491,14.572 -42.077,15.782 -57.993,18.25c-9.744,1.51 -23.462,3.522 -31.604,5.217c-6.878,1.431 -13.547,2.775 -19.53,5.281" style="fill:none;stroke:#fe0000;stroke-width:2.08px;"/><path id="Alle-Wege-in-einem-Pfad3" serif:id="Alle Wege in einem Pfad" d="M1591.78,413.522c-2.954,-0.559 48.689,-45.698 74.146,-51.887c10.984,-2.67 29.27,-8.491 37.949,-11.94c6.96,-2.765 13.517,-6.626 19.566,-11.042c6.658,-4.861 18.089,-10.247 29.745,-19.389c12.123,-9.508 24.47,-22.803 30.87,-29.125c6.922,-6.838 9.437,-15.714 14.056,-24.278c6.155,-11.412 18.465,-34.65 23.733,-44.273c3.081,-5.63 6.906,-13.539 9.74,-17.106c2.28,-2.87 3.939,-4.445 7.719,-4.158c4.362,0.331 8.428,3.478 9.804,9.028c3.305,13.331 7.49,50.766 9.759,71.023c1.88,16.783 3.982,34.435 3.853,50.519c-0.124,15.404 -1.719,30.854 -4.628,45.981c-3.437,17.868 -9.989,42.204 -15.993,61.23c-5.676,17.987 -12.404,35.24 -18.821,52.977c-9.311,25.731 -22.581,69.393 -35.599,101.259c-12.504,30.608 -29.556,64.196 -43.719,89.884c-12.436,22.555 -30.108,44.05 -44.213,63.057c-12.908,17.393 -24.913,34.313 -40.927,48.898c-16.272,14.821 -35.719,28.79 -55.509,39.953c-24.473,13.804 -60.466,31.41 -93.906,36.497c-34.586,5.262 -74.151,6.319 -111.324,7.496c-37.737,1.196 -81.566,1.427 -115.099,-10.5c-31.672,-11.266 -64.391,-35.311 -86.095,-52.515c-17.559,-13.917 -33.401,-33.998 -44.128,-50.704c-9.637,-15.009 -16.857,-35.357 -22.863,-47.219c-4.034,-7.967 -12.542,-17.469 -19.407,-18.15c-6.293,-0.623 -26.226,18.457 -26.944,18.994" style="fill:none;stroke:#fe0000;stroke-width:2.08px;"/><path id="Alle-Wege-in-einem-Pfad4" serif:id="Alle Wege in einem Pfad" d="M1083.55,718.032c-11.331,8.48 -20.503,15.956 -36.858,21.608c-16.952,5.858 -33.226,10.854 -50.164,13.248c-21.66,3.062 -57.64,5.316 -79.353,4.63c-17.021,-0.538 -36.379,-3.19 -52.033,-7.137c-15.786,-3.981 -63.212,-23.136 -75.634,-27.245c-5.468,-1.81 -11.358,-1.729 -17.219,-0.967" style="fill:none;stroke:#fe0000;stroke-width:2.08px;"/><path id="Alle-Wege-in-einem-Pfad5" serif:id="Alle Wege in einem Pfad" d="M772.287,722.169c-3.709,0.483 -7.408,1.239 -10.981,1.962c-10.16,2.054 -21.132,6.546 -32.759,11.333c-12.328,5.076 -29.294,10.374 -44.602,11.253c-16.67,0.956 -39.733,-4.573 -54.551,-7.805c-11.807,-2.574 -23.432,-6.831 -32.715,-15.07c-9.199,-8.165 -16.259,-21.219 -19.38,-35.28c-3.297,-14.856 -2.732,-33.804 -0.95,-50.001c1.783,-16.196 7.635,-32.042 11.167,-47.533c3.416,-14.98 7.599,-30.468 8.931,-45.775c0.253,-2.901 0.416,-5.86 0.52,-8.868" style="fill:none;stroke:#fe0000;stroke-width:2.08px;"/><path id="Alle-Wege-in-einem-Pfad6" serif:id="Alle Wege in einem Pfad" d="M596.967,536.385l14.904,13.665l-0.292,43.553l160.053,121.858l0.655,6.708" style="fill:none;stroke:#fe0000;stroke-width:2.08px;"/><path id="Alle-Wege-in-einem-Pfad7" serif:id="Alle Wege in einem Pfad" d="M596.967,536.385c0.52,-14.997 -0.427,-31.219 0.886,-47.488c1.139,-14.11 2.168,-29.381 4.323,-44.032" style="fill:none;stroke:#fe0000;stroke-width:2.08px;"/><path id="Alle-Wege-in-einem-Pfad8" serif:id="Alle Wege in einem Pfad" d="M602.176,444.865c0.838,-5.702 1.848,-11.31 3.1,-16.719c6.343,-27.389 13.338,-42.649 21.004,-57.442c6.031,-11.637 14.582,-21.862 24.327,-30.639" style="fill:none;stroke:#fe0000;stroke-width:2.08px;"/><path id="Alle-Wege-in-einem-Pfad9" serif:id="Alle Wege in einem Pfad" d="M602.176,444.865l37.403,-5.776l3.403,-37.529l22.576,-33.008l-14.951,-28.487" style="fill:none;stroke:#fe0000;stroke-width:2.08px;"/><path id="Alle-Wege-in-einem-Pfad10" serif:id="Alle Wege in einem Pfad" d="M650.607,340.065c0.44,-0.397 0.882,-0.79 1.327,-1.181c11.78,-10.34 23.754,-19.299 36.256,-25.89c9.368,-4.939 23.203,-11.476 38.718,-13.145c10.115,-1.088 22.985,-1.618 36.164,3.88c11.092,4.627 19.912,13.478 30.343,23.58c10.727,10.39 22.794,22.152 32.224,28.952c7.323,5.281 16.907,9.169 24.357,11.849c6.517,2.345 13.562,2.821 20.343,4.231l27.839,1.189c18.66,27.849 37.359,55.669 56.169,83.414c3.407,5.025 6.604,8.357 11.542,11.892c12.819,9.176 30.387,5.901 42.746,-2.257" style="fill:none;stroke:#fe0000;stroke-width:2.08px;"/><path id="Alle-Wege-in-einem-Pfad11" serif:id="Alle Wege in einem Pfad" d="M1851.01,407.264c0,-0 -6.065,-2.117 -8.107,-4.419c-2.502,-2.821 -5.226,-8.167 -6.906,-12.506c-2.438,-6.297 -5.512,-16.932 -8.052,-25.464c-2.581,-8.667 -5.404,-19.22 -7.932,-26.538c-2.07,-5.993 -4.678,-11.821 -7.735,-17.375c-5.125,-9.31 -10.913,-17.858 -15.395,-22.409c-3.485,-3.538 -10.419,-11.068 -10.419,-11.068" style="fill:none;stroke:#fe0000;stroke-width:2.08px;"/><path id="Alle-Wege-in-einem-Pfad12" serif:id="Alle Wege in einem Pfad" d="M1760.56,650.892c0,-0 -11.13,-9.22 -15.833,-16.626c-5.612,-8.838 -9.15,-19.912 -12.152,-39.608c-1.83,-12.005 -4.309,-22.959 -8.152,-34.649c-3.843,-11.69 -12.807,-31.624 -16.235,-41.998c-6.698,-20.27 -11.742,-32 -21.853,-45.705c-7.287,-9.877 -15.077,-19.328 -24.006,-27.749c-9.355,-8.823 -23.054,-16.107 -31.147,-25.882c-6.827,-8.246 -7.82,-11.614 -9.89,-16.604c-0.458,-1.105 -4.435,-11.337 -4.435,-11.337" style="fill:none;stroke:#fe0000;stroke-width:2.08px;"/><path id="Alle-Wege-in-einem-Pfad13" serif:id="Alle Wege in einem Pfad" d="M1251.9,391.564c-0,-0 -5.96,47.966 -11.512,62.734c-6.303,16.767 -13.364,33.68 -26.485,45.875c-14.174,13.174 -37.567,26.391 -57.06,30.669c-19.492,4.278 -42.746,1.566 -59.894,-5.003c-17.142,-6.566 -31.073,-21.765 -42.994,-33.411c-10.853,-10.602 -29.464,-36.422 -29.464,-36.422" style="fill:none;stroke:#fe0000;stroke-width:2.08px;"/><path id="Alle-Wege-in-einem-Pfad14" serif:id="Alle Wege in einem Pfad" d="M1691.49,354.107c0,0 -27.455,-11.842 -41.19,-13.965c-18.3,-2.829 -51.556,-4.625 -69.652,-5.738c-12.954,-0.798 -26.021,0.459 -38.924,-0.945c-15.817,-1.722 -32.892,-2.102 -43.762,-7.547c-3.139,-1.573 -8.954,-7.375 -11.811,-10.645c-9.777,-11.19 -15.714,-25.773 -21.167,-35.053c-4.602,-7.832 -7.159,-16.975 -9.467,-25.761c-1.293,-4.922 -2.314,-10.457 -2.608,-15.627c-0.302,-5.314 0.138,-10.246 -0.189,-13.966c-0.572,-6.521 -0.557,-10.613 -3.884,-16.251c-3.874,-6.564 -16.714,-11.207 -19.355,-20.134c-3.786,-12.793 -7.697,-56.13 -9.272,-73.718c-0.46,-5.139 -0.388,-5.973 0.791,-7.259c1.178,-1.285 6.281,-0.452 6.281,-0.452l232.616,18.628c0,0 2.383,0.125 3.175,0.851c0.792,0.726 1.577,3.507 1.577,3.507c-0,-0 4.846,19.805 6.543,28.717c1.561,8.192 1.2,16.778 3.642,24.752c3.401,11.104 14.162,27.065 16.762,41.873c3.057,17.407 1.766,41.708 1.577,62.57c-0.191,21.001 -1.683,66.163 -1.683,66.163Z" style="fill:none;stroke:#fe0000;stroke-width:2.08px;"/><path id="Alle-Wege-in-einem-Pfad15" serif:id="Alle Wege in einem Pfad" d="M1816.92,509.421c-0,-0 11.69,12.606 15.475,16.363c24.153,23.973 88.81,98.687 132.182,137.796c23.92,21.568 53.561,41.404 78.573,58.762c14.203,9.857 27.766,17.894 35.818,27.544c8.212,9.841 12.026,23.01 15.908,36.195c3.882,13.185 7.1,26.563 9.043,36.47c2.979,15.195 0.952,30.95 -1.641,46.216c-3.643,21.45 -13.616,56.348 -19.488,82.308c-5.525,24.424 -11.941,52.588 -15.744,73.455c-3.121,17.128 -5.632,34.399 -7.071,51.749c-1.468,17.689 -1.545,37.657 -1.736,54.387c-0.176,15.333 0.292,30.666 0.586,45.996c0.296,15.408 2.271,31.653 1.187,46.448c-1.048,14.299 -3.453,28.64 -9.261,41.748c-6.998,15.795 -18.779,40.329 -33.885,51.258c-15.106,10.929 -36.53,10.738 -55.116,15.872c-22.088,6.102 -61.456,14.637 -82.255,24.379c-18.072,8.466 -33.054,25.494 -47.891,38.459c-14.781,12.915 -40.01,41.769 -53.981,55.556c-19.115,18.864 -35.05,34.719 -57.321,52.434c-18.101,14.398 -44.675,26.955 -60.068,36.052c-10.878,6.429 -27.412,16.18 -40.003,17.243c-13.439,1.134 -34.186,-9.044 -48.723,-16.558c-16.545,-8.551 -31.129,-23.973 -45.45,-38.786c-13.936,-14.416 -17.936,-28.086 -29.774,-44.27c-12.191,-16.665 -28.115,-37.366 -39.119,-50.583c-8.434,-10.13 -17.764,-22.641 -29.225,-29.152c-16.19,-9.197 -43.939,-18.295 -67.645,-26.023c-28.933,-9.431 -78.812,-22.592 -103.438,-32.169c-16.128,-6.271 -31.049,-14.19 -44.324,-25.289c-13.617,-11.385 -27.441,-27.009 -37.564,-40.981c-9.527,-13.15 -17.546,-27.618 -23.172,-42.85c-6.446,-17.452 -10.179,-41.281 -15.502,-61.862c-4.074,-15.753 -8.59,-38.583 -15.869,-60.532c-6.113,-18.435 -12.809,-36.937 -10.707,-52.554c2.531,-18.804 17.002,-35.028 29.12,-51.478c9.93,-13.48 17.055,-27.381 25.084,-40.705c16.847,-27.956 40.256,-68.243 49.866,-84.272c2.439,-4.069 13.101,-20.646 13.101,-20.646" style="fill:none;stroke:#fe0000;stroke-width:2.08px;"/><path id="Alle-Wege-in-einem-Pfad16" serif:id="Alle Wege in einem Pfad" d="M1143.81,1180.5c0,-0 19.527,4.096 24.311,5.809c31.042,11.112 128.4,46.591 174.829,63.235c35.569,12.751 80.037,29.043 106.75,38.13c17.667,6.009 35.99,13.487 54.086,18.043c11.6,2.92 16.678,5.321 27.547,7.015c6.41,1 25.8,2.7 32.958,1.888c23.624,-2.679 54.793,-8.963 78.912,-14.911c20.452,-5.044 43.636,-12.154 61.234,-14.861c14.594,-2.245 22.845,-2.883 37.552,-1.568c14.954,1.337 36.977,5.971 52.169,8.69c27.072,4.847 89.596,17.064 117.003,21.658c15.786,2.646 38.662,4.782 47.442,6.811c2.3,0.531 4.084,3.685 5.239,4.762c0.586,0.546 2.386,5.655 2.386,5.655" style="fill:none;stroke:#fe0000;stroke-width:2.08px;"/><path id="Alle-Wege-in-einem-Pfad17" serif:id="Alle Wege in einem Pfad" d="M1523.91,1311.3c-0,0 8.301,-9.186 10.044,-11.186c13.992,-16.047 56.24,-65.727 78.444,-90.535c17.786,-19.871 38.053,-40.785 53.927,-58.529c13.978,-15.626 30.032,-30.634 41.316,-47.935c11.284,-17.3 20.815,-36.199 28.152,-55.507c3.901,-10.265 7.134,-21.624 10.087,-33.11c2.941,-11.44 5.603,-23.006 7.999,-34.41c3.323,-15.819 5.667,-35.041 7.97,-52.478c1.229,-9.303 2.182,-24.106 2.51,-32.224c0.831,-20.644 -1.757,-36.595 -5.323,-56.945c-4.142,-23.632 -14.542,-70.649 -23.394,-88.612c-5.215,-10.583 -19.863,-25.74 -19.863,-25.74" style="fill:none;stroke:#fe0000;stroke-width:2.08px;"/><path id="Alle-Wege-in-einem-Pfad18" serif:id="Alle Wege in einem Pfad" d="M1962.88,662.04c-0,-0 5.888,-9.419 5.751,-12.764c-0.163,-3.963 -2.441,-9.615 -4.166,-14.256c-4.339,-11.674 -15.956,-38.883 -21.867,-55.793c-5.24,-14.994 -10.956,-30.505 -13.597,-45.669c-2.594,-14.899 -4.835,-31.015 -1.442,-44.544c3.393,-13.529 10.783,-24.314 19.67,-33.254c8.34,-8.39 18.164,-15.218 28.77,-19.589c10.474,-4.316 25.714,-8.99 36.997,-10.011c11.468,-1.038 25.298,-1.391 35.889,2.626c10.592,4.017 20.1,13.335 27.371,21.871c7.219,8.474 13.662,19.408 15.812,29.411c2.15,10.004 -1.019,20.208 -3.375,30.215c-2.547,10.819 -6.944,22.425 -10.625,34.029c-5.99,18.882 -16.968,61.992 -19.507,81.534c-1.556,11.984 1.434,23.999 3.438,35.916c2.671,15.885 10.935,46.931 14.061,59.491c0.926,3.724 3.138,9.708 3.553,13.291c0.472,4.062 -4.709,11.013 -4.709,11.013" style="fill:none;stroke:#fe0000;stroke-width:2.08px;"/><path id="Alle-Wege-in-einem-Pfad19" serif:id="Alle Wege in einem Pfad" d="M1763.38,867.029c0,-0 9.62,13.833 11.162,15.806c6.11,7.82 18.734,27.244 26.012,42.384c9.755,20.293 28.23,49.565 46.009,71.346c18.791,23.021 47.354,45.909 68.906,66.568c20.215,19.376 43.271,43.066 64.331,58.828c19.973,14.95 44.793,26.094 62.033,37.62c13.855,9.263 23.876,19.151 36.418,30.126c15.738,13.771 39.303,34.573 55.296,51.258c14.657,15.292 31.158,33.991 40.053,49.034c4.669,7.897 10.281,16.49 12.604,25.884c1.263,5.105 1.044,10.68 1.052,16.033c0.011,8.525 -0.358,16.53 -2.929,24.658c-2.733,8.639 -8.423,19.517 -15.325,25.87c-6.901,6.352 -16.84,8.813 -26.759,11.766c-11.097,3.303 -27.2,5.59 -37.771,8.252c-8.658,2.182 -20.622,4.882 -26.303,7.355c-3.372,1.467 -7.638,3.312 -8.626,6.855c-1.005,3.603 0.933,11.068 3.5,15.244c3.013,4.901 8.313,11.581 13,16.201c5.603,5.521 14.929,9.696 23.223,13.641c12.342,5.869 38.933,17.056 50.186,22.319c6.063,2.836 16.236,6.757 18.785,10.336c2.248,3.158 -2.645,8.604 -4.669,11.909c-2.238,3.655 -8.804,8.963 -13.479,11.111c-7.475,3.434 -19.276,5.313 -30.765,7.377c-17.311,3.111 -52.131,5.748 -69.925,8.836c-13.916,2.416 -28.958,-0.165 -41.604,2.392c-11.974,2.421 -23.788,6.808 -34.177,13.235c-14.482,8.96 -39.045,29.701 -53.583,39.326c-10.721,7.098 -22.845,14.329 -34.308,20.154c-11.827,6.01 -23.06,12.102 -35.789,17.103c-8.998,3.534 -22.349,8.317 -34.686,12.809c-10.702,3.896 -20.808,6.235 -28.97,7.685c-14.366,2.552 -32.574,6.511 -42.643,10.268c-6.817,2.544 -14.02,7.179 -19.51,11.954c-9.734,8.465 -27.711,26.452 -41.223,34.606c-11.937,7.203 -25.223,12.944 -37.736,14.926c-12.688,2.009 -27.548,2.031 -35.923,7.949c-7.997,5.65 -13.993,14.075 -19.292,22.309c-5.449,8.469 -10.332,22.755 -13.406,28.506c-1.223,2.289 -4.103,6.618 -4.103,6.618" style="fill:none;stroke:#fe0000;stroke-width:2.08px;"/><path id="Alle-Wege-in-einem-Pfad20" serif:id="Alle Wege in einem Pfad" d="M1628.16,1554.53c-0,0 4.607,7.872 8.145,9.445c3.952,1.758 13.431,2.462 20.302,1.595c10.54,-1.33 30.115,-4.462 42.938,-9.575c11.962,-4.77 23.887,-10.49 35.438,-16.666c14.665,-7.841 38.468,-22.317 51.778,-29.471c9.304,-5.002 18.5,-11.362 27.853,-16.274c11.778,-6.188 29.11,-16.071 43.231,-20.7c13.256,-4.345 27.3,-6.643 41.201,-5.478c15.594,1.306 36.543,8.69 52.283,14.099c14.418,4.955 30.801,12.632 42.476,16.198c8.967,2.739 18.248,4.575 27.62,4.261c9.841,-0.33 20.778,-3.125 31.208,-4.729c12.543,-1.928 30.948,-3.036 44.662,-2.357c12.306,0.609 25.44,2.304 36.855,2.935c10.571,0.585 24.747,0.901 31.295,-0.023c4.461,-0.629 12.784,-3.379 12.784,-3.379" style="fill:none;stroke:#fe0000;stroke-width:2.08px;"/><path id="Alle-Wege-in-einem-Pfad21" serif:id="Alle Wege in einem Pfad" d="M1799.14,1502.63l-27.562,148.825" style="fill:none;stroke:#fe0000;stroke-width:2.08px;"/><path id="Alle-Wege-in-einem-Pfad22" serif:id="Alle Wege in einem Pfad" d="M1146.17,972.309c-0,-0 -4.4,-2.59 -5.921,-3.521c-4.513,-2.763 -14.062,-8.139 -18.817,-7.319c-6.358,1.096 -9.244,15.122 -16.863,15.461c-10.683,0.475 -31.577,-10.841 -47.238,-12.61c-15.491,-1.75 -31.98,-0.263 -46.726,1.994c-14.273,2.185 -26.595,7.62 -39.543,12.183c-12.345,4.351 -28.812,14.777 -41.644,12.194c-9.846,-1.983 -23.195,-11.505 -38.717,-20.172c-14.118,-7.882 -25.242,-13.703 -32.866,-17.196c-6.037,-2.768 -14.329,-3.088 -20.948,-3.641c-9.909,-0.83 -26.903,-0.58 -40.291,0.493c-17.967,1.439 -49.07,2.732 -64.885,5.386c-9.359,1.57 -18.723,4.453 -26.473,9.931c-10.094,7.136 -22.347,19.476 -31.071,30.512c-7.565,9.569 -17.65,24.001 -23.31,34.807c-5.754,10.988 -13.257,24.661 -18.364,36.251c-2.984,6.772 -6.294,14.638 -10.091,23.174c-4.138,9.302 -7.265,19.3 -10.457,26.986c-5.241,12.62 -10.396,25.674 -15.678,38.277c-6.233,14.87 -16.653,35.319 -21.716,50.948c-4.47,13.795 -6.47,32.237 -7.165,42.822c-0.459,6.978 -1.322,14.979 2.491,20.687c3.814,5.709 12.469,9.895 19.891,12.564c17.063,6.137 59.8,18.596 82.986,24.257c18.503,4.517 41.147,7.928 56.127,10.707c11.234,2.084 21.72,3.767 29.752,4.966c4.777,0.714 10.94,1.572 14.439,1.23c2.432,-0.238 8.111,-2.3 10.554,-2.284c4.263,0.027 12.696,2.216 19.02,3.446c10.894,2.12 36.988,9.949 46.345,9.273c5.5,-0.398 4.968,-10.491 9.233,-12.933c4.266,-2.442 12.68,-2.526 16.919,-0.76c4.238,1.766 4.891,12.439 9.998,12.552c13.86,0.308 55.513,-5.816 68.562,-10.509c5.866,-2.11 7.118,-12.945 7.465,-19.17c0.378,-6.801 -0.726,-16.634 -1.121,-22.248c-0.284,-4.049 -1.741,-8.541 0.063,-12.178c1.824,-3.677 8.241,-5.397 8.811,-10.264c0.945,-8.071 -2.841,-25.201 -3.14,-38.161c-0.309,-13.334 1.155,-31.41 3.36,-41.465c1.52,-6.931 4.718,-13.982 9.87,-18.861c6.178,-5.851 17.499,-12.096 27.196,-16.243c9.697,-4.147 20.562,-6.124 30.986,-8.638c10.659,-2.571 22.56,-3.086 32.965,-6.787c10.406,-3.702 21.772,-10.888 29.468,-15.421c5.87,-3.458 13.379,-9.478 16.705,-11.779c1.051,-0.726 6.979,-5.018 6.979,-5.018" style="fill:none;stroke:#fe0000;stroke-width:2.08px;"/><path id="Alle-Wege-in-einem-Pfad23" serif:id="Alle Wege in einem Pfad" d="M1549.86,859.563c0,0 0.364,-8.802 0.456,-11.305c0.213,-5.799 0.513,-16.351 0.167,-22.553c-0.71,-12.689 -2.602,-32.97 -4.091,-49.461c-1.504,-16.645 -4.177,-38.058 -4.929,-54.909c-0.8,-17.961 -0.99,-33.74 -0.876,-52.86c0.129,-21.701 0.909,-53.653 1.652,-72.843c0.547,-14.131 2.463,-32.874 2.804,-42.296c0.172,-4.761 -1.085,-10.772 -1.76,-14.237c-0.983,-5.049 -5.015,-7.048 -5.015,-7.048" style="fill:none;stroke:#fe0000;stroke-width:2.08px;"/><path id="Alle-Wege-in-einem-Pfad24" serif:id="Alle Wege in einem Pfad" d="M2011.38,1004.04c0,-0 0.821,19.25 -1.96,24.576c-2.541,4.868 -19.598,10.174 -30.069,13.5c-10.512,3.339 -25.688,8.473 -33.002,6.536c-5.747,-1.523 -6.96,-12.519 -7.416,-19.109c-1.311,-18.952 -9.864,-69.722 -6.598,-93.936c2.567,-19.041 20.57,-34.722 26.19,-51.347c5.229,-15.469 6.474,-31.798 7.72,-48.079c1.322,-17.278 3.53,-39.331 4.749,-50.389c0.499,-4.531 3.297,-21.715 2.791,-26.09c-0.506,-4.376 -20.177,-7.908 -20.692,-14.837c-0.411,-5.518 0.059,-9.609 1.848,-21.071c2.908,-18.621 4.761,-37.656 5.981,-45.908c0.21,-1.427 1.953,-15.85 1.953,-15.85" style="fill:none;stroke:#fe0000;stroke-width:2.08px;"/><path id="Alle-Wege-in-einem-Pfad25" serif:id="Alle Wege in einem Pfad" d="M1971.19,756.96c0,-0 10.676,4.719 11.711,5.11c5.267,1.989 20.714,8.792 29.04,12.477c7.403,3.275 19.368,7.553 21.776,15.281c2.912,9.342 -2.984,33.764 -5.661,45.329c-2.073,8.954 -9.702,9.347 -11.259,18.405c-3.038,17.676 -7.311,64.322 -8.87,85.022c-1.077,14.308 -0.624,32.771 -0.483,42.56c0.078,5.444 2.851,5.866 3.521,9.564c0.38,2.092 0.421,13.336 0.421,13.336" style="fill:none;stroke:#fe0000;stroke-width:2.08px;"/><path id="Alle-Wege-in-einem-Pfad26" serif:id="Alle Wege in einem Pfad" d="M2015.98,1316.74c0,-0 35.333,23.241 51.115,33.158c14.372,9.031 26.634,16.761 43.577,26.343c16.828,9.517 33.495,17.399 33.495,17.399" style="fill:none;stroke:#fe0000;stroke-width:2.08px;"/><path id="Alle-Wege-in-einem-Pfad27" serif:id="Alle Wege in einem Pfad" d="M688.04,980.427c-18.028,17.328 -40.382,37.95 -53.797,49.458c-18.129,15.552 -44.83,34.957 -58.784,43.69c-7.748,4.848 -16.31,9.011 -24.89,11.503c-11.297,3.283 -23.01,3.38 -34.643,4.301c-22.055,1.746 -48.793,-1.396 -72.616,-6.338c-27.867,-5.78 -74.463,-19.667 -94.588,-28.346c-10.648,-4.593 -20.109,-13.974 -23.436,-22.831c-3.327,-8.856 1.353,-26.154 6.662,-35.048c9.606,-16.095 33.969,-47.738 45.902,-62.61c6.416,-7.996 14.144,-15.782 21.569,-22.851c15.656,-14.903 56.087,-49.946 73.06,-65.187c9.37,-8.414 19.554,-17.599 29.712,-25.283c11.741,-8.881 25.292,-15.635 37.473,-21.129c21.952,-9.902 47.632,-12.368 70.326,-12.718c22.282,-0.343 40.157,1.773 56.239,6.183c10.829,2.97 34.305,14.207 41.351,20.541c6.74,6.06 8.21,14.171 9.258,23.173c1.796,15.435 2.899,70.251 3.239,89.509c0.074,4.235 1.095,31.531 1.095,31.531" style="fill:none;stroke:#fe0000;stroke-width:2.08px;"/><path id="Alle-Wege-in-einem-Pfad28" serif:id="Alle Wege in einem Pfad" d="M609.99,787.038c-0,0 0.084,-16.057 -0.111,-18.52c-0.549,-6.915 -2.911,-16.473 -1.097,-21.97c2.165,-6.557 4.277,-12.633 4.277,-12.633" style="fill:none;stroke:#fe0000;stroke-width:2.08px;"/><path id="Alle-Wege-in-einem-Pfad29" serif:id="Alle Wege in einem Pfad" d="M1101.4,527.413c0,0 -3.548,11.979 -3.42,16.235c0.233,7.728 0.942,17.77 2.214,29.018c1.639,14.493 6.175,40.433 8.143,57.639c1.906,16.677 5.29,40.841 5.808,50.629c0.396,7.472 -3.65,18.104 -3.65,18.104" style="fill:none;stroke:#fe0000;stroke-width:2.08px;"/>
</svg>