<?xml version="1.0" encoding="UTF-8" standalone="no"?><!DOCTYPE svg PUBLIC "-//W3C//DTD SVG 1.1//EN" "http://www.w3.org/Graphics/SVG/1.1/DTD/svg11.dtd"><svg width="100%" height="100%" viewBox="0 0 2570 2141" version="1.1" xmlns="http://www.w3.org/2000/svg" xmlns:xlink="http://www.w3.org/1999/xlink" xml:space="preserve" xmlns:serif="http://www.serif.com/" style="fill-rule:evenodd;clip-rule:evenodd;stroke-linecap:round;stroke-linejoin:round;stroke-miterlimit:1.5;"><g id="Außengrenze"><path d="M1154.49,199.428l936.876,28.688l29.753,68.104l17.205,45.544l54.206,164.683l-19.045,198.811l-6.701,44.86l4.266,171.165l4.295,173.515l-8.97,142.052l85.588,-47.05l200.304,-20.057l-26.979,123.036l-16.017,108.628l-5.526,40.041l-18.286,114.401l-31.678,138.872l-24.872,103.91l-28.506,137.987l-25.064,195.836l-112.793,-18.029l-220.187,-33.441l-538.381,-74.198l-157.458,-24.766l0.757,-89.208l301.673,-10.639l89.98,-105.095l-1.173,-20.429l-12.483,-26.991l-38.669,-11.673l-132.203,-40.395l-84.428,-25.501l-116.544,37.629l-131.389,41.041l-76.94,18.941l-38.362,0.765l-53.093,-28.168l-13.825,-22.789l-23.328,-99.999l-9.023,-14.244l-8.916,-7.399l-8.747,-6.121l-62.624,-22.012l-80.923,-16.648l-48.7,-11.973l-82.247,-27.58l-63.157,-30.178l-20.795,-10.651l-28.014,-16.189l-28.433,-10.908l-30.82,-11.114l-57.836,-4.765l-57.886,7.607l-65.98,26.185l-120.432,99.412l-28.168,-10.564l61.673,-72.867l64.316,-95.148l18.42,-53.658l10.152,-59.048l-1.902,-35.051l-24.31,-101.419l-49.284,-109.106l146.201,-64.242l8.503,-63.506l3.006,-8.586l68.312,-130.631l-0.464,73.667l7.792,17.996l47.476,27.853l47.826,-10.415l45.155,-93.218l13.57,-162.562l10.759,-135.698l162.829,-16.346l400.668,-240.954Z" style="fill:#dbe5c1;stroke:#000;stroke-width:4.17px;"/></g><g id="Gebäude"><path id="Eingang" d="M823.62,449.999l31.239,-20.858l24.933,37.157l33.178,-21.925l9.799,15.522l-64.321,42.395l-34.828,-52.291Z" style="fill:#ff00d8;"/><path id="Affenhaus" d="M947.581,1051.89l18.084,-31.048l27.279,-20.29l33.373,-8.002l-1.638,-4.331l-15.274,2.021l2.528,-4.604l13.613,-3.123l41.903,5.232l34.427,10.977l0.729,19.587l27.185,1.05l29.639,14.282l23.953,26.952l-30.116,17.627l0.058,25.684l-6.358,0.592l0.134,7.772l-12.629,1.309l-0.539,-16.035l-1.63,-3.581l-2.381,-0.775l-2.963,1.401l-7.188,-8.051l-6.23,-2.595l-10.152,-0.515l-1.107,-5.368l-18.07,-0.013l-2.293,-6.977l-13.165,-3.471l-11.948,11.787l-15.135,-9.147l1.996,-5.655l-6.991,-4.423l-8.31,-1.564l-7.616,2.187l-5.19,3.301l-6.154,10.311l-4.584,-1.11l-0.928,5.764l2.73,14.571l-12.851,1.897l-2.162,-10.145l-6.985,0.166l-3.326,-22.286l-33.718,-11.361Z" style="fill:#ff00d8;"/><path id="Kleines-Affenhaus" serif:id="Kleines Affenhaus" d="M753.628,981.058l56.814,-2.336l8.928,15.446l0.133,2.34l13.258,8.032l1.833,71.366l-1.272,0.012l-0.163,3.723l-10.672,0.399l0.112,4.195l-34.971,0.781l-0.85,-13.761l-16.155,0.283l-2.068,-60.273l-14.015,0.054l-0.912,-30.261Z" style="fill:#ff00d8;"/><path id="KirkDikDik" d="M1464.85,216.365l-18.951,-1.658l-2.733,31.24l18.951,1.658l2.733,-31.24Z" style="fill:#ff00d8;"/><path id="Zoosääle" d="M1141.44,307.321l-185.41,124.675l32.504,46.572l-53.959,36.508l45.524,67.701l238.655,-160.478l-77.314,-114.978Z" style="fill:#ff00d8;"/><path id="Südamerikahaus" d="M1580.26,466.728l-27.529,-1.926l4.708,-67.325l14.712,1.029l0.817,-11.691l39.692,2.775l-0.818,11.692l17.985,1.257l-4.708,67.325l-32.457,-2.269l-0.543,7.769l-12.388,-1.062l0.529,-7.574Z" style="fill:#ff00d8;"/><path id="Okapis--wahrscheinlich-" serif:id="Okapis (wahrscheinlich)" d="M1563.75,382.642l-9.021,-0.63l1.165,-16.656l73.563,5.144l-2.014,31.666l-15.473,-1.082l0.805,-11.513l-49.269,-3.446l0.244,-3.483Z" style="fill:#ff00d8;"/><path id="Okapis" d="M1675.24,366.986l-45.186,-3.16l-1.971,28.188l45.185,3.16l1.972,-28.188Z" style="fill:#ff00d8;"/><path id="Gaukler" d="M1704.8,271.807l-20.469,-1.431l1.117,-15.982l35.916,2.512l-1.583,22.637l-15.446,-1.08l0.465,-6.656Z" style="fill:#ff00d8;"/><path id="Terraium" d="M1926.29,380.213l-2.036,-16.582l32.043,-3.935l0.493,4.017l30.132,-3.699l1.543,12.565l31.542,-3.873l4.343,35.37l-6.837,0.839l7.553,61.512l-92.058,11.303l0.349,2.847l-34.046,4.181l-12.245,-99.729l39.224,-4.816Z" style="fill:#ff00d8;"/><path id="Tigerkiosk" d="M2171.71,1562.64l18.398,-3.979l5.648,26.117l-34.046,7.362l-7.147,-33.047l15.648,-3.384l1.499,6.931Z" style="fill:#ff00d8;"/><path id="Altes-Löwenhaus" serif:id="Altes Löwenhaus" d="M2040.19,925.936l27.121,13.064l-9.055,102.885l-11.496,-1.011l-5.257,59.736l4.465,0.393l-2.947,33.482l-4.465,-0.393l-2.834,32.199l-43.71,-3.847l9.51,-108.051l9.253,0.815l-0.006,0.062l6.207,0.547l1.873,-21.277l-5.26,-0.463l7.724,-87.758l16.909,1.972l1.968,-22.355Z" style="fill:#ff00d8;"/><path id="Alte-Direktion" serif:id="Alte Direktion" d="M1478.43,795.446l-10.825,1.935l-9.118,-51.067l37.167,-6.64l9.166,51.279l-4.554,0.829l6.473,36.205l10.145,-1.814l11.35,63.493l-9.084,1.624l9.339,52.239l-22.462,3.837l-1.208,-6.757l-8.623,1.72l-11.054,-61.835l8.229,-1.471l-14.941,-83.577Z" style="fill:#ff00d8;"/><path id="Pinguine" d="M1768.27,624.093l-26.29,42.331l6.37,43.695l3.461,0.069l6.225,36.598l38.744,-6.607l18.774,-84.778l-2.69,-0.811l1.703,-7.909l-46.297,-22.588Z" style="fill:#ff00d8;"/><path id="Eisbären" d="M1792.77,610.241l-5.193,-0.71l-0.917,-7.043l1.434,-0.669l0.57,-14.384l1.402,0.069l0.189,-3.04l1.337,0.142l-0.029,-15.662l1.913,0.012l-0.09,-11.693l14.985,-4.009l1.203,5.099l5.93,-1.316l2.098,0.901l-1.944,15.924l7.386,3.109l-11.056,55.356l-6.943,9.494l-0.755,-0.151l-16.217,-7.912l4.697,-23.517Z" style="fill:#ff00d8;"/><path id="Waldrapp" d="M1817.89,836.128l-1.412,15.134l-11.321,-1.056l5.11,-54.775l11.322,1.056l-1.195,12.805l25.712,2.399l-1.632,17.495l-9.58,-0.894l-0.871,9.341l-16.133,-1.505Z" style="fill:#ff00d8;"/><path id="Zebras" d="M1863.8,911.273l-13.964,-3.011l0.029,-0.136l-24.209,-5.218l3.775,-17.512l19.53,4.21l9.656,-44.794l4.678,1.009l11.85,-54.974l18.33,3.951l-11.849,54.974l42.069,9.068l-4.409,20.458l-42.07,-9.068l-0.16,0.74l-4.365,-0.941l-8.891,41.244Z" style="fill:#ff00d8;"/><path id="Pinselohrschweine" d="M1856.68,777.68l-28.365,-12.914l-6.872,15.092l28.365,12.915l6.872,-15.093Z" style="fill:#ff00d8;"/><path id="Stall-Steinböcke" serif:id="Stall Steinböcke" d="M1959.44,581.747l4.218,-1.994l3.599,7.614l-14.396,6.804l-19.129,-40.474l10.178,-4.81l15.53,32.86Z" style="fill:#ff00d8;"/><path id="Stall-Seehunde" serif:id="Stall Seehunde" d="M1749.92,539.287l-0.554,2.816l1.552,-0.452l-17.119,56.664l-13.445,-1.14l16.577,-54.872l-1.357,-7.357l14.346,4.341Z" style="fill:#ff00d8;"/><path id="Zwergotter" d="M1743.36,537.3l8.158,-13.727l5.467,3.083l-0.404,13.346l-7.208,2.101l0.554,-2.816l-6.567,-1.987Z" style="fill:#ff00d8;"/><path id="Beobachtung-Bonobos" serif:id="Beobachtung Bonobos" d="M1016.93,918.035l-27.347,3.07l1.335,11.894l27.347,-3.07l-1.335,-11.894Z" style="fill:#ff00d8;"/><path id="Hütte-Orange-Utans" serif:id="Hütte Orange Utans" d="M1071.71,925.014l-6.386,14.505l11.046,4.864l6.387,-14.505l-11.047,-4.864Z" style="fill:#ff00d8;"/><path id="Tunnel-Gorilla" serif:id="Tunnel Gorilla" d="M921.884,1019.6l-7.72,-11.726l-11.297,8.52l2.316,6.863l-6.451,22.627l14.482,4.129l8.67,-30.413Z" style="fill:#ff00d8;"/><path id="Kleines-Affenhaus1" serif:id="Kleines Affenhaus" d="M835.144,1079.72l-12.552,0.427l0.126,3.709l-35.06,1.195l-0.462,-13.564l-16.42,0.559l-2.08,-61.059l-14.072,0.479l-1.032,-30.319l56.664,-1.93l9.141,15.079l0.163,1.96l13.023,8.259l2.561,75.205Z" style="fill:#ff00d8;"/><path id="Gibbonhaus" d="M683.554,561.185l-4.386,54.364l-1.367,-0.11l-42.697,7.514l-3.477,-19.762l30.317,-5.335l3.079,-38.166l18.531,1.495Z" style="fill:#ff00d8;"/><path id="Okawango" d="M1063.63,1214.25l50.411,0l0,40.5l-78.411,0l0,-109.654l28,0l0,69.154Z" style="fill:#ff00d8;"/><path id="Maras" d="M1876.78,1429.96l0.252,-3.592l11.357,0.797l-0.252,3.592l10.587,0.743l-0.813,11.594l-10.588,-0.743l-0.264,3.773l-11.357,-0.797l0.264,-3.773l-10.648,-0.747l0.814,-11.594l10.648,0.747Z" style="fill:#ff00d8;"/><path id="Stall-Ganakos" serif:id="Stall Ganakos" d="M1773.31,1424.42l-15.692,-52.462l-18.589,5.561l15.692,52.461l18.589,-5.56Z" style="fill:#ff00d8;"/><path id="Ameisenbär" d="M1602.65,1331.02l-17.943,21.157l19.554,16.583l17.943,-21.157l-19.554,-16.583Z" style="fill:#ff00d8;"/><path id="Pelikane" d="M1691.14,1114.34l-17.126,-19.333l-15.658,13.871l17.126,19.332l15.658,-13.87Z" style="fill:#ff00d8;"/><path id="Emu" d="M1647.86,1079.99l-5.683,-7.741l-6.181,4.538l5.684,7.741l6.18,-4.538Z" style="fill:#ff00d8;"/><path id="Emu1" serif:id="Emu" d="M1667.97,1087.14l-9.812,-11.511l-18.571,15.829l9.811,11.511l18.572,-15.829Z" style="fill:#ff00d8;"/><path id="Lachender-Hans" serif:id="Lachender Hans" d="M1130.75,1360.07l-12.471,-3.095l-3.933,-16.031l18.866,-19.298l14.302,4.114l8.573,34.945l-9.419,10.213l-14.238,-4.002l-1.68,-6.846Z" style="fill:#ff00d8;"/><path id="Milus" d="M1169.81,1414.75l-39.223,32.896l14.149,16.87l39.223,-32.896l-14.149,-16.87Z" style="fill:#ff00d8;"/><path id="Chinesel" d="M1591.93,1581.59l-24.332,28.652l15.431,13.104l24.332,-28.653l-15.431,-13.103Z" style="fill:#ff00d8;"/><path id="Reentiere" d="M1666.67,1586.61l-29.547,21.066l9.045,12.688l29.547,-21.066l-9.045,-12.688Z" style="fill:#ff00d8;"/><path id="Taskine" d="M1709.23,1532.11l18.116,-19.82l21.526,19.676l-43.939,48.071l-12.385,-11.319l25.824,-28.252l-9.142,-8.356Z" style="fill:#ff00d8;"/><path id="Biber" d="M1917.36,526.775l6.351,2.69l1.007,7.374l-6.25,3.91l-6.121,-2.593l-1.037,-7.597l6.05,-3.784Z" style="fill:#ff00d8;"/><path id="Tiger" d="M2285.53,1381.75l-10.44,-16.465l17.904,-11.353l-28.846,-45.489l19.996,-12.68l60.35,95.169l-19.787,12.547l-18.116,-28.568l-21.061,6.839Z" style="fill:#ff00d8;"/><path id="Schneeleoparde" d="M2155.94,1232.98l-21.942,1.117l0.663,13.039l21.942,-1.116l-0.663,-13.04Z" style="fill:#ff00d8;"/><path id="Schneeleoparde1" serif:id="Schneeleoparde" d="M2172.49,1086.37l-0.898,-18.094l-6.455,-1.318l-3.509,17.195l10.862,2.217Z" style="fill:#ff00d8;"/><path id="Rote-Pandas" serif:id="Rote Pandas" d="M2169.49,875.355l-12.764,0.402l0.919,29.224l12.764,-0.401l-0.919,-29.225Z" style="fill:#ff00d8;"/><path id="Katzenhaus" d="M2150.55,768.626l-26.14,0.461l1.348,76.506l26.14,-0.461l-1.348,-76.506Z" style="fill:#ff00d8;"/><path id="Resterampe" d="M2052.4,555.262l-4.058,-0.625l4.577,-29.73l-9.423,-1.451l0.654,-4.244l51.932,7.995l-5.23,33.975l0.929,-6.033l-10.693,-1.647l-0.929,6.034l-0.433,-0.067l-1.364,8.866l-27.327,-4.207l1.365,-8.866Zm43.682,-28.055l-10.318,-1.588l-0.948,6.16l10.318,1.589l0.948,-6.161Z" style="fill:#ff00d8;"/><path id="Ziegenstall" d="M2059.18,661.469l5.354,-35.592l18.184,2.736l-0.414,3.732l5.907,0.716l-5.883,37.874l-19.716,39.019l-5.004,-2.352l-1.511,2.572l-16.845,-8.31l19.928,-40.395Z" style="fill:#ff00d8;"/><path id="Vogelhaus" d="M1657.23,858.429l1.427,-7.923l-13.684,-2.465l10.775,-59.815l0.693,-63.178l13.461,0.148l0.097,-8.816l46.705,9.015l-0.322,67.101l-12.071,65.933l-47.081,0Z" style="fill:#ff00d8;"/><path id="Freiflughalle" d="M1596.76,892.195l-0.406,-0.014l-4.5,-24.943l29.935,0l0,-11.309l23.732,0l0.776,-7.648l12.353,2.225l-1.427,7.923l21.665,0l0,8.809l18.154,0l-3.5,16.655l-4.231,5.619l-3.979,5.803l5.831,6.482l-1.484,0.98l8.281,12.646l-14.952,8.259l-7.765,-11.621l-17.853,3.344l-18.285,-3.003l-6.523,15.122l-21.617,-14.01l-14.205,-21.319Z" style="fill:#ff00d8;"/><path id="Orange-Utan-Höhle" serif:id="Orange Utan Höhle" d="M1160.47,922.019l-7.334,2.562l-2.187,4.996l1.513,0.705l-0.624,3.536l-2.239,-0.722l0.657,4.622l2.055,0.053l6.978,10.296l-0.753,1.34l3.999,2.814l11.053,1.063l0.258,2.085l5.389,1.526l1.188,-7.508l-7.247,-11.96l-6.013,-3.001l-6.693,-12.407Z" style="fill:#ff00d8;"/><path id="Rothunde" d="M1308.79,1285.61l-20.096,-29.078l-11.532,7.969l20.096,29.079l11.532,-7.97Z" style="fill:#ff00d8;"/><path id="Bärenstall" d="M1373.28,1213.89l51.694,7.61l-3.326,22.595l-52.595,-7.624l-14.584,2.517l-44.663,29.927l-12.713,-18.973l43.75,-29.316l8.818,-5.641l12.75,-2.546l10.869,1.451Z" style="fill:#ff00d8;"/><path id="Kraniche" d="M1366.64,1330.64l7.403,5.422l-0.946,9.856l-9.287,3.156l-7.134,-5.226l0.975,-10.154l8.989,-3.054Z" style="fill:#ff00d8;"/><path id="Kanguroos" d="M537.218,1097.13l-27.389,-54.665l49.868,-24.986l6.305,12.584l-28.081,14.069l21.084,42.081l-21.787,10.917Z" style="fill:#ff00d8;"/><path id="Hirscheber" d="M750.338,1302.82l-17.417,3.212l1.305,7.079l-23.539,4.342l-2.758,-14.957l22.214,-4.097l-1.007,-5.464l18.741,-3.456l2.461,13.341Z" style="fill:#ff00d8;"/><path id="Löwenhaus" d="M1644.54,1966.96l-22.609,-0.366l-20.412,4.847l-2.858,-12.034l10.414,-12.785l24.935,-9.111l9.682,0.085l2.399,1.963l1.19,7.876l40.164,4.814l2.142,7.489l43.289,-2.197l8.493,16.51l2.791,11.922l-68.706,19.387l-2.787,-9.874l-17.468,4.929l-3.794,-16.097l-6.865,-17.358Z" style="fill:#ff00d8;"/><rect x="2158.31" y="938.584" width="13.229" height="15.711" style="fill:#ff00d8;"/><path d="M1825.09,908.361l-10.334,-1.913l-3.427,18.513l10.334,1.913l3.427,-18.513Z" style="fill:#ff00d8;"/><path id="Waldrapp1" serif:id="Waldrapp" d="M1794.4,793.951l15.861,1.48l-5.11,54.775l-15.862,-1.48l5.111,-54.775Z" style="fill:#ff00d8;"/><path id="Musikmuschel" d="M1087.2,694.941c-1.4,1.079 -24.018,18.179 -35.995,5.818c-10.109,-9.71 1.556,-33.209 1.556,-33.209l34.507,27.338l-0.068,0.053Zm4.329,-3.503l-36.629,-29.019l-3.322,4.193l36.629,29.019l3.322,-4.193Z" style="fill:#ff00d8;"/><path id="Elefantenhaus" d="M820.568,1424.33c-10.225,-13.283 -15.951,-16.293 -15.951,-26.712c0,-14.003 39.171,-36.945 81.771,-36.997c52.08,-0.063 91.286,32.512 91.57,45.492c0.18,8.184 -6.812,12.305 -12.902,17.871l6.769,38.428l15.788,3.133l-4.134,20.834l-85.144,15.355l-9.943,-10.623c0.86,-0.698 1.41,-1.762 1.41,-2.954c0,-2.098 -1.704,-3.802 -3.802,-3.802c-2.098,0 -3.802,1.704 -3.802,3.802c0,1.375 0.732,2.58 1.827,3.248l-10.742,10.053l-50.109,-11.326l3.514,-13.456l-10.522,-2.99l0.264,-2.96l-23.717,-4.679l1.459,-7.395l18.517,-13.89l5.952,1.174l1.927,-21.606Z" style="fill:#ff00d8;"/><path id="WC-Spielplatz" serif:id="WC Spielplatz" d="M418.69,1286.16l-0.148,-2.172l23.983,-1.638l2.927,42.859l-112.174,7.658l-2.777,-40.686l88.189,-6.021Z" style="fill:#ff00d8;"/><path id="Zooschule" d="M304.704,1106.65l32.942,-13.845l-10.137,-24.121l-32.942,13.845l10.137,24.121Zm-11.462,-47.056l-9.127,3.836l7.229,17.199l9.126,-3.835l-7.228,-17.2Zm-0.269,-0.639l19.669,-8.266l6.755,16.072l-19.669,8.267l-6.755,-16.073Zm41.151,-94.25l-26.041,10.944l28.659,68.189l26.041,-10.944l-28.659,-68.189Z" style="fill:#ff00d8;"/></g><g id="Wasser"><path d="M1683.27,1105.46c0.519,-0.206 1.085,-0.306 1.711,-0.276c4.609,0.128 6.318,9.334 18.43,22.927c6.439,8.805 23.292,24.402 25.14,29.499c-1.051,5.804 -10.876,7.45 -19.88,7.489c-13.229,0.237 -13.892,-3.529 -19.838,-6.11c-15.616,-8.681 -29.594,3.072 -32.649,-15.94c-0.841,-8.757 8.606,-12.633 15.123,-19.547l4.173,4.71l15.658,-13.87l-7.868,-8.882Z" style="fill:#0079ff;"/><path d="M1615.46,1134.67c3.422,-8.772 7.777,-12.551 12.51,-12.538c6.48,-0.121 7.286,6.266 6.879,10.142c-0.623,9.165 -3.54,10.626 -10.958,10.65c-4.072,0.045 -10.126,-0.852 -8.431,-8.254Z" style="fill:#0079ff;"/><path d="M1607.88,1104.83c0.316,-7.228 4.055,-8.432 9.643,-10.154c3.065,-0.945 9.184,2.918 8.364,7.797c-1.351,8.036 -8.734,10.797 -11.735,11.19c-3.001,0.393 -6.541,-2.688 -6.272,-8.833Z" style="fill:#0079ff;"/><path d="M1011.85,1073.7l5.018,-8.408l4.622,-2.939l6.783,-1.949l7.401,1.393l6.225,3.939l-1.777,5.036l13.479,8.146l6.796,7.227l-3.287,8.385l-29.39,-0.33c0,0 -15.873,-11.185 -15.715,-19.636c-0.061,-0.272 -0.112,-0.561 -0.155,-0.864Z" style="fill:#0079ff;"/><path d="M1059.33,1079.41l9.821,-9.688l11.725,3.091l1.634,4.972l2.345,8.084l-5.321,8.592l-9.617,-0.482l-3.536,-8.592l-3.289,0.066l-3.762,-6.043Z" style="fill:#0079ff;"/><path d="M1086.26,1079.8l14.938,0.011l0.985,4.781l10.042,0.459l6.548,2.811l6.901,7.67l-4.848,15.679l-8.977,4.058l-20.85,-11.467l-4.739,-24.002Z" style="fill:#0079ff;"/><path id="Seelöwen" d="M1667.11,549.112c-0.584,3.83 5.804,5.683 5.584,8.5c-0.313,3.945 -6.887,8.368 -6.907,8.403c3.232,5.985 9.117,18.387 28.551,20.784c6.683,0.301 10.176,1.521 15.424,-8.637c0.436,-2.029 2.914,-4.784 4.022,-4.997c2.482,0.057 4.355,-5.878 6.715,-13.643c0.659,-2.811 1.048,-4.677 1.752,-7.575c0.023,0.056 -3.562,-1.653 -3.531,-1.847c1.832,-4.122 8.221,-16.437 1.406,-19.979c-9.328,-4.227 -22.806,1.382 -31.482,4.961c-10.211,4.213 -20.131,7.7 -21.534,14.03Z" style="fill:#0079ff;"/><path id="Tiger1" serif:id="Tiger" d="M2210.59,1446.64l12.331,26.365l4.64,19.063l3.251,14.952l-12.646,21.637l24.323,17.96c0,0 23.157,-19.684 21.746,-37.425c-1.182,-11.413 -2.408,-18.308 -7.097,-23.468c-0.669,-0.78 -0.49,-2.139 -0.384,-3.933c0.537,-9.123 -6.474,-25.268 -6.474,-25.268l-3.426,-2.756l1.872,-3.761l-9.316,-4.898l-28.82,1.532Z" style="fill:#0079ff;"/><path id="Löwen" d="M1765.62,1830.79c0.718,0.283 1.692,0.421 2.742,0.686c2.594,0.656 4.378,-0.166 5.276,-1.594c-0.461,2.568 1.882,3.849 3.224,4.094c3.663,0.669 5.255,-0.79 5.691,-1.963c0.123,-0.33 0.197,-0.784 0.171,-1.318l1,0.35c-0.96,3.15 2.755,4.919 5.085,5.606c3.409,0.891 6.294,1.999 8.051,-1.004l0.522,0.183c0,0 -8.737,11.228 -13.381,19.394c-2.301,4.046 -2.93,5.509 -6.728,8.292c-2.813,2.061 -5.19,3.772 -9.855,8.287c-8.912,7.299 -9.353,10.215 -15.52,16.449c-13.282,10.204 -17.291,14.358 -44.401,24.22c-11.789,4.574 -18.993,6.571 -37.197,7.439c-2.847,-0.421 -3.517,-1.702 -5.152,-1.36c-3.348,0.702 -6.766,1.656 -8.734,2.234c0.165,-0.371 0.308,-0.742 0.366,-1.116c0.118,-0.75 0.059,-1.511 0.136,-2.263c0.041,-0.403 0.232,-0.763 0.191,-1.179c-0.109,-1.096 -0.583,-2.049 -0.583,-3.174c0.418,-0.232 0.332,-1.077 0.301,-1.451c-0.099,-1.19 -0.934,-1.96 -1.618,-2.864c-0.271,-0.359 -0.708,-0.672 -0.748,-1.154c-0.063,-0.753 1.085,-1.092 1.517,-1.61c0.881,-1.057 1.29,-2.676 1.29,-4.045c0,0 -0.33,-4.488 -0.205,-6.637c0.073,-1.256 0.626,-2.475 0.409,-3.756c-0.035,-0.209 -0.083,-0.4 -0.142,-0.579c2.716,-1.091 6.32,-1.673 10.266,-2.07c0.374,0.252 0.794,0.312 1.406,0.291c0.311,-0.011 -0.482,1.532 0.946,1.848c1.362,0.302 2.918,-0.28 4.304,-0.28c0.457,0 0.911,0.013 1.356,0.131c0.309,0.081 0.632,0.294 0.962,0.244c0.698,-0.104 1.222,-0.207 1.944,-0.253c0.36,-0.022 1.814,0.123 2.249,0.056c0.788,-0.123 1.273,-0.559 2.045,-0.59c0.637,-0.025 1.066,0.581 1.736,0.394c0.711,-0.198 1.832,-1.023 2.337,-1.593c0.479,-0.54 0.688,-1.382 0.582,-2.148c1.562,-0.287 3.023,-0.641 4.337,-1.085c4.728,-1.601 10.139,-3.595 14.999,-5.609c0.098,-0.022 0.187,-0.06 0.267,-0.111c2.736,-1.139 5.289,-2.283 7.435,-3.365c0.023,0.403 0.168,0.683 0.87,0.643c0.677,-0.04 1.137,-0.85 1.607,-1.248c0.54,-0.457 1.392,-0.873 1.767,-1.486c0.106,-0.173 0.181,-0.34 0.231,-0.503c0.264,-0.188 0.502,-0.372 0.713,-0.55c4.091,-3.36 4.709,-0.499 8.013,-3.496c0.899,-0.816 0.494,-1.998 1.077,-3.231c0.498,-1.052 2.012,-2.114 2.788,-2.914c3.567,-3.675 13.33,-13.19 22.157,-21.742c2.077,-0.246 5.841,-2.888 7.547,-4.49c1.803,-1.69 4.646,-5.243 4.261,-6.923l0.09,-0.087Zm8.812,-3l0.031,0.011c-0.023,0.041 -0.045,0.081 -0.066,0.121c0.012,-0.044 0.024,-0.089 0.035,-0.132Z" style="fill:#0079ff;"/><path d="M1140.79,743.137c-0.584,-14.85 7.449,-20.789 16.66,-23.502c10.189,-3.001 32.312,-10.115 44.476,5.497c5.704,7.321 5.986,14.598 6.871,20.082c0.686,4.252 -1.529,8.519 -1.56,12.825c-0.033,4.436 1.199,9.2 1.366,13.788c0.433,11.843 -1.605,12.764 -9.888,21.059c-4.989,4.996 -15.059,8.679 -20.706,8.248c-5.646,-0.431 -10.713,-1.12 -13.174,-10.835c-0.391,-1.542 0.959,-5.869 1.942,-7.43c1.887,-2.994 1.532,-4.095 0.86,-6.001c-1.398,-3.965 -0.441,-5.611 -1.126,-8.327c-1.661,-6.593 -4.988,-5.835 -12.353,-7.538c-4.871,-1.126 -12.64,0.628 -13.368,-17.866Z" style="fill:#0079ff;"/><path d="M1281.62,815.247c7.186,-1.384 17.744,7.288 22.14,13.471c4.672,6.57 9.874,9.857 12.42,16.154c2.667,6.594 4.229,17.24 0.304,24.342c-4.751,8.596 -13.208,18.505 -13.804,23.762c-1.212,10.691 2.281,20.797 3.629,26.379c-2.905,-1.609 -8.382,-3.006 -12.762,-3.158c-5.27,-0.184 -12.54,1.862 -18.861,2.055c-6.884,0.211 -12.899,-2.472 -21.5,-10.08c-9.358,-8.277 -19.433,-5.945 -27.216,-6.485c-17.23,-1.194 -42.012,5.352 -44.463,-14.505c-0.947,-7.675 13.404,-14.897 29.15,-16.572c13.358,-1.42 30.388,-2.035 41.384,-7.69c14.958,-7.692 20.961,-15.49 23.769,-27.794c1.633,-7.153 -1.839,-18.406 5.81,-19.879Z" style="fill:#0079ff;"/><path d="M1520.71,426.007c-0.043,-3.69 0.253,-8.993 2.516,-12.697c1.991,-3.258 5.697,-5.182 9.372,-5.028c7.543,0.317 11.188,4.691 11.238,9.478c0.066,6.299 -3.632,4.764 -3.472,8.578c0.08,1.923 1.769,10.896 -0.64,12.273c-1.664,0.952 -7.989,1.86 -9.008,0.551c-1.339,-1.719 -2.035,-1.435 -4.25,-2.01c-2.666,-0.692 -5.702,-6.609 -5.756,-11.145Z" style="fill:#0079ff;"/><path id="Einsbären-Haupt" serif:id="Einsbären Haupt" d="M1756.63,538.203l24.573,-6.362l0.163,-18.479l15.384,-3.687l1.872,-1.691l10.246,7.622l-1.295,6.465l-9.818,2.601l-0.066,5.635l1.987,-0.109l-0.5,5.462l-2.914,0.51l-0.324,3.113l-7.695,2.545l-0.483,2.423l-7.565,2.224l-0.335,1.502l-5.884,3.295l-1.776,2.06c1.076,0.84 2.28,1.908 3.625,3.258c1.36,1.366 1.259,3.613 -0.143,4.936c-1.401,1.322 -3.511,1.154 -4.935,-0.144c-1.17,-1.065 -2.16,-2.024 -2.995,-2.888l-3.049,3.538l0.716,4.99l-2.823,1.447l-4.184,7.028l0.772,1.92l-6.089,9.297l6.251,6.825l-1.325,1.587l0.207,6.176l7.923,5.212l0.545,7.965l-5.963,1.423l-0.702,1.837l-11.384,-6.424l0.353,-4.299l-15.198,-8.704l17.118,-56.661l5.656,-1.649l0.054,-1.799Z" style="fill:#0079ff;"/><path id="Eisbären-hinten" serif:id="Eisbären hinten" d="M1842.93,593.333l-20.075,-7.866l-1.937,4.944l3.279,1.132l0.588,8.035l13.608,5.332l4.537,-11.577Z" style="fill:#0079ff;"/><path id="Patagonien" d="M1768.88,1205.58c4.928,-15.158 10.624,-34.301 13.291,-48.629c2.948,-15.838 14.935,-11.628 13.732,1.175c-0.37,3.929 -3.607,13.659 -4.539,20.642c-1.195,8.952 -0.499,22.704 -2.631,33.07c-2.423,11.78 -11.95,7.445 -23.128,34.334c-2.484,5.975 -8.223,13.896 -10.874,16.081c-11.071,9.128 -12.923,3.184 -7.982,-7.747c4.01,-8.872 15.491,-28.5 22.131,-48.926Z" style="fill:#0079ff;"/><path id="Brillenpinguine" d="M1741.37,421.682c1.02,0.256 1.869,0.501 2.415,0.716c1.503,0.592 2.309,1.157 2.565,2.751c0.537,3.344 -1.398,3.409 -0.508,7.81c1.028,5.082 0.715,12.167 9.851,12.443c3.394,0.103 8.406,-1.127 10.455,-10.789c0.722,0.711 1.712,2.074 2.814,3.756c-0.176,0.536 -0.239,1.089 -0.218,1.607c0.149,3.637 1.607,7.096 5.666,7.501c0.676,1.197 1.294,2.308 1.81,3.247c-0.938,0.036 -2.054,-0.263 -2.66,0.095c-0.687,0.404 -1.045,1.46 -1.099,2.298c-0.054,0.838 0.981,2.168 0.775,2.733c-0.206,0.564 -1.656,0.044 -2.011,0.653c-1.189,2.044 -1.169,1.016 -2.793,1.679c-1.012,0.412 -1.813,1.406 -2.209,2.12c-0.351,0.633 -0.196,1.69 -0.169,2.165c-0.381,-0.208 -1.162,-0.697 -1.584,-0.363c-1.171,0.926 -0.743,1.744 -0.921,2.4c-0.156,0.573 -0.598,-0.927 -1.703,-0.773c-1.389,0.194 -3.318,0.511 -3.543,2.369l-7.439,-2.141c0.013,-0.131 0.017,-0.272 0.012,-0.424c-0.063,-1.976 -1.528,-1.921 -3.488,-2.192c-1.145,-0.158 -1.761,-0.417 -1.986,0.173l-9.131,-5.663c0.165,-0.322 0.253,-0.632 0.227,-0.894c-0.116,-1.144 -2.225,-3.714 -3.782,-3.781c-0.177,-0.008 -0.347,-0.003 -0.508,0.012l-4.446,-10.964c1.135,-0.67 1.489,-3.261 1.661,-4.595c0.598,-4.632 -2.056,-3.8 -1.256,-4.56c0.8,-0.76 0.273,-1.41 0.613,-2.03c0.51,-0.933 1.802,-1.478 2.451,-3.569c0.305,-0.982 -0.679,-2.575 0.087,-3.084c0.765,-0.509 3.405,0.142 4.504,0.032c0.731,-0.073 1.386,-0.695 2.092,-0.691c0.707,0.004 1.483,0.92 2.147,0.715c0.342,-0.105 0.893,-0.393 1.309,-0.762Z" style="fill:#0079ff;"/><path d="M1569.11,805.676c1.682,-10.776 8.03,-9.84 11.563,-10.518c10.396,-1.993 8.178,2.719 5.642,6.127c-2.099,2.821 -5.257,2.986 -4.85,11.676c0.475,10.147 0.622,18.679 0.65,24.304c0.017,3.151 -1.057,6.363 -0.476,9.443c1.217,6.452 4.437,7.759 4.124,10.022c-0.593,4.294 -3.703,4.372 -5.846,3.58c-6.844,-2.529 -8.123,-2.736 -10.531,-15.065c-1.26,-6.454 -1.157,-16.014 -1.203,-22.609c-0.04,-5.661 0.151,-11.989 0.927,-16.96Z" style="fill:#0079ff;"/><path d="M1574.25,783.227c-2.912,-2.132 -3.725,-2.659 -4.471,-6.74c-0.514,-2.809 -0.488,-6.468 -0.35,-9.701c0.239,-5.567 0.89,-16.914 1.781,-23.702c1.34,-10.201 3.176,-11.988 8.431,-16.085c2.476,-1.93 5.513,-4.666 7.213,-6.057c0.971,-0.795 2.986,-2.293 2.986,-2.293c0,0 0.257,1.587 0.116,2.363c-0.38,2.081 0.931,5.664 -2.393,10.127c-1.623,2.178 -2.491,3.291 -3.07,5.227c-0.797,2.665 -1.39,3.855 -1.711,10.767c-0.179,3.837 0.208,8.151 0.13,12.226c-0.082,4.319 -1.235,9.907 -0.623,13.683c0.529,3.272 3.385,6.608 4.29,8.972c0.636,1.662 1.14,5.215 1.14,5.215c0,0 -4.021,-0.462 -5.95,-1.035c-2.245,-0.668 -5.444,-1.449 -7.519,-2.967Z" style="fill:#0079ff;"/><path d="M666.359,561.94l20.949,-30.562c0,0 7.986,-5.487 12.166,-7.927c8.472,-4.946 13.369,-11.309 26.684,-8.688c6.821,1.342 13.598,5.396 17.322,13.694c6.722,14.979 16.092,18.148 30.55,22.406c13.502,3.976 31.023,8.297 40.855,9.881c5.971,0.962 12.114,-0.893 18.14,-0.376c9.17,0.786 12.475,4.416 19.257,5.762c25.764,5.111 30.094,17.514 35.764,31.385c3.563,8.715 3.62,21.9 7.976,32.994c4.777,12.165 7.621,17.129 12.596,25.037c6.026,9.579 16.652,23.201 23.563,32.438c10.882,14.543 33.751,24.838 59.695,24.376c8.916,-0.158 18.006,-1.661 20.817,-1.305c8.113,1.027 19.917,3.643 27.86,7.449c7.539,3.612 16.333,11.25 19.803,15.385c0.037,0.212 -3.83,13.531 -3.969,13.445c7.648,2.239 4.657,11.977 3.883,17.212c-0.791,5.354 -3.86,13.213 -9.504,14.773c-12.751,3.524 -13.946,1.815 -23.93,-2.842c-7.921,-3.695 -17.862,-8.915 -25.515,-8.319c-20.629,1.605 -20.16,14.197 -19.986,23.811c0.141,7.861 -0.947,16.689 -2.327,23.472c-2.64,12.973 -9.13,12.888 -18.67,12.361c-7.857,-0.434 -22.622,-2.782 -29.269,-5.058c-4.308,-1.475 -7.828,-5.34 -10.617,-8.597c-1.785,-2.085 -11.546,-8.359 -13.603,-8.549c-10.291,-0.949 -14.152,-2.233 -22.509,-4.731c-9.34,-2.791 -19.444,-5.054 -26.42,-6.85c-8.488,-2.186 -12.128,-1.928 -23.008,1.502c-2.431,0.766 -4.081,-1.816 -7.817,-1.933c-16.13,-0.505 -25.581,2.23 -35.129,8.867c-10.82,7.52 -15.257,11.47 -22.488,20.396c-4.671,5.766 -8.144,17.559 -13.986,24.86c-5.785,7.231 -9.143,7.088 -18.375,10.648c-25.881,9.982 -42.243,12.001 -67.457,1.964c-21.135,-8.413 -28.22,-20.013 -34.483,-31.564c-2.806,-5.174 -4.168,-12.851 -3.853,-19.052c0.48,-9.451 4.796,-15.681 5.877,-19.213c2.798,-9.14 4.707,-13.933 7.924,-19.216c2.929,-4.808 8.67,-7.546 11.379,-12.482c1.313,-2.391 1.238,-5.154 2.212,-8.07c1.127,-3.373 3.216,-6.952 3.398,-10.398c0.404,-7.636 -3.351,-18.171 -3.188,-27.347c0.169,-9.489 -0.02,-21.188 4.202,-29.586c2.413,-4.8 4.429,-7.868 6.952,-11.711c2.589,-3.943 4.342,-8.379 4.011,-12.942c-0.35,-4.82 -2.48,-11.134 -4.625,-17.864c-1.731,-5.431 -3.316,-8.549 -2.906,-17.191c0.767,-16.17 -0.201,-61.745 -0.201,-61.745Z" style="fill:#0079ff;"/></g><g id="Felsen"><path d="M1783.81,1830.8c0.459,-1.369 3.514,-3.186 7.752,-2.356c4.112,0.789 6.586,3.818 6.127,5.187c-1.574,5.426 -4.862,4.075 -8.879,3.025c-2.391,-0.705 -6.24,-2.549 -5,-5.856Z" style="fill:#d7cdcd;"/><path d="M1764.7,1830.15c-0.507,-0.691 -0.401,-1.896 0.73,-4.243c0.543,-1.127 3.063,-2.59 5.549,-1.969c3.251,0.813 4.179,1.233 3.418,3.984c0.872,-1.625 2.708,-4.032 5.287,-2.134c3.129,2.304 3.305,5.052 2.869,6.225c-0.436,1.173 -2.028,2.632 -5.691,1.963c-1.342,-0.245 -3.685,-1.526 -3.224,-4.094c-0.898,1.428 -2.682,2.25 -5.276,1.594c-1.116,-0.282 -2.146,-0.419 -2.874,-0.741c0.593,1.614 -2.364,5.325 -4.219,7.065c-2.09,1.961 -7.266,5.484 -8.649,4.254c-1.303,-1.159 3.022,-5.495 5.112,-7.456c1.859,-1.744 5.446,-4.464 6.968,-4.448Z" style="fill:#d7cdcd;"/><path d="M1704.94,1873.03c0.865,-0.205 1.942,0.244 2.418,2.254c0.475,2.011 0.704,4.94 -0.694,5.033c-0.886,0.059 -1.698,-0.288 -2.454,-2.378c-0.702,-1.943 -0.134,-4.704 0.73,-4.909Z" style="fill:#d7cdcd;"/><path d="M1714.76,1868.42c0,-0.116 -0.112,0.202 -0.172,0.301c-0.118,0.198 -0.254,0.38 -0.4,0.559c-0.497,0.609 -0.7,1.211 -1.034,1.909c-0.13,0.272 -0.202,0.559 -0.231,0.858c-0.043,0.444 -0.078,0.956 0.088,1.379c0.314,0.802 1.085,1.303 1.391,2.101c0.339,0.887 -0.386,2.01 0.971,1.932c0.677,-0.04 1.137,-0.85 1.607,-1.248c0.54,-0.457 1.392,-0.873 1.767,-1.486c0.657,-1.074 0.133,-1.925 -0.042,-3.017c-0.102,-0.633 -0.062,-1.32 -0.22,-1.939c-0.379,-1.485 -1.784,-2.558 -3.253,-1.814" style="fill:#d7cdcd;"/><path d="M1681.29,1886.12c-1.163,0 -2.218,-0.256 -3.36,-0.343c-1.165,-0.089 -2.486,0.007 -3.649,0.143c-1.071,0.125 -0.804,0.502 -2.115,0.074c-0.953,-0.312 -0.873,-0.415 -1.172,-1.098c-0.68,-1.553 -2.524,-2.445 -4.165,-2.118c-0.423,0.084 -0.276,1.226 -0.285,1.546c-0.021,0.826 -0.461,1.737 -0.324,2.554c0.08,0.469 0.505,1.04 0.787,1.417c0.568,0.76 1.054,0.919 1.998,0.887c0.311,-0.011 -0.482,1.532 0.946,1.848c1.362,0.302 2.918,-0.28 4.304,-0.28c0.457,0 0.911,0.013 1.356,0.131c0.309,0.081 0.632,0.294 0.962,0.244c0.698,-0.104 1.222,-0.207 1.944,-0.253c0.36,-0.022 1.814,0.123 2.249,0.056c0.788,-0.123 1.273,-0.559 2.045,-0.59c0.637,-0.025 1.066,0.581 1.736,0.394c0.711,-0.198 1.832,-1.023 2.337,-1.593c0.93,-1.049 0.842,-3.236 -0.594,-3.796c-1.139,-0.444 -1.856,0.904 -2.915,1.054c-1.78,0.252 -3.684,-0.382 -5.446,-0.615" style="fill:#d7cdcd;"/><path d="M1648.72,1901.36c-0.05,-1.962 -0.535,-4.115 -0.157,-6.036c0.221,-1.12 1.061,-2.018 1.502,-3.03c0.231,-0.53 0.135,-1.24 0.456,-1.73c0.152,-0.23 0.339,-0.731 0.467,-0.963c0.602,-1.093 1.5,-1.912 2.454,-2.713c0.61,-0.513 1.417,-0.875 1.857,0.009c0.415,0.831 0.899,1.775 1.348,2.616c0.37,0.693 0.691,1.221 0.827,2.022c0.217,1.281 -0.336,2.5 -0.409,3.756c-0.125,2.149 0.205,6.637 0.205,6.637c0,1.369 -0.409,2.988 -1.29,4.045c-0.432,0.518 -1.58,0.857 -1.517,1.61c0.04,0.482 0.477,0.795 0.748,1.154c0.684,0.904 1.519,1.674 1.618,2.864c0.031,0.374 0.117,1.219 -0.301,1.451c0,1.125 0.474,2.078 0.583,3.174c0.041,0.416 -0.15,0.776 -0.191,1.179c-0.077,0.752 -0.018,1.513 -0.136,2.263c-0.208,1.332 -1.483,2.629 -1.081,3.98c0.26,0.871 1.543,0.61 2.259,0.965c0.632,0.314 0.941,1.204 1.207,1.804c0.122,0.274 0.642,1.196 0.272,1.488c-0.193,0.153 -0.662,0.086 -0.887,0.071c-1.185,-0.076 -1.766,-1.394 -2.971,-1.424c-0.649,-0.016 -1.273,0.393 -1.932,0.255c-0.828,-0.174 -1.381,-0.909 -2.093,-1.299c-1.179,-0.648 -2.381,-1.187 -3.466,-2.017c-1.102,-0.842 -2.026,-1.871 -3.12,-2.718c-1.453,-1.126 -3.342,-1.457 -4.904,-2.395c-1.194,-0.717 -1.934,-1.949 -3.157,-2.633c-0.715,-0.4 -1.493,-0.644 -2.217,-1.019c-1.009,-0.52 -1.946,-1.177 -2.974,-1.676c-0.286,-0.139 -1.769,-0.611 -1.786,-1.086c-0.036,-1.07 2.014,-1.829 2.607,-2.44c0.548,-0.564 1.02,-1.164 1.709,-1.568c2.171,-1.272 4.737,-0.929 7.154,-0.966c1.246,-0.019 2.433,-0.358 3.704,-0.29c1.338,0.072 2.592,0.569 3.953,0.569c0.374,0 0.928,0.148 1.262,-0.068c0.388,-0.251 -0.782,-0.838 -1.026,-1.09c-0.852,-0.877 -1.087,-1.985 -0.686,-3.414c0.121,-0.432 0.053,-0.892 0.109,-1.337l0,0Z" style="fill:#d7cdcd;"/><path d="M1768.74,439.976c-0.083,-2.019 1.115,-4.569 5.257,-4.546c3.389,0.02 5.671,2.835 5.779,4.853c0.168,3.134 -2.955,7.281 -4.794,7.23c-4.499,-0.123 -6.086,-3.733 -6.242,-7.537Z" style="fill:#d7cdcd;"/><path d="M1729.55,454.1c-0.063,-1.148 0.9,-3.019 3.163,-2.922c1.557,0.067 3.666,2.637 3.782,3.781c0.116,1.145 -1.967,3.228 -3.085,3.085c-1.117,-0.143 -3.724,-1.47 -3.86,-3.944Z" style="fill:#d7cdcd;"/><path d="M1747.38,461.343c-1.524,-0.211 -2.111,-0.599 -2.086,1.074c0.019,1.197 -0.097,2.814 2.073,2.952c2.604,0.165 3.553,-0.196 3.501,-1.834c-0.063,-1.976 -1.528,-1.921 -3.488,-2.192Z" style="fill:#d7cdcd;"/><path d="M1758.28,466.634c0.128,2.864 2.202,3.249 3.587,3.498c2.293,0.414 3.33,-2.457 4.827,-2.804c0.917,-0.212 1.51,-0.491 2.021,-1.949c0.245,-0.7 0.838,-1.407 1.556,-1.59c3.101,-0.793 1.372,-0.751 2.515,-2.732c0.373,-0.647 1.826,-0.036 2.166,-0.582c0.34,-0.546 0.007,-1.932 -0.127,-2.693c0.686,0.531 2.217,1.724 3.245,1.631c1.028,-0.093 2.371,-1.135 2.925,-2.187c0.289,-0.547 -0.772,-1.348 -0.693,-2.037c0.073,-0.634 0.542,-1.939 1.094,-2.086c1.061,-0.282 1.684,-0.222 1.515,-1.433c-0.122,-0.873 -1.648,-1.695 -2.564,-1.941c-0.836,-0.225 -2.64,0.78 -3.772,0.961c-0.995,0.16 -2.334,-0.276 -3.02,0.129c-0.687,0.404 -1.045,1.46 -1.099,2.298c-0.054,0.838 0.981,2.168 0.775,2.733c-0.206,0.564 -1.656,0.044 -2.011,0.653c-1.189,2.044 -1.169,1.016 -2.793,1.679c-1.012,0.412 -1.813,1.406 -2.209,2.12c-0.351,0.633 -0.196,1.69 -0.169,2.165c-0.381,-0.208 -1.162,-0.697 -1.584,-0.363c-1.171,0.926 -0.743,1.744 -0.921,2.4c-0.156,0.573 -0.598,-0.927 -1.703,-0.773c-1.513,0.211 -3.665,0.568 -3.561,2.903Z" style="fill:#d7cdcd;"/><path d="M1723.07,435.285c0.73,3.642 2.473,5.065 4.077,5.102c1.629,0.038 2.075,-3.207 2.274,-4.756c0.598,-4.632 -2.056,-3.8 -1.256,-4.56c0.8,-0.76 0.273,-1.41 0.613,-2.03c0.51,-0.933 1.802,-1.478 2.451,-3.569c0.305,-0.982 -0.679,-2.575 0.087,-3.084c0.765,-0.509 3.405,0.142 4.504,0.032c0.731,-0.073 1.386,-0.695 2.092,-0.691c0.707,0.004 1.483,0.92 2.147,0.715c0.665,-0.205 2.119,-1.097 1.839,-1.944c-0.675,-2.04 -0.992,-1.801 -1.071,-4.378c-0.057,-1.893 -1.199,-4.984 -4.805,-5.352c-2.251,-0.23 -6.429,-0.194 -8.021,0.891c-1.591,1.085 -1.46,4.039 -1.53,5.618c-0.06,1.338 0.214,3.403 1.108,3.86c-1.058,0.313 -2.757,0.992 -3.315,3.127c-0.271,1.041 0.537,2.494 1.49,3.064c-2.239,0.83 -2.21,1.993 -2.479,2.805c-0.235,0.709 0.894,1.321 0.864,2.068c-0.034,0.858 -1.294,1.957 -1.069,3.082Z" style="fill:#d7cdcd;"/></g><g id="Wege"><path d="M1802.94,1707.02l-0.052,-0.01c0,0 4.528,-21.861 5.224,-27.159c0.206,-1.57 0.205,-3.879 -1.048,-4.632c-1.254,-0.753 -4.456,-0.656 -6.472,0.114c-3.473,1.326 -9.62,5.154 -14.368,7.842c-6.39,3.618 -15.744,9.678 -23.971,13.865c-10.984,5.591 -33.724,17.391 -41.935,19.678c-7.349,2.047 -14.495,4.978 -21.917,6.747c-8.279,1.973 -18.486,4.732 -27.818,5.031c-18.418,0.591 -19.676,0.276 -28.152,-2.633c-3.766,-1.292 -5.245,-1.978 -10.969,-4.728c-3.995,-1.92 -8.142,-4.509 -11.246,-5.824c-2.992,-1.268 -6.205,-1.912 -9.415,-2.982c-5.172,-1.725 -10.41,-3.864 -15.248,-6.327c-9.856,-5.018 -24.286,-12.205 -34.313,-21.147c-5.308,-4.734 -10.909,-9.811 -15.909,-16.055c-5.173,-6.461 -9.735,-14.116 -14.576,-20.585c-10.288,-13.748 -21.177,-32.535 -31.242,-45.845c-9.006,-11.909 -29.147,-34.011 -29.147,-34.011l-23.002,-26.373l-37.007,-17.99l-62.033,-18.656l-0.008,0.044c0,0 -44.832,-13.241 -60.258,-18.337c-10.93,-3.611 -31.426,-11.001 -41.172,-17.127c-13.898,-8.734 -27.646,-19.508 -42.187,-35.53c-7.615,-8.389 -15.636,-17.789 -22.197,-28.242c-6.153,-9.805 -11.662,-20.331 -15.162,-29.397c-5.329,-13.805 -11.514,-37.45 -13.898,-46.864l-0.005,-0.002c0,0 -2.036,-7.831 -2.978,-11.766c-1.942,-8.106 -6.963,-29.742 -8.668,-36.874c-0.475,-1.985 -1.058,-4.619 -1.564,-5.92c-0.29,-0.745 -0.755,-1.542 -1.473,-1.89c-1.606,-0.778 -5.42,-3.012 -8.159,-2.777c-2.738,0.234 -5.796,2.768 -8.547,4.177c-3.189,1.633 -10.581,5.619 -10.581,5.619l-0.099,-0.103c-1.679,0.855 -3.555,1.849 -4.795,2.62c-3.937,2.444 -13.665,6.964 -19.713,9.018c-5.334,1.812 -11.531,2.245 -16.574,3.306c-4.573,0.962 -9.61,0.767 -13.682,3.06c-6.064,3.414 -9.331,8.89 -12.167,12.16c-1.943,2.241 -2.571,5.56 -4.848,7.461c-3.11,2.598 -4.316,4.717 -13.887,7.77c-6.316,2.015 -23.409,6.065 -23.409,6.065l-8.721,4.515c0,0 3.673,6.498 3.114,11.308c-0.663,5.701 -6.572,10.909 -6.572,10.909c0,0 -0.175,19.922 0.566,29.844c0.754,10.1 3.958,30.754 3.958,30.754l-5.79,4.983l1.119,9.224l-3.926,4.925l1.654,10.933l-2.485,3.197l1.814,13.021l-15.196,-3.016l-0.575,-3.265l2.478,0.105l-4.137,-25.279l3.039,-3.554l-0.816,-8.254l10.636,-9.162c0,0 -3.544,-31.501 -3.557,-45.368c-0.012,-12.663 2.066,-27.824 3.48,-37.83c1.061,-7.513 2.67,-16.489 5.003,-22.206c1.899,-4.651 5.594,-8.985 8.997,-12.092c0.437,-0.399 1.547,-1.22 1.547,-1.22c0,0 1.468,-21.05 1.955,-32.826c-0.082,-1.306 -0.383,-5.771 -0.803,-8.152c-0.607,-3.435 -2.837,-8.326 -2.816,-12.09c0.01,-1.756 0.698,-4.267 1.406,-6.392c-1.97,-1.72 -4.152,-4.063 -4.092,-6.67c0.078,-3.328 1.437,-7.365 3.376,-10.595c1.643,-2.738 2.798,-5.973 2.972,-10.731c0.13,-3.545 1.526,-6.39 4.875,-8.625c3.705,-2.473 11.713,-2.939 18.996,-7.905c4.06,-2.768 6.199,-7.857 10.404,-10.402c4.449,-2.693 9.584,-2.065 14.952,-4.345c6.068,-2.576 15.709,-7.108 19.758,-10.092c3.443,-2.538 2.921,-8.627 2.921,-8.627l4.606,-3.846c0,0 15.819,7.27 24.735,8.502c8.159,1.128 22.309,1.179 28.761,-1.105c5.917,-2.094 10.583,-7.311 14.034,-12.553c1.843,-2.8 4.434,-6.902 7.534,-11.898c-2.629,-1.414 -5.537,-2.981 -6.821,-3.685c-2.015,-1.106 -3.211,-1.929 -4.821,0.28c-3.014,4.135 -16.725,21.594 -16.725,21.594l-28.381,-6.3c0,0 -1.452,-4.409 -1.87,-6.684c-0.66,-3.589 -2.022,-5.99 -7.392,-7.401c-3.723,-0.978 -9.114,-2.149 -13.732,-1.944c-7.854,0.348 -22.23,1.751 -33.138,4.338c-12.891,3.057 -44.207,14.006 -44.207,14.006l-2.752,-3.452l-40.809,13.531l-24.662,-14.612l-0.008,0.013l-35.157,-21.233l-22.024,-6.083l-13.05,-0.035l-3.135,7.618l-10.585,0.283l-3.429,-6.793l-9.366,0.106l-2.733,7.498l-14.07,0.447l-2.849,-7.207l-34.604,1.62l0.065,0.163l-2.318,2.468l0.153,15.368l-45.26,54.299l-53.34,0.326c-0.251,0.374 -0.655,0.98 -1.182,1.777l-1.41,2.157l-0.005,-0.006c-4.598,7.028 -13.467,20.943 -17.397,29.532c-8.869,19.382 -23.934,60.705 -32.925,82.397c-6.66,16.069 -16.397,35.94 -21.024,47.76c-2.93,7.487 -5.708,18.261 -6.736,23.162c-0.429,2.044 -0.428,4.509 0.567,6.239c0.996,1.729 3.304,3.113 5.244,4.29c5.269,3.197 26.366,14.892 26.366,14.892l6.285,32.205l34.857,10.688l35.914,9.695l8.268,-5.488l19.781,4.281l2.201,3.517l16.579,3.289l15.491,-11.38l-0.947,-1.439l4.8,-3.272l10.032,13.935l-3.932,2.887l3.389,5.687l10.246,2.257l4.33,-4.17l33.078,7.222l0.344,0.098l-3.124,11.962l-17.533,-3.361l-4.217,3.439l-11.065,-1.946l-2.261,1.914c0,0 -20.266,-2.083 -30.322,-3.672c-10.928,-1.726 -35.31,-6.543 -35.31,-6.543l-3.112,3.418l-10.513,-2.533l-1.241,-3.924l-21.128,-5.746l-3.417,3.093l-10.345,-2.77l-0.862,-4.112l-7.764,-2.289l-3.074,2.99l-10.386,-2.981l-0.919,-4.113l-35.197,-10.998c0,0 -25.486,-8.608 -31.364,-14.563c-5.725,-5.799 -3.904,-21.166 -3.904,-21.166c0,0 1.503,-19.11 2.744,-28.581c1.524,-11.622 2.998,-16.281 7.729,-27.686c2.202,-5.307 5.124,-12.008 8.325,-19.314c0.251,-0.982 1.088,-4.449 0.792,-5.851c-0.327,-1.55 -1.454,-3.189 -2.942,-3.732c-2.562,-0.934 -8.239,-1.93 -12.429,-1.875c-5.199,0.067 -13.08,0.182 -18.765,2.28c-5.686,2.099 -10.256,6.765 -15.349,10.312c-5.514,3.84 -11.67,8.79 -17.736,12.731c-6.097,3.961 -12.131,8.275 -18.731,11.426c-6.902,3.297 -14.772,6.81 -22.68,8.35c-8.358,1.627 -18.308,1.802 -27.468,1.415c-9.667,-0.408 -20.377,-2.418 -30.533,-3.864c-10.902,-1.553 -25.174,-3.045 -34.878,-5.452c-8.093,-2.008 -15.809,-5.257 -23.279,-8.739c-6.034,-2.814 -16.324,-5.064 -24.178,-5.151c-7.807,-0.087 -17.232,2.719 -23.011,4.374c-4.14,1.186 -7.871,3.517 -11.664,5.556c-3.866,2.077 -11.528,6.909 -11.528,6.909l21.331,-88.189c0,0 2.247,7.94 4.584,11.246c3.362,4.758 3.346,17.543 9.282,26.64c6.971,10.684 19.175,19.225 30.006,24.186c9.816,4.497 23.583,9.937 37.796,13.121c18.658,4.181 38.282,6.028 50.228,7.302c11.05,1.179 22.532,1.445 33.283,-1.328c10.951,-2.824 22.63,-9.49 32.312,-15.823c9.55,-6.246 23.516,-19.013 33.694,-23.73c10.625,-4.924 19.586,-5.209 28.525,-5.491c4.24,-0.134 9.187,1.292 12.661,1.279c2.765,-0.011 5.765,-0.018 8.182,-1.36c1.331,-0.739 3.303,-3.227 5.094,-5.608c1.052,-2.495 2.074,-4.947 3.05,-7.328c8.339,-20.353 19.263,-50.493 26.057,-66.405c4.264,-9.987 12.058,-23.414 14.703,-29.071c0.708,-1.512 1.582,-3.612 1.171,-4.87c-0.411,-1.258 -2.181,-3.067 -3.634,-2.677c-2.273,0.609 -6.961,3.82 -10.002,6.336c-3.944,3.264 -13.789,10.528 -21.065,15.84l0.019,0.022l-1.078,0.75c-4.358,3.178 -7.561,5.486 -7.561,5.486l-0.109,-0.203c-5.035,3.37 -16.032,10.613 -22.312,13.843c-7.995,4.113 -16.114,8.602 -24.929,10.367c-11.066,2.217 -28.55,3.046 -41.752,3.072l-6.449,0.675c0,0 -8.266,0.554 -12.198,1.739c-9.592,2.893 -22.565,8.023 -29.525,14.31c-4.047,3.656 -8.401,7.008 -12.095,11.02c-5.445,5.912 -7.411,11.639 -9.03,19.28c-1.314,6.201 -1.211,18.977 -1.211,18.977l-7.99,0.581l-2.544,-37.26l15.436,-23.148c0,0 6.311,-0.814 9.13,-1.629c2.653,-0.766 7.78,-3.258 7.78,-3.258l-1.257,-5.279c-14.53,-2.749 -31.956,-6.761 -45.52,-10.236c-16.31,-4.179 -36.122,-11.234 -48.285,-14.83c-8.181,-2.418 -17.537,-5.533 -24.689,-6.744c-5.992,-1.015 -13.058,-1.28 -18.225,-0.521c-4.533,0.666 -8.965,3.131 -12.933,4.778c-3.705,1.536 -10.875,5.098 -10.875,5.098c0,0 8.39,-27.461 12.776,-38.871c3.894,-10.129 7.759,-20.403 13.541,-29.587c3.994,-6.344 12.268,-18.36 20.244,-29.068c9.133,-12.261 17.793,-22.897 17.793,-22.897l-1.016,-0.951l7.099,-7.39l-2.08,-2.054c0,0 -5.395,7.412 -31.734,20.328c-5.544,2.718 -12.557,4.734 -17.277,6.603c-5.41,2.142 -7.541,2.401 -10.21,6.517c-1.358,2.094 -3.548,6.592 -3.548,6.592l-3.557,7.171c0,0 -12.2,-4.859 -17.401,-6.4c-4.506,-1.334 -9.108,-2.792 -13.806,-2.844c-8.376,-0.092 -36.447,2.291 -36.447,2.291c0,0 -3.368,-14.111 -4.476,-18.263c-0.601,-2.253 -1.289,-4.492 -2.172,-6.65c-1.018,-2.489 -3.936,-8.286 -3.936,-8.286l7.398,-7.084l7.669,-5.11l-16.997,-54.899l7.825,-8.634l-6.221,-16.141l52.088,-21.189l3.938,10.663l19.915,-0.947l9.865,24.931l9.554,21.144l0.71,4.447l15.089,36.756l13.216,7.529l16.205,-9.331c0,0 12.597,-9.551 18.865,-14.368c9.289,-7.138 24.747,-18.763 36.87,-28.465c6.736,-5.391 16.293,-11.95 24.863,-19.01c9.231,-7.604 18.081,-14.972 22.215,-19.711c1.849,-2.119 5.477,-5.359 5.477,-5.359l0.652,-0.599c4.107,-3.749 26.668,-24.143 40.376,-32.304c16.006,-9.53 41.645,-19.315 55.008,-24.276c8.049,-2.989 19.513,-3.746 25.165,-5.493c3.208,-0.992 6.692,-2.953 8.749,-4.99c1.912,-1.894 3.035,-4.598 3.591,-7.231c0.119,-0.562 0.195,-1.29 0.241,-2.098c-0.432,-0.945 -0.757,-1.767 -0.781,-2.15c-0.262,-4.181 -1.923,-8.328 -4.643,-12.428c-6.192,-9.331 -16.452,-33.943 -20.539,-47.739c-3.364,-11.353 -5.615,-24.436 -6.296,-34.317c-0.162,-2.347 -0.15,-5.856 -0.096,-8.817c-1.054,-7.39 2.069,-27.297 4.988,-40.345c3.216,-14.37 8.061,-29.773 11.627,-44.963c3.933,-16.756 6.341,-24.556 6.08,-57.026c-0.111,-13.799 0.42,-27.314 1.494,-40.92c1.668,-21.135 6.705,-54.41 13.639,-76.003c7.148,-22.258 19.233,-40.892 29.287,-53.017c10.083,-12.16 25.028,-24.13 25.028,-24.13c1.587,-1.154 14.56,-10.553 23.361,-16.041c15.464,-9.644 40.537,-14.089 54.03,-14.426c7.141,-0.178 20.325,2.689 26.436,5.283c13.558,5.756 35.502,27.825 49.055,40.67c7.846,7.437 18.516,14.778 25.321,17.98c9.077,4.27 10.657,3.39 15.996,0.16c2.098,-1.269 6.227,-3.915 6.227,-3.915l-9.478,-14.473l53.297,-35.151l5.949,9.025l-5.526,3.616l9.539,14.298l-8.383,4.835c-1.302,0.771 -2.304,2.046 -2.688,3.631c-0.434,1.787 0.011,3.583 1.056,4.933l28.328,38.975c-2.474,0.993 -4.481,3.076 -5.271,5.834c-0.717,2.502 -0.291,5.063 0.968,7.123l-0.005,0.003c0,0 33.952,51.545 37.647,56.435c4.902,6.485 12.111,11.685 21.408,11.685c6.117,0 11.703,-2.055 15.946,-5.437c0,0 167.163,-113.345 202.414,-136.032c5.192,-3.342 7.028,-3.208 10.379,1.926c3.523,5.398 13.244,20.527 20.213,31.386l0.571,0.1c0,0 6.586,12.095 11.102,17.217c7.266,8.239 13.866,13.666 27.582,18.118c24.537,7.963 100.502,16.446 125.424,19.274l0.004,-0.019l0.267,0.05l1.958,0.223c1.22,0.139 3.632,0.625 3.632,0.625l-0.016,0.099c1.959,0.304 4.023,0.587 5.517,0.695c15.802,1.147 58.447,5.934 83.455,5.185c22.423,-0.671 53.942,0.421 70.854,-11.044c6.134,-4.157 10.41,-9.901 9.492,-15.397c-0.918,-5.495 -5.083,-12.877 -19.24,-15.743c-3.624,-0.733 -7.322,-1.349 -14.563,-2.491l-7.238,-1.595l1.385,-11.756c0,0 29.411,3.081 36.901,3.352c2.739,0.1 6.515,-0.981 8.039,-1.725c0.885,-0.431 0.985,-1.761 1.105,-2.739c0.301,-2.453 0.647,-9.3 0.699,-11.982c0.057,-2.993 -0.977,-3.615 -2.502,-4.013c-4.891,-1.276 -21.339,-2.816 -26.839,-3.64c-2.076,-0.311 -5.666,-1.085 -7.701,-0.571c-3.934,0.993 -4.389,0.558 -6.553,0.102c-5.438,-1.148 -27.038,-2.626 -35.181,-4.916c-8.521,-2.397 -11.022,-4.673 -17.795,-11.077c-6.568,-6.212 -10.724,-13.771 -15.764,-22.288c-5.626,-9.51 -12.495,-22.489 -16.143,-33.155c-3.385,-9.894 -5.15,-23.285 -6.017,-30.641c-0.52,-4.403 1.906,-12.385 -1.022,-15.715c-2.769,-3.15 -7.634,-4.509 -12.847,-10.401c-7.125,-8.053 -9.996,-14.227 -12.596,-22.384c-3.167,-9.939 -4.724,-24.763 -6.408,-37.249c-1.772,-13.137 -3.359,-30.918 -4.223,-41.571c-0.602,-7.433 -0.96,-21.849 -0.96,-21.849l32.286,13.163l225.082,19.559l0.264,-5.005l17.56,1.228l-0.369,5.284l-4.327,-0.351l-2.975,45.818l10.429,14.693l-0.038,0.023l0.504,0.714l13.087,0.661c0,0 -0.398,8.339 -0.302,12.509c0.121,5.263 1.708,14.218 2.133,23.481c0.349,7.608 -0.431,15.429 -0.51,21.533c-0.158,12.097 -2.867,28.137 -2.84,36.254c0.014,4.159 2.842,12.005 2.996,12.429l4.331,-4.482c0.075,0.008 0.149,0.013 0.223,0.014c0.212,0.005 0.405,-0.046 0.579,-0.141l4.493,10.943c-1.909,0.173 -2.726,1.85 -2.668,2.911c0.136,2.474 2.743,3.801 3.86,3.944c0.905,0.116 2.444,-1.229 2.934,-2.352l9.004,6.006c-0.038,0.181 -0.053,0.417 -0.049,0.719c0.019,1.197 -0.097,2.814 2.073,2.952c2.282,0.144 3.293,-0.115 3.473,-1.284l7.462,1.964c-0.025,0.18 -0.034,0.374 -0.025,0.585c0.046,1.035 0.347,1.746 0.777,2.244l-0.447,1.919c0,0 1.249,0.039 1.873,0.011c7.52,-0.331 11.924,-3.216 16.73,-6.852c5.518,-4.175 11.593,-11.584 16.379,-18.194c7.44,-10.278 20.573,-30.32 28.265,-43.472c6.681,-11.421 13.386,-27.094 17.657,-35.637c2.626,-5.253 7.968,-15.626 7.968,-15.626l26.386,0.134l3.145,27.555l0.439,4.774l0.004,-0.001l0.055,0.645l0.25,2.724l-0.016,0.003l0.025,0.283l9.474,-0.678l2.521,20.529l-9.07,0.616c0,0 3.578,26.227 4.669,39.411c1.001,12.115 2.456,27.349 2.788,41.188l14.099,8.412l0.501,9.242l5.644,1.015l3.073,23.578l-0.163,0.102l1.037,7.597l0.136,0.058l0.195,1.493l-16.042,15.731l-16.825,1.683c-3.277,12.629 -7.5,26.028 -11.698,38.534c-5.54,16.505 -18.83,49.504 -21.016,54.912c-0.022,0.065 -0.043,0.127 -0.061,0.185c-0.446,1.419 -2.436,5.602 -2.101,7.604c0.416,2.493 2.231,4.386 4.602,7.354c6.977,8.736 24.151,30.036 37.132,44.092c17.526,18.977 66.786,70.111 90.049,94.21c0.613,-0.552 1.235,-1.101 1.653,-1.445c1.451,-1.19 1.83,-1.668 0.879,-4.067c-3.304,-8.337 -10.197,-27.133 -17.495,-46.219c-6.542,-17.108 -13.507,-34.353 -16.909,-46.092c-5.323,-18.369 -9.395,-41.129 -7.52,-56.926c1.69,-14.243 11.819,-27.957 18.767,-37.857c6.022,-8.581 13.886,-16.663 22.917,-21.538c9.031,-4.875 20.726,-5.695 31.271,-7.711c9.66,-1.846 22.145,-5.423 33.114,-6.124l7.768,-12.697l-0.122,0.792l8.54,1.315l-1.386,11.814c1.948,0.451 3.804,0.996 5.584,1.62l5.135,-11.997l9.259,1.425l3.236,20.023c1.048,0.717 2.089,1.445 3.131,2.178c9.517,6.696 18.093,18.206 23.624,25.77c4.292,5.871 9.556,19.613 9.556,19.613c0,0 2.302,7.138 1.584,10.657c-1.768,8.66 -8.391,28.094 -12.187,41.3c-3.628,12.618 -7.615,25.15 -10.592,37.937c-3.323,14.272 -7.787,32.232 -9.345,47.69c-1.506,14.944 -1.219,31.221 -0.004,45.059c1.127,12.839 3.876,26.538 7.006,38.291c2.96,11.117 6.232,23.637 11.772,32.226c0.18,0.28 0.345,0.579 0.496,0.895l0.013,-0.016l2.548,5.67c0,0 -0.54,2.094 -0.312,4.716c0.257,2.972 1.316,6.64 1.902,9.017c2.429,9.847 9.662,30.914 12.981,45.352c3.125,13.596 6.216,29.783 6.929,41.275c0.574,9.25 -1.146,18.532 -2.651,27.676c-1.577,9.576 -4.604,19.84 -6.808,29.781c-2.595,11.702 -5.779,27.249 -8.762,40.429c-2.923,12.914 -9.137,38.655 -9.137,38.655l1.27,-0.011l9.164,8.335l-1.941,8.573l-7.505,0.454l-0.828,4.771l-5.044,1.151l-8.274,42.692c0,0 -4.665,33.505 -5.552,50.375c-0.941,17.895 -0.212,45.247 -0.094,56.991c0.045,4.5 -0.139,9.314 0.801,13.476c0.916,4.055 3.456,8.999 4.837,11.496l0.031,0.055c0.122,0.128 0.242,0.253 0.359,0.374c0.952,0.992 1.951,1.993 2.986,3l0.076,0.06l-0.008,0.006c10.501,10.204 24.65,20.909 31.771,26.995c4.016,3.432 9.774,7.457 12.299,9.996c1.402,1.409 2.742,3.185 2.855,5.236c0.037,0.67 0.195,2.002 0.195,2.002c0,0 21.12,22.379 26.206,27.718c1.402,1.473 4.309,4.32 4.309,4.32l5.485,2.82l0.012,1.59l6.364,3.082l0.241,1.607l0.067,0.066l3.737,2.758c0,0 5.916,-2.281 8.382,-3.897c2.411,-1.579 4.169,-3.99 6.415,-5.796c2.452,-1.972 8.295,-6.032 8.295,-6.032l2.461,3.264c0,0 4.825,-1.483 6.828,-1.67c1.731,-0.161 5.187,0.55 5.187,0.55l6.063,-5.01c0,0 -2.762,-2.976 -4.331,-4.16c-1.563,-1.179 -5.085,-2.943 -5.085,-2.943l1.288,-2.521l-1.959,-0.99l0.45,-1.255l1.489,0.136l0.695,-2.193l6.954,-0.11l2.065,1.515l-1.592,3.149l5.967,4.471c0,0 3.159,-1.39 4.339,-2.241c1.071,-0.772 2.739,-2.861 2.739,-2.861l-7.646,-10.489l5.036,-6.499l3.508,-2.065l8.443,3.942l5.141,-6.824l-5.209,-2.647l2.846,-4.445l2.837,0.135l1.44,-3.403l-1.957,-0.796l0.292,-1.279l1.092,0.025l0.265,-2.362l8.203,-0.087l2.132,11.885l-1.582,0.395l-2.539,8.928l1.349,2.024l4.673,-0.026l0.225,2.153l2.359,0.809l-0.071,4.69l-1.518,2.842l-11.65,-3.564l-4.884,8.583c0,0 4.782,1.877 8.306,1.972c3.209,0.087 10.26,3.151 10.26,3.151l-1.344,4.786l-9.713,-2.591l-1.95,3.708l9.306,3.741l-2.202,1.92c0,0 -5.31,-1.155 -7.853,-2.087c-2.58,-0.945 -7.625,-3.583 -7.625,-3.583l-3.008,5.165c0,0 4.457,4.125 7.018,5.724c2.615,1.634 5.573,3.301 8.672,4.077c3.316,0.83 11.222,0.902 11.222,0.902l5.211,3.331l-0.222,2.11l-4.35,3.21l-1.811,-0.803l-3.762,1.802c0,0 -4.207,-1.093 -6.07,-2.164c-2.186,-1.257 -7.051,-5.379 -7.051,-5.379l-2.002,-0.216l-0.091,1.289l-1.649,-1.115l-1.598,1.755l0.562,2.186l-1.871,1.085l-1.534,-1.564l-0.263,-1.734l-2.297,-1.735l-1,1.017l-1.609,-1.2l-2.279,1.384l-0.583,2.206l-3.134,2.77l-3.068,-1.047l-2.903,3.316l-3.813,0.065l-0.527,0.896l-5.192,-0.486l-1.623,3.235l-2.042,0l0.76,-2.965l-7.028,-2.414l-1.382,2.644l-2.915,0l-0.442,-1.298l-6.424,-2.659l-1.426,0.827l-2.977,-0.478l0.15,3.361l1.911,1.975l-1.73,0.93l0.055,1.96l-5.22,-0.194l0,0.011l0.861,4.414l6.21,6.327l1.446,3.69l3.4,2.647l0.002,4.205l5.474,8.427l-0.061,3.907l-0.583,1.563l6.441,0.515l-0.834,3.098l0.778,1.199l-0.71,2.917l-1.588,-1.291l-0.971,1.782l0.556,1.949l-2.485,-1.339l-0.64,9.586l8.808,2.625l3.685,-0.117l2.381,8.123l-7.186,0.324l-1.379,1.789l0.513,1.517l3.987,1.318l0.837,-1.403l3.468,1.348l-4.66,7.005l-4.772,-0.689l-4.012,-2.092l-4.124,4.016c0,0 -3.914,14.509 -5.282,18.814c-1.293,4.068 -2.346,4.926 -4.153,6.593c-1.295,1.195 -4.042,3.409 -4.042,3.409l2.622,18.759l-6.816,1.204l-1.319,-6.097l-18.398,3.979l-1.499,-6.931l-15.648,3.384l4.294,19.856l-5.53,-4.57c0,0 -7.525,-6.599 -10.951,-8.699c-2.946,-1.805 -3.915,-3.664 -9.607,-3.896c-3.169,-0.129 -6.236,1.169 -9.339,1.83c-4.792,1.022 -14.177,2.596 -19.415,4.3c-4.246,1.381 -9.199,1.95 -12.016,5.921c-1.743,2.457 -0.637,6.243 0.527,9.021c1.488,3.552 5.287,8.428 8.401,12.292c2.475,3.07 5.119,6.357 8.992,9.46c4.436,3.553 9.451,6.453 14.9,8.944c9.915,4.533 21.758,9.695 32.681,14.442c7.686,3.34 21.352,9.171 29.624,12.695l-0.014,-0.076c0,0 7.312,2.488 10.389,4.198c2.94,1.635 6.848,3.826 8.067,6.063c1.181,2.165 0.519,5.245 -0.749,7.359c-1.664,2.775 -5.838,6.598 -9.137,9.458c-3.587,3.11 -8.682,6.713 -12.388,9.201c-3.152,2.117 -6.218,4.605 -9.844,5.729c-4.904,1.522 -12.915,2.961 -19.472,3.894c-10.066,1.432 -40.923,4.701 -40.923,4.701l-19.747,13.895l-7.066,9.462l-16.647,1.476l-11.23,-3.152l-27.86,4.187l1.808,-13.999l-4.912,-0.534l-6.543,0.423c0,0 -11.127,4.415 -16.141,7.616c-7.034,4.491 -17.732,13.061 -26.063,19.329c-8.021,6.034 -23.927,18.279 -23.927,18.279l3.074,9.406l-18.704,8.956c0,0 1.277,-5.343 0.546,-6.262c-0.731,-0.92 -3.307,0.09 -4.765,0.771c-3.988,1.865 -12.607,7.272 -19.163,10.414c-9.057,4.339 -23.394,10.547 -35.177,15.624c-11.93,5.14 -26.267,11.739 -36.4,15.215c-7.897,2.709 -17.805,4.578 -24.376,5.929c-4.973,1.022 -10.854,1.452 -15.054,2.177c-3.625,0.626 -7.001,1.896 -9.578,4.697c-2.33,2.532 -4.571,5.841 -6.815,7.85c-1.993,1.784 -2.304,4.228 -2.324,5.94c-1.189,0.518 -1.96,1.25 -2.173,1.885l-0.085,0.25l-1,-0.35c0.001,0.027 0.002,0.054 0.003,0.08c-0.035,-1.144 -0.534,-2.676 -2.032,-4.133c0.126,-1.886 0.178,-3.944 -0.084,-4.925c-0.43,-1.609 -1.942,-3.242 -3.575,-3.49c-1.633,-0.249 -4.277,1.023 -6.224,2.001c-2.622,1.317 -7.209,4.746 -9.506,5.901c-1.716,0.863 -2.856,2.862 -2.135,4.227c0.285,0.54 0.963,1.253 1.536,1.804c-1.109,0.801 -2.194,1.706 -2.975,2.438c-0.688,0.646 -1.619,1.549 -2.511,2.512l-6.336,-0.639c0,0 -11.268,10.977 -17.154,15.866c-5.799,4.815 -18.165,13.464 -18.165,13.464l1.147,2.647c-0.038,0.076 -0.093,0.214 -0.129,0.274c-0.118,0.198 -0.254,0.38 -0.4,0.559c-0.497,0.609 -0.7,1.211 -1.034,1.909c-0.13,0.272 -0.202,0.559 -0.231,0.858c-0.043,0.444 -0.078,0.956 0.088,1.379c0.314,0.802 1.085,1.303 1.391,2.101c0.159,0.416 0.084,0.884 0.099,1.255l0.002,0.034c-2.146,1.082 -4.699,2.226 -7.435,3.365c0.936,-0.602 0.709,-3.114 0.286,-4.902c-0.476,-2.01 -1.553,-2.459 -2.418,-2.254c-0.153,0.036 -0.297,0.153 -0.426,0.332c-0.135,-0.316 -0.261,-0.577 -0.373,-0.769c-0.554,-0.944 -2.3,-0.977 -3.254,-0.44c-1.881,1.062 -5.645,3.421 -8.497,4.308c-2.78,0.866 -6.406,1.784 -8.298,2.73c-1.266,0.632 -2.833,1.549 -3.055,2.946c-0.141,0.887 0.445,2.842 0.95,4.3c-1.357,-0.087 -2.745,-0.482 -4.055,-0.655l0.827,0.083c0.839,0.109 1.656,0.255 2.534,0.255l-2.534,-0.255c-0.272,-0.035 -0.547,-0.067 -0.826,-0.088c-1.165,-0.089 -2.486,0.007 -3.649,0.143c-1.071,0.125 -0.804,0.502 -2.115,0.074c-0.953,-0.312 -0.873,-0.415 -1.172,-1.098c-0.48,-1.096 -1.539,-1.862 -2.698,-2.104c-0.36,-0.362 -0.733,-0.653 -1.113,-0.838c-2.593,-1.266 -7.238,-0.773 -10.726,-0.163c-3.487,0.61 -7.19,1.789 -10.197,3.822c-3.32,2.245 -7.008,5.992 -9.722,9.648c-2.238,3.017 -2.973,9.764 -2.889,13.138c-0.396,0.345 -0.734,0.746 -1.107,1.13c-0.593,0.611 -2.643,1.37 -2.607,2.44c0.006,0.161 0.18,0.321 0.419,0.469l-6.888,8.761l-1.603,-2.025c0,0 -2.07,1.425 -2.679,2.478c-0.809,1.397 -0.772,4.034 -0.094,5.209c0.548,0.952 2.109,2.534 2.109,2.534c0,0 -0.827,1.696 -0.784,2.488c0.043,0.791 0.849,1.523 1.04,2.261c0.181,0.701 0.104,2.169 0.104,2.169c0,0 -6.055,3.545 -8.106,4.357c-1.311,0.519 -3.177,0 -4.199,0.515c-0.958,0.482 -1.272,2.101 -1.934,2.572c-0.557,0.396 -1.54,-0.218 -2.035,0.253c-0.978,0.932 -0.952,3.979 -1.824,5.267c-1.459,2.154 -5.639,4.644 -6.401,6.967c-0.631,1.921 -0.222,6.063 -0.222,6.063l0.098,0.295c0,0 1.038,3.586 1.127,4.867c0.069,0.993 -0.592,1.855 -0.593,2.814c-0.002,1.58 1.576,3.649 2.437,4.033c0.651,0.29 0.007,2.138 0.007,2.138l-10.404,3.314c0,0 -2.768,-11.14 -3.375,-15.243c-0.456,-3.092 -0.639,-6.695 -0.262,-9.373c0.332,-2.361 1.733,-5.261 2.521,-6.694c0.468,-0.852 1.707,-1.071 2.205,-1.905c0.859,-1.442 1.722,-4.623 2.953,-6.747c1.785,-3.077 5.766,-7.621 7.757,-11.719c1.971,-4.057 2.574,-9.442 3.637,-12.868c1.098,-3.54 0.328,-7.218 -3.367,-8.655c-2.921,-1.135 -7.664,-2.298 -11.619,-2.705c-4.869,-0.501 -11.51,-1.295 -16.305,-4.695c-6.168,-4.374 -24.485,-15.859 -24.485,-15.859l13.815,-18.206c0,0 2.656,3.459 4.338,4.813c2.047,1.648 5.362,3.284 7.943,5.074c3.995,2.77 10.839,8.053 16.028,11.546c5.7,3.837 12.775,4.374 19.322,1.068c6.269,-3.164 14.442,-6.821 21.98,-9.406c8.135,-2.791 18.056,-4.415 27.295,-5.948c9.297,-1.542 18.881,-3.01 28.046,-5.645c10.587,-3.044 24.746,-13.078 33.615,-19.731c6.522,-4.893 12.589,-10.563 18.29,-16.884c5.958,-6.607 14.662,-12.615 21.713,-16.618c6.333,-3.596 15.634,-7.558 20.023,-8.741c1.727,-0.465 3.474,-1.902 3.873,-4.407c2.381,-14.931 14.57,-78.111 17.487,-93.195Zm-87.628,170.442l-0.019,0l0.02,-0.001l-0.001,0.001Zm0.178,-0.018c-0.008,0.002 -0.017,0.004 -0.025,0.005c-0.009,0.001 -0.018,0.003 -0.026,0.004c0.017,-0.003 0.034,-0.005 0.051,-0.009Zm0.034,-0.007c0.007,-0.001 0.013,-0.003 0.019,-0.004c0.006,-0.002 0.012,-0.003 0.018,-0.005l-0.037,0.009Zm0.433,-0.207l0.05,-0.037c-0.017,0.012 -0.033,0.025 -0.05,0.037l-0.003,0.002l-0.035,0.024l-0.005,0.004l-0.039,0.026l-0.007,0.004l-0.013,0.008l-0.021,0.012l-0.006,0.004l-0.007,0.004l-0.012,0.007l-0.016,0.009l-0.01,0.005l-0.01,0.006l-0.01,0.004l-0.011,0.006l-0.016,0.007l-0.012,0.006l-0.007,0.003l-0.007,0.004l-0.022,0.009l-0.014,0.006l-0.003,0.001c-0.016,0.007 -0.032,0.012 -0.047,0.018l0.047,-0.018l0.017,-0.007l0.029,-0.013l0.019,-0.009l0.027,-0.013l0.02,-0.01l0.026,-0.014l0.019,-0.011l0.027,-0.016l0.017,-0.01l0.043,-0.028l0.004,-0.004l0.038,-0.026Zm0.206,-0.17l0.094,-0.091c-0.031,0.031 -0.062,0.062 -0.094,0.091l-0.004,0.004l-0.005,0.004c-0.015,0.014 -0.03,0.027 -0.045,0.04l0.045,-0.04l0.009,-0.008Zm0.466,-0.491c-0.06,0.066 -0.121,0.134 -0.183,0.201l-0.093,0.101l0.276,-0.302Zm0.258,-0.271l-0.004,0.004l-0.051,0.05c0.017,-0.017 0.034,-0.034 0.051,-0.05l0.012,-0.012l0.044,-0.04l-0.052,0.048Zm65.839,-45.118l0,0.004l0.002,-0.024l-0.002,0.02Zm0.007,-0.133l-0.002,0.046l0.002,-0.049l0,0.003Zm0.002,-0.069l-0.001,0.034l0.001,-0.046l0,0.012Zm0.001,-0.069l0,0.025l0,-0.048l0,0.023Zm-0.001,-0.071l0,0.016l-0.001,-0.052l0.001,0.036Zm391.792,-170.576c-2.525,0.158 -4.796,0.287 -6.206,0.339c-2.023,0.075 -5.382,-0.044 -7.434,-0.134l-0.176,0.145c0,0 -22.173,-2.885 -33.291,-3.248c-12.929,-0.422 -30.849,-0.964 -44.341,0.476c-9.008,0.962 -19.071,2.713 -26.853,3.936c-6.623,1.04 -13.147,2.87 -19.849,3.058c-7.371,0.208 -18.252,-2.605 -24.379,-2.005c-7.099,0.695 -18.216,6.175 -18.216,6.175c0,0 -10.106,-11.411 -15.318,-15.112c-5.81,-4.125 -11.486,-7.511 -18.47,-10.581c-6.776,-2.98 -14.093,-4.541 -21.203,-6.6c-7.241,-2.097 -15.499,-5.016 -22.241,-5.981c-6.01,-0.861 -12.181,-0.701 -18.213,0.185c-7.795,1.145 -19.577,2.792 -28.561,6.685c-11.013,4.772 -29.127,13.33 -37.592,21.467c-3.412,3.279 -6.442,7.447 -8.413,12.012c-2.246,5.2 -3.279,10.86 -4.786,15.34c-1.683,5.005 -2.817,13.813 -3.374,18.993l0.053,0.007l-0.124,0.655c-0.221,2.11 -0.332,3.471 -0.332,3.471l-0.311,-0.064l-16.179,85.668c0,0 -1.654,4.404 2.101,4.78c2.964,0.298 10.379,-0.807 15.5,-1.692c7.38,-1.276 19.292,-4.426 28.683,-7.945c9.342,-3.5 18.811,-7.144 28.088,-11.034c9.436,-3.956 19.854,-8.581 28.53,-12.704c7.956,-3.781 15.765,-7.869 23.527,-12.033c10.719,-5.75 26.058,-17.394 36.861,-25.291c10.085,-7.372 19.89,-15.316 29.994,-22.677c10.275,-7.485 22.478,-13.704 34.984,-17.275c12.956,-3.7 28.489,-3.417 42.756,-4.926c20.449,-2.164 62.459,-5.692 79.936,-8.057c4.861,-0.658 10.42,-1.427 15.312,-2.306c4.111,-0.739 7.538,-2.632 9.603,-3.916c2.398,-1.49 5.895,-3.583 6.784,-5.073c0.706,-1.184 -0.703,-3.093 -1.449,-3.872c-0.721,-0.753 -1.993,-0.658 -3.024,-0.799c-0.628,-0.085 -1.664,-0.082 -2.377,-0.067Zm-64.773,-129.194l-0.335,0.147c0,0 -11.147,-5.825 -22.512,-12.98c-7.345,-4.625 -14.574,-9.125 -20.02,-12.969c-12.472,-8.804 -22.64,-14.104 -42.932,-14.271c-11.285,-0.092 -22.823,0.234 -33.925,2.546c-17.007,3.542 -49.325,12.688 -68.115,18.705c-8.682,2.78 -17.563,5.377 -25.691,9.611c-6.543,3.408 -12.345,8.587 -18.153,13.073c-15.926,12.301 -34.481,34.165 -51.713,51.123c-20.276,19.953 -55.766,53.7 -70.884,67.631c-6.237,5.748 -8.029,8.938 -15.265,13.363c-11.105,6.791 -38.452,22.377 -49.393,28.819c-5.457,3.213 -16.254,9.833 -16.254,9.833l-0.308,-0.015c-2.283,1.132 -4.716,2.215 -5.932,3.488c-1.347,1.408 -2.624,3.298 -1.973,5.134c1.949,5.492 8.853,2.93 13.114,2.318c8.466,-1.217 26.318,-4.786 38.012,-9.142c13.286,-4.95 27.764,-12.67 41.704,-20.557c16.586,-9.384 38.647,-21.948 54.113,-30.698c12.785,-7.232 18.964,-12.228 38.684,-21.797c13.221,-6.416 27.5,-10.501 35.366,-12.519c11.894,-3.051 30.009,-3.525 41.327,-4.75c8.872,-0.96 26.582,-2.599 26.582,-2.599c0,0 2.206,3.152 3.53,4.538c2.583,2.705 7.233,8.749 11.97,11.693c5.744,3.57 14.814,6.942 22.494,9.727c8.862,3.214 24.329,7.58 30.68,9.559c2.443,0.761 4.935,1.737 7.427,2.314c2.808,0.65 5.189,1.73 9.064,1.64c4.022,-0.093 8.623,-1.45 12.837,-2.22c8.554,-1.565 19.92,-3.929 30.022,-4.587c12.348,-0.804 27.093,-1.83 44.068,-0.241c9.176,0.859 19.937,2.386 28.351,3.108l0.002,-0.023c0,0 4.744,0.285 7.114,0.179c3.846,-0.172 12.422,-0.771 15.962,-1.212c1.811,-0.225 5.144,-0.756 5.282,-1.431c0.138,-0.675 -2.958,-1.83 -4.544,-2.503c-3.526,-1.496 -9.271,-3.653 -14.329,-5.96c-6.227,-2.84 -16.003,-6.662 -23.472,-9.981c-7.263,-3.228 -15.31,-7.191 -21.483,-10.343c-5.29,-2.7 -10.773,-5.322 -15.319,-9.1c-4.547,-3.777 -8.685,-9.147 -11.96,-13.565c-2.989,-4.032 -6.255,-9.012 -7.692,-12.945c-1.223,-3.346 -1.811,-7.602 -0.931,-10.648c0.881,-3.046 3.436,-5.885 6.214,-7.627c3.045,-1.909 7.964,-2.803 12.053,-3.825c7.505,-1.878 26.76,-5.605 32.975,-7.439c1.79,-0.528 3.716,-2.333 4.315,-3.566c0.567,-1.169 0.134,-2.855 -0.725,-3.829c-1.044,-1.183 -3.659,-2.24 -5.539,-3.27c-2.07,-1.135 -6.883,-3.54 -6.883,-3.54l-16.98,-8.397Zm-475.707,172.528l45.536,-15.289l58.431,-35.372c0,0 26.509,-24.498 39.9,-37.173c17.313,-16.387 61.882,-63.314 61.882,-63.314c0,0 19.378,-20.015 29.401,-27.9c9.525,-7.492 20.313,-14.569 30.741,-19.409c10.053,-4.667 21.25,-6.55 31.868,-9.729c11.419,-3.42 36.89,-10.157 36.89,-10.157l-0.287,-3.807l-50.043,-7.892c0,0 -31.455,-4.883 -60.873,-10.132c-17.072,-3.046 -33.496,-6.718 -42.591,-8.322c-15.031,-2.652 -30.315,-5.786 -45.128,-7.761c-14.746,-1.967 -27.945,-3.155 -44.161,-0.439c-15.726,2.634 -35.855,8.243 -50.846,11.702c-13.037,3.008 -31.813,7.377 -39.104,9.053l-0.275,0.063c-0.915,0.233 -1.892,0.473 -2.593,0.617c-0.591,0.122 -1.141,0.222 -1.659,0.304l-0.115,0.024l-0.001,-0.006c-4.22,0.654 -6.285,0.147 -10.179,0.955c-5.187,1.075 -9.311,2.747 -16.065,3.99c-8.895,1.637 -18.086,4.942 -37.289,5.073c-11.144,0.076 -22.535,-0.305 -33.126,-3.775c-23.167,-7.589 -70.781,-25.167 -106.224,-38.726c-12.261,-4.691 -26.134,-8.345 -40.339,-13.409c-31.307,-11.159 -64.909,-23.983 -91.237,-33.213c-32.638,-11.442 -79.974,-27.76 -98.067,-33.885c-3.435,-1.163 -7.574,-2.93 -10.493,-2.869c-2.576,0.053 -5.577,1.098 -7.021,3.232c-1.544,2.282 -3.16,7.014 -2.243,10.46c1.648,6.187 6.863,18.442 12.131,26.664c6.443,10.056 16.042,24.027 26.227,33.945c10.461,10.187 23.561,25.27 50.539,38.038c11.903,5.633 26.021,9.404 38.89,13.401c16.58,5.148 31.5,9.335 39.079,11.415l0.011,-0.047l1.384,0.429c2.477,0.676 3.865,1.044 3.865,1.044l-0.027,0.146l62.967,19.528l38.073,16.72l30.673,30.893c0,0 21.059,28.531 31.349,42.969c11.365,15.944 36.836,52.693 36.836,52.693l48.424,38.963l31.508,10.306l3.381,-0.001Zm561.394,-240.51c-1.888,-3.495 -3.96,-6.8 -5.74,-10.05c-7.58,-13.836 -23.328,-32.067 -35.856,-45.896c-12.094,-13.349 -30.066,-28.665 -39.312,-37.078c-5.176,-4.709 -11.88,-10.243 -16.163,-13.395c-2.958,-2.175 -7.299,-5.191 -9.31,-5.288c-1.845,-0.09 -2.468,2.881 -2.759,4.705c-0.35,2.197 0.218,5.977 0.288,8.607l0.016,-0.002c0,0 -0.003,0.1 -0.01,0.291c0.001,0.067 0.001,0.132 0.001,0.197c0.002,2.23 -0.287,6.683 -0.287,6.683l-0.009,0.001c-0.305,5.954 -0.859,14.254 -1.748,19.41c-1.545,8.954 -5.241,20.373 -7.215,27.138c-1.329,4.551 -2.732,9.104 -4.631,13.448c-2.174,4.969 -6.072,10.694 -8.408,16.365c-2.733,6.635 -6.677,18.33 -7.991,23.443c-1.35,5.254 -1.607,5.077 2.501,7.755c5.304,3.458 17.638,11.224 26.478,16.802c11.528,7.273 42.69,26.837 42.69,26.837l-0.091,0.04c0.642,0.405 1.262,0.787 1.76,1.075c4.073,2.354 12.118,8.332 18.996,10.656c12.403,4.19 18.453,2.289 26.043,-0.453c11.235,-4.06 15.11,-9.391 19.216,-16.761c4.107,-7.37 5.021,-14.63 5.423,-27.46c0.199,-6.348 0.672,-14.589 -1.359,-22.113c-0.105,-0.387 -0.222,-0.467 -0.351,-0.846l-2.009,-1.931l-0.163,-2.18Zm-386.534,-388.045c-1.165,-2.363 -2.695,-5.418 -3.78,-7.407c-1.42,-2.604 -4.679,-5.584 -7.077,-5.392c-4.583,0.368 -6.152,3.687 -7.286,6.812c-2.211,6.093 -4.515,15.83 -5.978,29.748c-1.43,13.61 -4.117,34.342 -7.963,51.17c-4.198,18.367 -10.379,39.709 -17.224,59.029c-7.492,21.148 -25.548,50.497 -36.871,66.182c-7.329,10.152 -24.115,29.204 -24.115,29.204l-16.485,17.108l0.029,0.018c0,0 -0.857,0.859 -1.754,1.773l-1.815,1.883c-7.356,7.779 -26.66,27.667 -38.857,41.316c-12.094,13.535 -24.687,28.878 -35.181,41.562c-9.419,11.384 -22.005,26.612 -27.782,34.541c-2.893,3.97 -7.058,9.294 -6.885,13.031c0.174,3.736 4.092,7.947 7.925,9.391c4.019,1.513 10.814,0.206 16.185,-0.311c5.486,-0.528 11.147,-1.947 16.731,-2.857c4.372,-0.713 13.149,-2.094 19.167,-3.038l-0.001,-0.013c0,0 0.174,-0.021 0.442,-0.056l2.835,-0.444c3.824,-0.723 12.768,-2.314 17.567,-3.503c4.106,-1.017 9.568,-2.649 12.086,-3.872c1.378,-0.669 3.02,-3.463 3.02,-3.463l21.105,-5.525l3.008,3.134l5.443,-0.922l0.715,-3.988c0,0 27.127,-5.237 35.185,-6.508c4.347,-0.686 13.161,-1.12 13.161,-1.12l1.866,3.103c0,0 5.466,-0.503 8.192,-0.304c5.942,0.435 18.352,1.589 27.462,2.909c9.329,1.352 28.51,5.202 28.51,5.202l3.784,-6.596l39.984,8.056l9.186,8.098l45.922,8.815l1.598,-4.888c0,0 41.688,7.414 53.787,9.29c6.229,0.966 18.807,1.965 18.807,1.965l2.293,6.233c0,0 6.837,1.305 10.259,0.994c5.382,-0.49 15.251,-0.826 22.033,-3.935c7.423,-3.402 16.236,-9.895 22.371,-16.961c4.204,-4.842 9.829,-10.924 14.061,-17.78c3.089,-5.003 5.008,-10.605 7.208,-15.52c5.165,-11.542 8.23,-27.516 10.009,-36.591c0.595,-3.034 0.752,-7.73 0.766,-11.545l-0.017,0.002l0.017,-0.477c0.001,-1.701 -0.025,-3.197 -0.051,-4.249l-0.005,-0.053c-0.486,-4.389 -1.45,-14.916 -2.875,-21.56c-1.27,-5.92 -5.104,-12.04 -7.685,-16.456c-2.705,-4.631 -7.324,-8.381 -8.469,-9.27l-18.562,3.745l-5.269,-3.922l-5.359,0.272l-9.604,-8.201l-0.091,-4.509l-15.311,-11.954l-4.422,0.478l-9.865,-7.83l-0.143,-5.059l-44.652,-36.881l-4.152,1.137l-9.303,-7.831l0.243,-4.06l-51.777,-46.85l-3.964,0.37l-8.836,-8.851l1.019,-3.979c0,0 -11.449,-13.309 -16.452,-18.775c-4.39,-4.797 -10.009,-10.879 -13.563,-14.022c-2.283,-2.019 -7.761,-4.835 -7.761,-4.835l-13.724,-20.108l12.931,-14.295l-14.237,-26.576l-0.027,0.013l-0.326,-0.673l-0.055,-0.102l-1.301,-2.667Zm-639.385,254.268c4.015,1.466 103.648,37.841 174.835,63.571c10.527,3.805 63.064,23.45 69.843,25.883c25.374,9.105 58.19,20.066 76.628,25.841c11.188,3.505 24.791,7.485 34.199,8.211c10.504,0.81 15.972,-0.401 22.306,-4.584c9.161,-6.05 21.823,-17.684 32.663,-31.718c8.197,-10.613 17.621,-20.22 26.371,-30.382c8.84,-10.266 18.629,-21.998 26.668,-31.215c7.085,-8.122 15.736,-17.677 21.57,-24.085c4.129,-4.534 10.007,-10.731 12.885,-13.777l-0.047,-0.034c0,0 0.628,-0.609 1.598,-1.573c0.259,-0.26 0.514,-0.514 0.724,-0.722c2.851,-2.853 7.511,-7.644 9.169,-10.085c1.844,-2.717 4.64,-6.338 3.232,-9.305c-2.335,-4.921 -7.705,-7.357 -12.533,-9.289c-9.32,-3.73 -25.497,-9.538 -37.988,-14.931c-13.43,-5.799 -28.983,-11.984 -42.593,-19.861c-6.407,-3.708 -18.569,-8.833 -26.108,-13.784c-11.169,-7.334 -17.863,-14.868 -26.7,-21.57c-12.841,-9.738 -25.949,-22.202 -36.335,-31.827c-8.959,-8.301 -19.267,-18.885 -25.984,-25.919c-8.346,-8.741 -10.079,-12.62 -12.837,-17.761c-2.143,-3.997 -3.003,-9.981 -3.708,-13.091c-0.412,-1.818 -0.52,-5.568 -0.52,-5.568l0.117,-0.051c-0.124,-1.067 -0.263,-2.255 -0.363,-3.078c-0.603,-4.96 -0.519,-11.692 -8.92,-16.401c-4.427,-2.481 -14.343,-5.106 -14.343,-5.106l-72.59,-11.798c0,0 -7.555,-22.7 -11.99,-25.465c-0.759,-4.208 -1.871,-10.132 -2.775,-14.916c-6.391,-0.481 -12.737,-1.37 -18.933,-3.018c-13,-3.457 -37.13,-13.071 -50.099,-16.554c-9.03,-2.425 -20.586,-4.548 -27.713,-4.343c-8.834,0.254 -11.598,2.121 -15.015,6.345c-2.516,3.111 -6.456,10.052 -8.346,13.473l0.015,0.003l-0.192,0.317c-0.566,1.027 -0.907,1.664 -0.907,1.664l-0.088,-0.024l-64.743,106.737l-0.292,0.254c-1.748,2.713 -4.197,6.532 -5.695,8.956c-3.431,5.55 -9.798,14.476 -12.812,21.132c-2.685,5.929 -5.058,12.295 -5.272,18.8c-0.225,6.869 2.064,15.058 3.919,22.411c3.175,12.583 9.729,35.766 14.6,53.508c3.814,13.893 11.125,40.355 15.099,54.729Zm827.574,-490.58c-0.475,-0.305 -0.888,-0.544 -1.205,-0.686c-1.289,-0.576 -3.207,0.049 -4.155,0.819c-0.948,0.771 -1.355,2.448 -1.531,3.803c-1.292,9.966 -6.221,55.995 -6.221,55.995l-1.464,2.161l56.369,28.198l0.968,-1.358l5.058,2.263l-1.544,13.347l-20.612,-6.223l-24.476,7.294l-5.546,64.887l5.404,20.543l-6.195,3.862l-1.336,11.575l-4.527,-1.237l-16.852,30.428l-9.396,18.113l5.603,38.767l4.736,30.798l0.077,-0.08l0.488,3.754l0.141,0.918l-0.019,0.028l1.046,8.056l28.113,17.993l23.158,-11.502l0.991,-29.856l11.16,2.623l-4.182,39.368l-41.495,13.566l-0.005,1.401c0,0 -7.469,2.183 -11.185,3.334c-4.006,1.241 -9.105,2.755 -12.613,4.666c-3.611,1.967 -5.438,8.7 -5.244,12.363c0.193,3.647 3.504,6.558 6.168,9.057c7.595,7.127 25.654,23.232 39.403,33.705c14.143,10.772 33.429,25.078 45.455,30.932c4.145,2.018 9.894,5.441 12.83,5.163c2.333,-0.22 3.904,-1.642 4.775,-3.388c0.925,-1.857 0.693,-5.157 0.779,-7.753c0.397,-12.104 0.154,-44.715 1.603,-64.876c1.484,-20.656 4.676,-35.374 8.913,-55.944c3.817,-18.535 7.869,-37.134 11.974,-55.664c4.636,-20.926 12.015,-52.21 15.842,-69.895c2.602,-12.023 5.933,-24.672 7.122,-36.21c1.128,-10.949 1.057,-22.931 0.012,-33.022c-0.9,-8.685 -4.513,-20.552 -5.983,-26.297l-0.012,0.003c0,0 -5.239,-19.39 -8.873,-28.79c-3.972,-10.278 -8.585,-16.082 -19.693,-24.074c-9.299,-6.691 -20.381,-14.807 -30.537,-22.416c-13.17,-9.867 -37.632,-28.481 -48.479,-36.784c-1.36,-1.041 -3.042,-2.347 -4.808,-3.728Zm-925.392,416.012l-0.225,4.04l11.664,1.108l-5.726,8.303l-2.68,11.279l0.279,4.364c1.534,-0.333 11.124,-2.461 15.794,-4.49c5.339,-2.319 16.032,-9.377 16.032,-9.377l0.003,0.002c4.063,-2.903 10.816,-7.876 13.868,-10.957c4.05,-4.088 7.822,-8.243 9.961,-14.1c0.275,-0.753 0.316,-2.385 0.316,-2.385l-16.947,-0.002l0,-28.285l-46.738,0c-0.075,-0.835 -0.202,-1.673 0.034,-2.462c0.407,-1.362 1.021,-3.472 2.422,-4.376c1.734,-1.117 5.222,-2.05 7.978,-2.332c2.98,-0.304 6.619,0.12 9.901,0.506c3.31,0.389 7.296,1.992 9.961,1.827c2.213,-0.136 4.49,-1.214 6.028,-2.812c3.101,-3.221 8.281,-11.089 12.574,-16.515c0.374,-0.473 0.79,-0.996 1.243,-1.562l-0.396,0.345l13.932,-18.164l-29.37,15.928c0,0 -13.454,3.021 -20.154,4.644c-8.74,2.117 -23.19,6.691 -32.286,8.057c-7.348,1.104 -15.672,-1.324 -22.291,0.143c-6.331,1.402 -12.748,4.25 -17.422,8.656c-4.675,4.406 -10.626,17.78 -10.626,17.78l1.911,0.692c0.627,-1.318 1.697,-2.44 2.539,-3.57c0.866,-1.163 1.607,-2.364 2.973,-2.852c1.459,-0.52 5.781,-0.269 5.781,-0.269l10.79,-8.004l0.332,3.423l3.587,-0.277l0.276,1.423l8.61,0.046l0,40.225l36.072,0Zm394.367,-136.987c0.002,0.015 0.316,2.427 0.467,3.635c0.556,4.437 1.295,9.472 2.658,13.328c2.234,6.323 8.171,12.204 11.462,15.811c5.623,6.162 15.987,17.436 24.632,25.49c9.449,8.803 20.899,19.02 31.845,27.818c11.036,8.871 22.163,18.362 34.229,25.938c12.924,8.114 28.246,16.26 43.127,22.931c17.389,7.796 47.62,19.25 60.871,24.133c6.013,2.215 12.777,5.461 17.774,5.227c4.426,-0.207 9.224,-3.989 12.548,-6.919c4.315,-3.804 10.121,-10.344 14.394,-16.154c10.279,-13.975 21.26,-36.602 30.485,-64.164c3.376,-10.086 6.133,-20.548 8.8,-31.014c2.806,-11.01 5.777,-21.916 7.734,-32.342c3.628,-19.331 5.472,-39.704 6.364,-58.663c0.863,-18.346 0.775,-37.161 -1.014,-55.088c-1.766,-17.7 -6.19,-37.274 -9.72,-52.472c-3.046,-13.11 -6.061,-29.016 -11.463,-38.716c-4.64,-8.332 -9.464,-17.253 -20.948,-19.485c-4.274,-0.83 -8.969,2.248 -11.833,5.527c-4.088,4.682 -6.608,8.754 -10.155,12.933c-5.73,6.752 -15.581,18.919 -24.225,27.581c-8.807,8.824 -18.01,18.296 -28.616,25.367c-6.803,4.537 -16.439,11.028 -26.714,16.96c-12.26,7.078 -25.261,13.556 -33.16,17.675c-5.193,2.708 -14.379,6.366 -20.648,8.769c-0.092,0.056 -0.189,0.106 -0.291,0.149c-8.294,3.516 -25.988,8.601 -39.001,11.347c-15.992,3.375 -40.358,7.757 -53.327,21.699c-8.774,9.432 -12.176,18.297 -13.488,24.046c0.008,0.04 0.015,0.079 0.022,0.118c0.527,3.117 -1.168,7.376 -1.433,11.096c-0.438,6.167 -1.187,20.791 -1.376,27.439Zm-968.831,-109.346c-0.834,0.903 -4.257,4.607 -5.696,6.049c-2.823,2.827 -4.765,7.662 -5.016,10.886c-0.323,4.162 -0.679,4.818 2.281,8.321c2.286,2.705 6.105,6.492 9.5,9.364c3.465,2.931 8.366,6.299 11.288,8.223c1.969,1.296 6.243,3.322 6.243,3.322l-6.241,9.483c0,0 -11.059,-9.518 -14.153,-11.857c-1.308,-0.989 -2.771,-2.159 -4.411,-2.178c-1.702,-0.019 -4.964,0.188 -5.803,2.062c-1.199,2.679 -1.588,14.078 -1.206,18.757c0.531,6.497 4.388,20.222 4.388,20.222l-6.684,0.246l-7.069,1.934c0,0 -1.11,-4.291 -1.414,-6.481c-0.394,-2.833 -0.948,-6.999 -0.95,-10.521c-0.004,-7.265 0.904,-26.392 0.924,-33.072c0.007,-2.353 0.028,-5.601 -0.806,-7.011c-0.753,-1.274 -2.718,-1.533 -4.195,-1.451c-2.862,0.158 -6.697,4.207 -9.688,6.771c-5.815,4.984 -17.177,15.035 -25.203,23.137c-10.799,10.904 -27.185,28.34 -39.594,42.284c-13.066,14.683 -25.812,31.837 -32.525,43.398c-4.203,7.239 -9.432,15.091 -10.842,22.652c-0.836,4.483 0.313,9.561 1.759,13.568c1.42,3.936 4.333,7.609 6.916,10.476c2.434,2.701 6.884,7.066 10.227,7.052c4.965,-0.021 6.703,-3.444 9.78,-5.599c4.626,-3.238 13.046,-10.044 17.976,-13.829c3.864,-2.966 11.604,-8.88 11.604,-8.88l6.672,9.755c0,0 -12.881,9.192 -16.479,12.381c-2.111,1.872 -4.68,4.212 -5.105,6.753c-0.424,2.54 0.204,6.7 2.556,8.488c3.924,2.981 13.745,6.878 20.983,9.397c8.013,2.788 17.995,5.15 27.094,7.33c8.341,1.998 20.517,4.78 33.283,6.662c12.355,1.822 24.987,2.177 34.735,2.738c16.962,0.976 37.575,0.125 50.905,-2.559c10.551,-2.124 21.026,-9.275 28.924,-14.351c5.225,-3.358 15.992,-9.565 15.992,-9.565l2.244,-1.509c5.816,-4.033 16.251,-11.475 22.811,-17.339c6.335,-5.664 22.177,-18.217 26.005,-21.24c1.407,-1.456 19.619,-20.306 28.168,-29.363c8.402,-8.902 25.116,-27.095 25.116,-27.095c0,0 3.73,0.568 5.489,0.063c2.426,-0.696 6.916,-1.69 9.066,-4.241c2.186,-2.593 3.993,-7.31 4.045,-11.316c0.214,-16.179 -2.448,-65.666 -2.764,-85.762c-0.184,-11.672 -1.098,-25.656 -7.019,-34.105c-5.97,-8.518 -15.369,-13.863 -24.808,-18.168c-10.126,-4.617 -23.501,-8.7 -35.836,-9.876c-17.42,-1.662 -48.893,-2.847 -68.608,0.297c-17.48,2.787 -34.357,9.75 -49.683,18.563c-14.838,8.532 -41.398,33.176 -44.66,36.223l-0.331,0.31l-0.185,0.201Zm1476.28,-187.521c-18.158,-18.976 -96.971,-101.331 -116.544,-121.722c-4.178,-4.353 -9.31,-10.936 -12.696,-12.903c-2.219,-1.289 -5.707,-0.444 -7.619,1.104c-1.912,1.549 -2.797,5.363 -3.853,8.188c-2.45,6.554 -6.932,20.865 -10.847,31.134c-4.175,10.952 -9.506,23.035 -14.203,34.576c-3.508,8.621 -9.823,24.306 -13.199,32.697l-0.151,-0.014l-4.966,53.223l-4.941,15.278c0,0 -2.624,-0.125 -3.842,0.284c-1.407,0.471 -3.501,1.179 -4.599,2.545c-1.274,1.586 -2.297,4.548 -3.046,6.971c-0.445,1.438 -0.94,3.926 -1.293,5.858l0.021,0.009c0,0 -3.083,16.576 -2.777,24.908c0.336,9.112 1.291,20.3 3.733,30.599c3.131,13.208 5.735,26.966 8.109,36.955c3.645,15.339 9.334,30.151 15.137,44.811c3.229,8.157 7.747,20.956 13.079,32.861c5.837,13.031 12.365,24.848 12.365,24.848l-0.073,0.037c2.04,4.383 10.054,21.354 15.631,29.683c3.535,5.28 7.754,12.739 12.81,19.584c7.771,10.518 17.017,20.91 24.876,30.037c12.448,14.458 29.812,30.85 40.156,40.783c6.942,6.667 16.854,15.506 21.905,18.815c2.362,1.547 3.796,3.059 8.383,1.284c1.885,-0.73 2.479,-3.716 2.899,-5.741c0.799,-3.856 1.92,-17.634 1.92,-17.634l-6.026,-0.802l0.052,-0.053l-8.42,-0.591l6.409,-62.144l-3.667,-0.13l8.226,-106.162l-2.746,-0.137l6.017,-67.99l4.141,0.228l0.579,-10.55l1.921,-0.211l0.768,-6.3l4.268,-0.001l-0.901,17.618l11.769,0.482l2.245,-28.908l-15.736,-9.932l4.798,-41.907l3.874,-2.186l1.608,-13.661c0,0 2.905,-17.574 3.778,-23.117c0.531,-3.373 1.738,-7.579 1.457,-10.14c-0.105,-0.951 -0.406,-1.773 -0.789,-2.464Zm-1286.79,360.538l23.431,0.457l25.712,-31.38l4.946,-0.222l6.636,-7.039l8.506,0.812l6.332,-8.128l-0.387,-13.949c0,0 -4.687,-0.626 -6.944,-0.111c-4.273,0.973 -13.164,2.461 -18.693,5.953c-7.678,4.848 -19.122,14.98 -27.377,23.137c-8.065,7.967 -22.158,25.8 -22.158,25.8l-0.004,4.67Zm221.652,-226.297l-1.497,1.004c0,0 -3.572,2.33 -7.286,4.802l-3.744,11.26l0.114,-0.076l7.973,11.995l-0.851,0.566l3.544,5.332l7.307,0.924l0.208,-1.451l3.393,0.981l-1.257,7.192l-6.759,-1.768l-0.436,0.29l6.904,10.334l-1.819,1.366l-0.006,-0.009l-8.662,6.533l-4.19,-6.304l1.661,-1.104l-7.14,-10.742l1.14,-0.758l-6.296,-9.471l0.796,-0.529l-4.791,-7.208l0.297,-0.197l-3.241,-0.564c-0.269,1.276 -0.501,2.693 -0.822,4.403c-1.065,5.676 -3.505,16.967 -3.505,16.967l3.057,15.082l-13.308,-5.768l-13.464,7.452l-7.536,-4.202l-0.31,-2.804l4.19,-0.315l15.478,-25.933l-12.247,-22.543l-11.873,-7.057l-4.732,2.297l-5.979,-3.121l-41.765,22.634l-41.329,2.082l-3.142,3.106l1.412,28.792l-5.331,5.36l2.233,65.811l21.246,18.963l0.073,0.184l23.742,-1.346l2.999,-2.659l-0.151,-10.036l4.577,-0.156l-0.061,7.316l2.6,2.476l11.254,-0.672l1.733,-2.133l0.168,-7.522l4.685,-0.159l-0.049,9.841l21.294,-0.963l15.852,3.706l11.835,-7.957l8.276,0.019l0.162,1.976l-2.792,4.953l58.156,35.752l0.008,-0.009l2.149,1.325l11.112,6.855l1.178,-9.204l-13.89,-11.639l0.526,-3.062l-34.02,-31.389l0.952,-1.342c0,0 -0.96,-1.952 -1.163,-3.007c-0.248,-1.291 -0.551,-3.17 -0.326,-4.736c0.469,-3.278 3.144,-14.93 3.144,-14.93l1.156,-3.911l-0.769,-3.653l2.414,-5.6l6.579,1.875l-1.061,4.661l3.218,5.824c0,0 -3.127,8.533 -3.626,10.581c-0.655,2.685 1.998,3.631 3.31,2.058c0.534,-0.642 1.695,-2.276 1.695,-2.276l4.385,4.591l-4.878,11.382l9.041,8.702l11.925,-1.554l6.055,6.76c0,0 -1.975,5.862 -2.38,7.958c-0.58,3 -0.85,3.317 0.445,4.702c2.813,3.011 15.457,14.228 15.457,14.228c0,0 2.493,4.376 4.831,2.45c2.088,-1.721 -0.781,-4.34 -0.781,-4.34l24.439,-8.508l15.529,1.315l2.884,-3.463l-4.538,-18.716l11.259,-1.662l-0.529,-2.824l4.537,-0.93l11.571,11.092l51.032,2.505l38.794,22.006l14.79,-7.108l0.894,-7.346l6.654,-0.583l0.105,3.146l12.629,-1.309l-0.051,-2.946l9.591,-0.839l8.919,4.468c19.987,-32.956 44.851,-74.84 44.851,-74.84l0.449,-0.659l0.421,0.094c1.697,-2.607 5.6,-9.297 9.025,-20.265c1.997,-6.394 6.308,-19.334 4.128,-23.632c-1.904,-3.754 -13.729,-13.561 -21.008,-20.606c-6.116,-5.919 -13.55,-14.894 -17.457,-18.873c-1.855,-1.89 -5.801,-5.3 -5.801,-5.3l-7.343,-11.467l-5.915,-2.612l-7.026,-13.117c0,0 0.273,-4.165 0.197,-4.311c-1.483,-2.859 -5.868,-11.927 -8.573,-17.543l-0.114,0.019c0,0 -0.324,-0.817 -0.498,-1.22c-0.117,-0.272 -0.256,-0.584 -0.413,-0.931l-0.762,-1.585l-9.543,-2.666l-2.23,1.432l-10.85,-4.797l-13.967,4.08l-11.481,-0.954l-0.027,-1.797l-6.547,-2.899c-5.722,3.735 -11.433,6.526 -18.235,9.328c-7.42,3.056 -15.665,7.034 -23.524,10.229c1.682,1.879 4.312,2.103 7.188,2.807c2.743,0.671 5.404,1.009 8.342,1.732c3.009,0.74 7.582,2.793 9.226,4.368c1.234,1.182 0.927,3.402 0.64,5.086c-0.214,1.254 -1.239,3.634 -1.948,5.183l-3.711,-1.634l1.495,-3.839c0,0 -7.467,-1.921 -11.01,-3.087c-3.966,-1.305 -9.607,-4.465 -12.79,-4.743c-2.205,-0.193 -4.527,1.205 -5.989,2.867c-1.729,1.966 -4.428,6.574 -4.388,8.928c0.039,2.32 2.478,4.69 4.656,5.489c3.574,1.31 7.697,0.866 10.325,0.833c1.952,-0.024 3.646,-0.351 5.361,0.179c1.552,0.478 4.82,1.964 6.594,2.79l-1.337,3.036c-2.284,-0.895 -7.854,-2.784 -13.706,-2.567c-4.328,0.161 -9.228,0.564 -12.762,-2.444c-2.164,-1.842 -3.328,-4.943 -3.486,-7.781c-0.306,-5.478 2.193,-7.802 3.471,-9.666c0.154,-0.226 0.084,-1.699 0.014,-2.777c-0.601,0.156 -1.228,0.32 -1.878,0.495c-21.555,5.814 -54.869,9.673 -68.456,10.407c-1.357,-2.242 -2.095,-2.005 -4.45,-1.865c-1.87,0.11 -4.184,0.188 -6.854,0.222l-5.002,3.207l-2.276,1.528l0.115,6.411l8.526,10.718l0.29,5.828l-9.167,-0.677c0,0 0.865,-2.673 0.719,-3.874c-0.147,-1.201 -1.6,-3.333 -1.6,-3.333c0,0 -4.058,2.268 -5.316,3.517c-1.078,1.071 -1.858,2.503 -2.229,3.978c-0.375,1.489 -0.02,4.958 -0.02,4.958l-2.4,2.409l-10.051,2.482l-0.043,1.224c0,0 -2.868,0.073 -4.295,-0.043c-2.521,-0.205 -7.563,0.395 -10.833,-1.187c-1.443,-0.698 -3.735,-2.381 -5.905,-4.095Zm491.655,126.662l34.899,6.074c0,0 2.237,0.052 3.355,0.105c4.719,0.223 8.526,-1.882 11.858,-3.75c3.209,-1.798 6.696,-5.326 8.136,-7.456c0.648,-0.96 0.667,-2.921 0.6,-4.177c-0.251,-2.002 -1.279,-9.102 -3.555,-12.061c-3.54,-4.602 -10.186,-12.956 -17.623,-15.014c-12.542,-3.47 -25.47,-2.892 -38.475,-1.618c-10.754,1.053 -24.45,1.562 -35.662,1.573c-1.072,0.2 -1.665,0.743 -1.838,2.121c-0.199,1.576 0.919,5.027 0.754,6.711c-0.124,1.264 -1.539,2.455 -1.747,3.388c-0.165,0.737 0.495,2.209 0.495,2.209l5.977,16.181l25.824,4.495l1.21,-6.92l7.002,1.225l-1.21,6.914Zm554.157,-32.956l7.126,3.835l3.728,-7.478l4.482,-55.47l4.013,-0.188l1.493,-26.767l-15.175,-1.047l-4.053,1.896l-3.461,44.948l5.318,0.781l-3.471,39.49Zm-573.881,-402.674c-4.194,-5.918 -11.691,-16.866 -17.579,-24.34c-8.524,-10.821 -22.496,-30.089 -31.897,-38.262c-6.733,-5.854 -16.716,-10.496 -24.505,-10.773c-7.788,-0.277 -16.435,3.582 -22.226,9.111c-6.094,5.819 -11.38,16.416 -14.335,25.799c-4.726,15.009 -14.269,47.255 -42.131,67.007c-18.44,13.072 -29.502,17.865 -57.669,24.782c-5.641,1.385 -20.19,3.129 -25.301,5.89c-6.966,3.763 -12.592,9.929 -16.932,16.256c-3.601,5.25 -2.782,12.792 -1.649,19.056c1.571,8.689 5.647,26.539 6.969,33.078c0.416,2.057 1.337,6.153 1.337,6.153l-0.074,-0.002c0.17,0.663 0.358,1.413 0.476,1.93c1.744,7.656 6.304,28.384 9.607,42.542c4.346,18.625 10.06,43.256 20.079,67.25l0.058,-0.014c0,0 0.805,2.153 1.328,3.174c3.114,6.079 9.469,23.583 17.356,33.304c5.898,7.271 13.044,16.701 22.283,25.747c7.672,7.513 17.164,14.689 25.143,20.799c18.939,14.501 41.846,31.779 66.21,40.464c24.952,8.895 42.679,12.76 83.503,12.903c13.865,0.049 30.858,-1.651 44.968,-5.084c9.436,-2.296 17.61,-5.34 23.091,-8.55c9.689,-5.674 14.229,-15.046 18.349,-28.248c2.096,-6.714 3.874,-25.107 3.659,-33.136c-0.53,-19.786 -6.321,-57.138 -11.675,-85.35c-2.801,-14.76 -7.541,-32.613 -11.63,-51.124c-5.174,-23.42 -9.889,-47.558 -14.765,-64.129c-3.28,-11.142 -7.063,-23.093 -11.847,-34.149c-4.543,-10.497 -10.064,-20.159 -14.146,-28.61c-6.589,-13.643 -18.605,-32.062 -23.543,-40.12c-0.316,-0.363 -0.63,-0.738 -0.843,-1.029c-0.459,-0.626 -1.009,-1.393 -1.632,-2.272l-0.046,-0.048l0.009,-0.005Zm180.908,366.393c0.808,-4.901 2.086,-13.345 2.21,-18.424c0.114,-4.638 0,-18.781 -0.866,-28.118c-2.327,-25.078 -6.949,-64.698 -8.312,-89.997c-1.108,-20.568 -0.03,-42.926 0.134,-61.794c0.149,-17.139 -0.257,-35.458 0.434,-51.364c0.639,-14.701 3.069,-34.566 3.435,-44.141c0.172,-4.488 -0.375,-10.778 -0.82,-13.357c-0.147,-0.848 -0.744,-2.267 -1.575,-2.045c-1.219,0.325 -2.245,1.033 -3.092,1.886c-1.456,2.751 -2.975,5.335 -4.661,7.412c-3.345,4.12 -7.153,7.19 -12.036,9.268c-6.186,2.633 -16.777,4.923 -25.081,6.528c-7.514,1.453 -23.585,3.937 -30.767,5.03c-0.117,0.042 -0.248,0.075 -0.395,0.098c-12.908,2.002 -29.956,2.604 -33.221,8.095c-2.602,4.375 -0.067,10.248 0.916,15.242c2.854,14.508 11.279,47.769 16.21,71.806c5.614,27.361 14.407,65.698 17.473,92.361c2.576,22.394 3.263,48.261 0.925,67.618c-1.147,9.501 -0.91,21.763 6.349,28c11.585,9.956 29.555,6.226 43.028,4.762c9.732,-1.058 20.945,-5.423 29.712,-8.866Zm154.857,-321.277c1.282,-0.66 3.128,-1.777 3.655,-2.952c1.004,-2.234 1.704,-6.603 1.074,-9.843c-0.96,-4.933 -3.801,-13.485 -6.835,-19.759c-2.864,-5.923 -10.529,-17.799 -12.899,-21.433c-0.95,-1.397 -3.166,-4.767 -4.822,-7.028c-2.951,-4.03 -8.697,-12.097 -12.798,-17.022c-4.602,-5.527 -7.594,-7.769 -13.219,-11.291c-2.987,-1.871 -7.329,-4.081 -9.783,-5.375l-0.065,0.078c0,0 -0.592,-0.383 -1.411,-0.883c-0.37,-0.214 -0.769,-0.453 -0.769,-0.453l0.004,-0.008c-0.98,-0.581 -2.095,-1.208 -2.904,-1.558c-4.101,-1.778 -13.721,-7.262 -19.531,-7.764c-5.329,-0.46 -11.076,1.507 -15.328,4.752c-4.945,3.775 -8.768,8.093 -14.345,17.897c-4.917,8.645 -12.919,21.022 -18.901,31.766c-4.734,8.502 -11.779,21.84 -18.112,33.818c-0.798,4.9 -1.486,9.891 -1.492,12.539c-0.018,9.486 1.125,25.691 0.405,38.346c-0.88,15.447 -2.494,32.914 -3.049,49.578c-0.581,17.434 -0.287,36.464 -0.104,54.695c0.194,19.297 0.38,43.683 1.268,61.09c0.739,14.494 2.705,29.003 4.06,43.349c1.346,14.243 3.244,30.06 4.071,42.727c0.631,9.652 0.717,22.882 0.837,30.37c6.873,-3.192 18.432,-8.623 25.233,-12.16c11.967,-6.223 28.898,-15.351 40.6,-23.13c10.501,-6.981 23.502,-18.567 29.61,-24.228c2.306,-2.137 4.399,-6.553 6.52,-10.284c2.15,-3.779 6.374,-11.709 6.374,-11.709l0.364,-2.148l14.183,-7.834l-0.46,-0.702l2.244,-0.34c0,0 1.338,-1.79 1.976,-2.707c3.54,-5.08 16.944,-22.462 23.329,-34.094c1.81,-3.298 3.555,-6.83 4.927,-9.716c1.101,-2.429 3.3,-7.37 4.332,-10.314c1.826,-5.208 4.321,-12.904 5.966,-19.499c1.827,-7.325 3.817,-17.669 4.997,-24.454c0.936,-5.381 1.683,-11.869 2.084,-16.253c0.278,-3.053 0.314,-8.93 0.318,-9.908c-0.192,-5.496 -0.668,-18.249 -1.138,-24.44c-0.536,-7.049 -1.163,-14.112 -2.429,-21.067c-2.39,-13.119 -7.418,-27.978 -8.449,-30.766c-0.837,-2.264 -1.309,-4.796 -2.845,-6.658c-2.053,-2.487 -4.071,-3.63 -9.47,-3.112c-2.754,0.265 -7.977,2.29 -7.977,2.29l-0.002,-0.047c-5.731,1.964 -18.152,6.237 -21.708,7.597c-3.392,1.298 -2.658,3.839 -2.658,3.839l-0.349,12.934l-14.867,-2.088c0,0 1.394,-8.421 1.673,-11.727c0.33,-3.923 1.246,-5.581 3.846,-7.4c1.852,-1.294 3.592,-2.76 5.542,-3.902c2.434,-1.425 6.051,-3.326 9.062,-4.647c2.925,-1.284 9.005,-3.282 9.005,-3.282l11.16,-3.68Zm-787.184,229.89c-13.889,-0.961 -29.034,-2.747 -41.557,-5.739c-21.628,-5.167 -47.98,-16.274 -62.931,-22.142c-10.101,-3.965 -20.937,-8.556 -31.757,-7.734c-13.364,1.015 -23.778,3.66 -48.436,13.703c-11.677,4.757 -30.101,9.302 -45.671,10.324c-15.763,1.036 -38.4,-4.823 -48.896,-3.989c-8.826,0.701 -12.461,3.416 -14.187,7.408c-0.103,0.239 -0.182,0.513 -0.24,0.811c0.007,0.326 0.119,4.042 1.362,5.256c2.787,2.721 9.741,8.179 15.357,11.046c7.624,3.892 20.181,8.399 30.387,12.303c15.791,6.041 64.076,23.918 70.334,26.234l0.671,0.249l29.505,-0.439l54.832,-31.723c0,0 13.594,8.814 20.896,12.264c4.595,2.171 9.313,3.933 14.605,4.094c5.589,0.171 11.001,-1.258 16.468,-4.089c10.966,-5.68 32.697,-17.81 39.668,-22.068c1.166,-0.712 2.202,-1.434 2.162,-3.48c-0.041,-2.055 -0.884,-1.999 -2.572,-2.289Zm12.728,11.662l-25.785,17.299c0.252,0.687 0.516,1.272 0.773,1.632c0.926,1.298 2.837,1.473 4.335,2.02c1.652,0.603 3.923,1.738 5.577,1.601c1.654,-0.137 3.16,-1.266 4.347,-2.425c1.626,-1.588 3.75,-1.466 4.759,-2.496c0.91,-0.93 1.456,-2.394 1.291,-3.685c-0.306,-2.4 0.111,-2.592 2.341,-4.259c1.778,-1.329 6.976,-5.258 6.976,-5.258l-4.614,-4.429Zm-314.107,-326.899c-1.503,13.349 -5.385,45.352 -4.206,64.405c0.763,12.333 0.782,20.76 0.305,27.548l8.838,8.226l-0.026,43.091l160.467,122.431c0.937,-0.026 1.876,-0.029 2.821,-0.007c21.89,0.499 35.383,10.64 52.292,16.571c11.558,4.054 25.839,9.577 41.418,13.338c14.946,3.608 31.121,5.525 45.672,6.2c20.775,0.963 50.713,-0.669 74.337,-4.152c9.873,-1.455 18.615,-3.706 25.141,-5.315l-0.014,-0.066l0.601,-0.078c1.626,-0.399 3.107,-0.754 4.424,-1.04c0.273,-0.06 0.548,-0.075 0.822,-0.05c5.468,-1.354 15.412,-3.537 22.154,-6.514c8.652,-3.82 18.88,-7.365 27.798,-15.903c8.616,-8.25 13.897,-20.461 16.763,-40.107c1.503,-10.302 -4.629,-39.564 -7.397,-56.854c-2.414,-15.085 -10.76,-31.018 -19.506,-41.472c-6.499,-7.768 -20.81,-17.399 -31.114,-22.756c-5.871,-3.052 -10.954,-6.236 -15.095,-12.894c-5.944,-9.557 -13.943,-13.566 -17.76,-16.498c-1.095,-0.629 -2.322,-1.291 -3.715,-2c-16.719,-8.513 -22.125,-9.668 -35.35,-29.62c-12.908,-19.472 -38.821,-59.824 -52.906,-79.277c-10.692,-14.767 -15.635,-23.333 -38.426,-32.181c-17.888,-6.944 -38.425,-17.397 -51.899,-26.456c-11.12,-7.477 -19.948,-18.276 -28.944,-27.898c-8.048,-8.609 -17.792,-17.362 -28.586,-20.897c-14.132,-4.628 -24.089,-2.469 -36.031,-0.747c-26.251,3.784 -49.839,22.495 -56.083,27.801c0,0 -0.469,0.384 -1.305,1.09l6.19,26.459l2.801,4.845l-7.068,4.475l-19.912,28.957l0.013,1.102l-3.079,38.166l-30.317,5.335l-4.118,2.742Zm-4.431,97.453c-0.775,6.292 -2.015,11.508 -3.438,18.222c-2.984,14.072 -6.347,26.586 -10.025,39.745c-5.214,18.66 -9.114,38.413 -9.181,51.224c0,0 -0.617,11.327 -0.595,14.489c0.067,9.957 3.303,25.009 9.016,34.639c11.479,19.349 22.715,21.487 37.771,26.385c15.318,4.983 35.525,9.632 52.058,9.277c18.006,-0.388 34.613,-5.936 47.148,-11.233c11.347,-4.795 21.796,-9.637 32.384,-12.342l2.976,-5.336l-156.184,-118.737l-0.031,-7.922l3.229,-1.815l-0.178,-31.651l-4.95,-4.945Zm521.342,180.896c-0.744,-1.787 -1.409,-3.497 -1.902,-4.984c-1.99,-5.995 -7.711,-11.191 -15.343,-10.919c-8.803,0.313 -11.55,3.109 -16.481,7.676c-2.618,2.423 -5.082,4.566 -7.461,6.488l1.188,2.057l6.239,0.473l16.755,-4.724l14.695,6.255l2.31,-2.322Zm-25.585,-104.71l-0.006,0c0,0 -0.058,-4.141 -0.42,-6.17c-1.941,-10.875 -4.145,-40.972 -11.226,-59.076c-3.107,-7.941 -5.739,-17.065 -10.339,-25.022c-5.886,-10.184 -14.087,-18.822 -20.926,-24.526c-8.874,-7.402 -19.196,-13.248 -31.3,-14.905c-4.491,-0.615 -13.382,2.849 -18.604,5.243c-0.627,0.341 -1.464,0.795 -2.303,1.243c-0.233,0.138 -0.385,0.229 -0.385,0.229l-0.013,-0.017c-0.715,0.38 -1.407,0.742 -1.948,1.015c-2.912,1.466 -11.026,5.9 -9.823,8.878c2.673,6.619 15.923,9.714 21.078,12.838c3.273,1.984 7.041,3.865 9.849,5.904c10.218,7.418 36.246,24.974 46.644,36.107c7.757,8.306 13.057,19.145 15.936,30.139c3.394,12.959 7.733,33.722 9.437,41.602c0.534,2.467 1.034,5.547 3.153,5.101c2.264,-0.477 2.967,-2.699 2.973,-4.495c0.007,-2.164 -1.453,-10.506 -1.743,-13.026c-0.033,-0.283 -0.039,-0.686 -0.034,-1.062Zm637.429,-253.321l15.853,-3.298l0,-25.833l-1.394,-0.664l-1.76,0.958l-1.716,0.896l-5.427,2.911l-1.785,0.892l-1.454,2.141l-6.516,3.588l-14.489,2.956l0.024,3.243l-13.575,5.915c0,0 -6.003,-1.963 -8.269,-1.803c-3.015,0.214 -6.435,0.958 -9.923,2.773c-4.145,2.156 -9.428,4.177 -13.702,5.829c-3.923,1.517 -8.14,2.802 -11.94,4.083c-3.613,1.219 -7.638,1.563 -10.857,3.608c-3.695,2.346 -8.792,6.696 -11.311,10.472c-2.362,3.54 -4.272,8.001 -4.043,12.251c0.232,4.294 2.982,9.473 5.34,13.707c2.42,4.345 5.471,8.969 9.341,12.437c4.106,3.679 9.695,8.166 15.407,10.07c6.951,2.316 20.891,3.619 26.365,3.91c1.845,0.098 5.52,0.365 5.52,0.365l0.058,4.45l6.956,4.411l8.942,-2.152l2.715,-5.585l14.378,8.234l-0.353,4.299l11.384,6.424l0.702,-1.837l0.241,-0.057l-2.291,9.174l-12.495,-4.324l-7.837,13.666c7.035,0.961 14.479,2.061 17.769,2.816c0.948,0.218 2.081,0.702 3.22,1.285l-5.183,8.345c-2.25,-0.608 -5.192,-1.314 -7.18,-1.458c-3.68,-0.268 -9.665,-0.326 -12.487,1.246c-2.818,1.57 -4.422,4.393 -4.513,7.618c-0.109,3.904 3.432,10.606 4.203,15.309c0.695,4.232 -0.69,8.764 0.427,12.905c1.447,5.365 6.214,12.717 8.726,19.322c2.96,7.781 7.094,19.12 9.034,27.364c1.7,7.222 1.768,18.454 2.606,22.103c2.445,10.635 3.76,7.208 4.561,-0.813c0.071,-0.702 0.048,-2.226 -0.009,-3.872l7.299,-1.245c0.291,2.211 0.638,5.083 0.701,6.631c0.091,2.272 0.058,4.592 -0.453,6.808c-1.049,4.55 -3.57,4.847 -4.471,7.244c-1.777,4.73 -0.4,6.711 1.214,8.746c1.794,2.264 6.458,5.016 9.842,5.333c3.384,0.317 7.666,-1.725 10.246,-4.447c3.658,-3.859 8.249,-12.464 11.415,-19.205c4.679,-9.963 12.015,-27.589 16.662,-40.573c4.378,-12.234 9.352,-29.343 11.217,-37.333c0.804,-3.443 -0.029,-10.606 -0.029,-10.606l1.329,-10.514l5.606,-3.132l3.662,-9.49l-0.019,-0.009l19.328,-50.534l-2.795,-3.533l4.154,-9.906l2.071,-1.216c0,0 1.573,-2.967 2.022,-4.571c0.368,-1.314 0.855,-2.97 1.423,-4.884l-10.164,-21.808l-5.365,-0.028l-8.503,21.559l5.616,6.52l3.487,0.129l3.745,3.949l-4.131,10.202l-21.084,-8.385l20.668,-51.383c0,0 -1.348,-3.978 -1.915,-5.999c-1.4,-4.985 -3.67,-16.205 -6.487,-23.916c-2.818,-7.711 -6.751,-16.452 -9.964,-22.349c-2.513,-4.613 -5.948,-9.973 -9.315,-13.033c-2.95,-2.683 -6.265,-4.205 -11.075,-4.526c-2.28,-0.153 -6.346,0.32 -9.872,0.836c-0.888,1.114 -1.672,2.109 -2.319,2.953c-2.283,2.972 -6.165,9.401 -6.165,9.401l-0.161,0.05l-5.342,16.222l0,12.047l4.112,2.577l0,-3.163l6.989,-1.952l3.374,1.443l0,5.336l1.73,1.348l-0.934,1.871l-15.271,3.458l0,18.931l-24.984,6.19l0.361,-11.919l-0.718,-0.405Zm-335.965,64.816c-0.821,-0.104 -1.754,-0.219 -2.395,-0.286c-5.39,-0.566 -27.235,-4.02 -34.756,-1.68c-7.52,2.34 -9.511,10.782 -10.367,15.717c-0.593,3.42 1.344,10.474 3.226,13.391c6.42,9.948 13.431,19.442 17.125,24.907c0.577,0.744 1.158,1.511 1.741,2.299c0.442,0.463 0.839,0.838 0.839,0.838l-0.174,0.067c14.2,19.485 29.887,50.786 36.748,64.713c2.881,5.849 5.246,11.66 10.649,13.786c6.89,2.711 13.946,1.931 20.586,0.704l-0.03,-0.019l4.026,-0.76c1.04,-0.207 2.066,-0.409 3.075,-0.594c0.318,-0.059 0.663,-0.061 1.027,-0.015c9.137,-1.372 31.631,-4.87 43.86,-7.839c10.924,-2.653 19.272,-7.09 26.898,-18.024c4.464,-6.401 8.399,-14.339 13.366,-23.443c4.786,-8.773 10.564,-18.602 16.842,-30.592c7.322,-13.985 15.077,-27.263 20.524,-42.68c0.966,-2.735 1.239,-5.733 -1.22,-8.614c-3.421,-4.006 -32.225,1.757 -47.932,2.612c-15.387,0.838 -30.73,2.643 -46.313,2.52c-23.189,-0.184 -46.927,-2.541 -66.806,-5.42c-2.814,-0.408 -7.177,-1.072 -10.539,-1.588Zm-364.202,24.254c0.483,0.855 0.974,1.655 1.415,2.255c6.349,8.64 19.26,27.698 34.484,37.719c17.63,11.604 41.42,29.865 76.568,23.14c15.699,-3.003 32.199,-6.209 55.034,-27.784c15.016,-14.188 22.967,-34.22 26.061,-48.917c5.895,-28 -2.68,-57.634 -24.135,-89.839l-0.85,-0.269l-4.035,-7.165l-164.542,110.86Zm670.117,-0.418c-1.054,1.726 -2.252,3.707 -2.794,4.671c-1.086,1.931 -1.508,3.228 0.497,4.639c0.741,0.522 2.253,1.489 3.852,2.494l0.95,0.144l2.271,-0.593l0.844,-1.388l3.68,2.008c0,0 4.147,-5.892 4.902,-7.539c0.329,-0.718 0.193,-1.791 -0.375,-2.342c-0.995,-0.965 -5.598,-3.448 -5.598,-3.448l-8.229,1.354Zm-1067.03,-97.931c-3.435,4.239 -5.678,8.675 -7.386,11.776c-5.998,10.892 -11.039,22.174 -14.35,32.895c-3.072,9.949 -4.475,22.932 -5.452,30.923l2.905,3.536l14.26,-2.06l1.152,-15.965l3.887,0.783l1.861,-19.935l8.234,-10.035l0.563,-3.817l10.461,-13.703l-6.658,-12.927l-9.477,-1.471Zm1206.12,34.641c1.968,-7.181 3.837,-14.71 4.912,-21.057c2.506,-14.793 3.362,-30.105 3.435,-44.878c0.072,-14.621 -1.597,-29.208 -2.999,-43.762c-1.55,-16.094 -5.164,-43.457 -6.31,-52.898l-0.22,-1.481l-0.219,-1.474c-0.056,-0.345 -0.094,-0.569 -0.094,-0.569l0.008,-0.001c-0.465,-3.11 -1.12,-7.452 -1.489,-9.709c-0.674,-4.132 -3.75,-8.118 -5.693,-8.206c-3.699,-0.166 -5.107,3.525 -6.388,6.202c-2.576,5.38 -7.243,16.8 -10.731,23.846c-3.167,6.397 -6.789,12.627 -10.197,18.432c-3.203,5.456 -6.197,11.071 -9.958,16.158c-0.155,0.209 -0.315,0.424 -0.481,0.645c-0.547,0.864 -1.041,1.736 -1.295,2.41c-0.752,1.994 -0.983,4.202 -0.889,6.33c0.102,2.308 0.171,5.396 1.323,7.677c1.747,3.461 6.345,8.556 9.159,13.088c3.606,5.806 9.136,14.034 12.659,21.594c3.523,7.559 6.605,18.196 8.482,23.761c1.067,3.165 1.795,6.436 2.774,9.629c2.026,6.602 4.732,18.691 6.859,24.527c0.692,1.9 3.46,10.447 5.903,10.489c0.803,0.014 1.2,-0.266 1.449,-0.753Zm22.671,-47.996c-0.606,13.306 -2.238,26.599 -4.916,39.632c-0.489,2.377 -1.03,4.81 -1.617,7.286l12.29,-0.584l4.981,-5.634l-0.319,-16.634l1.609,-1.942l-1.002,-9.798l-6.051,-3.411l-2.125,-8.142l-2.85,-0.773Zm-201.96,-153.871l-0.022,0.013l0.745,-14.506l-12.499,-45.737l-210.937,-15.894l-15.323,15.229l4.329,44.051l5.337,12.53l19.438,15.821l-1.276,14.23c0,0 -1.363,10.776 -1.083,16.171c0.322,6.236 2.043,16.954 3.02,21.242c0.393,1.725 1.278,3.658 2.711,4.695c1.561,1.13 4.367,1.8 6.655,2.081c2.839,0.349 10.509,-0.198 10.509,-0.198l2.036,15.874c0,0 -5.259,0.91 -6.873,1.47c-1.067,0.37 -2.487,0.809 -2.811,1.891c-0.328,1.092 0.049,3.298 0.847,4.661c3.066,5.235 12.316,20.815 17.451,26.997c3.581,4.313 8.074,8.427 13.226,10.636c5.737,2.46 15.253,3.04 21.293,3.876c4.95,0.686 11.082,1.776 15.019,1.488c3.036,-0.221 6.339,-1.912 8.601,-3.212c2.01,-1.155 3.785,-3.333 4.701,-4.901c0.759,-1.3 0.794,-4.506 0.794,-4.506l27.949,1.054l-0.951,8.972l96.296,7.678l0.005,-0.027l0.343,-3.415l9.023,0.593l0.616,-9.091l-4.551,-6.893l2.576,-42.858l-2.967,-1.433l1.22,-23.814l2.774,-1.986l-3.005,-3.989l-7.764,-0.88l-4.488,-9.66l-14.888,-3.784l1.143,-17.229l-11.696,-0.818l22.212,-11.797l0.265,-4.625Z" style="fill:#ffae00;"/></g></svg>