<?xml version="1.0" encoding="UTF-8" standalone="no"?><!DOCTYPE svg PUBLIC "-//W3C//DTD SVG 1.1//EN" "http://www.w3.org/Graphics/SVG/1.1/DTD/svg11.dtd"><svg width="100%" height="100%" viewBox="0 0 2550 1994" version="1.1" xmlns="http://www.w3.org/2000/svg" xmlns:xlink="http://www.w3.org/1999/xlink" xml:space="preserve" xmlns:serif="http://www.serif.com/" style="fill-rule:evenodd;clip-rule:evenodd;stroke-linejoin:round;stroke-miterlimit:2;"><MetaInfo xmlns="http://www.prognoz.ru"><Geo><GeoItem X="0" Y="0" Latitude="51.24177020918754" Longitude="7.105611562728882"/><GeoItem X="2550" Y="1994" Latitude="51.236776961813064" Longitude="7.115809321403503"/></Geo></MetaInfo><g id="Zoo"><g id="gibbons"><path id="Inseln" d="M789.564,504.068c1.335,-1.831 2.532,-2.188 4.674,-1.447c6.094,2.106 31.155,15.644 31.155,15.644l1.819,5.121c0,0 -6.116,13.389 -8.253,16.566c-1.51,2.245 -3.238,2.985 -5.589,1.788c-5.811,-2.959 -30.563,-16.264 -30.563,-16.264l-1.403,-3.359c0,0 5.864,-14.896 8.16,-18.049Zm-109.186,2.031c-0.228,-4.834 5.378,-11.617 10.699,-11.31c5.998,0.346 9.836,5.383 10.347,10.918c0.472,5.126 -5.622,10.838 -9.967,10.408c-4.936,-0.488 -10.865,-5.474 -11.079,-10.016Zm20.581,-97.74c1.55,-1.837 5.384,-3.797 8.752,-3.214c2.969,0.514 5.682,2.816 5.904,6.438c0.269,4.382 -5.24,10.869 -9.385,11.082c-5.056,0.259 -8.49,-2.657 -8.401,-8.135c0.041,-2.545 1.512,-4.253 3.13,-6.171Z" style="fill:#c6cb84;"/><path d="M710.123,421.016l18.724,19.867l12.068,27.261l47.144,38.559c-0.403,0.801 -0.835,1.708 -1.279,2.673l-48.144,-39.662l-12.643,-27.475l-18.337,-19.867c0.818,-0.283 1.656,-0.753 2.467,-1.356Zm-46.783,4.782l34.543,-9.908c0.108,1.077 0.37,2.033 0.767,2.865l-35.604,10.69l0.294,-3.647Z" style="fill:#0079ff;"/><path d="M661.501,448.59l28.414,9.072l2.759,37.338c-0.514,-0.108 -1.046,-0.179 -1.597,-0.211c-0.341,-0.019 -0.683,-0.01 -1.024,0.026l-2.556,-34.8l-26.228,-8.538l0.232,-2.887Z" style="fill:#0079ff;fill-opacity:0.6;"/><path id="Gibbonhaus" d="M665.04,404.725l-4.386,54.365l-1.367,-0.11l-42.697,7.514l-3.478,-19.763l30.318,-5.335l3.079,-38.166l18.531,1.495Z" style="fill:#e1bfa9;"/></g></g></svg>