<?xml version="1.0" encoding="UTF-8" standalone="no"?><!DOCTYPE svg PUBLIC "-//W3C//DTD SVG 1.1//EN" "http://www.w3.org/Graphics/SVG/1.1/DTD/svg11.dtd"><svg width="100%" height="100%" viewBox="0 0 2061 1791" version="1.1" xmlns="http://www.w3.org/2000/svg" xmlns:xlink="http://www.w3.org/1999/xlink" xml:space="preserve" xmlns:serif="http://www.serif.com/" style="fill-rule:evenodd;clip-rule:evenodd;stroke-linejoin:round;stroke-miterlimit:2;"><MetaInfo xmlns="http://www.prognoz.ru"><Geo><GeoItem X="0" Y="0" Latitude="51.24177020918754" Longitude="7.105611562728882"/><GeoItem X="2550" Y="1994" Latitude="51.236776961813064" Longitude="7.115809321403503"/></Geo></MetaInfo><g><g id="Außengrenze"><g><path d="M870.376,-15.279l936.877,28.688l29.753,68.103l17.205,45.545l54.205,164.683l-19.044,198.81l-6.701,44.861l4.266,171.165l4.295,173.515l-8.97,142.052l85.587,-47.05l200.304,-20.057l-26.979,123.035l-16.017,108.629l-5.526,40.04l-18.285,114.402l-31.678,138.872l-24.872,103.91l-28.506,137.987l-25.064,195.836l-112.794,-18.029l-220.186,-33.441l-538.381,-74.199l-157.458,-24.765l0.757,-89.209l301.672,-10.639l89.98,-105.095l-1.173,-20.428l-12.482,-26.991l-38.67,-11.673l-132.203,-40.396l-84.427,-25.5l-116.544,37.629l-131.389,41.041l-76.941,18.94l-38.361,0.766l-53.094,-28.168l-13.825,-22.789l-23.327,-99.999l-9.023,-14.244l-8.917,-7.399l-8.746,-6.122l-62.624,-22.012l-80.924,-16.647l-48.699,-11.974l-82.247,-27.579l-63.158,-30.179l-20.795,-10.651l-28.013,-16.189l-48.608,-23.736l-0.517,-21.545l-39.166,3.778l-86.684,22.323l-65.98,26.186l-40.316,29.123l-11.824,-12.179l24.403,-38.339l42.968,-81.032l28.221,-64.747l-1.675,-26.3l-20.711,-57.315l-28.647,-57.179l21.081,-1.301l-5.892,-37.549l-18.794,-5.911l-4.361,-3.843l-20.737,-67.796l4.758,-21.692l100.563,-43.227l190.08,-106.027l45.155,-93.218l13.57,-162.561l10.758,-135.698l162.83,-16.347l400.667,-240.953Z" style="fill:#c6cb84;"/><path d="M870.376,-15.279l936.877,28.688l29.753,68.103l17.205,45.545l54.205,164.683l-19.044,198.81l-6.701,44.861l4.266,171.165l4.295,173.515l-8.97,142.052l85.587,-47.05l200.304,-20.057l-26.979,123.035l-16.017,108.629l-5.526,40.04l-18.285,114.402l-31.678,138.872l-24.872,103.91l-28.506,137.987l-25.064,195.836l-112.794,-18.029l-220.186,-33.441l-538.381,-74.199l-157.458,-24.765l0.757,-89.209l301.672,-10.639l89.98,-105.095l-1.173,-20.428l-12.482,-26.991l-38.67,-11.673l-132.203,-40.396l-84.427,-25.5l-116.544,37.629l-131.389,41.041l-76.941,18.94l-38.361,0.766l-53.094,-28.168l-13.825,-22.789l-23.327,-99.999l-9.023,-14.244l-8.917,-7.399l-8.746,-6.122l-62.624,-22.012l-80.924,-16.647l-48.699,-11.974l-82.247,-27.579l-63.158,-30.179l-20.795,-10.651l-28.013,-16.189l-48.608,-23.736l-0.517,-21.545l-39.166,3.778l-86.684,22.323l-65.98,26.186l-40.316,29.123l-11.824,-12.179l24.403,-38.339l42.968,-81.032l28.221,-64.747l-1.675,-26.3l-20.711,-57.315l-28.647,-57.179l21.081,-1.301l-5.892,-37.549l-18.794,-5.911l-4.361,-3.843l-20.737,-67.796l4.758,-21.692l100.563,-43.227l190.08,-106.027l45.155,-93.218l13.57,-162.561l10.758,-135.698l162.83,-16.347l400.667,-240.953Zm1.098,4.202l-399.618,240.322c-0.527,0.317 -1.119,0.514 -1.731,0.575l-159.367,15.999l-10.484,132.229c0,0.006 -0.001,0.012 -0.001,0.018l-13.57,162.561c-0.042,0.51 -0.179,1.009 -0.402,1.47l-45.156,93.218c-0.372,0.769 -0.973,1.406 -1.72,1.822l-190.079,106.027c-0.125,0.069 -0.253,0.132 -0.385,0.189l-98.597,42.382l-4.065,18.535l20.073,65.624l2.814,2.48l17.951,5.645c1.51,0.475 2.621,1.765 2.866,3.329l5.892,37.549c0.182,1.159 -0.133,2.341 -0.868,3.255c-0.734,0.915 -1.82,1.477 -2.991,1.55l-14.788,0.912l25.822,51.543c0.073,0.146 0.138,0.296 0.193,0.45l20.711,57.315c0.134,0.37 0.215,0.758 0.24,1.151l1.675,26.3c0.043,0.661 -0.073,1.323 -0.338,1.93l-28.222,64.746c-0.042,0.098 -0.088,0.194 -0.138,0.287l-42.968,81.033c-0.051,0.097 -0.107,0.192 -0.166,0.285l-22.635,35.562l7.022,7.232l37.395,-27.014c0.279,-0.202 0.582,-0.368 0.903,-0.495l65.98,-26.185c0.162,-0.065 0.329,-0.119 0.498,-0.163l86.684,-22.323c0.21,-0.054 0.424,-0.092 0.639,-0.113l39.166,-3.778c1.152,-0.111 2.298,0.262 3.164,1.03c0.866,0.768 1.374,1.861 1.401,3.018l0.457,19.012l46.331,22.625c0.087,0.043 0.172,0.088 0.256,0.137l27.923,16.136l20.649,10.577l62.876,30.044l81.842,27.443l48.456,11.914l80.845,16.631c0.184,0.038 0.365,0.088 0.542,0.151l62.624,22.012c0.358,0.125 0.697,0.299 1.008,0.517l8.746,6.121c0.094,0.066 0.184,0.135 0.272,0.207l8.917,7.399c0.335,0.279 0.625,0.608 0.859,0.977l9.023,14.244c0.25,0.395 0.431,0.829 0.538,1.283l23.176,99.352l12.885,21.24l51.124,27.123l36.818,-0.734l76.367,-18.799l131.228,-40.991l116.544,-37.629c0.807,-0.26 1.674,-0.269 2.485,-0.024l84.428,25.501c0.004,0.001 0.009,0.002 0.013,0.004c0,0 132.203,40.395 132.19,40.391l38.669,11.673c1.139,0.344 2.078,1.159 2.577,2.24l12.483,26.991c0.22,0.475 0.348,0.987 0.378,1.51l1.173,20.429c0.062,1.074 -0.295,2.131 -0.995,2.948l-89.98,105.095c-0.758,0.886 -1.853,1.413 -3.018,1.454l-297.687,10.499l-0.692,81.627l153.829,24.196l538.382,74.198c0.019,0.003 0.037,0.005 0.056,0.008l220.187,33.441c0.011,0.002 0.021,0.004 0.032,0.005l108.549,17.351l24.518,-191.572c0.014,-0.105 0.031,-0.21 0.052,-0.314l28.506,-137.987c0.009,-0.042 0.019,-0.085 0.029,-0.127c0,0 24.871,-103.91 24.861,-103.867l31.648,-138.738l18.251,-114.178l5.526,-40.041c0.001,-0.013 0.003,-0.026 0.005,-0.038l16.017,-108.629c0.014,-0.095 0.032,-0.19 0.052,-0.284l25.749,-117.425l-193.742,19.4l-84.842,46.64c-1.332,0.732 -2.957,0.681 -4.24,-0.134c-1.284,-0.814 -2.021,-2.263 -1.926,-3.78l8.959,-141.869l-4.291,-173.332l-4.266,-171.164c-0.006,-0.241 0.009,-0.481 0.045,-0.719l6.685,-44.752l18.95,-197.832l-53.904,-163.767l-17.136,-45.362l-28.655,-65.59l-933.016,-28.57Z"/></g></g></g></svg>