<?xml version="1.0" encoding="UTF-8" standalone="no"?><!DOCTYPE svg PUBLIC "-//W3C//DTD SVG 1.1//EN" "http://www.w3.org/Graphics/SVG/1.1/DTD/svg11.dtd"><svg width="100%" height="100%" viewBox="0 0 2061 1791" version="1.1" xmlns="http://www.w3.org/2000/svg" xmlns:xlink="http://www.w3.org/1999/xlink" xml:space="preserve" xmlns:serif="http://www.serif.com/" style="fill-rule:evenodd;clip-rule:evenodd;stroke-linejoin:round;stroke-miterlimit:2;"><MetaInfo xmlns="http://www.prognoz.ru"><Geo><GeoItem X="0" Y="0" Latitude="51.24177020918754" Longitude="7.105611562728882"/><GeoItem X="2550" Y="1994" Latitude="51.236776961813064" Longitude="7.115809321403503"/></Geo></MetaInfo><g><g id="Gebäude"><path id="Eingang" d="M539.505,235.292l31.238,-20.858l24.933,37.156l33.179,-21.925l9.798,15.522l-64.32,42.396l-34.828,-52.291Z" style="fill:#ef8899;"/><path id="Affenhaus" d="M663.465,837.185l18.085,-31.048l27.279,-20.289l33.373,-8.002l-1.638,-4.332l-15.274,2.022l2.527,-4.605l13.613,-3.123l41.903,5.233l34.427,10.976l0.729,19.588l27.186,1.049l29.639,14.283l23.952,26.952l-30.115,17.626l0.058,25.685l-6.359,0.592l0.134,7.771l-12.628,1.31l-0.539,-16.036l-1.63,-3.58l-2.381,-0.775l-2.963,1.401l-7.189,-8.051l-6.229,-2.595l-10.153,-0.515l-1.106,-5.368l-18.07,-0.014l-2.293,-6.976l-13.166,-3.471l-11.948,11.786l-15.134,-9.147l1.996,-5.654l-6.991,-4.424l-8.31,-1.564l-7.617,2.188l-5.189,3.301l-6.154,10.311l-4.585,-1.111l-0.928,5.765l2.73,14.571l-12.85,1.897l-2.163,-10.145l-6.985,0.166l-3.326,-22.286l-33.718,-11.362Z" style="fill:#ef8899;"/><path id="Kleines-Affenhaus" serif:id="Kleines Affenhaus" d="M469.512,766.35l56.815,-2.335l8.927,15.445l0.133,2.341l13.259,8.032l1.832,71.366l-1.272,0.011l-0.163,3.723l-10.671,0.4l0.111,4.195l-34.971,0.781l-0.85,-13.762l-16.154,0.284l-2.068,-60.274l-14.016,0.055l-0.912,-30.262Z" style="fill:#ef8899;"/><path id="KirkDikDik" d="M1180.73,1.658l-18.952,-1.658l-2.733,31.239l18.951,1.658l2.734,-31.239Z" style="fill:#ef8899;"/><path id="Zoosääle" d="M857.327,92.614l-185.409,124.675l32.504,46.571l-53.959,36.509l45.524,67.701l238.655,-160.479l-77.315,-114.977Z" style="fill:#ef8899;"/><path id="Südamerikahaus" d="M1296.15,252.02l-27.53,-1.925l4.708,-67.325l14.712,1.029l0.818,-11.692l39.691,2.776l-0.817,11.691l17.984,1.258l-4.708,67.325l-32.456,-2.27l-0.544,7.77l-12.388,-1.062l0.53,-7.575Z" style="fill:#ef8899;"/><path id="Okapis--wahrscheinlich-" serif:id="Okapis (wahrscheinlich)" d="M1279.64,167.935l-9.02,-0.631l1.164,-16.655l73.564,5.144l-2.014,31.666l-15.474,-1.082l0.805,-11.514l-49.268,-3.445l0.243,-3.483Z" style="fill:#ef8899;"/><path id="Okapis" d="M1391.12,152.279l-45.186,-3.16l-1.971,28.188l45.186,3.159l1.971,-28.187Z" style="fill:#ef8899;"/><path id="Gaukler" d="M1420.69,57.1l-20.47,-1.431l1.118,-15.982l35.915,2.512l-1.583,22.637l-15.445,-1.08l0.465,-6.656Z" style="fill:#ef8899;"/><path id="Terraium" d="M1642.18,165.506l-2.037,-16.583l32.043,-3.934l0.494,4.017l30.132,-3.7l1.542,12.566l31.543,-3.873l4.343,35.369l-6.838,0.84l7.553,61.512l-92.058,11.303l0.35,2.847l-34.046,4.18l-12.246,-99.728l39.225,-4.816Z" style="fill:#ef8899;"/><path id="Tigerkiosk" d="M1887.59,1347.93l18.399,-3.979l5.648,26.116l-34.047,7.363l-7.146,-33.048l15.647,-3.383l1.499,6.931Z" style="fill:#ef8899;"/><path id="Altes-Löwenhaus" serif:id="Altes Löwenhaus" d="M1756.08,711.229l27.121,13.064l-9.054,102.885l-11.496,-1.012l-5.258,59.736l4.465,0.393l-2.947,33.482l-4.464,-0.393l-2.834,32.2l-43.71,-3.847l9.509,-108.051l9.253,0.814l-0.005,0.063l6.207,0.546l1.872,-21.277l-5.259,-0.462l7.723,-87.759l16.91,1.973l1.967,-22.355Z" style="fill:#ef8899;"/><path id="Alte-Direktion" serif:id="Alte Direktion" d="M1194.32,580.739l-10.824,1.935l-9.118,-51.067l37.166,-6.64l9.166,51.279l-4.553,0.829l6.472,36.204l10.145,-1.813l11.351,63.492l-9.084,1.624l9.339,52.239l-22.463,3.837l-1.207,-6.757l-8.623,1.72l-11.054,-61.835l8.228,-1.471l-14.941,-83.576Z" style="fill:#ef8899;"/><path id="Pinguine" d="M1484.15,409.385l-26.29,42.332l6.371,43.695l3.46,0.068l6.225,36.598l38.745,-6.607l18.773,-84.778l-2.69,-0.81l1.703,-7.91l-46.297,-22.588Z" style="fill:#ef8899;"/><path id="Eisbären" d="M1508.66,395.533l-5.193,-0.71l-0.917,-7.042l1.433,-0.669l0.57,-14.384l1.403,0.069l0.188,-3.04l1.338,0.142l-0.029,-15.662l1.913,0.012l-0.091,-11.693l14.985,-4.009l1.204,5.099l5.929,-1.317l2.098,0.902l-1.944,15.923l7.387,3.11l-11.057,55.356l-6.943,9.493l-0.754,-0.15l-16.217,-7.913l4.697,-23.517Z" style="fill:#ef8899;"/><path id="Waldrapp" d="M1533.77,621.421l-1.412,15.134l-11.322,-1.057l5.111,-54.774l11.321,1.056l-1.194,12.805l25.712,2.399l-1.632,17.495l-9.58,-0.894l-0.872,9.341l-16.132,-1.505Z" style="fill:#ef8899;"/><path id="Zebras" d="M1579.68,696.565l-13.964,-3.01l0.029,-0.136l-24.209,-5.219l3.774,-17.511l19.531,4.21l9.655,-44.794l4.679,1.008l11.85,-54.973l18.33,3.951l-11.85,54.974l42.07,9.068l-4.41,20.458l-42.07,-9.069l-0.159,0.74l-4.366,-0.941l-8.89,41.244Z" style="fill:#ef8899;"/><path id="Pinselohrschweine" d="M1572.57,562.973l-28.364,-12.915l-6.872,15.093l28.364,12.915l6.872,-15.093Z" style="fill:#ef8899;"/><path id="Stall-Steinböcke" serif:id="Stall Steinböcke" d="M1675.32,367.039l4.219,-1.993l3.599,7.614l-14.396,6.804l-19.129,-40.474l10.177,-4.81l15.53,32.859Z" style="fill:#ef8899;"/><path id="Stall-Seehunde" serif:id="Stall Seehunde" d="M1465.81,324.58l-0.554,2.816l1.552,-0.453l-17.119,56.665l-13.446,-1.141l16.577,-54.871l-1.356,-7.357l14.346,4.341Z" style="fill:#ef8899;"/><path id="Zwergotter" d="M1459.24,322.593l8.159,-13.727l5.467,3.083l-0.405,13.346l-7.207,2.101l0.554,-2.816l-6.568,-1.987Z" style="fill:#ef8899;"/><path id="Beobachtung-Bonobos" serif:id="Beobachtung Bonobos" d="M732.815,703.328l-27.347,3.069l1.336,11.895l27.346,-3.07l-1.335,-11.894Z" style="fill:#ef8899;"/><path id="Hütte-Orange-Utans" serif:id="Hütte Orange Utans" d="M787.598,710.307l-6.387,14.504l11.046,4.864l6.387,-14.504l-11.046,-4.864Z" style="fill:#ef8899;"/><path id="Tunnel-Gorilla" serif:id="Tunnel Gorilla" d="M637.769,804.893l-7.72,-11.726l-11.298,8.519l2.317,6.863l-6.451,22.628l14.482,4.128l8.67,-30.412Z" style="fill:#ef8899;"/><path id="Kleines-Affenhaus1" serif:id="Kleines Affenhaus" d="M551.029,865.011l-12.553,0.428l0.127,3.709l-35.061,1.194l-0.462,-13.563l-16.42,0.559l-2.08,-61.059l-14.071,0.479l-1.033,-30.319l56.665,-1.93l9.14,15.078l0.164,1.961l13.022,8.259l2.562,75.204Z" style="fill:#ef8899;"/><path id="Gibbonhaus" d="M399.439,346.477l-4.386,54.365l-1.367,-0.11l-42.697,7.513l-3.478,-19.762l30.317,-5.335l3.079,-38.166l18.532,1.495Z" style="fill:#ef8899;"/><path id="Okawango" d="M779.514,999.538l50.411,0l0,40.5l-78.411,0l0,-109.655l28,0l0,69.155Z" style="fill:#ef8899;"/><path id="Maras" d="M1592.66,1215.25l0.252,-3.593l11.357,0.797l-0.252,3.593l10.588,0.743l-0.814,11.593l-10.587,-0.743l-0.265,3.774l-11.357,-0.797l0.265,-3.774l-10.648,-0.747l0.813,-11.593l10.648,0.747Z" style="fill:#ef8899;"/><path id="Stall-Ganakos" serif:id="Stall Ganakos" d="M1489.2,1209.71l-15.692,-52.462l-18.59,5.56l15.692,52.462l18.59,-5.56Z" style="fill:#ef8899;"/><path id="Ameisenbär" d="M1318.54,1116.31l-17.943,21.157l19.554,16.583l17.943,-21.157l-19.554,-16.583Z" style="fill:#ef8899;"/><path id="Pelikane" d="M1407.02,899.631l-17.126,-19.332l-15.658,13.87l17.126,19.333l15.658,-13.871Z" style="fill:#ef8899;"/><path id="Emu" d="M1363.74,865.278l-5.684,-7.74l-6.18,4.538l5.684,7.74l6.18,-4.538Z" style="fill:#ef8899;"/><path id="Emu1" serif:id="Emu" d="M1383.86,872.436l-9.811,-11.511l-18.572,15.83l9.812,11.511l18.571,-15.83Z" style="fill:#ef8899;"/><path id="Lachender-Hans" serif:id="Lachender Hans" d="M846.636,1145.37l-12.471,-3.095l-3.933,-16.032l18.866,-19.298l14.302,4.115l8.573,34.945l-9.419,10.213l-14.239,-4.003l-1.679,-6.845Z" style="fill:#ef8899;"/><path id="Milus" d="M885.698,1200.04l-39.224,32.896l14.15,16.871l39.223,-32.896l-14.149,-16.871Z" style="fill:#ef8899;"/><path id="Chinesel" d="M1307.81,1366.88l-24.331,28.653l15.43,13.103l24.332,-28.652l-15.431,-13.104Z" style="fill:#ef8899;"/><path id="Reentiere" d="M1382.55,1371.91l-29.547,21.066l9.046,12.687l29.547,-21.066l-9.046,-12.687Z" style="fill:#ef8899;"/><path id="Taskine" d="M1425.11,1317.4l18.116,-19.82l21.525,19.675l-43.939,48.072l-12.384,-11.32l25.823,-28.252l-9.141,-8.355Z" style="fill:#ef8899;"/><path id="Biber" d="M1633.24,312.067l6.352,2.691l1.006,7.374l-6.25,3.91l-6.12,-2.594l-1.037,-7.597l6.049,-3.784Z" style="fill:#ef8899;"/><path id="Tiger" d="M2001.41,1167.04l-10.441,-16.464l17.905,-11.354l-28.846,-45.488l19.995,-12.68l60.351,95.168l-19.787,12.548l-18.117,-28.569l-21.06,6.839Z" style="fill:#ef8899;"/><path id="Schneeleoparde" d="M1871.82,1018.28l-21.942,1.116l0.664,13.04l21.942,-1.117l-0.664,-13.039Z" style="fill:#ef8899;"/><path id="Schneeleoparde1" serif:id="Schneeleoparde" d="M1888.38,871.662l-0.898,-18.094l-6.456,-1.317l-3.509,17.195l10.863,2.216Z" style="fill:#ef8899;"/><path id="Rote-Pandas" serif:id="Rote Pandas" d="M1885.38,660.648l-12.764,0.401l0.919,29.224l12.763,-0.401l-0.918,-29.224Z" style="fill:#ef8899;"/><path id="Katzenhaus" d="M1866.43,553.919l-26.14,0.46l1.348,76.506l26.14,-0.46l-1.348,-76.506Z" style="fill:#ef8899;"/><path id="Resterampe" d="M1768.29,340.555l-4.059,-0.625l4.577,-29.73l-9.422,-1.451l0.653,-4.244l51.933,7.995l-5.231,33.975l0.929,-6.034l-10.693,-1.646l-0.929,6.033l-0.432,-0.066l-1.365,8.866l-27.326,-4.207l1.365,-8.866Zm43.682,-28.055l-10.319,-1.588l-0.948,6.16l10.318,1.588l0.949,-6.16Z" style="fill:#ef8899;"/><path id="Ziegenstall" d="M1775.07,446.762l5.355,-35.592l18.183,2.735l-0.414,3.733l5.908,0.715l-5.883,37.875l-19.716,39.019l-5.004,-2.352l-1.511,2.572l-16.846,-8.31l19.928,-40.395Z" style="fill:#ef8899;"/><path id="Vogelhaus" d="M1373.11,643.722l1.427,-7.924l-13.683,-2.464l10.774,-59.816l0.694,-63.177l13.461,0.148l0.097,-8.816l46.705,9.015l-0.322,67.101l-12.072,65.933l-47.081,0Z" style="fill:#ef8899;"/><path id="Freiflughalle" d="M1312.65,677.488l-0.406,-0.014l-4.5,-24.943l29.936,0l0,-11.309l23.731,0l0.776,-7.649l12.353,2.225l-1.427,7.924l21.666,0l0,8.809l18.154,0l-3.5,16.654l-4.231,5.619l-3.979,5.804l5.831,6.482l-1.485,0.98l8.281,12.646l-14.952,8.259l-7.765,-11.621l-17.853,3.343l-18.284,-3.003l-6.524,15.122l-21.616,-14.009l-14.206,-21.319Z" style="fill:#ef8899;"/><path id="Orange-Utan-Höhle" serif:id="Orange Utan Höhle" d="M876.354,707.312l-7.334,2.562l-2.187,4.996l1.513,0.704l-0.623,3.537l-2.24,-0.722l0.657,4.622l2.056,0.052l6.978,10.296l-0.754,1.341l4,2.814l11.053,1.062l0.258,2.086l5.388,1.526l1.188,-7.509l-7.246,-11.96l-6.013,-3.001l-6.694,-12.406Z" style="fill:#ef8899;"/><path id="Rothunde" d="M1024.67,1070.9l-20.096,-29.079l-11.531,7.97l20.096,29.078l11.531,-7.969Z" style="fill:#ef8899;"/><path id="Bärenstall" d="M1089.17,999.185l51.694,7.61l-3.326,22.595l-52.595,-7.624l-14.585,2.516l-44.663,29.927l-12.713,-18.972l43.751,-29.316l8.818,-5.641l12.75,-2.546l10.869,1.451Z" style="fill:#ef8899;"/><path id="Kraniche" d="M1082.53,1115.93l7.404,5.423l-0.947,9.856l-9.286,3.155l-7.135,-5.225l0.975,-10.154l8.989,-3.055Z" style="fill:#ef8899;"/><path id="Kanguroos" d="M253.102,882.423l-27.389,-54.665l49.868,-24.986l6.305,12.583l-28.08,14.07l21.084,42.081l-21.788,10.917Z" style="fill:#ef8899;"/><path id="Hirscheber" d="M466.222,1088.11l-17.417,3.212l1.306,7.079l-23.54,4.341l-2.758,-14.956l22.215,-4.097l-1.008,-5.464l18.742,-3.457l2.46,13.342Z" style="fill:#ef8899;"/><path id="Löwenhaus" d="M1360.42,1752.25l-22.61,-0.366l-20.412,4.847l-2.857,-12.035l10.414,-12.784l24.935,-9.112l9.681,0.085l2.399,1.964l1.19,7.875l40.164,4.814l2.143,7.489l43.289,-2.197l8.492,16.51l2.791,11.922l-68.706,19.388l-2.786,-9.874l-17.469,4.929l-3.794,-16.098l-6.864,-17.357Z" style="fill:#ef8899;"/><rect x="1874.19" y="723.877" width="13.229" height="15.711" style="fill:#ef8899;"/><path d="M1540.97,693.654l-10.333,-1.913l-3.427,18.512l10.333,1.913l3.427,-18.512Z" style="fill:#ef8899;"/><path id="Waldrapp1" serif:id="Waldrapp" d="M1510.29,579.244l15.862,1.48l-5.111,54.774l-15.861,-1.479l5.11,-54.775Z" style="fill:#ef8899;"/><path id="Musikmuschel" d="M803.089,480.233c-1.4,1.079 -24.019,18.18 -35.995,5.819c-10.11,-9.711 1.556,-33.21 1.556,-33.21l34.507,27.338l-0.068,0.053Zm4.328,-3.502l-36.629,-29.019l-3.322,4.193l36.629,29.019l3.322,-4.193Z" style="fill:#ef8899;"/><path id="Elefantenhaus" d="M536.452,1209.62c-10.225,-13.283 -15.951,-16.292 -15.951,-26.711c0,-14.003 39.171,-36.946 81.772,-36.997c52.079,-0.063 91.285,32.511 91.57,45.492c0.179,8.183 -6.812,12.304 -12.903,17.871l6.769,38.427l15.789,3.134l-4.135,20.834l-85.143,15.355l-9.943,-10.624c0.859,-0.697 1.409,-1.762 1.409,-2.954c0,-2.098 -1.703,-3.801 -3.801,-3.801c-2.099,0 -3.802,1.703 -3.802,3.801c0,1.375 0.731,2.581 1.826,3.248l-10.742,10.054l-50.108,-11.327l3.514,-13.455l-10.522,-2.991l0.264,-2.959l-23.718,-4.679l1.459,-7.395l18.517,-13.891l5.953,1.175l1.926,-21.607Z" style="fill:#ef8899;"/><path id="WC-Spielplatz" serif:id="WC Spielplatz" d="M134.575,1071.45l-0.148,-2.172l23.983,-1.638l2.926,42.858l-112.173,7.659l-2.778,-40.686l88.19,-6.021Z" style="fill:#ef8899;"/><path id="Zooschule" d="M20.589,891.948l32.942,-13.845l-10.138,-24.121l-32.942,13.845l10.138,24.121Zm-11.463,-47.056l-9.126,3.835l7.229,17.2l9.126,-3.836l-7.229,-17.199Zm-0.268,-0.639l19.669,-8.267l6.755,16.073l-19.669,8.266l-6.755,-16.072Zm41.151,-94.251l-26.041,10.945l28.659,68.189l26.041,-10.945l-28.659,-68.189Z" style="fill:#ef8899;"/></g></g></svg>