<?xml version="1.0" encoding="UTF-8" standalone="no"?><!DOCTYPE svg PUBLIC "-//W3C//DTD SVG 1.1//EN" "http://www.w3.org/Graphics/SVG/1.1/DTD/svg11.dtd"><svg width="100%" height="100%" viewBox="0 0 2550 1994" version="1.1" xmlns="http://www.w3.org/2000/svg" xmlns:xlink="http://www.w3.org/1999/xlink" xml:space="preserve" xmlns:serif="http://www.serif.com/" style="fill-rule:evenodd;clip-rule:evenodd;stroke-linejoin:round;stroke-miterlimit:2;"><MetaInfo xmlns="http://www.prognoz.ru"><Geo>
    <GeoItem X="0" Y="0" Latitude="51.24177020918754" Longitude="7.105611562728882"/>
    <GeoItem X="2550" Y="1994" Latitude="51.236776961813064" Longitude="7.115809321403503"/>
</Geo></MetaInfo><g id="Zoo"><g id="Gebäude"><path id="Eingang" d="M805.106,293.54l31.239,-20.858l24.932,37.156l33.179,-21.925l9.799,15.523l-64.321,42.395l-34.828,-52.291Z" style="fill:#e1bfa9;"/><path id="Affenhaus" d="M929.067,895.433l18.084,-31.048l27.279,-20.289l33.373,-8.002l-1.638,-4.331l-15.274,2.021l2.527,-4.605l13.614,-3.123l41.903,5.233l34.426,10.977l0.729,19.587l27.186,1.05l29.639,14.282l23.953,26.952l-30.116,17.626l0.058,25.685l-6.358,0.592l0.134,7.771l-12.629,1.31l-0.539,-16.035l-1.63,-3.581l-2.381,-0.775l-2.963,1.401l-7.188,-8.051l-6.23,-2.595l-10.153,-0.515l-1.106,-5.368l-18.07,-0.014l-2.293,-6.976l-13.166,-3.471l-11.947,11.786l-15.135,-9.147l1.996,-5.654l-6.991,-4.424l-8.31,-1.564l-7.616,2.188l-5.19,3.301l-6.154,10.311l-4.584,-1.111l-0.928,5.765l2.729,14.571l-12.85,1.897l-2.162,-10.145l-6.985,0.166l-3.327,-22.286l-33.717,-11.362Z" style="fill:#e1bfa9;"/><path id="Kleines-Affenhaus" serif:id="Kleines Affenhaus" d="M735.114,824.598l56.814,-2.335l8.927,15.445l0.133,2.341l13.259,8.032l1.833,71.366l-1.273,0.011l-0.163,3.723l-10.671,0.4l0.112,4.195l-34.971,0.781l-0.851,-13.762l-16.154,0.284l-2.068,-60.274l-14.015,0.055l-0.912,-30.262Z" style="fill:#e1bfa9;"/><path id="KirkDikDik" d="M1446.33,59.906l-18.951,-1.658l-2.733,31.239l18.951,1.658l2.733,-31.239Z" style="fill:#e1bfa9;"/><path id="Zoosääle" d="M1122.93,150.862l-185.41,124.675l32.504,46.571l-53.959,36.509l45.524,67.701l238.655,-160.478l-77.314,-114.978Z" style="fill:#e1bfa9;"/><path id="Südamerikahaus" d="M1561.75,310.268l-27.529,-1.925l4.707,-67.325l14.713,1.029l0.817,-11.691l39.692,2.775l-0.818,11.691l17.984,1.258l-4.707,67.325l-32.457,-2.27l-0.543,7.77l-12.388,-1.062l0.529,-7.575Z" style="fill:#e1bfa9;"/><path id="Okapis--wahrscheinlich-" serif:id="Okapis (wahrscheinlich)" d="M1545.24,226.183l-9.021,-0.631l1.165,-16.655l73.563,5.144l-2.014,31.666l-15.474,-1.082l0.806,-11.514l-49.269,-3.445l0.244,-3.483Z" style="fill:#e1bfa9;"/><path id="Okapis" d="M1656.72,210.527l-45.185,-3.16l-1.971,28.188l45.185,3.159l1.971,-28.187Z" style="fill:#e1bfa9;"/><path id="Gaukler" d="M1686.29,115.348l-20.469,-1.431l1.117,-15.982l35.915,2.512l-1.582,22.637l-15.446,-1.08l0.465,-6.656Z" style="fill:#e1bfa9;"/><path id="Terraium" d="M1907.78,223.754l-2.036,-16.583l32.043,-3.934l0.493,4.017l30.132,-3.7l1.543,12.566l31.542,-3.873l4.343,35.369l-6.837,0.84l7.553,61.512l-92.059,11.303l0.35,2.847l-34.046,4.18l-12.245,-99.728l39.224,-4.816Z" style="fill:#e1bfa9;"/><path id="Tigerkiosk" d="M2153.19,1406.18l18.398,-3.979l5.648,26.116l-34.046,7.363l-7.147,-33.047l15.648,-3.384l1.499,6.931Z" style="fill:#e1bfa9;"/><path id="Altes-Löwenhaus" serif:id="Altes Löwenhaus" d="M2021.68,769.477l27.121,13.064l-9.055,102.885l-11.496,-1.012l-5.257,59.737l4.465,0.392l-2.947,33.482l-4.465,-0.393l-2.834,32.2l-43.71,-3.847l9.509,-108.051l9.254,0.814l-0.006,0.063l6.207,0.546l1.873,-21.276l-5.26,-0.463l7.724,-87.759l16.909,1.973l1.968,-22.355Z" style="fill:#e1bfa9;"/><path id="Alte-Direktion" serif:id="Alte Direktion" d="M1459.92,638.987l-10.825,1.935l-9.118,-51.067l37.167,-6.64l9.165,51.279l-4.553,0.829l6.472,36.205l10.145,-1.814l11.351,63.492l-9.084,1.624l9.339,52.24l-22.462,3.836l-1.208,-6.757l-8.623,1.721l-11.054,-61.836l8.229,-1.471l-14.941,-83.576Z" style="fill:#e1bfa9;"/><path id="Pinguine" d="M1749.75,467.634l-26.29,42.331l6.37,43.695l3.461,0.068l6.224,36.598l38.745,-6.606l18.774,-84.779l-2.691,-0.81l1.704,-7.91l-46.297,-22.587Z" style="fill:#e1bfa9;"/><path id="Eisbären" d="M1774.26,453.781l-5.193,-0.71l-0.917,-7.042l1.433,-0.669l0.571,-14.384l1.402,0.069l0.189,-3.04l1.337,0.142l-0.029,-15.662l1.913,0.012l-0.091,-11.693l14.985,-4.009l1.204,5.099l5.93,-1.317l2.098,0.902l-1.944,15.923l7.386,3.11l-11.056,55.356l-6.943,9.493l-0.755,-0.15l-16.217,-7.913l4.697,-23.517Z" style="fill:#e1bfa9;"/><path id="Waldrapp" d="M1799.38,679.669l-1.412,15.134l-11.321,-1.057l5.11,-54.774l11.322,1.056l-1.195,12.805l25.712,2.399l-1.632,17.495l-9.58,-0.894l-0.872,9.341l-16.132,-1.505Z" style="fill:#e1bfa9;"/><path id="Zebras" d="M1845.28,754.813l-13.964,-3.01l0.029,-0.136l-24.209,-5.219l3.775,-17.511l19.53,4.21l9.655,-44.794l4.679,1.009l11.85,-54.974l18.33,3.951l-11.849,54.974l42.069,9.068l-4.409,20.458l-42.07,-9.068l-0.16,0.739l-4.366,-0.941l-8.89,41.244Z" style="fill:#e1bfa9;"/><path id="Pinselohrschweine" d="M1838.17,621.221l-28.365,-12.915l-6.872,15.093l28.365,12.915l6.872,-15.093Z" style="fill:#e1bfa9;"/><path id="Stall-Steinböcke" serif:id="Stall Steinböcke" d="M1940.92,425.288l4.218,-1.994l3.599,7.614l-14.396,6.804l-19.129,-40.474l10.178,-4.81l15.53,32.86Z" style="fill:#e1bfa9;"/><path id="Stall-Seehunde" serif:id="Stall Seehunde" d="M1731.41,382.828l-0.554,2.816l1.552,-0.453l-17.119,56.665l-13.445,-1.141l16.577,-54.871l-1.357,-7.357l14.346,4.341Z" style="fill:#e1bfa9;"/><path id="Zwergotter" d="M1724.84,380.841l8.158,-13.727l5.467,3.083l-0.404,13.346l-7.208,2.101l0.554,-2.816l-6.567,-1.987Z" style="fill:#e1bfa9;"/><path id="Beobachtung-Bonobos" serif:id="Beobachtung Bonobos" d="M998.417,761.576l-27.347,3.07l1.335,11.894l27.347,-3.07l-1.335,-11.894Z" style="fill:#e1bfa9;"/><path id="Hütte-Orange-Utans" serif:id="Hütte Orange Utans" d="M1053.2,768.555l-6.387,14.504l11.047,4.864l6.386,-14.504l-11.046,-4.864Z" style="fill:#e1bfa9;"/><path id="Tunnel-Gorilla" serif:id="Tunnel Gorilla" d="M903.37,863.141l-7.72,-11.726l-11.298,8.519l2.317,6.863l-6.451,22.628l14.482,4.128l8.67,-30.412Z" style="fill:#e1bfa9;"/><path id="Kleines-Affenhaus1" serif:id="Kleines Affenhaus" d="M816.63,923.26l-12.552,0.427l0.126,3.709l-35.06,1.194l-0.462,-13.563l-16.42,0.559l-2.08,-61.059l-14.072,0.479l-1.032,-30.319l56.664,-1.93l9.14,15.079l0.164,1.96l13.022,8.259l2.562,75.205Z" style="fill:#e1bfa9;"/><path id="Gibbonhaus" d="M665.04,404.725l-4.386,54.365l-1.367,-0.11l-42.697,7.514l-3.478,-19.763l30.318,-5.335l3.079,-38.166l18.531,1.495Z" style="fill:#e1bfa9;"/><path id="Okawango" d="M1045.12,1057.79l50.411,0l0,40.5l-78.411,0l0,-109.655l28,0l0,69.155Z" style="fill:#e1bfa9;"/><path id="Maras" d="M1858.27,1273.5l0.252,-3.592l11.357,0.796l-0.252,3.593l10.587,0.743l-0.813,11.593l-10.588,-0.743l-0.265,3.774l-11.357,-0.797l0.265,-3.774l-10.648,-0.747l0.813,-11.593l10.649,0.747Z" style="fill:#e1bfa9;"/><path id="Stall-Ganakos" serif:id="Stall Ganakos" d="M1754.8,1267.96l-15.692,-52.462l-18.59,5.56l15.693,52.462l18.589,-5.56Z" style="fill:#e1bfa9;"/><path id="Ameisenbär" d="M1584.14,1174.56l-17.943,21.157l19.554,16.583l17.943,-21.157l-19.554,-16.583Z" style="fill:#e1bfa9;"/><path id="Pelikane" d="M1672.62,957.879l-17.126,-19.332l-15.658,13.871l17.126,19.332l15.658,-13.871Z" style="fill:#e1bfa9;"/><path id="Emu" d="M1629.34,923.526l-5.684,-7.74l-6.18,4.538l5.684,7.74l6.18,-4.538Z" style="fill:#e1bfa9;"/><path id="Emu1" serif:id="Emu" d="M1649.46,930.684l-9.812,-11.511l-18.572,15.83l9.812,11.511l18.572,-15.83Z" style="fill:#e1bfa9;"/><path id="Lachender-Hans" serif:id="Lachender Hans" d="M1112.24,1203.62l-12.471,-3.095l-3.933,-16.032l18.866,-19.298l14.302,4.115l8.573,34.945l-9.419,10.213l-14.239,-4.003l-1.679,-6.845Z" style="fill:#e1bfa9;"/><path id="Milus" d="M1151.3,1258.29l-39.223,32.896l14.149,16.871l39.223,-32.896l-14.149,-16.871Z" style="fill:#e1bfa9;"/><path id="Chinesel" d="M1573.42,1425.13l-24.332,28.653l15.431,13.103l24.331,-28.652l-15.43,-13.104Z" style="fill:#e1bfa9;"/><path id="Reentiere" d="M1648.15,1430.15l-29.548,21.066l9.046,12.687l29.547,-21.066l-9.045,-12.687Z" style="fill:#e1bfa9;"/><path id="Taskine" d="M1690.71,1375.65l18.116,-19.82l21.526,19.675l-43.94,48.072l-12.384,-11.32l25.824,-28.252l-9.142,-8.355Z" style="fill:#e1bfa9;"/><path id="Biber" d="M1898.84,370.315l6.351,2.691l1.007,7.374l-6.25,3.91l-6.121,-2.593l-1.037,-7.597l6.05,-3.785Z" style="fill:#e1bfa9;"/><path id="Tiger" d="M2267.01,1225.29l-10.44,-16.464l17.904,-11.354l-28.846,-45.488l19.996,-12.68l60.35,95.168l-19.787,12.548l-18.116,-28.569l-21.061,6.839Z" style="fill:#e1bfa9;"/><path id="Schneeleoparde" d="M2137.43,1076.53l-21.942,1.116l0.663,13.04l21.942,-1.117l-0.663,-13.039Z" style="fill:#e1bfa9;"/><path id="Schneeleoparde1" serif:id="Schneeleoparde" d="M2153.98,929.91l-0.898,-18.094l-6.456,-1.317l-3.508,17.195l10.862,2.216Z" style="fill:#e1bfa9;"/><path id="Rote-Pandas" serif:id="Rote Pandas" d="M2150.98,718.896l-12.764,0.401l0.919,29.225l12.764,-0.402l-0.919,-29.224Z" style="fill:#e1bfa9;"/><path id="Katzenhaus" d="M2132.03,612.167l-26.14,0.46l1.348,76.506l26.14,-0.46l-1.348,-76.506Z" style="fill:#e1bfa9;"/><path id="Resterampe" d="M2033.89,398.803l-4.058,-0.625l4.577,-29.73l-9.423,-1.451l0.653,-4.244l51.933,7.995l-5.23,33.975l0.928,-6.034l-10.693,-1.646l-0.928,6.033l-0.433,-0.066l-1.365,8.866l-27.326,-4.207l1.365,-8.866Zm43.682,-28.055l-10.318,-1.588l-0.949,6.16l10.319,1.589l0.948,-6.161Z" style="fill:#e1bfa9;"/><path id="Ziegenstall" d="M2040.67,505.01l5.354,-35.592l18.184,2.736l-0.415,3.732l5.908,0.715l-5.883,37.875l-19.716,39.019l-5.004,-2.352l-1.511,2.572l-16.845,-8.31l19.928,-40.395Z" style="fill:#e1bfa9;"/><path id="Vogelhaus" d="M1638.71,701.97l1.428,-7.924l-13.684,-2.464l10.775,-59.816l0.693,-63.177l13.461,0.148l0.097,-8.816l46.705,9.015l-0.322,67.101l-12.071,65.933l-47.082,0Z" style="fill:#e1bfa9;"/><path id="Freiflughalle" d="M1578.25,735.736l-0.406,-0.014l-4.5,-24.943l29.936,0l0,-11.309l23.732,0l0.776,-7.649l12.353,2.225l-1.428,7.924l21.666,0l0,8.809l18.154,0l-3.5,16.655l-4.231,5.618l-3.979,5.804l5.831,6.482l-1.485,0.98l8.282,12.646l-14.952,8.259l-7.766,-11.621l-17.853,3.343l-18.284,-3.003l-6.524,15.122l-21.616,-14.009l-14.206,-21.319Z" style="fill:#e1bfa9;"/><path id="Orange-Utan-Höhle" serif:id="Orange Utan Höhle" d="M1141.96,765.56l-7.334,2.562l-2.188,4.996l1.513,0.705l-0.623,3.536l-2.239,-0.722l0.657,4.622l2.055,0.053l6.978,10.295l-0.753,1.341l3.999,2.814l11.053,1.063l0.258,2.085l5.389,1.526l1.188,-7.509l-7.247,-11.96l-6.013,-3.001l-6.693,-12.406Z" style="fill:#e1bfa9;"/><path id="Rothunde" d="M1290.27,1129.15l-20.096,-29.078l-11.532,7.969l20.096,29.078l11.532,-7.969Z" style="fill:#e1bfa9;"/><path id="Bärenstall" d="M1354.77,1057.43l51.694,7.61l-3.326,22.595l-52.595,-7.624l-14.584,2.516l-44.664,29.927l-12.712,-18.972l43.75,-29.316l8.818,-5.641l12.75,-2.546l10.869,1.451Z" style="fill:#e1bfa9;"/><path id="Kraniche" d="M1348.13,1174.18l7.403,5.423l-0.946,9.856l-9.287,3.156l-7.134,-5.226l0.975,-10.154l8.989,-3.055Z" style="fill:#e1bfa9;"/><path id="Kanguroos" d="M518.704,940.671l-27.389,-54.665l49.868,-24.986l6.305,12.583l-28.081,14.07l21.084,42.081l-21.787,10.917Z" style="fill:#e1bfa9;"/><path id="Hirscheber" d="M731.824,1146.36l-17.417,3.212l1.305,7.079l-23.539,4.341l-2.759,-14.956l22.215,-4.097l-1.008,-5.464l18.742,-3.457l2.461,13.342Z" style="fill:#e1bfa9;"/><path id="Löwenhaus" d="M1626.02,1810.5l-22.609,-0.366l-20.412,4.847l-2.858,-12.035l10.414,-12.784l24.935,-9.112l9.681,0.085l2.399,1.964l1.191,7.875l40.164,4.814l2.142,7.49l43.289,-2.197l8.492,16.51l2.792,11.921l-68.707,19.388l-2.786,-9.874l-17.468,4.929l-3.794,-16.098l-6.865,-17.357Z" style="fill:#e1bfa9;"/><rect x="2139.79" y="782.125" width="13.229" height="15.711" style="fill:#e1bfa9;"/><path d="M1806.57,751.902l-10.333,-1.913l-3.427,18.512l10.333,1.913l3.427,-18.512Z" style="fill:#e1bfa9;"/><path id="Waldrapp1" serif:id="Waldrapp" d="M1775.89,637.492l15.861,1.48l-5.11,54.774l-15.862,-1.479l5.111,-54.775Z" style="fill:#e1bfa9;"/><path id="Musikmuschel" d="M1068.69,538.482c-1.4,1.078 -24.018,18.179 -35.995,5.818c-10.109,-9.711 1.556,-33.21 1.556,-33.21l34.507,27.338l-0.068,0.054Zm4.328,-3.503l-36.628,-29.019l-3.322,4.193l36.629,29.019l3.321,-4.193Z" style="fill:#e1bfa9;"/><path id="Elefantenhaus" d="M802.054,1267.87c-10.225,-13.283 -15.951,-16.292 -15.951,-26.711c0,-14.003 39.171,-36.946 81.771,-36.997c52.079,-0.063 91.285,32.511 91.57,45.492c0.18,8.183 -6.812,12.304 -12.903,17.871l6.77,38.427l15.788,3.134l-4.135,20.834l-85.143,15.355l-9.943,-10.624c0.86,-0.697 1.41,-1.762 1.41,-2.954c0,-2.098 -1.704,-3.801 -3.802,-3.801c-2.098,0 -3.802,1.703 -3.802,3.801c0,1.375 0.732,2.581 1.826,3.248l-10.741,10.054l-50.109,-11.327l3.514,-13.455l-10.522,-2.99l0.264,-2.96l-23.717,-4.679l1.459,-7.395l18.517,-13.891l5.952,1.175l1.927,-21.607Z" style="fill:#e1bfa9;"/><path id="WC-Spielplatz" serif:id="WC Spielplatz" d="M400.176,1129.7l-0.148,-2.172l23.983,-1.638l2.926,42.858l-112.173,7.659l-2.778,-40.686l88.19,-6.021Z" style="fill:#e1bfa9;"/><path id="Zooschule" d="M286.19,950.196l32.942,-13.845l-10.138,-24.121l-32.941,13.845l10.137,24.121Zm-11.463,-47.056l-9.126,3.835l7.229,17.2l9.126,-3.836l-7.229,-17.199Zm-0.268,-0.639l19.669,-8.267l6.755,16.073l-19.669,8.266l-6.755,-16.072Zm41.151,-94.251l-26.041,10.945l28.659,68.189l26.041,-10.945l-28.659,-68.189Z" style="fill:#e1bfa9;"/></g><g id="routen"></g></g></svg>