<?xml version="1.0" encoding="UTF-8" standalone="no"?><!DOCTYPE svg PUBLIC "-//W3C//DTD SVG 1.1//EN" "http://www.w3.org/Graphics/SVG/1.1/DTD/svg11.dtd"><svg width="100%" height="100%" viewBox="0 0 2061 1791" version="1.1" xmlns="http://www.w3.org/2000/svg" xmlns:xlink="http://www.w3.org/1999/xlink" xml:space="preserve" xmlns:serif="http://www.serif.com/" style="fill-rule:evenodd;clip-rule:evenodd;stroke-linecap:round;stroke-linejoin:round;stroke-miterlimit:1.5;"><MetaInfo xmlns="http://www.prognoz.ru"><Geo><GeoItem X="0" Y="0" Latitude="51.24177020918754" Longitude="7.105611562728882"/><GeoItem X="2550" Y="1994" Latitude="51.236776961813064" Longitude="7.115809321403503"/></Geo></MetaInfo><g><g id="Wasser"><path d="M1399.16,890.75c0.518,-0.206 1.085,-0.306 1.71,-0.277c4.609,0.129 6.319,9.334 18.431,22.927c6.438,8.806 23.292,24.402 25.139,29.499c-1.05,5.804 -10.875,7.45 -19.879,7.489c-13.23,0.237 -13.893,-3.528 -19.838,-6.109c-15.616,-8.681 -29.595,3.072 -32.65,-15.94c-0.841,-8.757 8.606,-12.633 15.124,-19.548l4.173,4.711l15.658,-13.871l-7.868,-8.881Z" style="fill:#0079ff;"/><path d="M1331.34,919.967c3.421,-8.773 7.777,-12.551 12.509,-12.538c6.481,-0.121 7.287,6.266 6.879,10.142c-0.623,9.164 -3.54,10.625 -10.958,10.65c-4.071,0.045 -10.126,-0.852 -8.43,-8.254Z" style="fill:#0079ff;"/><path d="M1323.77,890.126c0.316,-7.229 4.054,-8.432 9.642,-10.154c3.065,-0.945 9.184,2.917 8.364,7.797c-1.351,8.036 -8.733,10.797 -11.734,11.19c-3.001,0.393 -6.541,-2.689 -6.272,-8.833Z" style="fill:#0079ff;"/><path d="M727.733,858.995l5.017,-8.408l4.622,-2.939l6.783,-1.948l7.401,1.393l6.226,3.939l-1.777,5.036l13.478,8.146l6.796,7.227l-3.286,8.385l-29.39,-0.33c0,0 -15.873,-11.186 -15.716,-19.636c-0.061,-0.272 -0.112,-0.561 -0.154,-0.865Z" style="fill:#0079ff;"/><path d="M775.216,864.705l9.821,-9.688l11.725,3.091l1.634,4.971l2.344,8.084l-5.321,8.593l-9.617,-0.482l-3.536,-8.593l-3.288,0.067l-3.762,-6.043Z" style="fill:#0079ff;"/><path d="M802.144,865.093l14.937,0.012l0.986,4.781l10.041,0.458l6.548,2.811l6.902,7.67l-4.849,15.68l-8.976,4.058l-20.851,-11.468l-4.738,-24.002Z" style="fill:#0079ff;"/><path id="Seelöwen" d="M1383,334.405c-0.585,3.829 5.804,5.682 5.583,8.499c-0.312,3.946 -6.886,8.369 -6.907,8.403c3.232,5.985 9.117,18.388 28.552,20.785c6.683,0.301 10.175,1.521 15.424,-8.637c0.436,-2.029 2.914,-4.784 4.022,-4.998c2.481,0.058 4.354,-5.877 6.714,-13.642c0.66,-2.811 1.049,-4.677 1.753,-7.575c0.023,0.055 -3.563,-1.654 -3.531,-1.848c1.832,-4.121 8.22,-16.436 1.405,-19.978c-9.327,-4.228 -22.806,1.381 -31.482,4.961c-10.211,4.212 -20.131,7.699 -21.533,14.03Z" style="fill:#0079ff;"/><path id="Tiger" d="M1926.48,1231.93l12.331,26.366l4.64,19.062l3.252,14.952l-12.646,21.637l24.323,17.961c0,0 23.156,-19.684 21.746,-37.426c-1.183,-11.412 -2.409,-18.308 -7.097,-23.467c-0.67,-0.78 -0.491,-2.14 -0.385,-3.933c0.537,-9.123 -6.474,-25.268 -6.474,-25.268l-3.426,-2.756l1.873,-3.761l-9.316,-4.898l-28.821,1.531Z" style="fill:#0079ff;"/><path id="Löwen" d="M1481.51,1616.09c0.718,0.283 1.692,0.42 2.743,0.686c2.594,0.656 4.377,-0.166 5.276,-1.594c-0.461,2.567 1.882,3.849 3.224,4.094c3.662,0.669 5.254,-0.791 5.69,-1.964c0.123,-0.329 0.197,-0.784 0.171,-1.318l1,0.351c-0.959,3.15 2.756,4.919 5.085,5.606c3.41,0.89 6.294,1.999 8.051,-1.004l0.522,0.183c0,0 -8.736,11.227 -13.381,19.394c-2.301,4.045 -2.93,5.509 -6.727,8.291c-2.813,2.061 -5.19,3.773 -9.856,8.288c-8.911,7.298 -9.352,10.214 -15.519,16.449c-13.282,10.204 -17.291,14.357 -44.402,24.22c-11.788,4.574 -18.992,6.571 -37.197,7.439c-2.847,-0.421 -3.517,-1.702 -5.151,-1.36c-3.349,0.702 -6.766,1.656 -8.735,2.233c0.166,-0.37 0.309,-0.741 0.367,-1.115c0.117,-0.75 0.058,-1.511 0.135,-2.264c0.042,-0.403 0.232,-0.762 0.191,-1.178c-0.108,-1.097 -0.582,-2.049 -0.582,-3.174c0.418,-0.232 0.332,-1.077 0.301,-1.451c-0.1,-1.191 -0.934,-1.96 -1.619,-2.865c-0.271,-0.358 -0.708,-0.672 -0.748,-1.153c-0.063,-0.753 1.085,-1.093 1.517,-1.611c0.882,-1.057 1.291,-2.675 1.291,-4.044c0,0 -0.33,-4.489 -0.205,-6.637c0.073,-1.256 0.626,-2.475 0.409,-3.757c-0.036,-0.209 -0.084,-0.399 -0.142,-0.578c2.716,-1.091 6.319,-1.674 10.266,-2.07c0.374,0.252 0.793,0.312 1.405,0.291c0.312,-0.011 -0.482,1.531 0.946,1.848c1.363,0.302 2.918,-0.281 4.304,-0.281c0.458,0 0.911,0.014 1.357,0.131c0.309,0.082 0.631,0.294 0.961,0.245c0.699,-0.104 1.223,-0.207 1.945,-0.253c0.36,-0.023 1.813,0.123 2.249,0.055c0.788,-0.122 1.272,-0.559 2.045,-0.589c0.636,-0.026 1.065,0.581 1.735,0.394c0.711,-0.199 1.833,-1.023 2.338,-1.593c0.479,-0.541 0.688,-1.382 0.581,-2.148c1.563,-0.288 3.024,-0.641 4.337,-1.086c4.728,-1.601 10.14,-3.594 14.999,-5.609c0.098,-0.022 0.187,-0.059 0.267,-0.111c2.736,-1.139 5.289,-2.283 7.436,-3.364c0.023,0.403 0.168,0.683 0.869,0.642c0.678,-0.039 1.137,-0.849 1.608,-1.247c0.54,-0.458 1.391,-0.873 1.766,-1.486c0.106,-0.173 0.181,-0.34 0.232,-0.503c0.263,-0.189 0.501,-0.372 0.712,-0.55c4.091,-3.36 4.71,-0.5 8.014,-3.497c0.899,-0.815 0.493,-1.997 1.076,-3.23c0.498,-1.053 2.012,-2.114 2.789,-2.914c3.566,-3.675 13.33,-13.19 22.156,-21.743c2.077,-0.245 5.841,-2.888 7.548,-4.489c1.802,-1.691 4.646,-5.243 4.26,-6.924l0.09,-0.086Zm8.813,-3l0.031,0.01c-0.023,0.041 -0.045,0.082 -0.067,0.122c0.013,-0.045 0.025,-0.089 0.036,-0.132Z" style="fill:#0079ff;"/><path d="M856.67,528.43c-0.584,-14.851 7.449,-20.79 16.661,-23.503c10.189,-3 32.312,-10.114 44.475,5.498c5.705,7.321 5.987,14.598 6.872,20.082c0.686,4.252 -1.529,8.518 -1.561,12.825c-0.032,4.435 1.199,9.2 1.367,13.788c0.433,11.842 -1.605,12.763 -9.888,21.058c-4.989,4.997 -15.059,8.679 -20.706,8.248c-5.647,-0.431 -10.713,-1.119 -13.174,-10.834c-0.391,-1.542 0.958,-5.87 1.942,-7.431c1.886,-2.993 1.531,-4.095 0.859,-6c-1.397,-3.965 -0.441,-5.611 -1.125,-8.327c-1.661,-6.593 -4.988,-5.835 -12.354,-7.538c-4.87,-1.126 -12.64,0.628 -13.368,-17.866Z" style="fill:#0079ff;"/><path id="Yaks" d="M997.505,600.54c7.186,-1.384 17.744,7.288 22.14,13.471c4.672,6.57 9.874,9.857 12.421,16.154c2.666,6.593 4.229,17.24 0.303,24.342c-4.751,8.596 -13.207,18.505 -13.803,23.762c-1.212,10.691 2.281,20.797 3.628,26.379c-2.905,-1.609 -8.382,-3.006 -12.761,-3.159c-5.271,-0.183 -12.54,1.863 -18.862,2.056c-6.884,0.21 -12.899,-2.473 -21.5,-10.08c-9.357,-8.278 -19.432,-5.946 -27.216,-6.485c-17.23,-1.194 -42.012,5.352 -44.462,-14.506c-0.947,-7.675 13.403,-14.896 29.15,-16.571c13.357,-1.421 30.387,-2.036 41.383,-7.69c14.958,-7.692 20.961,-15.491 23.77,-27.794c1.632,-7.153 -1.839,-18.406 5.809,-19.879Z" style="fill:#0079ff;"/><path d="M1236.59,211.3c-0.044,-3.691 0.252,-8.993 2.515,-12.697c1.991,-3.259 5.697,-5.183 9.373,-5.028c7.543,0.317 11.187,4.691 11.238,9.478c0.066,6.298 -3.633,4.763 -3.473,8.578c0.08,1.922 1.769,10.895 -0.639,12.272c-1.665,0.952 -7.989,1.86 -9.009,0.551c-1.339,-1.718 -2.034,-1.434 -4.249,-2.009c-2.666,-0.692 -5.703,-6.61 -5.756,-11.145Z" style="fill:#0079ff;"/><path id="Einsbären-Haupt" serif:id="Einsbären Haupt" d="M1472.52,323.495l24.573,-6.361l0.163,-18.479l15.383,-3.688l1.872,-1.69l10.247,7.621l-1.295,6.466l-9.819,2.601l-0.065,5.635l1.987,-0.11l-0.501,5.463l-2.914,0.51l-0.324,3.113l-7.694,2.545l-0.484,2.422l-7.564,2.225l-0.336,1.502l-5.884,3.295l-1.775,2.06c1.075,0.84 2.28,1.907 3.625,3.258c1.36,1.365 1.258,3.613 -0.143,4.935c-1.402,1.323 -3.511,1.154 -4.936,-0.143c-1.17,-1.065 -2.16,-2.024 -2.995,-2.888l-3.049,3.537l0.716,4.991l-2.822,1.447l-4.184,7.027l0.772,1.921l-6.089,9.296l6.251,6.825l-1.326,1.587l0.207,6.177l7.924,5.212l0.544,7.964l-5.963,1.424l-0.701,1.836l-11.384,-6.423l0.352,-4.3l-15.197,-8.703l17.118,-56.662l5.655,-1.648l0.055,-1.8Z" style="fill:#0079ff;"/><path id="Eisbären-hinten" serif:id="Eisbären hinten" d="M1558.81,378.625l-20.074,-7.865l-1.937,4.944l3.279,1.131l0.587,8.036l13.609,5.332l4.536,-11.578Z" style="fill:#0079ff;"/><path id="Patagonien" d="M1484.76,990.876c4.928,-15.158 10.624,-34.301 13.291,-48.63c2.948,-15.838 14.935,-11.628 13.731,1.176c-0.369,3.928 -3.607,13.659 -4.539,20.642c-1.195,8.952 -0.498,22.703 -2.631,33.07c-2.423,11.78 -11.95,7.444 -23.128,34.334c-2.484,5.975 -8.222,13.895 -10.873,16.081c-11.071,9.128 -12.924,3.183 -7.983,-7.748c4.01,-8.871 15.491,-28.499 22.132,-48.925Z" style="fill:#0079ff;"/><path id="Brillenpinguine" d="M1457.25,206.974c1.019,0.256 1.868,0.501 2.415,0.717c1.502,0.592 2.309,1.157 2.565,2.751c0.536,3.344 -1.399,3.408 -0.509,7.809c1.028,5.083 0.715,12.168 9.852,12.444c3.394,0.102 8.405,-1.127 10.455,-10.79c0.721,0.712 1.712,2.075 2.813,3.757c-0.176,0.536 -0.239,1.089 -0.217,1.607c0.149,3.636 1.606,7.096 5.666,7.5c0.676,1.197 1.293,2.309 1.809,3.247c-0.938,0.036 -2.053,-0.262 -2.66,0.095c-0.686,0.405 -1.044,1.46 -1.098,2.299c-0.054,0.838 0.981,2.168 0.775,2.732c-0.206,0.564 -1.656,0.045 -2.011,0.654c-1.19,2.043 -1.17,1.016 -2.794,1.678c-1.012,0.413 -1.812,1.407 -2.209,2.121c-0.351,0.633 -0.196,1.689 -0.168,2.164c-0.382,-0.207 -1.162,-0.697 -1.584,-0.363c-1.171,0.927 -0.743,1.745 -0.921,2.401c-0.157,0.573 -0.598,-0.927 -1.703,-0.773c-1.389,0.193 -3.318,0.51 -3.543,2.369l-7.439,-2.141c0.013,-0.131 0.016,-0.272 0.012,-0.425c-0.063,-1.975 -1.529,-1.92 -3.489,-2.191c-1.144,-0.158 -1.76,-0.417 -1.985,0.173l-9.132,-5.664c0.166,-0.321 0.254,-0.632 0.227,-0.893c-0.116,-1.144 -2.224,-3.715 -3.781,-3.782c-0.178,-0.007 -0.347,-0.003 -0.509,0.013l-4.446,-10.964c1.135,-0.67 1.49,-3.262 1.662,-4.596c0.598,-4.632 -2.057,-3.8 -1.257,-4.56c0.8,-0.759 0.274,-1.41 0.613,-2.03c0.511,-0.933 1.803,-1.478 2.451,-3.568c0.305,-0.982 -0.678,-2.575 0.087,-3.084c0.765,-0.509 3.405,0.141 4.505,0.031c0.73,-0.073 1.385,-0.694 2.092,-0.69c0.706,0.004 1.482,0.919 2.147,0.715c0.342,-0.106 0.893,-0.393 1.309,-0.763Z" style="fill:#0079ff;"/><path d="M1285,590.969c1.683,-10.777 8.031,-9.841 11.564,-10.518c10.395,-1.994 8.177,2.719 5.642,6.127c-2.099,2.82 -5.257,2.986 -4.85,11.676c0.475,10.147 0.621,18.679 0.65,24.303c0.016,3.152 -1.058,6.363 -0.477,9.444c1.217,6.451 4.437,7.758 4.125,10.022c-0.593,4.294 -3.703,4.372 -5.847,3.579c-6.844,-2.528 -8.123,-2.735 -10.53,-15.064c-1.261,-6.454 -1.158,-16.014 -1.204,-22.609c-0.039,-5.662 0.152,-11.99 0.927,-16.96Z" style="fill:#0079ff;"/><path d="M1290.13,568.519c-2.913,-2.132 -3.726,-2.659 -4.472,-6.739c-0.514,-2.809 -0.488,-6.468 -0.349,-9.701c0.238,-5.567 0.889,-16.914 1.781,-23.702c1.339,-10.201 3.175,-11.988 8.431,-16.085c2.476,-1.93 5.512,-4.666 7.212,-6.058c0.971,-0.795 2.986,-2.292 2.986,-2.292c0,0 0.258,1.587 0.116,2.362c-0.379,2.082 0.932,5.664 -2.393,10.127c-1.622,2.179 -2.491,3.291 -3.069,5.227c-0.797,2.666 -1.391,3.856 -1.712,10.767c-0.178,3.837 0.208,8.152 0.131,12.227c-0.082,4.318 -1.235,9.906 -0.624,13.682c0.53,3.273 3.386,6.608 4.291,8.973c0.636,1.662 1.139,5.215 1.139,5.215c0,0 -4.02,-0.462 -5.95,-1.036c-2.244,-0.667 -5.444,-1.448 -7.518,-2.967Z" style="fill:#0079ff;"/><path d="M382.244,347.233l20.948,-30.562c0,0 7.986,-5.487 12.166,-7.927c8.473,-4.946 13.369,-11.309 26.684,-8.689c6.821,1.343 13.598,5.397 17.322,13.695c6.722,14.979 16.092,18.147 30.551,22.406c13.502,3.976 31.022,8.297 40.855,9.881c5.971,0.962 12.114,-0.893 18.14,-0.377c9.17,0.786 12.475,4.417 19.257,5.762c25.763,5.112 30.094,17.514 35.764,31.385c3.562,8.715 3.62,21.901 7.976,32.995c4.777,12.165 7.621,17.129 12.595,25.037c6.027,9.579 16.652,23.201 23.563,32.437c10.882,14.543 33.751,24.839 59.695,24.377c8.917,-0.159 18.006,-1.661 20.818,-1.305c8.112,1.027 19.916,3.643 27.86,7.449c7.538,3.611 16.333,11.25 19.803,15.385c0.037,0.212 -3.831,13.53 -3.97,13.445c7.648,2.238 4.657,11.976 3.884,17.211c-0.792,5.355 -3.86,13.214 -9.504,14.773c-12.752,3.525 -13.947,1.816 -23.93,-2.841c-7.921,-3.695 -17.863,-8.915 -25.515,-8.32c-20.63,1.605 -20.16,14.198 -19.987,23.811c0.142,7.861 -0.946,16.689 -2.326,23.472c-2.64,12.974 -9.131,12.888 -18.67,12.361c-7.858,-0.434 -22.622,-2.782 -29.27,-5.057c-4.308,-1.475 -7.828,-5.34 -10.616,-8.597c-1.786,-2.086 -11.546,-8.36 -13.603,-8.549c-10.292,-0.95 -14.152,-2.234 -22.509,-4.731c-9.34,-2.791 -19.445,-5.055 -26.42,-6.851c-8.488,-2.185 -12.129,-1.927 -23.009,1.503c-2.431,0.766 -4.08,-1.816 -7.817,-1.933c-16.129,-0.506 -25.58,2.23 -35.129,8.866c-10.82,7.52 -15.257,11.471 -22.487,20.396c-4.672,5.766 -8.145,17.559 -13.986,24.861c-5.786,7.231 -9.144,7.087 -18.375,10.648c-25.882,9.982 -42.244,12 -67.457,1.964c-21.135,-8.414 -28.22,-20.014 -34.484,-31.565c-2.805,-5.174 -4.167,-12.851 -3.853,-19.051c0.48,-9.451 4.797,-15.681 5.878,-19.214c2.797,-9.14 4.707,-13.932 7.924,-19.215c2.928,-4.809 8.67,-7.547 11.379,-12.482c1.313,-2.391 1.238,-5.154 2.212,-8.07c1.126,-3.374 3.215,-6.952 3.398,-10.398c0.403,-7.636 -3.352,-18.172 -3.189,-27.348c0.169,-9.488 -0.019,-21.187 4.202,-29.586c2.413,-4.799 4.429,-7.867 6.952,-11.71c2.589,-3.943 4.343,-8.379 4.012,-12.942c-0.35,-4.821 -2.48,-11.135 -4.625,-17.864c-1.731,-5.431 -3.317,-8.549 -2.907,-17.191c0.768,-16.17 -0.2,-61.745 -0.2,-61.745Zm72.15,270.782c1.454,-1.562 3.551,-4.327 4.669,-6.043c1.08,-1.657 3.44,-2.812 4.691,-1.914c0.964,0.692 2.318,3.08 1.859,4.702c-0.84,2.967 -4.842,10.391 -6.899,13.099c-1.268,1.67 -3.646,2.757 -5.445,3.151c-2.628,0.575 -5.728,-1.977 -5.553,-4.217c0.131,-1.679 1.507,-3.989 2.62,-5.452c1.058,-1.392 2.865,-2.046 4.058,-3.326Zm-46.893,-45.805c5.412,-5.017 16.73,-15.737 23.689,-20.134c5.735,-3.624 14.167,-5.836 19.319,-4.146c5.074,1.665 10.134,7.21 11.593,12.57c1.459,5.36 -0.367,13.639 -2.839,19.591c-2.513,6.05 -6.002,11.784 -9.45,17.077c-4.074,6.254 -13.16,14.797 -17.108,18.985c-2.058,2.184 -6.577,6.146 -6.577,6.146c0,0 -5.723,1.042 -8.572,1.623c-3.886,0.791 -10.189,2.372 -14.74,3.127c-5.034,0.834 -9.84,-2.077 -12.656,-7.094c-2.723,-4.85 -3.459,-14.593 -0.791,-21.423c2.283,-5.848 6.326,-11.963 9.348,-16.35c2.513,-3.648 5.536,-6.96 8.784,-9.972Zm-32.159,-5.613c1.186,-1.625 2.713,-3.022 3.666,-4.793c1.006,-1.869 1.049,-4.851 2.368,-6.418c1.411,-1.675 5.43,-1.871 7.307,-0.886c1.788,0.937 3.471,3.604 2.667,5.805c-0.801,2.194 -3.802,5.306 -5.614,7.65c-1.691,2.187 -3.497,4.778 -5.261,6.412c-2.281,2.112 -3.817,2.594 -5.975,2.636c-1.906,0.037 -3.419,-2.792 -2.962,-4.969c0.359,-1.702 2.559,-3.732 3.804,-5.437Zm148.621,-120.777c1.334,-1.832 2.532,-2.188 4.674,-1.447c6.093,2.106 31.155,15.644 31.155,15.644l1.819,5.121c0,0 -6.116,13.389 -8.253,16.566c-1.511,2.245 -3.239,2.985 -5.59,1.788c-5.81,-2.959 -30.563,-16.264 -30.563,-16.264l-1.402,-3.359c0,0 5.863,-14.896 8.16,-18.049Zm-109.187,2.03c-0.228,-4.833 5.379,-11.616 10.7,-11.309c5.997,0.346 9.836,5.383 10.346,10.918c0.473,5.126 -5.621,10.838 -9.966,10.408c-4.937,-0.488 -10.866,-5.474 -11.08,-10.017Zm20.581,-97.739c1.551,-1.837 5.385,-3.797 8.752,-3.214c2.969,0.514 5.682,2.816 5.905,6.437c0.269,4.383 -5.24,10.87 -9.385,11.083c-5.056,0.259 -8.49,-2.657 -8.402,-8.135c0.041,-2.545 1.513,-4.253 3.13,-6.171Z" style="fill:#0079ff;"/><path d="M1022.13,704.296c0,0 10.522,11.859 15.437,16.72c4.45,4.401 8.496,9.574 14.055,12.447c6.768,3.499 17.828,5.331 26.553,8.544c9.719,3.578 21.814,9.188 31.756,12.925c9.194,3.457 20.105,6.531 27.893,9.5c6.413,2.444 18.838,8.31 18.838,8.31" style="fill:none;stroke:#0079ff;stroke-width:1.25px;"/><path d="M1219.16,833.653c0,0 0.995,1.48 1.294,2.31c0.513,1.426 5.381,4.648 10.578,5.041c6.378,0.482 18.478,-1.421 27.377,0.61c9.02,2.059 19.9,8.35 26.742,11.742c4.988,2.474 9.318,6.216 14.311,8.614c4.993,2.397 11.349,2.786 15.647,5.774c4.298,2.987 8.132,9.09 10.143,12.152c1.19,1.813 1.922,6.216 1.922,6.216" style="fill:none;stroke:#0079ff;stroke-width:1.25px;"/><path d="M1440.46,943.086c0,0 9.731,2.142 14.426,3.776c5.324,1.853 17.519,7.345 17.519,7.345" style="fill:none;stroke:#0079ff;stroke-width:1.25px;"/><path d="M1502.36,969.24c0,0 18.041,14.561 25.1,21.091c6.16,5.699 12.132,10.77 16.03,14.989c3.349,3.626 9.273,3.082 12.331,4.594c5.309,2.623 14.86,10.727 18.718,15.839c2.745,3.638 8.547,8.017 11.491,9.513c2.52,1.28 5.732,1.643 7.88,3.48c2.515,2.15 6.452,9.144 9.267,11.778c3.151,2.949 6.499,3.301 11.094,5.192c4.743,1.952 6.098,3.38 9.744,7.483c1.941,2.185 3.915,3.368 6.313,4.495c3.566,1.678 7.36,2.666 9.698,3.628c2.497,1.027 3.414,3.835 4.956,6.151c1.501,2.253 5.087,3.313 6.533,5.329c1.379,1.922 0.758,4.917 1.859,7.011c2.639,5.022 9.948,17.634 13.976,23.12c2.796,3.809 7.307,7.373 10.478,9.55c2.541,1.744 6.224,1.494 8.55,3.515c1.598,1.388 4.713,3.536 6.895,6.078c2.873,3.346 4.848,7.243 6.766,9.697c2.48,3.174 3.851,7.173 6.584,10.13c3.515,3.803 10.6,8.751 14.502,12.687c3.31,3.338 6.593,7.897 8.912,10.93c0.869,1.137 0.854,2.778 1.672,4.026c0.864,1.318 2.558,2.238 3.329,3.246c1.221,1.594 4.009,4.496 4.009,4.496" style="fill:none;stroke:#0079ff;stroke-width:1.25px;"/></g></g></svg>