<?xml version="1.0" encoding="UTF-8" standalone="no"?><!DOCTYPE svg PUBLIC "-//W3C//DTD SVG 1.1//EN" "http://www.w3.org/Graphics/SVG/1.1/DTD/svg11.dtd"><svg width="100%" height="100%" viewBox="0 0 2550 1994" version="1.1" xmlns="http://www.w3.org/2000/svg" xmlns:xlink="http://www.w3.org/1999/xlink" xml:space="preserve" xmlns:serif="http://www.serif.com/" style="fill-rule:evenodd;clip-rule:evenodd;stroke-linecap:round;stroke-linejoin:round;stroke-miterlimit:1.5;">
    <MetaInfo xmlns="http://www.prognoz.ru"><Geo>
    <GeoItem X="0" Y="0" Latitude="51.24177020918754" Longitude="7.105611562728882"/>
    <GeoItem X="2550" Y="1994" Latitude="51.236776961813064" Longitude="7.115809321403503"/>
</Geo></MetaInfo>
    <g id="Zoo"><g id="Wasser"><path d="M1664.76,948.998c0.518,-0.206 1.085,-0.306 1.711,-0.277c4.609,0.129 6.318,9.334 18.43,22.927c6.439,8.806 23.292,24.402 25.14,29.499c-1.051,5.805 -10.876,7.45 -19.88,7.489c-13.23,0.237 -13.892,-3.528 -19.838,-6.109c-15.616,-8.681 -29.594,3.072 -32.649,-15.94c-0.842,-8.757 8.605,-12.633 15.123,-19.547l4.173,4.71l15.658,-13.871l-7.868,-8.881Z" style="fill:#0079ff;"/><path d="M1596.94,978.215c3.422,-8.772 7.777,-12.551 12.51,-12.538c6.48,-0.121 7.286,6.266 6.879,10.142c-0.624,9.164 -3.541,10.626 -10.958,10.65c-4.072,0.045 -10.126,-0.852 -8.431,-8.254Z" style="fill:#0079ff;"/><path d="M1589.37,948.374c0.316,-7.228 4.055,-8.432 9.642,-10.154c3.066,-0.945 9.185,2.918 8.365,7.797c-1.352,8.036 -8.734,10.797 -11.735,11.19c-3.001,0.393 -6.541,-2.689 -6.272,-8.833Z" style="fill:#0079ff;"/><path d="M993.334,917.243l5.018,-8.407l4.621,-2.94l6.784,-1.948l7.4,1.393l6.226,3.939l-1.777,5.036l13.478,8.146l6.797,7.227l-3.287,8.385l-29.39,-0.33c0,0 -15.873,-11.186 -15.716,-19.636c-0.06,-0.272 -0.112,-0.561 -0.154,-0.865Z" style="fill:#0079ff;"/><path d="M1040.82,922.953l9.821,-9.688l11.725,3.091l1.634,4.971l2.345,8.084l-5.322,8.593l-9.617,-0.482l-3.535,-8.593l-3.289,0.067l-3.762,-6.043Z" style="fill:#0079ff;"/><path d="M1067.75,923.341l14.937,0.012l0.986,4.781l10.042,0.459l6.547,2.81l6.902,7.67l-4.848,15.68l-8.977,4.058l-20.851,-11.467l-4.738,-24.003Z" style="fill:#0079ff;"/><path id="Seelöwen" d="M1648.6,392.653c-0.585,3.83 5.804,5.682 5.584,8.5c-0.313,3.945 -6.887,8.368 -6.907,8.403c3.232,5.984 9.116,18.387 28.551,20.784c6.683,0.301 10.176,1.521 15.424,-8.637c0.436,-2.029 2.914,-4.784 4.022,-4.998c2.482,0.058 4.355,-5.877 6.714,-13.642c0.66,-2.811 1.049,-4.677 1.753,-7.575c0.023,0.055 -3.562,-1.654 -3.531,-1.848c1.832,-4.121 8.22,-16.436 1.406,-19.978c-9.328,-4.228 -22.806,1.381 -31.483,4.961c-10.21,4.213 -20.13,7.699 -21.533,14.03Z" style="fill:#0079ff;"/><path id="Tiger" d="M2192.08,1290.18l12.33,26.366l4.641,19.062l3.251,14.953l-12.646,21.636l24.323,17.961c0,0 23.156,-19.684 21.746,-37.426c-1.182,-11.412 -2.409,-18.308 -7.097,-23.467c-0.669,-0.78 -0.49,-2.14 -0.385,-3.933c0.538,-9.123 -6.473,-25.268 -6.473,-25.268l-3.427,-2.756l1.873,-3.761l-9.316,-4.898l-28.82,1.531Z" style="fill:#0079ff;"/><path id="Löwen" d="M1747.11,1674.33c0.718,0.283 1.693,0.42 2.743,0.686c2.594,0.656 4.378,-0.166 5.276,-1.594c-0.461,2.568 1.882,3.849 3.224,4.094c3.662,0.669 5.255,-0.791 5.691,-1.964c0.122,-0.329 0.197,-0.784 0.17,-1.318l1.001,0.351c-0.96,3.15 2.755,4.919 5.085,5.606c3.409,0.89 6.293,1.999 8.051,-1.004l0.522,0.183c0,0 -8.737,11.227 -13.382,19.394c-2.3,4.045 -2.929,5.509 -6.727,8.292c-2.813,2.06 -5.19,3.772 -9.855,8.287c-8.912,7.298 -9.353,10.214 -15.52,16.449c-13.282,10.204 -17.291,14.357 -44.401,24.22c-11.789,4.574 -18.993,6.571 -37.198,7.439c-2.847,-0.421 -3.517,-1.702 -5.151,-1.36c-3.348,0.702 -6.766,1.656 -8.735,2.233c0.166,-0.37 0.309,-0.741 0.367,-1.115c0.118,-0.75 0.059,-1.511 0.136,-2.264c0.041,-0.402 0.232,-0.762 0.19,-1.178c-0.108,-1.097 -0.582,-2.049 -0.582,-3.174c0.418,-0.232 0.332,-1.077 0.301,-1.451c-0.1,-1.191 -0.934,-1.96 -1.618,-2.864c-0.272,-0.359 -0.708,-0.673 -0.748,-1.154c-0.063,-0.753 1.085,-1.093 1.516,-1.611c0.882,-1.057 1.291,-2.675 1.291,-4.044c0,0 -0.33,-4.489 -0.205,-6.637c0.073,-1.256 0.626,-2.475 0.409,-3.757c-0.036,-0.209 -0.084,-0.399 -0.142,-0.578c2.716,-1.091 6.319,-1.674 10.266,-2.07c0.374,0.252 0.794,0.312 1.406,0.291c0.311,-0.011 -0.483,1.531 0.946,1.848c1.362,0.302 2.918,-0.281 4.303,-0.281c0.458,0 0.912,0.014 1.357,0.131c0.309,0.082 0.632,0.294 0.962,0.245c0.698,-0.104 1.222,-0.207 1.944,-0.253c0.36,-0.023 1.814,0.123 2.249,0.055c0.788,-0.122 1.273,-0.559 2.045,-0.589c0.637,-0.026 1.065,0.581 1.736,0.394c0.71,-0.199 1.832,-1.023 2.337,-1.593c0.479,-0.54 0.688,-1.382 0.582,-2.148c1.562,-0.288 3.023,-0.641 4.337,-1.086c4.728,-1.601 10.139,-3.594 14.999,-5.609c0.098,-0.021 0.186,-0.059 0.267,-0.111c2.736,-1.139 5.288,-2.283 7.435,-3.364c0.023,0.403 0.168,0.683 0.87,0.642c0.677,-0.039 1.137,-0.849 1.607,-1.247c0.54,-0.458 1.392,-0.873 1.767,-1.486c0.105,-0.173 0.18,-0.34 0.231,-0.503c0.264,-0.189 0.501,-0.372 0.713,-0.55c4.09,-3.36 4.709,-0.5 8.013,-3.497c0.899,-0.815 0.494,-1.997 1.077,-3.23c0.497,-1.053 2.012,-2.114 2.788,-2.914c3.566,-3.675 13.33,-13.19 22.157,-21.743c2.076,-0.245 5.84,-2.888 7.547,-4.489c1.803,-1.691 4.646,-5.243 4.261,-6.924l0.089,-0.086Zm8.813,-3l0.031,0.011c-0.023,0.04 -0.045,0.081 -0.066,0.121c0.012,-0.045 0.024,-0.089 0.035,-0.132Z" style="fill:#0079ff;"/><path d="M1122.27,586.678c-0.585,-14.851 7.448,-20.79 16.66,-23.502c10.189,-3.001 32.312,-10.115 44.476,5.497c5.704,7.321 5.986,14.598 6.871,20.082c0.686,4.252 -1.529,8.519 -1.56,12.825c-0.033,4.435 1.199,9.2 1.366,13.788c0.433,11.842 -1.605,12.763 -9.888,21.058c-4.989,4.997 -15.059,8.679 -20.706,8.248c-5.646,-0.431 -10.713,-1.119 -13.174,-10.834c-0.391,-1.542 0.959,-5.87 1.942,-7.43c1.887,-2.994 1.532,-4.096 0.86,-6.001c-1.398,-3.965 -0.441,-5.611 -1.126,-8.327c-1.661,-6.593 -4.988,-5.835 -12.353,-7.538c-4.871,-1.126 -12.641,0.628 -13.368,-17.866Z" style="fill:#0079ff;"/><path id="Yaks" d="M1263.11,658.788c7.186,-1.384 17.743,7.288 22.14,13.471c4.671,6.57 9.874,9.857 12.42,16.154c2.667,6.593 4.229,17.24 0.304,24.342c-4.752,8.596 -13.208,18.505 -13.804,23.762c-1.212,10.691 2.281,20.797 3.628,26.379c-2.905,-1.609 -8.381,-3.006 -12.761,-3.159c-5.27,-0.183 -12.54,1.863 -18.861,2.056c-6.884,0.21 -12.9,-2.472 -21.5,-10.08c-9.358,-8.278 -19.433,-5.946 -27.217,-6.485c-17.23,-1.194 -42.011,5.352 -44.462,-14.506c-0.947,-7.675 13.403,-14.896 29.15,-16.571c13.358,-1.421 30.388,-2.036 41.384,-7.69c14.957,-7.692 20.961,-15.491 23.769,-27.794c1.633,-7.153 -1.839,-18.406 5.81,-19.879Z" style="fill:#0079ff;"/><path d="M1502.19,269.548c-0.043,-3.691 0.252,-8.993 2.516,-12.697c1.991,-3.259 5.696,-5.182 9.372,-5.028c7.543,0.317 11.188,4.691 11.238,9.478c0.066,6.298 -3.632,4.763 -3.473,8.578c0.081,1.922 1.769,10.895 -0.639,12.272c-1.664,0.952 -7.989,1.86 -9.008,0.551c-1.339,-1.718 -2.035,-1.434 -4.25,-2.009c-2.666,-0.692 -5.702,-6.61 -5.756,-11.145Z" style="fill:#0079ff;"/><path id="Einsbären-Haupt" serif:id="Einsbären Haupt" d="M1738.12,381.744l24.573,-6.362l0.163,-18.479l15.384,-3.688l1.871,-1.69l10.247,7.622l-1.295,6.465l-9.818,2.601l-0.066,5.635l1.987,-0.11l-0.5,5.463l-2.915,0.51l-0.323,3.113l-7.695,2.545l-0.483,2.422l-7.565,2.225l-0.335,1.502l-5.885,3.295l-1.775,2.06c1.075,0.84 2.28,1.907 3.625,3.258c1.36,1.365 1.259,3.613 -0.143,4.935c-1.402,1.323 -3.511,1.155 -4.936,-0.143c-1.169,-1.065 -2.159,-2.024 -2.995,-2.888l-3.048,3.538l0.716,4.99l-2.823,1.447l-4.184,7.027l0.772,1.921l-6.089,9.296l6.251,6.825l-1.325,1.587l0.207,6.177l7.923,5.212l0.545,7.964l-5.963,1.424l-0.702,1.836l-11.384,-6.423l0.353,-4.299l-15.198,-8.704l17.118,-56.662l5.656,-1.648l0.054,-1.799Z" style="fill:#0079ff;"/><path id="Eisbären-hinten" serif:id="Eisbären hinten" d="M1824.41,436.873l-20.075,-7.865l-1.937,4.944l3.279,1.131l0.587,8.036l13.609,5.332l4.537,-11.578Z" style="fill:#0079ff;"/><path id="Patagonien" d="M1750.36,1049.12c4.928,-15.158 10.624,-34.301 13.291,-48.63c2.948,-15.838 14.935,-11.627 13.731,1.176c-0.369,3.928 -3.606,13.659 -4.538,20.642c-1.195,8.952 -0.499,22.703 -2.631,33.07c-2.423,11.78 -11.95,7.445 -23.128,34.334c-2.484,5.975 -8.223,13.895 -10.874,16.081c-11.071,9.128 -12.923,3.184 -7.982,-7.748c4.01,-8.871 15.49,-28.499 22.131,-48.925Z" style="fill:#0079ff;"/><path id="Brillenpinguine" d="M1722.85,265.223c1.02,0.256 1.869,0.501 2.415,0.716c1.502,0.592 2.309,1.157 2.565,2.751c0.537,3.344 -1.398,3.408 -0.508,7.809c1.028,5.083 0.714,12.168 9.851,12.444c3.394,0.102 8.406,-1.127 10.455,-10.789c0.721,0.711 1.712,2.074 2.814,3.756c-0.176,0.536 -0.239,1.089 -0.218,1.607c0.149,3.636 1.606,7.096 5.666,7.501c0.676,1.196 1.294,2.308 1.81,3.246c-0.938,0.037 -2.054,-0.262 -2.661,0.096c-0.686,0.404 -1.044,1.459 -1.098,2.298c-0.054,0.838 0.981,2.168 0.775,2.732c-0.206,0.565 -1.656,0.045 -2.011,0.654c-1.19,2.044 -1.169,1.016 -2.793,1.678c-1.013,0.413 -1.813,1.407 -2.209,2.121c-0.351,0.633 -0.196,1.689 -0.169,2.165c-0.381,-0.208 -1.162,-0.698 -1.584,-0.364c-1.171,0.927 -0.743,1.745 -0.921,2.401c-0.156,0.573 -0.598,-0.927 -1.703,-0.773c-1.389,0.193 -3.318,0.51 -3.543,2.369l-7.439,-2.141c0.013,-0.131 0.017,-0.272 0.012,-0.425c-0.063,-1.975 -1.528,-1.92 -3.488,-2.191c-1.145,-0.158 -1.761,-0.417 -1.986,0.173l-9.132,-5.664c0.166,-0.321 0.254,-0.632 0.228,-0.893c-0.117,-1.144 -2.225,-3.715 -3.782,-3.782c-0.177,-0.007 -0.347,-0.003 -0.509,0.013l-4.446,-10.964c1.136,-0.67 1.49,-3.262 1.662,-4.596c0.598,-4.632 -2.057,-3.799 -1.256,-4.559c0.8,-0.76 0.273,-1.41 0.612,-2.031c0.511,-0.933 1.803,-1.478 2.452,-3.568c0.304,-0.982 -0.679,-2.575 0.087,-3.084c0.765,-0.509 3.405,0.141 4.504,0.031c0.731,-0.073 1.386,-0.694 2.092,-0.69c0.707,0.004 1.483,0.92 2.147,0.715c0.342,-0.106 0.893,-0.393 1.309,-0.762Z" style="fill:#0079ff;"/><path d="M1550.6,649.217c1.682,-10.777 8.03,-9.841 11.563,-10.518c10.396,-1.993 8.178,2.719 5.642,6.127c-2.099,2.82 -5.257,2.986 -4.85,11.676c0.475,10.147 0.621,18.679 0.65,24.303c0.017,3.152 -1.057,6.363 -0.476,9.444c1.217,6.451 4.436,7.758 4.124,10.022c-0.593,4.294 -3.703,4.372 -5.847,3.58c-6.843,-2.529 -8.122,-2.736 -10.53,-15.065c-1.261,-6.454 -1.157,-16.014 -1.204,-22.609c-0.039,-5.662 0.152,-11.99 0.928,-16.96Z" style="fill:#0079ff;"/><path d="M1555.74,626.767c-2.912,-2.132 -3.725,-2.659 -4.472,-6.739c-0.513,-2.809 -0.488,-6.468 -0.349,-9.701c0.238,-5.567 0.89,-16.914 1.781,-23.702c1.339,-10.201 3.176,-11.988 8.431,-16.085c2.476,-1.93 5.513,-4.666 7.212,-6.058c0.971,-0.795 2.986,-2.292 2.986,-2.292c0,0 0.258,1.587 0.117,2.362c-0.38,2.082 0.931,5.664 -2.394,10.128c-1.622,2.178 -2.49,3.29 -3.069,5.226c-0.797,2.666 -1.39,3.856 -1.712,10.767c-0.178,3.837 0.209,8.152 0.131,12.227c-0.082,4.318 -1.235,9.906 -0.624,13.682c0.53,3.273 3.386,6.608 4.291,8.973c0.636,1.662 1.139,5.215 1.139,5.215c0,0 -4.02,-0.462 -5.949,-1.036c-2.245,-0.667 -5.444,-1.448 -7.519,-2.967Z" style="fill:#0079ff;"/><path d="M647.845,405.481l20.949,-30.562c0,0 7.986,-5.487 12.166,-7.927c8.472,-4.946 13.369,-11.309 26.684,-8.689c6.82,1.343 13.598,5.397 17.321,13.695c6.722,14.979 16.093,18.148 30.551,22.406c13.502,3.976 31.023,8.297 40.855,9.881c5.971,0.962 12.114,-0.893 18.14,-0.377c9.17,0.786 12.475,4.417 19.257,5.762c25.764,5.112 30.094,17.514 35.764,31.385c3.563,8.715 3.62,21.901 7.976,32.995c4.777,12.165 7.621,17.129 12.596,25.037c6.026,9.579 16.652,23.201 23.563,32.437c10.882,14.544 33.751,24.839 59.694,24.377c8.917,-0.159 18.007,-1.661 20.818,-1.305c8.113,1.027 19.916,3.643 27.86,7.449c7.539,3.611 16.333,11.25 19.803,15.385c0.037,0.212 -3.83,13.53 -3.969,13.445c7.648,2.238 4.657,11.976 3.883,17.211c-0.792,5.355 -3.86,13.214 -9.504,14.774c-12.752,3.524 -13.947,1.815 -23.93,-2.842c-7.921,-3.695 -17.863,-8.915 -25.515,-8.32c-20.629,1.605 -20.16,14.198 -19.987,23.811c0.142,7.861 -0.946,16.689 -2.326,23.472c-2.64,12.974 -9.13,12.888 -18.67,12.361c-7.858,-0.434 -22.622,-2.782 -29.269,-5.057c-4.309,-1.475 -7.829,-5.34 -10.617,-8.597c-1.786,-2.085 -11.546,-8.359 -13.603,-8.549c-10.291,-0.949 -14.152,-2.234 -22.509,-4.731c-9.34,-2.791 -19.444,-5.055 -26.42,-6.851c-8.488,-2.185 -12.128,-1.927 -23.008,1.503c-2.431,0.766 -4.081,-1.816 -7.817,-1.933c-16.13,-0.506 -25.581,2.23 -35.129,8.866c-10.82,7.521 -15.257,11.471 -22.488,20.396c-4.671,5.766 -8.145,17.56 -13.986,24.861c-5.785,7.231 -9.143,7.088 -18.375,10.648c-25.882,9.982 -42.243,12.001 -67.457,1.964c-21.135,-8.413 -28.22,-20.013 -34.484,-31.565c-2.805,-5.173 -4.167,-12.851 -3.852,-19.051c0.479,-9.451 4.796,-15.681 5.877,-19.214c2.798,-9.139 4.707,-13.932 7.924,-19.215c2.928,-4.809 8.67,-7.546 11.379,-12.482c1.313,-2.391 1.238,-5.154 2.212,-8.07c1.127,-3.374 3.216,-6.952 3.398,-10.398c0.403,-7.636 -3.352,-18.171 -3.188,-27.347c0.169,-9.489 -0.02,-21.188 4.202,-29.586c2.412,-4.8 4.428,-7.868 6.951,-11.711c2.59,-3.943 4.343,-8.379 4.012,-12.942c-0.35,-4.821 -2.48,-11.135 -4.625,-17.864c-1.731,-5.431 -3.316,-8.549 -2.906,-17.191c0.767,-16.17 -0.201,-61.745 -0.201,-61.745Zm72.15,270.782c1.454,-1.562 3.551,-4.327 4.669,-6.043c1.08,-1.657 3.441,-2.811 4.691,-1.914c0.964,0.692 2.318,3.081 1.859,4.702c-0.84,2.967 -4.841,10.391 -6.898,13.099c-1.269,1.67 -3.646,2.757 -5.445,3.151c-2.629,0.575 -5.728,-1.977 -5.554,-4.217c0.132,-1.679 1.507,-3.988 2.62,-5.452c1.059,-1.392 2.866,-2.046 4.058,-3.326Zm-46.892,-45.805c5.412,-5.017 16.729,-15.737 23.688,-20.134c5.735,-3.624 14.167,-5.836 19.32,-4.146c5.074,1.665 10.133,7.21 11.592,12.57c1.459,5.36 -0.367,13.639 -2.839,19.591c-2.513,6.05 -6.002,11.784 -9.449,17.077c-4.074,6.254 -13.161,14.797 -17.109,18.985c-2.058,2.184 -6.577,6.146 -6.577,6.146c0,0 -5.722,1.042 -8.572,1.623c-3.885,0.791 -10.189,2.372 -14.74,3.127c-5.034,0.834 -9.84,-2.077 -12.656,-7.094c-2.722,-4.85 -3.458,-14.592 -0.791,-21.423c2.284,-5.848 6.327,-11.963 9.349,-16.35c2.513,-3.648 5.535,-6.96 8.784,-9.972Zm-32.16,-5.613c1.186,-1.625 2.713,-3.022 3.666,-4.793c1.006,-1.869 1.05,-4.851 2.369,-6.417c1.41,-1.676 5.429,-1.872 7.306,-0.887c1.788,0.937 3.471,3.604 2.667,5.805c-0.801,2.194 -3.801,5.306 -5.614,7.65c-1.691,2.187 -3.496,4.778 -5.26,6.412c-2.282,2.112 -3.818,2.594 -5.976,2.636c-1.906,0.037 -3.419,-2.792 -2.961,-4.969c0.358,-1.702 2.558,-3.732 3.803,-5.437Zm148.621,-120.777c1.335,-1.831 2.532,-2.188 4.674,-1.447c6.094,2.106 31.155,15.644 31.155,15.644l1.819,5.121c0,0 -6.116,13.389 -8.253,16.566c-1.51,2.245 -3.238,2.985 -5.589,1.788c-5.811,-2.959 -30.563,-16.264 -30.563,-16.264l-1.403,-3.359c0,0 5.864,-14.896 8.16,-18.049Zm-109.186,2.031c-0.228,-4.834 5.378,-11.617 10.699,-11.31c5.998,0.346 9.836,5.383 10.347,10.918c0.472,5.126 -5.622,10.838 -9.967,10.408c-4.936,-0.488 -10.865,-5.474 -11.079,-10.016Zm20.581,-97.74c1.55,-1.837 5.384,-3.797 8.752,-3.214c2.969,0.514 5.682,2.816 5.904,6.438c0.269,4.382 -5.24,10.869 -9.385,11.082c-5.056,0.259 -8.49,-2.657 -8.401,-8.135c0.041,-2.545 1.512,-4.253 3.13,-6.171Z" style="fill:#0079ff;"/><path d="M1287.73,762.544c0,0 10.522,11.859 15.438,16.72c4.449,4.401 8.495,9.574 14.054,12.447c6.768,3.499 17.828,5.331 26.554,8.544c9.718,3.578 21.814,9.188 31.755,12.925c9.194,3.457 20.105,6.532 27.893,9.5c6.413,2.444 18.838,8.31 18.838,8.31" style="fill:none;stroke:#0079ff;stroke-width:1.25px;"/><path d="M1484.76,891.901c0,0 0.995,1.48 1.294,2.31c0.513,1.426 5.382,4.648 10.579,5.041c6.377,0.483 18.477,-1.421 27.376,0.61c9.02,2.059 19.9,8.35 26.742,11.742c4.989,2.474 9.319,6.216 14.312,8.614c4.993,2.398 11.348,2.786 15.646,5.774c4.298,2.988 8.132,9.091 10.143,12.152c1.191,1.813 1.923,6.216 1.923,6.216" style="fill:none;stroke:#0079ff;stroke-width:1.25px;"/><path d="M1706.06,1001.33c0,0 9.732,2.142 14.426,3.776c5.324,1.853 17.519,7.345 17.519,7.345" style="fill:none;stroke:#0079ff;stroke-width:1.25px;"/><path d="M1767.96,1027.49c0,0 18.042,14.561 25.1,21.091c6.16,5.699 12.132,10.77 16.03,14.989c3.35,3.626 9.273,3.082 12.332,4.594c5.308,2.624 14.859,10.727 18.717,15.839c2.746,3.638 8.547,8.017 11.491,9.513c2.52,1.281 5.732,1.643 7.881,3.48c2.514,2.15 6.452,9.145 9.266,11.778c3.151,2.949 6.499,3.301 11.095,5.193c4.742,1.951 6.098,3.379 9.743,7.482c1.941,2.185 3.915,3.368 6.313,4.495c3.567,1.678 7.36,2.666 9.698,3.628c2.497,1.027 3.415,3.835 4.957,6.151c1.5,2.253 5.086,3.313 6.532,5.329c1.38,1.922 0.758,4.917 1.859,7.012c2.639,5.021 9.948,17.633 13.976,23.119c2.797,3.809 7.307,7.373 10.479,9.55c2.54,1.744 6.223,1.494 8.55,3.515c1.597,1.388 4.712,3.537 6.894,6.078c2.874,3.346 4.849,7.243 6.766,9.697c2.48,3.174 3.851,7.173 6.585,10.13c3.514,3.803 10.599,8.751 14.501,12.687c3.31,3.338 6.594,7.897 8.913,10.93c0.868,1.137 0.853,2.778 1.671,4.026c0.864,1.318 2.558,2.238 3.329,3.246c1.221,1.594 4.009,4.496 4.009,4.496" style="fill:none;stroke:#0079ff;stroke-width:1.25px;"/></g><g id="routen"></g></g></svg>