<?xml version="1.0" encoding="UTF-8" standalone="no"?><!DOCTYPE svg PUBLIC "-//W3C//DTD SVG 1.1//EN" "http://www.w3.org/Graphics/SVG/1.1/DTD/svg11.dtd"><svg width="100%" height="100%" viewBox="0 0 2061 1791" version="1.1" xmlns="http://www.w3.org/2000/svg" xmlns:xlink="http://www.w3.org/1999/xlink" xml:space="preserve" xmlns:serif="http://www.serif.com/" style="fill-rule:evenodd;clip-rule:evenodd;stroke-linejoin:round;stroke-miterlimit:2;"><MetaInfo xmlns="http://www.prognoz.ru"><Geo><GeoItem X="0" Y="0" Latitude="51.24177020918754" Longitude="7.105611562728882"/><GeoItem X="2550" Y="1994" Latitude="51.236776961813064" Longitude="7.115809321403503"/></Geo></MetaInfo><g><g id="Wege"><path d="M1518.82,1492.32l-0.052,-0.011c0,0 4.529,-21.86 5.224,-27.158c0.207,-1.57 0.205,-3.879 -1.048,-4.632c-1.253,-0.753 -4.456,-0.656 -6.471,0.113c-3.473,1.326 -9.62,5.154 -14.369,7.843c-6.389,3.618 -15.744,9.678 -23.97,13.865c-10.984,5.59 -33.725,17.391 -41.935,19.677c-7.35,2.048 -14.496,4.979 -21.918,6.748c-8.278,1.973 -18.486,4.732 -27.818,5.031c-18.417,0.59 -19.676,0.276 -28.151,-2.633c-3.766,-1.292 -5.246,-1.978 -10.97,-4.728c-3.995,-1.92 -8.142,-4.509 -11.245,-5.824c-2.992,-1.268 -6.205,-1.913 -9.415,-2.983c-5.173,-1.724 -10.411,-3.863 -15.248,-6.326c-9.857,-5.018 -24.286,-12.205 -34.314,-21.148c-5.307,-4.733 -10.908,-9.81 -15.908,-16.054c-5.174,-6.461 -9.736,-14.117 -14.577,-20.585c-10.288,-13.748 -21.177,-32.536 -31.241,-45.845c-9.006,-11.909 -29.147,-34.012 -29.147,-34.012l-23.002,-26.372l-37.007,-17.99l-62.034,-18.656l-0.007,0.043c0,0 -44.832,-13.24 -60.258,-18.336c-10.931,-3.611 -31.426,-11.002 -41.173,-17.127c-13.897,-8.734 -27.646,-19.509 -42.187,-35.53c-7.614,-8.39 -15.636,-17.789 -22.196,-28.242c-6.154,-9.806 -11.662,-20.332 -15.162,-29.398c-5.33,-13.805 -11.514,-37.449 -13.899,-46.863l-0.004,-0.002c0,0 -2.037,-7.832 -2.979,-11.766c-1.941,-8.107 -6.962,-29.742 -8.667,-36.874c-0.475,-1.986 -1.059,-4.619 -1.565,-5.921c-0.289,-0.744 -0.754,-1.541 -1.473,-1.889c-1.605,-0.778 -5.419,-3.013 -8.158,-2.778c-2.739,0.235 -5.797,2.769 -8.548,4.178c-3.188,1.633 -10.58,5.618 -10.58,5.618l-0.1,-0.102c-1.678,0.855 -3.554,1.849 -4.795,2.619c-3.936,2.445 -13.664,6.965 -19.712,9.019c-5.334,1.812 -11.532,2.244 -16.574,3.305c-4.574,0.962 -9.61,0.768 -13.683,3.061c-6.063,3.414 -9.33,8.889 -12.166,12.159c-1.943,2.241 -2.572,5.56 -4.848,7.462c-3.111,2.598 -4.317,4.716 -13.887,7.77c-6.316,2.015 -23.409,6.065 -23.409,6.065l-8.721,4.514c0,0 3.672,6.499 3.113,11.309c-0.663,5.701 -6.571,10.909 -6.571,10.909c0,0 -0.175,19.922 0.566,29.844c0.754,10.1 3.958,30.754 3.958,30.754l-5.791,4.982l1.12,9.225l-3.926,4.925l1.654,10.932l-2.485,3.197l1.814,13.021l-15.197,-3.016l-0.575,-3.264l2.479,0.105l-4.138,-25.279l3.039,-3.554l-0.816,-8.255l10.637,-9.161c0,0 -3.545,-31.501 -3.558,-45.368c-0.011,-12.663 2.066,-27.825 3.48,-37.831c1.062,-7.512 2.67,-16.489 5.004,-22.205c1.898,-4.652 5.594,-8.985 8.997,-12.092c0.437,-0.399 1.547,-1.22 1.547,-1.22c0,0 1.468,-21.051 1.955,-32.826c-0.082,-1.307 -0.383,-5.771 -0.804,-8.152c-0.607,-3.435 -2.836,-8.326 -2.815,-12.091c0.01,-1.756 0.697,-4.266 1.406,-6.391c-1.971,-1.72 -4.153,-4.063 -4.092,-6.67c0.077,-3.328 1.437,-7.365 3.376,-10.596c1.643,-2.737 2.797,-5.973 2.971,-10.731c0.13,-3.544 1.527,-6.389 4.876,-8.625c3.705,-2.472 11.712,-2.939 18.995,-7.904c4.061,-2.769 6.2,-7.857 10.404,-10.402c4.45,-2.694 9.585,-2.066 14.952,-4.345c6.068,-2.577 15.709,-7.108 19.758,-10.093c3.444,-2.538 2.921,-8.626 2.921,-8.626l4.606,-3.846c0,0 15.82,7.269 24.736,8.502c8.158,1.128 22.308,1.178 28.761,-1.105c5.916,-2.094 10.582,-7.311 14.033,-12.554c1.843,-2.8 4.434,-6.902 7.534,-11.897c-2.629,-1.414 -5.537,-2.982 -6.82,-3.686c-2.016,-1.106 -3.211,-1.928 -4.821,0.281c-3.015,4.135 -16.726,21.593 -16.726,21.593l-28.381,-6.3c0,0 -1.451,-4.408 -1.869,-6.684c-0.66,-3.588 -2.023,-5.989 -7.392,-7.4c-3.724,-0.978 -9.114,-2.149 -13.733,-1.944c-7.853,0.348 -22.229,1.75 -33.137,4.337c-12.891,3.058 -44.207,14.007 -44.207,14.007l-2.753,-3.453l-40.809,13.531l-24.661,-14.611l-0.009,0.013l-35.157,-21.234l-22.023,-6.082l-13.051,-0.036l-3.135,7.618l-10.585,0.284l-3.428,-6.793l-9.366,0.105l-2.733,7.499l-14.071,0.446l-2.848,-7.206l-34.604,1.62l0.065,0.162l-2.318,2.468l0.153,15.368l-45.26,54.299l-53.341,0.326c-0.25,0.375 -0.655,0.981 -1.181,1.777l-1.41,2.157l-0.005,-0.006c-4.598,7.029 -13.468,20.943 -17.398,29.533c-8.868,19.381 -23.933,60.704 -32.925,82.397c-6.66,16.068 -16.396,35.939 -21.023,47.759c-2.931,7.488 -5.709,18.262 -6.737,23.162c-0.428,2.044 -0.428,4.51 0.568,6.24c0.996,1.729 3.304,3.113 5.244,4.29c5.268,3.197 26.366,14.892 26.366,14.892l6.284,32.205l34.857,10.687l35.915,9.696l8.268,-5.488l19.781,4.28l2.201,3.518l16.579,3.289l15.491,-11.38l-0.947,-1.439l4.8,-3.272l10.032,13.935l-3.933,2.887l3.389,5.687l10.246,2.257l4.33,-4.17l33.079,7.222l0.344,0.098l-3.124,11.962l-17.534,-3.361l-4.216,3.439l-11.065,-1.946l-2.261,1.913c0,0 -20.266,-2.082 -30.323,-3.671c-10.927,-1.727 -35.31,-6.543 -35.31,-6.543l-3.112,3.418l-10.513,-2.534l-1.24,-3.923l-21.128,-5.747l-3.417,3.094l-10.346,-2.77l-0.861,-4.113l-7.765,-2.289l-3.073,2.99l-10.387,-2.981l-0.918,-4.112l-35.198,-10.998c0,0 -25.486,-8.608 -31.364,-14.563c-5.724,-5.799 -3.904,-21.167 -3.904,-21.167c0,0 1.503,-19.11 2.745,-28.581c1.524,-11.622 2.997,-16.281 7.728,-27.685c2.202,-5.307 5.125,-12.008 8.325,-19.314c0.251,-0.983 1.089,-4.45 0.793,-5.851c-0.328,-1.55 -1.454,-3.189 -2.942,-3.732c-2.562,-0.935 -8.24,-1.93 -12.429,-1.876c-5.2,0.068 -13.08,0.182 -18.766,2.281c-5.685,2.099 -10.256,6.764 -15.348,10.311c-5.514,3.841 -11.671,8.791 -17.736,12.731c-6.097,3.961 -12.132,8.275 -18.731,11.427c-6.902,3.296 -14.773,6.81 -22.68,8.35c-8.358,1.627 -18.309,1.801 -27.469,1.414c-9.666,-0.408 -20.376,-2.417 -30.533,-3.863c-10.902,-1.553 -25.174,-3.045 -34.877,-5.452c-8.094,-2.008 -15.81,-5.257 -23.279,-8.739c-6.035,-2.814 -16.325,-5.064 -24.178,-5.151c-7.808,-0.087 -17.232,2.719 -23.011,4.374c-4.141,1.186 -7.871,3.517 -11.665,5.556c-3.865,2.077 -11.528,6.909 -11.528,6.909l21.332,-88.19c0,0 2.247,7.941 4.583,11.247c3.363,4.758 3.347,17.542 9.282,26.639c6.972,10.685 19.176,19.226 30.006,24.187c9.817,4.497 23.584,9.936 37.796,13.121c18.659,4.181 38.283,6.028 50.229,7.302c11.049,1.179 22.531,1.445 33.283,-1.328c10.951,-2.824 22.63,-9.491 32.311,-15.823c9.551,-6.246 23.517,-19.013 33.695,-23.73c10.624,-4.925 19.586,-5.21 28.525,-5.492c4.239,-0.134 9.187,1.293 12.66,1.279c2.765,-0.01 5.765,-0.017 8.182,-1.359c1.332,-0.74 3.304,-3.227 5.094,-5.608c1.053,-2.495 2.075,-4.947 3.051,-7.329c8.338,-20.352 19.263,-50.492 26.056,-66.405c4.264,-9.987 12.058,-23.413 14.704,-29.07c0.707,-1.512 1.581,-3.612 1.17,-4.87c-0.41,-1.258 -2.18,-3.068 -3.634,-2.678c-2.272,0.61 -6.961,3.82 -10.001,6.336c-3.945,3.264 -13.79,10.529 -21.066,15.841l0.019,0.021l-1.077,0.751c-4.359,3.177 -7.561,5.485 -7.561,5.485l-0.11,-0.203c-5.034,3.371 -16.032,10.614 -22.311,13.844c-7.995,4.113 -16.114,8.601 -24.93,10.367c-11.066,2.216 -28.55,3.046 -41.751,3.071l-6.449,0.676c0,0 -8.266,0.553 -12.199,1.739c-9.592,2.892 -22.564,8.023 -29.524,14.309c-4.048,3.656 -8.401,7.008 -12.096,11.021c-5.444,5.912 -7.41,11.639 -9.029,19.28c-1.314,6.201 -1.212,18.977 -1.212,18.977l-7.989,0.581l-2.544,-37.26l15.436,-23.148c0,0 6.311,-0.814 9.129,-1.629c2.653,-0.767 7.781,-3.258 7.781,-3.258l-1.257,-5.279c-14.53,-2.749 -31.957,-6.761 -45.521,-10.237c-16.31,-4.179 -36.122,-11.233 -48.284,-14.829c-8.182,-2.419 -17.538,-5.533 -24.69,-6.744c-5.992,-1.015 -13.057,-1.281 -18.224,-0.522c-4.534,0.666 -8.965,3.132 -12.933,4.778c-3.705,1.537 -10.876,5.099 -10.876,5.099c0,0 8.39,-27.462 12.777,-38.871c3.894,-10.13 7.759,-20.404 13.541,-29.587c3.994,-6.344 12.267,-18.36 20.243,-29.068c9.133,-12.261 17.794,-22.898 17.794,-22.898l-1.017,-0.951l7.1,-7.389l-2.08,-2.054c0,0 -5.395,7.412 -31.734,20.327c-5.545,2.719 -12.558,4.735 -17.278,6.604c-5.41,2.142 -7.54,2.4 -10.209,6.516c-1.358,2.094 -3.549,6.593 -3.549,6.593l-3.557,7.171c0,0 -12.2,-4.859 -17.401,-6.4c-4.505,-1.334 -9.108,-2.793 -13.806,-2.845c-8.375,-0.092 -36.447,2.292 -36.447,2.292c0,0 -3.368,-14.111 -4.476,-18.263c-0.601,-2.254 -1.289,-4.492 -2.171,-6.651c-1.018,-2.489 -3.936,-8.285 -3.936,-8.285l7.398,-7.084l7.669,-5.11l-16.997,-54.899l7.825,-8.634l-6.222,-16.141l52.089,-21.19l3.937,10.664l19.915,-0.948l9.865,24.932l9.554,21.143l0.711,4.448l15.089,36.755l13.215,7.53l16.205,-9.331c0,0 12.598,-9.551 18.865,-14.368c9.289,-7.139 24.748,-18.764 36.87,-28.466c6.736,-5.391 16.293,-11.95 24.864,-19.009c9.231,-7.604 18.08,-14.972 22.215,-19.711c1.848,-2.12 5.476,-5.36 5.476,-5.36l0.653,-0.598c4.107,-3.749 26.667,-24.143 40.375,-32.305c16.006,-9.529 41.646,-19.314 55.008,-24.275c8.049,-2.989 19.514,-3.746 25.166,-5.493c3.207,-0.992 6.692,-2.954 8.749,-4.991c1.912,-1.893 3.034,-4.597 3.59,-7.23c0.119,-0.563 0.196,-1.29 0.242,-2.098c-0.433,-0.945 -0.758,-1.768 -0.782,-2.15c-0.262,-4.182 -1.923,-8.329 -4.643,-12.428c-6.192,-9.331 -16.451,-33.943 -20.539,-47.739c-3.363,-11.353 -5.615,-24.436 -6.296,-34.318c-0.162,-2.347 -0.149,-5.855 -0.095,-8.817c-1.055,-7.39 2.068,-27.296 4.988,-40.344c3.215,-14.371 8.061,-29.773 11.626,-44.963c3.933,-16.756 6.342,-24.557 6.081,-57.026c-0.111,-13.8 0.419,-27.314 1.493,-40.921c1.668,-21.134 6.706,-54.41 13.64,-76.002c7.148,-22.258 19.232,-40.892 29.286,-53.017c10.084,-12.16 25.029,-24.131 25.029,-24.131c1.587,-1.153 14.56,-10.552 23.36,-16.04c15.465,-9.644 40.538,-14.089 54.031,-14.426c7.141,-0.178 20.324,2.688 26.435,5.283c13.559,5.755 35.503,27.825 49.056,40.67c7.846,7.437 18.515,14.778 25.321,17.979c9.076,4.27 10.657,3.391 15.996,0.161c2.098,-1.269 6.227,-3.915 6.227,-3.915l-9.479,-14.473l53.298,-35.151l5.948,9.025l-5.525,3.616l9.539,14.297l-8.384,4.836c-1.301,0.771 -2.303,2.046 -2.688,3.631c-0.433,1.787 0.011,3.583 1.056,4.932l28.328,38.976c-2.473,0.992 -4.48,3.076 -5.27,5.834c-0.717,2.502 -0.291,5.063 0.968,7.122l-0.005,0.004c0,0 33.951,51.545 37.647,56.434c4.902,6.486 12.111,11.686 21.408,11.686c6.117,0 11.703,-2.056 15.946,-5.437c0,0 167.163,-113.345 202.414,-136.033c5.192,-3.341 7.028,-3.207 10.378,1.927c3.523,5.397 13.244,20.526 20.214,31.386l0.57,0.1c0,0 6.587,12.094 11.103,17.216c7.265,8.24 13.866,13.666 27.582,18.118c24.537,7.964 100.501,16.447 125.424,19.275l0.003,-0.019l0.267,0.05l1.958,0.222c1.221,0.139 3.632,0.625 3.632,0.625l-0.015,0.1c1.959,0.304 4.022,0.587 5.516,0.695c15.803,1.146 58.447,5.934 83.456,5.185c22.422,-0.672 53.941,0.421 70.854,-11.044c6.133,-4.158 10.41,-9.902 9.492,-15.397c-0.919,-5.495 -5.084,-12.877 -19.241,-15.743c-3.624,-0.733 -7.322,-1.349 -14.562,-2.492l-7.238,-1.594l1.385,-11.757c0,0 29.411,3.082 36.901,3.353c2.738,0.099 6.515,-0.981 8.039,-1.725c0.884,-0.432 0.985,-1.762 1.104,-2.739c0.301,-2.454 0.647,-9.3 0.699,-11.982c0.058,-2.994 -0.977,-3.616 -2.502,-4.013c-4.89,-1.276 -21.339,-2.816 -26.839,-3.64c-2.076,-0.311 -5.665,-1.085 -7.701,-0.572c-3.933,0.993 -4.388,0.559 -6.552,0.102c-5.438,-1.147 -27.039,-2.625 -35.181,-4.915c-8.521,-2.397 -11.023,-4.673 -17.795,-11.077c-6.569,-6.212 -10.725,-13.771 -15.764,-22.289c-5.627,-9.509 -12.495,-22.488 -16.144,-33.154c-3.384,-9.895 -5.149,-23.286 -6.017,-30.641c-0.519,-4.403 1.906,-12.386 -1.021,-15.716c-2.77,-3.149 -7.635,-4.508 -12.848,-10.4c-7.125,-8.054 -9.996,-14.227 -12.595,-22.384c-3.168,-9.939 -4.725,-24.764 -6.409,-37.25c-1.771,-13.136 -3.359,-30.917 -4.222,-41.571c-0.603,-7.432 -0.96,-21.849 -0.96,-21.849l32.286,13.164l225.081,19.559l0.264,-5.005l17.561,1.228l-0.369,5.283l-4.327,-0.351l-2.975,45.819l10.428,14.693l-0.038,0.022l0.504,0.715l13.088,0.661c0,0 -0.398,8.339 -0.302,12.508c0.12,5.264 1.708,14.219 2.133,23.481c0.349,7.609 -0.431,15.43 -0.511,21.534c-0.157,12.096 -2.867,28.137 -2.84,36.253c0.014,4.16 2.843,12.006 2.997,12.43l4.331,-4.482c0.074,0.007 0.148,0.012 0.222,0.014c0.213,0.005 0.405,-0.046 0.579,-0.142l4.493,10.943c-1.909,0.174 -2.726,1.851 -2.668,2.912c0.136,2.473 2.743,3.8 3.861,3.944c0.905,0.116 2.443,-1.229 2.934,-2.352l9.003,6.006c-0.037,0.181 -0.053,0.416 -0.048,0.719c0.018,1.197 -0.098,2.813 2.073,2.951c2.281,0.145 3.293,-0.114 3.473,-1.283l7.461,1.964c-0.025,0.179 -0.034,0.374 -0.024,0.584c0.046,1.036 0.346,1.747 0.777,2.245l-0.448,1.918c0,0 1.249,0.04 1.873,0.012c7.521,-0.332 11.924,-3.217 16.731,-6.852c5.518,-4.175 11.593,-11.585 16.378,-18.194c7.441,-10.278 20.574,-30.321 28.266,-43.472c6.68,-11.422 13.386,-27.094 17.657,-35.638c2.625,-5.252 7.968,-15.625 7.968,-15.625l26.386,0.134l3.144,27.554l0.439,4.774l0.004,0l0.056,0.645l0.25,2.724l-0.016,0.002l0.024,0.283l9.475,-0.678l2.521,20.53l-9.07,0.615c0,0 3.578,26.228 4.668,39.412c1.002,12.114 2.456,27.349 2.788,41.188l14.099,8.411l0.502,9.242l5.643,1.016l3.073,23.578l-0.162,0.101l1.037,7.597l0.136,0.058l0.195,1.493l-16.043,15.731l-16.824,1.684c-3.278,12.629 -7.5,26.027 -11.698,38.534c-5.54,16.505 -18.831,49.504 -21.017,54.912c-0.022,0.065 -0.042,0.126 -0.061,0.185c-0.446,1.419 -2.436,5.602 -2.101,7.604c0.417,2.493 2.232,4.386 4.602,7.354c6.978,8.736 24.151,30.036 37.132,44.092c17.527,18.977 66.787,70.111 90.049,94.21c0.614,-0.553 1.235,-1.102 1.654,-1.445c1.45,-1.191 1.83,-1.668 0.879,-4.067c-3.305,-8.337 -10.197,-27.133 -17.496,-46.219c-6.542,-17.108 -13.506,-34.353 -16.908,-46.092c-5.324,-18.369 -9.395,-41.129 -7.521,-56.926c1.69,-14.243 11.82,-27.958 18.767,-37.857c6.023,-8.581 13.886,-16.664 22.918,-21.539c9.031,-4.874 20.725,-5.695 31.27,-7.71c9.661,-1.846 22.146,-5.423 33.114,-6.124l7.769,-12.698l-0.122,0.793l8.539,1.315l-1.386,11.813c1.949,0.451 3.805,0.996 5.584,1.62l5.135,-11.997l9.26,1.426l3.235,20.022c1.049,0.718 2.09,1.446 3.131,2.178c9.518,6.697 18.094,18.207 23.624,25.771c4.292,5.871 9.557,19.613 9.557,19.613c0,0 2.301,7.138 1.583,10.657c-1.767,8.659 -8.39,28.093 -12.187,41.299c-3.627,12.619 -7.614,25.151 -10.592,37.938c-3.323,14.271 -7.786,32.232 -9.345,47.69c-1.506,14.944 -1.219,31.221 -0.004,45.059c1.127,12.839 3.876,26.538 7.006,38.291c2.96,11.117 6.233,23.637 11.772,32.226c0.18,0.28 0.346,0.579 0.496,0.895l0.014,-0.016l2.547,5.67c0,0 -0.539,2.094 -0.312,4.716c0.258,2.972 1.316,6.64 1.903,9.016c2.428,9.848 9.662,30.914 12.98,45.352c3.125,13.597 6.216,29.784 6.929,41.276c0.574,9.25 -1.145,18.532 -2.651,27.676c-1.576,9.576 -4.603,19.839 -6.808,29.781c-2.595,11.701 -5.779,27.248 -8.762,40.429c-2.922,12.913 -9.136,38.655 -9.136,38.655l1.269,-0.011l9.165,8.334l-1.942,8.574l-7.504,0.454l-0.829,4.771l-5.043,1.151l-8.275,42.692c0,0 -4.665,33.505 -5.552,50.375c-0.941,17.894 -0.212,45.246 -0.094,56.991c0.045,4.499 -0.138,9.314 0.802,13.476c0.915,4.055 3.455,8.998 4.837,11.496l0.031,0.054c0.122,0.128 0.242,0.253 0.358,0.375c0.953,0.991 1.951,1.993 2.987,3l0.076,0.06l-0.009,0.006c10.501,10.204 24.651,20.909 31.772,26.995c4.016,3.432 9.773,7.457 12.299,9.995c1.402,1.41 2.742,3.185 2.854,5.237c0.037,0.669 0.195,2.002 0.195,2.002c0,0 21.12,22.378 26.206,27.718c1.403,1.473 4.309,4.319 4.309,4.319l5.486,2.82l0.012,1.591l6.363,3.082l0.241,1.607l0.067,0.065l3.738,2.758c0,0 5.915,-2.281 8.381,-3.896c2.411,-1.58 4.17,-3.991 6.416,-5.797c2.451,-1.971 8.294,-6.032 8.294,-6.032l2.462,3.264c0,0 4.825,-1.483 6.827,-1.669c1.732,-0.161 5.188,0.55 5.188,0.55l6.062,-5.01c0,0 -2.761,-2.976 -4.33,-4.16c-1.564,-1.18 -5.085,-2.943 -5.085,-2.943l1.287,-2.522l-1.959,-0.989l0.45,-1.255l1.489,0.136l0.695,-2.193l6.954,-0.11l2.066,1.514l-1.593,3.149l5.967,4.471c0,0 3.16,-1.39 4.339,-2.24c1.071,-0.772 2.739,-2.862 2.739,-2.862l-7.646,-10.489l5.036,-6.498l3.508,-2.066l8.444,3.943l5.14,-6.825l-5.209,-2.646l2.847,-4.445l2.836,0.135l1.441,-3.404l-1.958,-0.796l0.292,-1.278l1.093,0.024l0.265,-2.361l8.203,-0.088l2.131,11.886l-1.581,0.394l-2.54,8.929l1.35,2.024l4.673,-0.026l0.225,2.153l2.358,0.809l-0.07,4.689l-1.518,2.842l-11.651,-3.563l-4.884,8.583c0,0 4.783,1.877 8.306,1.972c3.209,0.087 10.26,3.15 10.26,3.15l-1.343,4.787l-9.713,-2.591l-1.951,3.707l9.307,3.741l-2.203,1.92c0,0 -5.309,-1.154 -7.853,-2.086c-2.579,-0.945 -7.624,-3.584 -7.624,-3.584l-3.009,5.166c0,0 4.458,4.125 7.018,5.724c2.615,1.633 5.574,3.301 8.673,4.077c3.315,0.83 11.221,0.902 11.221,0.902l5.212,3.33l-0.223,2.11l-4.349,3.21l-1.811,-0.802l-3.763,1.802c0,0 -4.207,-1.094 -6.069,-2.164c-2.187,-1.257 -7.052,-5.38 -7.052,-5.38l-2.001,-0.215l-0.092,1.289l-1.648,-1.115l-1.598,1.755l0.561,2.186l-1.87,1.085l-1.535,-1.564l-0.262,-1.734l-2.298,-1.736l-0.999,1.018l-1.61,-1.201l-2.279,1.385l-0.583,2.205l-3.134,2.771l-3.068,-1.048l-2.903,3.317l-3.812,0.065l-0.528,0.895l-5.191,-0.486l-1.624,3.236l-2.041,0l0.759,-2.966l-7.027,-2.413l-1.382,2.643l-2.915,0l-0.442,-1.297l-6.424,-2.659l-1.427,0.827l-2.976,-0.478l0.149,3.361l1.912,1.975l-1.73,0.929l0.054,1.96l-5.219,-0.193l-0.001,0.011l0.862,4.414l6.209,6.326l1.446,3.691l3.401,2.646l0.001,4.206l5.474,8.427l-0.06,3.907l-0.583,1.563l6.44,0.515l-0.833,3.097l0.778,1.2l-0.71,2.916l-1.589,-1.29l-0.971,1.782l0.556,1.948l-2.484,-1.339l-0.641,9.587l8.809,2.625l3.685,-0.117l2.381,8.123l-7.187,0.323l-1.379,1.79l0.513,1.517l3.988,1.318l0.836,-1.403l3.469,1.347l-4.661,7.005l-4.771,-0.689l-4.012,-2.092l-4.124,4.016c0,0 -3.914,14.51 -5.283,18.815c-1.292,4.067 -2.345,4.926 -4.152,6.593c-1.296,1.195 -4.042,3.409 -4.042,3.409l2.622,18.758l-6.817,1.205l-1.318,-6.097l-18.399,3.979l-1.499,-6.931l-15.647,3.383l4.294,19.857l-5.53,-4.57c0,0 -7.525,-6.6 -10.951,-8.699c-2.947,-1.805 -3.916,-3.665 -9.607,-3.896c-3.17,-0.129 -6.237,1.168 -9.339,1.83c-4.793,1.021 -14.177,2.596 -19.416,4.3c-4.246,1.38 -9.198,1.95 -12.015,5.921c-1.743,2.456 -0.637,6.243 0.526,9.021c1.488,3.552 5.287,8.428 8.402,12.292c2.475,3.07 5.119,6.357 8.992,9.46c4.435,3.553 9.451,6.452 14.899,8.943c9.916,4.534 21.758,9.696 32.681,14.442c7.686,3.34 21.352,9.172 29.625,12.695l-0.015,-0.075c0,0 7.313,2.488 10.389,4.198c2.94,1.635 6.848,3.826 8.068,6.063c1.18,2.165 0.519,5.244 -0.749,7.359c-1.664,2.775 -5.838,6.598 -9.137,9.458c-3.587,3.11 -8.683,6.712 -12.388,9.201c-3.152,2.116 -6.218,4.604 -9.845,5.729c-4.903,1.521 -12.915,2.96 -19.472,3.894c-10.066,1.432 -40.923,4.7 -40.923,4.7l-19.746,13.896l-7.066,9.462l-16.647,1.475l-11.231,-3.151l-27.859,4.186l1.808,-13.999l-4.913,-0.533l-6.543,0.423c0,0 -11.127,4.414 -16.141,7.616c-7.034,4.49 -17.731,13.06 -26.063,19.328c-8.02,6.034 -23.926,18.28 -23.926,18.28l3.074,9.406l-18.704,8.956c0,0 1.277,-5.344 0.546,-6.263c-0.731,-0.919 -3.307,0.091 -4.765,0.772c-3.988,1.864 -12.607,7.272 -19.163,10.413c-9.057,4.34 -23.394,10.548 -35.178,15.625c-11.929,5.139 -26.266,11.738 -36.4,15.215c-7.896,2.709 -17.804,4.577 -24.376,5.928c-4.973,1.023 -10.854,1.452 -15.054,2.178c-3.625,0.626 -7,1.896 -9.578,4.697c-2.329,2.532 -4.571,5.841 -6.814,7.849c-1.994,1.785 -2.304,4.228 -2.324,5.94c-1.189,0.519 -1.961,1.25 -2.173,1.885l-0.086,0.251l-1,-0.351c0.001,0.027 0.002,0.054 0.003,0.081c-0.035,-1.144 -0.533,-2.676 -2.032,-4.134c0.126,-1.885 0.178,-3.943 -0.084,-4.924c-0.429,-1.609 -1.941,-3.242 -3.575,-3.491c-1.633,-0.248 -4.276,1.023 -6.224,2.002c-2.621,1.317 -7.208,4.746 -9.506,5.901c-1.716,0.863 -2.856,2.862 -2.135,4.227c0.285,0.539 0.964,1.253 1.537,1.803c-1.109,0.802 -2.195,1.706 -2.975,2.439c-0.689,0.646 -1.619,1.549 -2.512,2.511l-6.336,-0.638c0,0 -11.267,10.977 -17.154,15.865c-5.798,4.815 -18.165,13.465 -18.165,13.465l1.148,2.647c-0.039,0.076 -0.093,0.214 -0.129,0.274c-0.119,0.197 -0.255,0.38 -0.4,0.558c-0.498,0.609 -0.701,1.211 -1.034,1.91c-0.13,0.271 -0.203,0.559 -0.232,0.858c-0.042,0.443 -0.077,0.955 0.089,1.378c0.314,0.803 1.084,1.304 1.39,2.102c0.159,0.416 0.084,0.884 0.1,1.255l0.002,0.034c-2.147,1.081 -4.7,2.225 -7.436,3.364c0.937,-0.601 0.709,-3.113 0.286,-4.901c-0.476,-2.011 -1.553,-2.459 -2.417,-2.254c-0.154,0.036 -0.298,0.153 -0.427,0.331c-0.135,-0.315 -0.26,-0.577 -0.373,-0.768c-0.553,-0.944 -2.3,-0.978 -3.253,-0.44c-1.882,1.061 -5.646,3.42 -8.498,4.308c-2.78,0.865 -6.406,1.783 -8.298,2.729c-1.265,0.633 -2.832,1.549 -3.055,2.947c-0.141,0.887 0.445,2.842 0.951,4.3c-1.358,-0.088 -2.746,-0.482 -4.055,-0.655l0.827,0.083c0.839,0.109 1.655,0.255 2.533,0.255l-2.533,-0.255c-0.272,-0.036 -0.547,-0.067 -0.827,-0.088c-1.165,-0.089 -2.485,0.007 -3.649,0.143c-1.071,0.125 -0.804,0.502 -2.114,0.073c-0.953,-0.311 -0.874,-0.414 -1.173,-1.098c-0.479,-1.095 -1.539,-1.862 -2.698,-2.103c-0.359,-0.362 -0.732,-0.653 -1.112,-0.839c-2.593,-1.265 -7.239,-0.772 -10.726,-0.163c-3.487,0.61 -7.191,1.789 -10.198,3.823c-3.32,2.245 -7.008,5.992 -9.721,9.648c-2.239,3.016 -2.973,9.764 -2.89,13.138c-0.395,0.344 -0.733,0.745 -1.106,1.13c-0.594,0.611 -2.643,1.369 -2.607,2.439c0.005,0.161 0.179,0.322 0.418,0.469l-6.887,8.761l-1.603,-2.024c0,0 -2.07,1.424 -2.68,2.477c-0.809,1.398 -0.771,4.034 -0.094,5.21c0.549,0.952 2.109,2.533 2.109,2.533c0,0 -0.826,1.697 -0.783,2.488c0.042,0.792 0.849,1.524 1.04,2.262c0.181,0.701 0.104,2.168 0.104,2.168c0,0 -6.056,3.546 -8.107,4.358c-1.311,0.519 -3.176,0 -4.198,0.514c-0.958,0.483 -1.273,2.102 -1.934,2.573c-0.557,0.396 -1.54,-0.218 -2.035,0.253c-0.979,0.932 -0.952,3.979 -1.825,5.266c-1.458,2.154 -5.638,4.645 -6.401,6.968c-0.63,1.921 -0.221,6.063 -0.221,6.063l0.098,0.295c0,0 1.037,3.586 1.126,4.866c0.069,0.994 -0.592,1.856 -0.593,2.814c-0.001,1.581 1.576,3.649 2.437,4.034c0.651,0.29 0.008,2.138 0.008,2.138l-10.405,3.314c0,0 -2.768,-11.14 -3.374,-15.243c-0.457,-3.092 -0.639,-6.695 -0.263,-9.373c0.332,-2.361 1.734,-5.262 2.521,-6.695c0.468,-0.851 1.708,-1.07 2.205,-1.904c0.86,-1.442 1.722,-4.623 2.954,-6.747c1.785,-3.078 5.766,-7.621 7.757,-11.719c1.97,-4.058 2.573,-9.442 3.636,-12.869c1.099,-3.539 0.328,-7.217 -3.367,-8.654c-2.921,-1.136 -7.663,-2.299 -11.619,-2.706c-4.869,-0.501 -11.509,-1.294 -16.304,-4.694c-6.168,-4.374 -24.486,-15.859 -24.486,-15.859l13.815,-18.206c0,0 2.656,3.458 4.339,4.813c2.047,1.647 5.361,3.283 7.943,5.073c3.995,2.77 10.839,8.053 16.028,11.547c5.7,3.837 12.775,4.373 19.322,1.068c6.269,-3.165 14.441,-6.821 21.979,-9.407c8.136,-2.79 18.056,-4.414 27.296,-5.947c9.296,-1.542 18.881,-3.01 28.046,-5.645c10.587,-3.045 24.746,-13.079 33.614,-19.732c6.522,-4.892 12.59,-10.563 18.29,-16.883c5.959,-6.607 14.663,-12.616 21.713,-16.619c6.334,-3.595 15.634,-7.558 20.023,-8.74c1.728,-0.466 3.474,-1.902 3.874,-4.408c2.381,-14.93 14.569,-78.111 17.486,-93.194Zm-87.628,170.441l-0.019,0l0.02,0l-0.001,0Zm0.153,-0.012c-0.008,0.001 -0.017,0.002 -0.026,0.003l0.052,-0.008l-0.026,0.005Zm0.346,-0.127l0.196,-0.129l-0.049,0.036l-0.13,0.085l-0.017,0.008l-0.017,0.011l-0.123,0.058c-0.015,0.006 -0.031,0.012 -0.047,0.017l0.187,-0.086Zm0.352,-0.262l0.095,-0.091l-0.149,0.139l0.054,-0.048Zm0.466,-0.492c-0.06,0.066 -0.12,0.135 -0.182,0.202l-0.094,0.101l0.276,-0.303Zm0.259,-0.271l-0.055,0.054l0.107,-0.102l-0.052,0.048Zm65.839,-45.117l0,0.004l0.001,-0.024l-0.001,0.02Zm0.007,-0.133l-0.002,0.046l0.002,-0.049l0,0.003Zm0.002,-0.069l-0.001,0.034l0.001,-0.046l0,0.012Zm0,-0.069l0,0.024l0,-0.047l0,0.023Zm0,-0.071l0,0.016l-0.001,-0.052l0.001,0.036Zm391.791,-170.576c-2.525,0.158 -4.795,0.287 -6.206,0.339c-2.022,0.074 -5.381,-0.045 -7.433,-0.134l-0.177,0.144c0,0 -22.172,-2.885 -33.29,-3.247c-12.93,-0.422 -30.849,-0.964 -44.342,0.476c-9.008,0.962 -19.071,2.713 -26.852,3.935c-6.623,1.041 -13.148,2.87 -19.849,3.059c-7.371,0.208 -18.252,-2.605 -24.379,-2.005c-7.099,0.695 -18.217,6.175 -18.217,6.175c0,0 -10.105,-11.412 -15.317,-15.112c-5.81,-4.125 -11.487,-7.511 -18.47,-10.582c-6.776,-2.979 -14.094,-4.541 -21.204,-6.6c-7.24,-2.097 -15.499,-5.015 -22.241,-5.981c-6.01,-0.861 -12.181,-0.7 -18.212,0.186c-7.796,1.145 -19.577,2.792 -28.562,6.685c-11.013,4.772 -29.127,13.33 -37.592,21.466c-3.412,3.28 -6.441,7.448 -8.412,12.013c-2.246,5.2 -3.279,10.86 -4.786,15.34c-1.683,5.005 -2.817,13.813 -3.375,18.993l0.054,0.007l-0.124,0.655c-0.221,2.109 -0.332,3.47 -0.332,3.47l-0.311,-0.064l-16.179,85.668c0,0 -1.655,4.404 2.101,4.781c2.963,0.297 10.378,-0.807 15.5,-1.693c7.38,-1.275 19.292,-4.426 28.683,-7.944c9.342,-3.501 18.811,-7.145 28.087,-11.034c9.437,-3.956 19.855,-8.582 28.531,-12.704c7.956,-3.781 15.764,-7.869 23.526,-12.033c10.72,-5.751 26.058,-17.394 36.862,-25.291c10.084,-7.372 19.889,-15.317 29.993,-22.677c10.276,-7.485 22.479,-13.704 34.984,-17.275c12.957,-3.701 28.49,-3.417 42.756,-4.927c20.449,-2.163 62.459,-5.691 79.936,-8.056c4.861,-0.658 10.42,-1.427 15.312,-2.306c4.112,-0.74 7.538,-2.632 9.603,-3.916c2.399,-1.491 5.895,-3.583 6.785,-5.074c0.706,-1.183 -0.704,-3.093 -1.449,-3.871c-0.721,-0.753 -1.994,-0.659 -3.025,-0.799c-0.627,-0.085 -1.663,-0.083 -2.377,-0.067Zm-64.772,-129.194l-0.335,0.147c0,0 -11.148,-5.825 -22.512,-12.981c-7.345,-4.624 -14.574,-9.124 -20.02,-12.968c-12.472,-8.804 -22.64,-14.104 -42.932,-14.271c-11.285,-0.093 -22.823,0.233 -33.925,2.545c-17.007,3.542 -49.325,12.689 -68.116,18.706c-8.682,2.78 -17.562,5.377 -25.69,9.611c-6.543,3.408 -12.345,8.587 -18.153,13.073c-15.926,12.301 -34.481,34.165 -51.713,51.122c-20.276,19.953 -55.766,53.701 -70.884,67.632c-6.238,5.748 -8.03,8.937 -15.266,13.363c-11.104,6.791 -38.452,22.377 -49.393,28.819c-5.456,3.213 -16.254,9.832 -16.254,9.832l-0.307,-0.014c-2.283,1.132 -4.716,2.215 -5.933,3.487c-1.346,1.409 -2.624,3.299 -1.972,5.135c1.949,5.492 8.853,2.93 13.114,2.317c8.466,-1.217 26.317,-4.785 38.011,-9.142c13.286,-4.95 27.765,-12.669 41.704,-20.556c16.586,-9.384 38.648,-21.949 54.114,-30.698c12.784,-7.232 18.964,-12.229 38.684,-21.798c13.221,-6.415 27.5,-10.501 35.366,-12.518c11.894,-3.052 30.009,-3.525 41.327,-4.75c8.872,-0.96 26.581,-2.599 26.581,-2.599c0,0 2.207,3.152 3.53,4.538c2.584,2.705 7.233,8.748 11.971,11.693c5.743,3.57 14.814,6.941 22.493,9.726c8.862,3.215 24.329,7.58 30.681,9.559c2.442,0.761 4.935,1.737 7.427,2.314c2.808,0.65 5.189,1.73 9.064,1.641c4.021,-0.093 8.622,-1.45 12.836,-2.221c8.555,-1.564 19.92,-3.928 30.022,-4.586c12.348,-0.805 27.094,-1.83 44.068,-0.241c9.177,0.859 19.938,2.385 28.352,3.108l0.002,-0.023c0,0 4.744,0.284 7.113,0.178c3.846,-0.172 12.422,-0.771 15.963,-1.211c1.81,-0.225 5.144,-0.756 5.282,-1.431c0.138,-0.676 -2.958,-1.831 -4.545,-2.504c-3.525,-1.496 -9.27,-3.653 -14.329,-5.959c-6.227,-2.84 -16.003,-6.662 -23.472,-9.982c-7.262,-3.227 -15.31,-7.191 -21.482,-10.342c-5.29,-2.701 -10.773,-5.323 -15.32,-9.1c-4.546,-3.778 -8.685,-9.147 -11.96,-13.565c-2.989,-4.032 -6.254,-9.013 -7.691,-12.945c-1.223,-3.347 -1.812,-7.603 -0.931,-10.649c0.88,-3.046 3.435,-5.885 6.214,-7.627c3.044,-1.908 7.964,-2.802 12.053,-3.825c7.505,-1.877 26.76,-5.604 32.975,-7.438c1.789,-0.528 3.716,-2.334 4.314,-3.566c0.567,-1.169 0.135,-2.855 -0.725,-3.829c-1.044,-1.184 -3.659,-2.24 -5.539,-3.271c-2.07,-1.135 -6.882,-3.539 -6.882,-3.539l-16.98,-8.397Zm-475.708,172.528l45.537,-15.29l58.431,-35.371c0,0 26.509,-24.499 39.9,-37.173c17.313,-16.387 61.881,-63.314 61.881,-63.314c0,0 19.378,-20.016 29.402,-27.9c9.524,-7.493 20.313,-14.569 30.74,-19.41c10.053,-4.666 21.251,-6.549 31.868,-9.729c11.42,-3.42 36.891,-10.156 36.891,-10.156l-0.288,-3.807l-50.042,-7.893c0,0 -31.455,-4.882 -60.874,-10.132c-17.072,-3.046 -33.496,-6.717 -42.59,-8.322c-15.032,-2.652 -30.315,-5.785 -45.128,-7.761c-14.747,-1.967 -27.945,-3.154 -44.161,-0.438c-15.727,2.633 -35.855,8.243 -50.847,11.702c-13.037,3.008 -31.813,7.376 -39.104,9.053l-0.275,0.063c-0.914,0.233 -1.892,0.472 -2.593,0.617c-0.59,0.121 -1.141,0.221 -1.659,0.303l-0.115,0.025l-0.001,-0.007c-4.219,0.654 -6.284,0.148 -10.178,0.955c-5.187,1.075 -9.312,2.747 -16.065,3.99c-8.896,1.637 -18.086,4.942 -37.29,5.073c-11.144,0.077 -22.535,-0.305 -33.126,-3.774c-23.166,-7.589 -70.781,-25.167 -106.223,-38.727c-12.262,-4.691 -26.134,-8.345 -40.34,-13.408c-31.307,-11.159 -64.908,-23.983 -91.236,-33.213c-32.638,-11.442 -79.974,-27.76 -98.068,-33.886c-3.434,-1.162 -7.573,-2.929 -10.492,-2.869c-2.576,0.054 -5.578,1.099 -7.021,3.233c-1.544,2.282 -3.161,7.014 -2.243,10.46c1.648,6.187 6.862,18.442 12.13,26.663c6.444,10.057 16.043,24.027 26.227,33.945c10.461,10.188 23.561,25.271 50.539,38.039c11.903,5.633 26.021,9.404 38.891,13.4c16.58,5.149 31.499,9.336 39.078,11.416l0.012,-0.047l1.384,0.429c2.476,0.676 3.865,1.044 3.865,1.044l-0.027,0.146l62.967,19.527l38.073,16.721l30.672,30.893c0,0 21.059,28.531 31.35,42.969c11.364,15.943 36.835,52.693 36.835,52.693l48.424,38.962l31.508,10.307l3.381,-0.001Zm561.395,-240.51c-1.889,-3.495 -3.961,-6.8 -5.741,-10.05c-7.58,-13.836 -23.328,-32.067 -35.856,-45.896c-12.094,-13.35 -30.066,-28.666 -39.312,-37.078c-5.175,-4.709 -11.879,-10.244 -16.163,-13.395c-2.957,-2.176 -7.298,-5.191 -9.31,-5.289c-1.844,-0.089 -2.468,2.882 -2.758,4.705c-0.351,2.198 0.218,5.978 0.288,8.607l0.015,-0.002c0,0 -0.003,0.101 -0.009,0.291c0.001,0.067 0.001,0.133 0.001,0.197c0.001,2.23 -0.288,6.684 -0.288,6.684l-0.009,0c-0.305,5.954 -0.858,14.254 -1.748,19.411c-1.545,8.953 -5.241,20.373 -7.215,27.137c-1.328,4.551 -2.731,9.105 -4.631,13.449c-2.173,4.968 -6.072,10.694 -8.408,16.365c-2.733,6.634 -6.677,18.33 -7.991,23.443c-1.349,5.253 -1.606,5.077 2.502,7.755c5.303,3.458 17.637,11.224 26.478,16.802c11.528,7.273 42.689,26.836 42.689,26.836l-0.091,0.04c0.642,0.406 1.263,0.788 1.761,1.075c4.072,2.354 12.118,8.332 18.996,10.656c12.403,4.191 18.452,2.29 26.042,-0.452c11.235,-4.06 15.11,-9.391 19.217,-16.761c4.106,-7.37 5.021,-14.63 5.423,-27.461c0.199,-6.347 0.672,-14.589 -1.36,-22.112c-0.104,-0.387 -0.222,-0.467 -0.351,-0.846l-2.009,-1.932l-0.162,-2.179Zm-386.534,-388.046c-1.165,-2.362 -2.695,-5.417 -3.781,-7.407c-1.42,-2.603 -4.678,-5.584 -7.076,-5.391c-4.583,0.367 -6.153,3.686 -7.286,6.812c-2.211,6.093 -4.515,15.829 -5.978,29.747c-1.431,13.61 -4.117,34.343 -7.963,51.171c-4.198,18.366 -10.38,39.709 -17.225,59.029c-7.492,21.148 -25.548,50.497 -36.871,66.182c-7.328,10.152 -24.115,29.204 -24.115,29.204l-16.485,17.108l0.03,0.018c0,0 -0.858,0.859 -1.755,1.772l-1.815,1.884c-7.355,7.778 -26.659,27.666 -38.856,41.316c-12.095,13.535 -24.688,28.878 -35.182,41.561c-9.419,11.385 -22.004,26.613 -27.782,34.542c-2.893,3.97 -7.057,9.293 -6.884,13.03c0.173,3.737 4.092,7.948 7.925,9.391c4.018,1.514 10.814,0.207 16.185,-0.31c5.486,-0.528 11.147,-1.947 16.731,-2.858c4.371,-0.712 13.148,-2.094 19.167,-3.037l-0.002,-0.013c0,0 0.174,-0.021 0.442,-0.056l2.836,-0.444c3.823,-0.723 12.768,-2.315 17.567,-3.503c4.106,-1.017 9.568,-2.65 12.085,-3.872c1.378,-0.669 3.021,-3.463 3.021,-3.463l21.104,-5.525l3.008,3.133l5.443,-0.922l0.716,-3.987c0,0 27.127,-5.237 35.184,-6.509c4.348,-0.686 13.162,-1.12 13.162,-1.12l1.865,3.104c0,0 5.467,-0.503 8.192,-0.304c5.942,0.434 18.352,1.589 27.462,2.909c9.329,1.352 28.511,5.202 28.511,5.202l3.784,-6.597l39.983,8.056l9.186,8.099l45.923,8.814l1.597,-4.887c0,0 41.688,7.414 53.787,9.29c6.229,0.966 18.808,1.965 18.808,1.965l2.292,6.233c0,0 6.838,1.305 10.259,0.993c5.382,-0.49 15.251,-0.826 22.034,-3.934c7.423,-3.402 16.235,-9.895 22.37,-16.961c4.205,-4.842 9.83,-10.925 14.062,-17.78c3.089,-5.004 5.007,-10.605 7.207,-15.52c5.165,-11.542 8.23,-27.516 10.01,-36.591c0.595,-3.034 0.752,-7.73 0.765,-11.545l-0.016,0.002l0.017,-0.478c0.001,-1.701 -0.025,-3.197 -0.051,-4.248l-0.005,-0.053c-0.486,-4.39 -1.451,-14.917 -2.876,-21.561c-1.269,-5.919 -5.104,-12.039 -7.684,-16.455c-2.706,-4.631 -7.325,-8.381 -8.47,-9.27l-18.561,3.745l-5.27,-3.923l-5.358,0.273l-9.605,-8.201l-0.091,-4.51l-15.311,-11.954l-4.422,0.478l-9.865,-7.829l-0.142,-5.059l-44.653,-36.881l-4.152,1.136l-9.303,-7.831l0.243,-4.059l-51.776,-46.85l-3.965,0.37l-8.836,-8.852l1.02,-3.979c0,0 -11.45,-13.308 -16.452,-18.774c-4.391,-4.797 -10.01,-10.88 -13.564,-14.023c-2.283,-2.019 -7.76,-4.835 -7.76,-4.835l-13.724,-20.108l12.931,-14.294l-14.238,-26.576l-0.027,0.013l-0.326,-0.673l-0.055,-0.102l-1.3,-2.668Zm-639.386,254.269c4.016,1.466 103.649,37.84 174.836,63.571c10.526,3.805 63.063,23.45 69.842,25.882c25.375,9.106 58.191,20.066 76.629,25.842c11.187,3.504 24.79,7.485 34.199,8.211c10.503,0.81 15.971,-0.401 22.305,-4.584c9.161,-6.05 21.823,-17.684 32.663,-31.719c8.197,-10.613 17.621,-20.219 26.372,-30.381c8.839,-10.266 18.628,-21.999 26.668,-31.216c7.084,-8.121 15.736,-17.677 21.57,-24.084c4.128,-4.534 10.006,-10.731 12.884,-13.777l-0.046,-0.035c0,0 0.628,-0.609 1.597,-1.572c0.26,-0.261 0.515,-0.515 0.725,-0.722c2.851,-2.854 7.511,-7.645 9.168,-10.086c1.845,-2.716 4.64,-6.338 3.233,-9.304c-2.335,-4.921 -7.706,-7.358 -12.534,-9.29c-9.319,-3.73 -25.497,-9.538 -37.988,-14.931c-13.43,-5.798 -28.982,-11.983 -42.592,-19.86c-6.408,-3.709 -18.569,-8.833 -26.109,-13.784c-11.168,-7.334 -17.863,-14.868 -26.7,-21.57c-12.841,-9.738 -25.948,-22.203 -36.335,-31.827c-8.958,-8.301 -19.267,-18.885 -25.984,-25.92c-8.346,-8.74 -10.079,-12.619 -12.836,-17.761c-2.143,-3.996 -3.003,-9.98 -3.708,-13.09c-0.412,-1.818 -0.521,-5.569 -0.521,-5.569l0.117,-0.05c-0.123,-1.068 -0.262,-2.256 -0.362,-3.078c-0.604,-4.96 -0.52,-11.692 -8.921,-16.401c-4.427,-2.482 -14.343,-5.107 -14.343,-5.107l-72.589,-11.797c0,0 -7.555,-22.7 -11.99,-25.465c-0.76,-4.209 -1.871,-10.133 -2.775,-14.916c-6.391,-0.481 -12.738,-1.37 -18.934,-3.018c-12.999,-3.457 -37.13,-13.071 -50.098,-16.554c-9.031,-2.425 -20.587,-4.549 -27.713,-4.343c-8.835,0.254 -11.598,2.12 -15.015,6.345c-2.516,3.11 -6.457,10.052 -8.347,13.472l0.016,0.004l-0.193,0.317c-0.565,1.027 -0.907,1.664 -0.907,1.664l-0.087,-0.025l-64.744,106.738l-0.291,0.253c-1.749,2.713 -4.197,6.533 -5.696,8.957c-3.43,5.55 -9.798,14.476 -12.812,21.132c-2.684,5.928 -5.058,12.295 -5.271,18.8c-0.226,6.869 2.063,15.058 3.919,22.411c3.175,12.582 9.728,35.766 14.599,53.508c3.815,13.893 11.126,40.354 15.099,54.729Zm827.575,-490.58c-0.476,-0.306 -0.889,-0.545 -1.206,-0.686c-1.288,-0.576 -3.207,0.049 -4.154,0.819c-0.948,0.77 -1.356,2.447 -1.532,3.802c-1.292,9.967 -6.221,55.996 -6.221,55.996l-1.463,2.161l56.368,28.197l0.968,-1.358l5.058,2.263l-1.544,13.348l-20.611,-6.224l-24.477,7.295l-5.545,64.887l5.403,20.542l-6.195,3.863l-1.335,11.575l-4.527,-1.238l-16.852,30.429l-9.396,18.113l5.603,38.767l4.735,30.798l0.078,-0.08l0.487,3.753l0.141,0.919l-0.018,0.027l1.046,8.057l28.112,17.992l23.159,-11.501l0.99,-29.856l11.161,2.622l-4.183,39.368l-41.494,13.567l-0.006,1.401c0,0 -7.468,2.183 -11.185,3.334c-4.006,1.24 -9.105,2.754 -12.612,4.665c-3.611,1.968 -5.438,8.701 -5.244,12.363c0.192,3.648 3.504,6.559 6.167,9.058c7.595,7.127 25.654,23.231 39.404,33.704c14.143,10.773 33.428,25.079 45.454,30.932c4.145,2.018 9.895,5.442 12.831,5.164c2.333,-0.221 3.903,-1.642 4.774,-3.389c0.926,-1.857 0.694,-5.156 0.779,-7.752c0.397,-12.105 0.154,-44.716 1.603,-64.876c1.485,-20.657 4.677,-35.374 8.913,-55.944c3.818,-18.535 7.869,-37.134 11.975,-55.664c4.636,-20.927 12.014,-52.211 15.842,-69.895c2.602,-12.023 5.932,-24.672 7.121,-36.211c1.129,-10.949 1.058,-22.93 0.012,-33.021c-0.9,-8.685 -4.512,-20.552 -5.983,-26.298l-0.012,0.003c0,0 -5.239,-19.389 -8.872,-28.79c-3.973,-10.278 -8.585,-16.081 -19.694,-24.074c-9.299,-6.69 -20.38,-14.806 -30.537,-22.416c-13.169,-9.866 -37.631,-28.48 -48.479,-36.783c-1.36,-1.041 -3.042,-2.348 -4.807,-3.728Zm-925.393,416.012l-0.225,4.04l11.665,1.107l-5.727,8.304l-2.679,11.279l0.279,4.364c1.534,-0.334 11.123,-2.462 15.794,-4.49c5.339,-2.319 16.032,-9.378 16.032,-9.378l0.003,0.003c4.062,-2.903 10.816,-7.876 13.868,-10.957c4.049,-4.089 7.822,-8.244 9.961,-14.1c0.275,-0.754 0.315,-2.386 0.315,-2.386l-16.946,-0.002l0,-28.284l-46.739,0c-0.075,-0.835 -0.202,-1.673 0.034,-2.463c0.407,-1.362 1.022,-3.471 2.423,-4.375c1.733,-1.118 5.222,-2.051 7.978,-2.332c2.98,-0.305 6.619,0.12 9.901,0.506c3.31,0.388 7.295,1.991 9.96,1.827c2.213,-0.136 4.491,-1.215 6.029,-2.812c3.1,-3.222 8.281,-11.09 12.574,-16.516c0.373,-0.472 0.79,-0.995 1.242,-1.561l-0.396,0.344l13.932,-18.164l-29.37,15.928c0,0 -13.453,3.022 -20.153,4.645c-8.74,2.117 -23.19,6.69 -32.286,8.057c-7.348,1.104 -15.672,-1.324 -22.291,0.142c-6.332,1.403 -12.748,4.251 -17.423,8.657c-4.675,4.406 -10.626,17.78 -10.626,17.78l1.912,0.692c0.627,-1.318 1.696,-2.44 2.538,-3.57c0.867,-1.163 1.607,-2.365 2.974,-2.852c1.459,-0.52 5.78,-0.269 5.78,-0.269l10.79,-8.004l0.333,3.422l3.587,-0.276l0.276,1.423l8.61,0.046l0,40.225l36.071,0Zm394.368,-136.987c0.002,0.015 0.316,2.426 0.467,3.634c0.556,4.438 1.294,9.473 2.657,13.329c2.235,6.323 8.172,12.204 11.463,15.811c5.622,6.162 15.986,17.436 24.631,25.49c9.45,8.803 20.9,19.02 31.845,27.818c11.036,8.871 22.163,18.362 34.229,25.938c12.924,8.114 28.246,16.259 43.127,22.931c17.389,7.795 47.62,19.25 60.872,24.132c6.013,2.216 12.776,5.461 17.774,5.228c4.426,-0.207 9.224,-3.99 12.547,-6.92c4.315,-3.804 10.122,-10.343 14.395,-16.153c10.278,-13.976 21.26,-36.602 30.485,-64.164c3.376,-10.087 6.133,-20.549 8.8,-31.014c2.805,-11.01 5.777,-21.916 7.733,-32.342c3.628,-19.332 5.473,-39.705 6.364,-58.663c0.863,-18.346 0.776,-37.162 -1.013,-55.088c-1.766,-17.701 -6.19,-37.274 -9.721,-52.472c-3.045,-13.11 -6.06,-29.016 -11.462,-38.716c-4.64,-8.332 -9.465,-17.253 -20.949,-19.485c-4.273,-0.831 -8.969,2.248 -11.832,5.527c-4.088,4.681 -6.609,8.753 -10.155,12.933c-5.73,6.752 -15.582,18.919 -24.225,27.58c-8.807,8.825 -18.011,18.296 -28.616,25.368c-6.803,4.536 -16.44,11.028 -26.714,16.96c-12.26,7.078 -25.262,13.555 -33.161,17.674c-5.192,2.708 -14.379,6.367 -20.648,8.77c-0.091,0.056 -0.188,0.106 -0.291,0.149c-8.294,3.515 -25.988,8.601 -39.001,11.347c-15.991,3.374 -40.357,7.757 -53.326,21.698c-8.774,9.433 -12.177,18.298 -13.489,24.047c0.008,0.04 0.015,0.079 0.022,0.118c0.528,3.117 -1.168,7.376 -1.432,11.096c-0.439,6.166 -1.187,20.791 -1.376,27.439Zm-968.832,-109.346c-0.833,0.903 -4.256,4.606 -5.696,6.048c-2.822,2.828 -4.765,7.663 -5.015,10.886c-0.324,4.163 -0.68,4.819 2.28,8.322c2.286,2.705 6.106,6.492 9.501,9.364c3.464,2.931 8.366,6.298 11.288,8.222c1.968,1.297 6.243,3.323 6.243,3.323l-6.242,9.482c0,0 -11.059,-9.517 -14.153,-11.856c-1.308,-0.989 -2.771,-2.159 -4.411,-2.178c-1.702,-0.019 -4.963,0.188 -5.802,2.062c-1.2,2.679 -1.588,14.078 -1.206,18.757c0.53,6.497 4.388,20.222 4.388,20.222l-6.684,0.245l-7.069,1.934c0,0 -1.11,-4.29 -1.414,-6.48c-0.394,-2.834 -0.948,-7 -0.95,-10.521c-0.005,-7.266 0.904,-26.392 0.924,-33.073c0.007,-2.352 0.028,-5.6 -0.806,-7.011c-0.753,-1.274 -2.718,-1.532 -4.196,-1.45c-2.861,0.158 -6.696,4.206 -9.687,6.77c-5.815,4.985 -17.178,15.035 -25.203,23.138c-10.8,10.903 -27.186,28.34 -39.594,42.283c-13.067,14.684 -25.812,31.837 -32.525,43.398c-4.204,7.24 -9.433,15.091 -10.842,22.653c-0.836,4.483 0.313,9.561 1.759,13.568c1.42,3.936 4.332,7.609 6.916,10.476c2.433,2.701 6.883,7.066 10.227,7.052c4.964,-0.021 6.702,-3.445 9.78,-5.599c4.626,-3.238 13.046,-10.045 17.976,-13.83c3.863,-2.966 11.604,-8.88 11.604,-8.88l6.671,9.755c0,0 -12.881,9.193 -16.478,12.382c-2.112,1.871 -4.68,4.212 -5.105,6.752c-0.425,2.54 0.203,6.701 2.556,8.488c3.923,2.981 13.745,6.879 20.983,9.397c8.013,2.788 17.995,5.151 27.093,7.33c8.342,1.999 20.517,4.78 33.284,6.663c12.355,1.822 24.987,2.177 34.735,2.738c16.962,0.976 37.575,0.125 50.905,-2.559c10.551,-2.124 21.026,-9.275 28.923,-14.351c5.226,-3.358 15.993,-9.565 15.993,-9.565l2.244,-1.509c5.815,-4.034 16.25,-11.475 22.81,-17.34c6.336,-5.664 22.177,-18.216 26.005,-21.239c1.408,-1.457 19.62,-20.306 28.168,-29.363c8.403,-8.903 25.117,-27.096 25.117,-27.096c0,0 3.73,0.568 5.489,0.064c2.426,-0.697 6.916,-1.69 9.066,-4.241c2.185,-2.593 3.992,-7.311 4.045,-11.316c0.213,-16.18 -2.449,-65.666 -2.765,-85.763c-0.183,-11.671 -1.098,-25.655 -7.019,-34.104c-5.97,-8.519 -15.368,-13.863 -24.808,-18.168c-10.125,-4.618 -23.501,-8.7 -35.836,-9.877c-17.42,-1.661 -48.892,-2.846 -68.608,0.297c-17.479,2.787 -34.356,9.751 -49.682,18.564c-14.838,8.532 -41.398,33.175 -44.66,36.222l-0.331,0.311l-0.186,0.201Zm1476.28,-187.521c-18.159,-18.976 -96.971,-101.332 -116.544,-121.722c-4.179,-4.353 -9.31,-10.937 -12.696,-12.903c-2.219,-1.289 -5.708,-0.445 -7.62,1.104c-1.912,1.548 -2.796,5.362 -3.852,8.188c-2.45,6.553 -6.933,20.865 -10.847,31.134c-4.175,10.951 -9.507,23.035 -14.203,34.576c-3.508,8.621 -9.823,24.305 -13.199,32.697l-0.152,-0.014l-4.965,53.222l-4.942,15.278c0,0 -2.624,-0.124 -3.841,0.284c-1.407,0.472 -3.502,1.18 -4.599,2.546c-1.275,1.586 -2.298,4.548 -3.047,6.97c-0.444,1.439 -0.94,3.926 -1.293,5.859l0.021,0.008c0,0 -3.083,16.577 -2.776,24.908c0.335,9.112 1.291,20.301 3.732,30.6c3.131,13.207 5.735,26.966 8.109,36.954c3.646,15.339 9.334,30.152 15.137,44.812c3.229,8.157 7.748,20.956 13.08,32.861c5.836,13.031 12.365,24.848 12.365,24.848l-0.073,0.036c2.04,4.384 10.054,21.355 15.631,29.684c3.535,5.28 7.753,12.739 12.81,19.584c7.77,10.518 17.016,20.91 24.876,30.037c12.448,14.457 29.812,30.85 40.155,40.783c6.943,6.667 16.854,15.505 21.906,18.815c2.362,1.547 3.795,3.059 8.383,1.284c1.885,-0.73 2.478,-3.716 2.898,-5.742c0.8,-3.855 1.921,-17.634 1.921,-17.634l-6.026,-0.802l0.051,-0.052l-8.419,-0.592l6.409,-62.143l-3.668,-0.13l8.226,-106.162l-2.745,-0.138l6.017,-67.989l4.14,0.227l0.58,-10.549l1.921,-0.211l0.767,-6.301l4.268,-0.001l-0.9,17.619l11.769,0.481l2.245,-28.908l-15.736,-9.932l4.798,-41.906l3.874,-2.186l1.607,-13.661c0,0 2.906,-17.574 3.778,-23.117c0.531,-3.373 1.739,-7.579 1.457,-10.14c-0.104,-0.951 -0.406,-1.773 -0.788,-2.464Zm-1286.79,360.537l23.432,0.457l25.712,-31.379l4.946,-0.222l6.635,-7.039l8.506,0.811l6.333,-8.127l-0.387,-13.95c0,0 -4.688,-0.625 -6.945,-0.111c-4.273,0.974 -13.163,2.462 -18.693,5.953c-7.678,4.849 -19.121,14.981 -27.377,23.137c-8.064,7.967 -22.157,25.8 -22.157,25.8l-0.005,4.67Zm221.652,-226.296l-1.496,1.004c0,0 -3.572,2.33 -7.286,4.802l-3.744,11.259l0.114,-0.075l7.973,11.994l-0.852,0.566l3.545,5.333l7.307,0.924l0.208,-1.451l3.392,0.981l-1.257,7.192l-6.758,-1.769l-0.437,0.29l6.905,10.335l-1.82,1.366l-0.005,-0.009l-8.663,6.532l-4.19,-6.303l1.662,-1.104l-7.141,-10.742l1.141,-0.758l-6.296,-9.472l0.796,-0.528l-4.791,-7.208l0.297,-0.198l-3.242,-0.563c-0.268,1.276 -0.501,2.693 -0.821,4.402c-1.065,5.677 -3.505,16.968 -3.505,16.968l3.056,15.082l-13.307,-5.769l-13.465,7.453l-7.536,-4.202l-0.31,-2.805l4.191,-0.314l15.477,-25.933l-12.246,-22.543l-11.873,-7.057l-4.733,2.296l-5.978,-3.12l-41.765,22.634l-41.329,2.081l-3.142,3.107l1.412,28.792l-5.331,5.359l2.233,65.811l21.245,18.964l0.073,0.183l23.743,-1.345l2.999,-2.659l-0.151,-10.037l4.576,-0.156l-0.061,7.316l2.6,2.477l11.255,-0.673l1.733,-2.132l0.168,-7.522l4.684,-0.16l-0.049,9.842l21.295,-0.963l15.852,3.706l11.834,-7.957l8.277,0.019l0.162,1.976l-2.792,4.953l58.156,35.752l0.008,-0.009l2.149,1.325l11.111,6.855l1.178,-9.205l-13.889,-11.639l0.526,-3.061l-34.021,-31.39l0.952,-1.341c0,0 -0.959,-1.952 -1.162,-3.008c-0.248,-1.29 -0.551,-3.169 -0.327,-4.735c0.47,-3.278 3.144,-14.931 3.144,-14.931l1.157,-3.911l-0.769,-3.652l2.414,-5.6l6.578,1.875l-1.06,4.661l3.217,5.824c0,0 -3.126,8.533 -3.626,10.58c-0.655,2.685 1.998,3.632 3.31,2.058c0.535,-0.641 1.696,-2.276 1.696,-2.276l4.384,4.592l-4.877,11.381l9.04,8.703l11.925,-1.555l6.055,6.76c0,0 -1.974,5.863 -2.38,7.958c-0.58,3.001 -0.849,3.317 0.445,4.703c2.814,3.01 15.458,14.228 15.458,14.228c0,0 2.492,4.376 4.83,2.449c2.089,-1.72 -0.78,-4.34 -0.78,-4.34l24.439,-8.508l15.529,1.316l2.884,-3.463l-4.539,-18.716l11.259,-1.662l-0.529,-2.824l4.538,-0.931l11.571,11.093l51.031,2.504l38.795,22.007l14.789,-7.109l0.894,-7.346l6.654,-0.582l0.106,3.146l12.628,-1.31l-0.051,-2.945l9.591,-0.839l8.92,4.467c19.987,-32.956 44.851,-74.839 44.851,-74.839l0.449,-0.659l0.42,0.094c1.698,-2.607 5.601,-9.297 9.026,-20.265c1.996,-6.394 6.308,-19.334 4.127,-23.633c-1.904,-3.753 -13.728,-13.56 -21.008,-20.606c-6.115,-5.919 -13.549,-14.893 -17.456,-18.873c-1.856,-1.889 -5.802,-5.299 -5.802,-5.299l-7.343,-11.468l-5.914,-2.611l-7.027,-13.117c0,0 0.274,-4.165 0.198,-4.311c-1.484,-2.859 -5.868,-11.927 -8.573,-17.544l-0.114,0.019c0,0 -0.324,-0.816 -0.498,-1.22c-0.118,-0.271 -0.256,-0.583 -0.414,-0.93l-0.762,-1.586l-9.542,-2.666l-2.23,1.432l-10.851,-4.796l-13.967,4.08l-11.481,-0.954l-0.026,-1.797l-6.547,-2.899c-5.723,3.734 -11.433,6.526 -18.235,9.327c-7.42,3.056 -15.666,7.035 -23.525,10.229c1.683,1.88 4.313,2.104 7.189,2.807c2.743,0.671 5.403,1.009 8.342,1.732c3.008,0.74 7.581,2.793 9.226,4.369c1.233,1.182 0.926,3.401 0.639,5.086c-0.214,1.254 -1.239,3.634 -1.948,5.183l-3.71,-1.634l1.495,-3.839c0,0 -7.468,-1.922 -11.01,-3.087c-3.967,-1.305 -9.607,-4.466 -12.791,-4.744c-2.204,-0.192 -4.527,1.206 -5.988,2.867c-1.73,1.966 -4.429,6.574 -4.389,8.929c0.04,2.319 2.478,4.69 4.657,5.488c3.573,1.31 7.697,0.867 10.325,0.834c1.952,-0.024 3.645,-0.351 5.361,0.178c1.552,0.479 4.82,1.965 6.594,2.79l-1.338,3.037c-2.283,-0.895 -7.854,-2.785 -13.706,-2.567c-4.328,0.161 -9.227,0.563 -12.761,-2.444c-2.164,-1.842 -3.328,-4.943 -3.487,-7.781c-0.306,-5.478 2.194,-7.802 3.471,-9.667c0.155,-0.225 0.085,-1.698 0.015,-2.777c-0.602,0.156 -1.229,0.321 -1.879,0.496c-21.555,5.814 -54.869,9.673 -68.455,10.406c-1.358,-2.241 -2.095,-2.004 -4.451,-1.865c-1.869,0.111 -4.184,0.188 -6.854,0.223l-5.001,3.207l-2.277,1.527l0.116,6.411l8.525,10.719l0.291,5.828l-9.168,-0.678c0,0 0.866,-2.672 0.719,-3.873c-0.147,-1.201 -1.6,-3.333 -1.6,-3.333c0,0 -4.058,2.267 -5.316,3.516c-1.078,1.071 -1.858,2.504 -2.229,3.978c-0.375,1.49 -0.019,4.959 -0.019,4.959l-2.4,2.409l-10.051,2.481l-0.044,1.225c0,0 -2.867,0.073 -4.294,-0.043c-2.521,-0.205 -7.563,0.395 -10.834,-1.187c-1.442,-0.698 -3.734,-2.381 -5.905,-4.095Zm491.656,126.661l34.899,6.075c0,0 2.237,0.052 3.354,0.105c4.72,0.223 8.527,-1.882 11.859,-3.75c3.209,-1.799 6.695,-5.326 8.135,-7.457c0.649,-0.96 0.667,-2.921 0.6,-4.176c-0.25,-2.002 -1.278,-9.103 -3.554,-12.062c-3.541,-4.601 -10.186,-12.955 -17.624,-15.013c-12.542,-3.47 -25.469,-2.893 -38.474,-1.619c-10.755,1.054 -24.451,1.562 -35.662,1.573c-1.072,0.201 -1.665,0.744 -1.839,2.121c-0.199,1.576 0.92,5.028 0.754,6.711c-0.124,1.265 -1.538,2.456 -1.747,3.389c-0.164,0.736 0.495,2.209 0.495,2.209l5.978,16.181l25.823,4.494l1.211,-6.919l7.001,1.225l-1.209,6.913Zm554.156,-32.956l7.127,3.836l3.728,-7.478l4.482,-55.47l4.013,-0.189l1.493,-26.766l-15.175,-1.047l-4.053,1.896l-3.461,44.947l5.318,0.782l-3.472,39.489Zm-573.88,-402.673c-4.194,-5.919 -11.692,-16.867 -17.579,-24.34c-8.524,-10.822 -22.497,-30.09 -31.897,-38.262c-6.734,-5.854 -16.717,-10.496 -24.505,-10.773c-7.789,-0.277 -16.436,3.581 -22.227,9.111c-6.093,5.818 -11.379,16.415 -14.334,25.799c-4.726,15.008 -14.269,47.254 -42.132,67.006c-18.439,13.073 -29.502,17.866 -57.668,24.783c-5.642,1.385 -20.19,3.129 -25.302,5.89c-6.966,3.762 -12.592,9.929 -16.931,16.256c-3.601,5.249 -2.783,12.791 -1.65,19.056c1.571,8.689 5.648,26.539 6.97,33.077c0.416,2.058 1.336,6.154 1.336,6.154l-0.074,-0.002c0.171,0.663 0.359,1.412 0.477,1.93c1.744,7.656 6.304,28.384 9.607,42.541c4.345,18.625 10.06,43.257 20.078,67.25l0.058,-0.013c0,0 0.805,2.153 1.328,3.173c3.114,6.08 9.469,23.583 17.356,33.305c5.899,7.27 13.045,16.701 22.283,25.747c7.673,7.513 17.164,14.689 25.143,20.798c18.94,14.502 41.847,31.78 66.211,40.465c24.952,8.894 42.678,12.759 83.503,12.903c13.865,0.049 30.857,-1.651 44.968,-5.084c9.436,-2.296 17.609,-5.34 23.091,-8.551c9.689,-5.673 14.229,-15.046 18.349,-28.248c2.095,-6.713 3.874,-25.107 3.659,-33.136c-0.53,-19.785 -6.321,-57.138 -11.675,-85.349c-2.801,-14.76 -7.541,-32.614 -11.631,-51.125c-5.173,-23.419 -9.888,-47.557 -14.765,-64.128c-3.279,-11.142 -7.063,-23.093 -11.847,-34.149c-4.543,-10.498 -10.064,-20.159 -14.146,-28.611c-6.589,-13.643 -18.605,-32.061 -23.542,-40.12c-0.317,-0.362 -0.63,-0.737 -0.844,-1.028c-0.459,-0.626 -1.008,-1.393 -1.631,-2.272l-0.047,-0.049l0.01,-0.004Zm180.907,366.392c0.808,-4.901 2.086,-13.345 2.211,-18.423c0.113,-4.638 0,-18.781 -0.867,-28.118c-2.327,-25.078 -6.948,-64.698 -8.311,-89.997c-1.108,-20.568 -0.031,-42.927 0.134,-61.794c0.149,-17.139 -0.258,-35.459 0.434,-51.364c0.639,-14.701 3.069,-34.566 3.435,-44.141c0.171,-4.489 -0.375,-10.778 -0.821,-13.358c-0.146,-0.847 -0.743,-2.266 -1.575,-2.045c-1.218,0.325 -2.245,1.034 -3.092,1.887c-1.456,2.751 -2.974,5.335 -4.66,7.411c-3.345,4.12 -7.154,7.19 -12.037,9.269c-6.186,2.632 -16.776,4.923 -25.08,6.528c-7.514,1.453 -23.585,3.936 -30.768,5.029c-0.116,0.043 -0.248,0.076 -0.395,0.099c-12.908,2.001 -29.955,2.604 -33.221,8.095c-2.602,4.374 -0.066,10.248 0.917,15.242c2.854,14.508 11.278,47.769 16.21,71.805c5.614,27.362 14.406,65.698 17.473,92.361c2.575,22.394 3.263,48.261 0.925,67.618c-1.148,9.502 -0.91,21.763 6.348,28.001c11.585,9.956 29.555,6.226 43.028,4.761c9.733,-1.058 20.946,-5.422 29.712,-8.866Zm154.857,-321.276c1.282,-0.661 3.128,-1.777 3.656,-2.952c1.004,-2.234 1.704,-6.603 1.073,-9.843c-0.96,-4.934 -3.8,-13.485 -6.834,-19.759c-2.864,-5.923 -10.53,-17.8 -12.899,-21.433c-0.951,-1.398 -3.166,-4.767 -4.822,-7.028c-2.951,-4.03 -8.697,-12.097 -12.798,-17.022c-4.603,-5.528 -7.594,-7.769 -13.219,-11.291c-2.988,-1.871 -7.33,-4.081 -9.784,-5.376l-0.065,0.078c0,0 -0.592,-0.382 -1.41,-0.882c-0.371,-0.215 -0.769,-0.454 -0.769,-0.454l0.003,-0.007c-0.979,-0.581 -2.094,-1.208 -2.903,-1.558c-4.102,-1.778 -13.721,-7.262 -19.531,-7.764c-5.33,-0.461 -11.076,1.506 -15.328,4.752c-4.946,3.775 -8.768,8.093 -14.345,17.897c-4.918,8.644 -12.92,21.022 -18.902,31.766c-4.734,8.502 -11.779,21.839 -18.112,33.818c-0.797,4.9 -1.486,9.89 -1.491,12.538c-0.019,9.487 1.125,25.692 0.404,38.346c-0.879,15.448 -2.494,32.915 -3.049,49.579c-0.58,17.433 -0.287,36.464 -0.104,54.694c0.194,19.298 0.38,43.684 1.268,61.09c0.74,14.494 2.706,29.003 4.061,43.349c1.345,14.244 3.244,30.061 4.071,42.728c0.63,9.651 0.716,22.881 0.836,30.37c6.874,-3.193 18.432,-8.623 25.233,-12.16c11.968,-6.224 28.899,-15.351 40.601,-23.13c10.501,-6.981 23.502,-18.567 29.609,-24.228c2.307,-2.138 4.399,-6.553 6.521,-10.284c2.149,-3.78 6.374,-11.709 6.374,-11.709l0.364,-2.148l14.182,-7.834l-0.46,-0.703l2.244,-0.34c0,0 1.338,-1.79 1.977,-2.706c3.539,-5.08 16.944,-22.462 23.328,-34.094c1.811,-3.299 3.556,-6.83 4.928,-9.716c1.101,-2.429 3.3,-7.371 4.331,-10.314c1.826,-5.209 4.322,-12.904 5.967,-19.499c1.827,-7.326 3.817,-17.67 4.997,-24.454c0.936,-5.381 1.683,-11.87 2.083,-16.253c0.279,-3.053 0.314,-8.931 0.318,-9.908c-0.192,-5.496 -0.667,-18.25 -1.138,-24.441c-0.535,-7.048 -1.162,-14.112 -2.429,-21.066c-2.389,-13.12 -7.417,-27.979 -8.448,-30.766c-0.837,-2.264 -1.309,-4.797 -2.845,-6.658c-2.053,-2.488 -4.072,-3.631 -9.47,-3.112c-2.754,0.264 -7.978,2.289 -7.978,2.289l-0.002,-0.046c-5.731,1.963 -18.152,6.237 -21.707,7.597c-3.393,1.297 -2.658,3.839 -2.658,3.839l-0.35,12.934l-14.866,-2.088c0,0 1.394,-8.422 1.672,-11.728c0.331,-3.922 1.246,-5.58 3.847,-7.399c1.851,-1.295 3.592,-2.761 5.541,-3.902c2.434,-1.425 6.051,-3.326 9.063,-4.648c2.925,-1.284 9.004,-3.282 9.004,-3.282l11.16,-3.679Zm-787.184,229.89c-13.888,-0.961 -29.033,-2.747 -41.556,-5.739c-21.629,-5.168 -47.98,-16.274 -62.931,-22.143c-10.101,-3.965 -20.937,-8.555 -31.758,-7.733c-13.363,1.015 -23.777,3.659 -48.436,13.703c-11.677,4.756 -30.1,9.301 -45.67,10.324c-15.764,1.036 -38.4,-4.823 -48.897,-3.989c-8.825,0.701 -12.46,3.415 -14.186,7.407c-0.104,0.239 -0.183,0.513 -0.241,0.811c0.008,0.327 0.12,4.043 1.362,5.256c2.787,2.721 9.741,8.18 15.358,11.047c7.624,3.891 20.18,8.398 30.386,12.302c15.792,6.041 64.076,23.919 70.334,26.235l0.672,0.249l29.505,-0.439l54.832,-31.723c0,0 13.594,8.814 20.896,12.264c4.594,2.171 9.312,3.933 14.604,4.094c5.589,0.17 11.002,-1.258 16.468,-4.089c10.967,-5.681 32.697,-17.81 39.669,-22.068c1.165,-0.712 2.201,-1.434 2.161,-3.48c-0.04,-2.056 -0.884,-1.999 -2.572,-2.289Zm12.729,11.662l-25.786,17.298c0.253,0.687 0.516,1.273 0.773,1.633c0.926,1.297 2.838,1.473 4.335,2.02c1.652,0.603 3.924,1.738 5.578,1.601c1.653,-0.138 3.16,-1.266 4.347,-2.425c1.626,-1.588 3.75,-1.466 4.758,-2.497c0.911,-0.93 1.456,-2.393 1.292,-3.684c-0.306,-2.401 0.11,-2.592 2.341,-4.259c1.778,-1.33 6.975,-5.259 6.975,-5.259l-4.613,-4.428Zm-314.107,-326.9c-1.503,13.349 -5.386,45.352 -4.207,64.406c0.763,12.333 0.783,20.76 0.305,27.548l8.838,8.225l-0.025,43.091l160.466,122.431c0.937,-0.026 1.877,-0.028 2.822,-0.007c21.889,0.5 35.382,10.641 52.292,16.572c11.557,4.053 25.838,9.577 41.417,13.338c14.946,3.608 31.121,5.524 45.673,6.199c20.774,0.964 50.712,-0.668 74.336,-4.151c9.873,-1.455 18.616,-3.706 25.142,-5.315l-0.015,-0.066l0.602,-0.078c1.626,-0.399 3.106,-0.754 4.423,-1.04c0.273,-0.06 0.548,-0.075 0.823,-0.051c5.467,-1.353 15.411,-3.536 22.154,-6.513c8.652,-3.82 18.879,-7.365 27.797,-15.904c8.616,-8.249 13.897,-20.461 16.763,-40.106c1.503,-10.302 -4.629,-39.564 -7.396,-56.855c-2.414,-15.084 -10.76,-31.017 -19.506,-41.471c-6.5,-7.768 -20.811,-17.4 -31.115,-22.756c-5.871,-3.053 -10.953,-6.236 -15.094,-12.894c-5.945,-9.558 -13.944,-13.567 -17.76,-16.498c-1.096,-0.63 -2.322,-1.291 -3.716,-2.001c-16.718,-8.512 -22.124,-9.667 -35.35,-29.619c-12.907,-19.472 -38.82,-59.824 -52.905,-79.277c-10.693,-14.767 -15.635,-23.333 -38.426,-32.181c-17.889,-6.945 -38.426,-17.398 -51.899,-26.457c-11.121,-7.476 -19.948,-18.275 -28.944,-27.898c-8.048,-8.608 -17.793,-17.361 -28.586,-20.896c-14.132,-4.628 -24.089,-2.469 -36.031,-0.748c-26.251,3.784 -49.839,22.496 -56.083,27.802c0,0 -0.47,0.384 -1.305,1.089l6.19,26.459l2.8,4.846l-7.068,4.475l-19.912,28.956l0.013,1.102l-3.079,38.166l-30.317,5.335l-4.117,2.742Zm-4.431,97.454c-0.776,6.292 -2.015,11.508 -3.439,18.222c-2.984,14.071 -6.347,26.586 -10.024,39.745c-5.215,18.66 -9.114,38.412 -9.181,51.223c0,0 -0.617,11.328 -0.596,14.49c0.068,9.957 3.303,25.009 9.016,34.639c11.48,19.348 22.715,21.486 37.772,26.384c15.318,4.983 35.524,9.633 52.058,9.277c18.006,-0.387 34.613,-5.935 47.147,-11.232c11.348,-4.795 21.796,-9.638 32.385,-12.342l2.976,-5.336l-156.185,-118.738l-0.031,-7.922l3.229,-1.814l-0.177,-31.651l-4.95,-4.945Zm1346.69,43.074c-3.51,-10.06 -8.059,-25.873 -9.812,-33.733c-0.631,-2.825 -1.2,-7.535 -1.851,-10.356c-1.37,-5.941 -5.544,-16.007 -6.372,-25.287c-0.325,-3.642 -1.223,-7.453 -1.159,-11.321c0.102,-6.111 1.533,-12.334 3.255,-18.024c2.812,-9.293 8.351,-18.635 14.776,-26.411c9.368,-11.337 21.823,-18.373 33.907,-22.919c10.94,-4.115 22.74,-9.493 33.426,-10.513c7.166,-0.685 21.223,-0.728 30.345,3.032c9.121,3.76 17.907,12.398 24.189,19.963c6.04,7.276 11.439,16.469 13.456,24.642c1.093,4.428 1.992,8.743 1.594,13.233c-0.299,3.379 -1.563,6.811 -2.755,10.722c-4.102,13.466 -11.936,39.23 -17.374,58.499c-2.286,8.099 -5.178,16.816 -7.506,25.387c-3.126,11.51 -5.605,22.743 -7.746,31.723c-2.901,12.167 -7.464,36.775 -7.464,36.775l13.14,9.675c0,0 3.028,15.603 6.683,30.889c2.908,12.163 6.019,24.046 7.427,28.832c0.626,2.131 0.576,6.262 -1.524,6.909c-3.075,0.946 -7.606,-2.792 -10.495,-4.791c-8.059,-5.576 -25.377,-17.685 -38.478,-27.296c-13.858,-10.166 -43.221,-33.04 -43.221,-33.04c0,0 -2.284,-15.331 -4.53,-22.719c-2.532,-8.327 -6.294,-18.387 -10.257,-27.378c-3.872,-8.785 -8.491,-17.429 -11.654,-26.493Zm-825.35,137.821c-0.745,-1.786 -1.409,-3.496 -1.903,-4.983c-1.99,-5.995 -7.711,-11.191 -15.342,-10.919c-8.803,0.313 -11.55,3.109 -16.482,7.675c-2.617,2.424 -5.081,4.566 -7.461,6.488l1.188,2.058l6.24,0.473l16.754,-4.725l14.696,6.256l2.31,-2.323Zm-25.586,-104.71l-0.005,0c0,0 -0.058,-4.14 -0.421,-6.17c-1.941,-10.874 -4.144,-40.971 -11.226,-59.075c-3.106,-7.942 -5.739,-17.065 -10.338,-25.023c-5.886,-10.183 -14.088,-18.822 -20.926,-24.526c-8.874,-7.402 -19.197,-13.247 -31.3,-14.905c-4.492,-0.615 -13.382,2.85 -18.605,5.244c-0.626,0.341 -1.463,0.794 -2.302,1.242c-0.234,0.138 -0.385,0.23 -0.385,0.23l-0.013,-0.018c-0.715,0.38 -1.408,0.743 -1.948,1.015c-2.913,1.467 -11.027,5.901 -9.824,8.879c2.674,6.619 15.923,9.714 21.078,12.837c3.274,1.984 7.042,3.866 9.85,5.904c10.217,7.418 36.246,24.974 46.644,36.108c7.756,8.305 13.057,19.145 15.936,30.139c3.394,12.959 7.733,33.722 9.437,41.601c0.533,2.468 1.033,5.548 3.153,5.101c2.264,-0.477 2.967,-2.698 2.972,-4.495c0.007,-2.164 -1.452,-10.505 -1.743,-13.025c-0.032,-0.284 -0.038,-0.686 -0.034,-1.063Zm637.429,-253.32l15.854,-3.299l0,-25.832l-1.395,-0.664l-1.759,0.958l-1.717,0.896l-5.426,2.911l-1.786,0.891l-1.453,2.141l-6.516,3.589l-14.489,2.955l0.024,3.243l-13.576,5.915c0,0 -6.003,-1.962 -8.269,-1.802c-3.014,0.213 -6.435,0.958 -9.923,2.773c-4.145,2.156 -9.428,4.177 -13.701,5.829c-3.924,1.517 -8.141,2.801 -11.94,4.083c-3.614,1.219 -7.638,1.563 -10.858,3.607c-3.695,2.347 -8.791,6.696 -11.311,10.473c-2.362,3.54 -4.271,8.001 -4.042,12.25c0.231,4.295 2.981,9.474 5.339,13.708c2.42,4.345 5.471,8.969 9.341,12.437c4.107,3.679 9.695,8.166 15.407,10.069c6.951,2.316 20.892,3.62 26.365,3.91c1.845,0.098 5.521,0.365 5.521,0.365l0.057,4.45l6.956,4.412l8.942,-2.152l2.716,-5.586l14.377,8.234l-0.352,4.3l11.384,6.423l0.701,-1.836l0.242,-0.058l-2.291,9.174l-12.495,-4.324l-7.837,13.667c7.034,0.961 14.478,2.061 17.769,2.816c0.948,0.218 2.081,0.702 3.219,1.285l-5.182,8.344c-2.25,-0.608 -5.193,-1.314 -7.18,-1.458c-3.681,-0.267 -9.666,-0.325 -12.487,1.246c-2.818,1.57 -4.422,4.394 -4.513,7.619c-0.11,3.903 3.431,10.606 4.203,15.308c0.694,4.233 -0.69,8.765 0.427,12.906c1.447,5.365 6.213,12.717 8.726,19.322c2.96,7.781 7.094,19.12 9.034,27.364c1.699,7.221 1.767,18.453 2.606,22.102c2.444,10.635 3.759,7.208 4.561,-0.812c0.07,-0.703 0.048,-2.227 -0.009,-3.873l7.299,-1.244c0.291,2.21 0.638,5.083 0.7,6.63c0.092,2.273 0.058,4.593 -0.453,6.809c-1.049,4.549 -3.57,4.846 -4.471,7.244c-1.777,4.73 -0.399,6.71 1.214,8.746c1.795,2.264 6.459,5.015 9.842,5.333c3.384,0.317 7.666,-1.725 10.246,-4.447c3.659,-3.86 8.249,-12.465 11.415,-19.205c4.68,-9.964 12.016,-27.589 16.662,-40.573c4.378,-12.235 9.353,-29.344 11.218,-37.334c0.803,-3.442 -0.029,-10.605 -0.029,-10.605l1.329,-10.514l5.605,-3.132l3.662,-9.49l-0.018,-0.01l19.328,-50.533l-2.795,-3.533l4.154,-9.906l2.07,-1.217c0,0 1.574,-2.966 2.023,-4.571c0.367,-1.313 0.854,-2.969 1.422,-4.884l-10.164,-21.807l-5.365,-0.028l-8.503,21.559l5.616,6.519l3.488,0.13l3.744,3.949l-4.131,10.202l-21.083,-8.385l20.667,-51.384c0,0 -1.347,-3.977 -1.915,-5.998c-1.4,-4.986 -3.669,-16.206 -6.487,-23.916c-2.818,-7.711 -6.75,-16.452 -9.963,-22.349c-2.514,-4.613 -5.949,-9.973 -9.315,-13.034c-2.951,-2.683 -6.266,-4.204 -11.075,-4.526c-2.28,-0.152 -6.346,0.321 -9.873,0.837c-0.888,1.113 -1.671,2.109 -2.319,2.953c-2.282,2.972 -6.165,9.401 -6.165,9.401l-0.161,0.05l-5.342,16.222l0,12.046l4.113,2.578l0,-3.163l6.989,-1.953l3.374,1.443l0,5.336l1.73,1.348l-0.935,1.871l-15.271,3.459l0,18.93l-24.984,6.191l0.362,-11.919l-0.719,-0.405Zm-335.964,64.816c-0.821,-0.105 -1.755,-0.22 -2.396,-0.287c-5.389,-0.566 -27.235,-4.019 -34.755,-1.679c-7.521,2.339 -9.511,10.781 -10.367,15.717c-0.594,3.42 1.344,10.474 3.226,13.39c6.42,9.948 13.43,19.443 17.125,24.908c0.577,0.744 1.157,1.511 1.741,2.299c0.441,0.463 0.838,0.837 0.838,0.837l-0.173,0.068c14.2,19.485 29.887,50.785 36.748,64.713c2.881,5.848 5.246,11.659 10.649,13.786c6.889,2.711 13.946,1.931 20.586,0.704l-0.03,-0.02l4.026,-0.759c1.039,-0.207 2.065,-0.41 3.074,-0.595c0.319,-0.058 0.664,-0.061 1.028,-0.015c9.136,-1.371 31.631,-4.87 43.859,-7.839c10.924,-2.652 19.273,-7.089 26.898,-18.023c4.464,-6.402 8.4,-14.339 13.366,-23.443c4.786,-8.773 10.565,-18.603 16.842,-30.593c7.323,-13.985 15.077,-27.262 20.524,-42.68c0.966,-2.734 1.24,-5.733 -1.22,-8.613c-3.42,-4.006 -32.224,1.756 -47.932,2.611c-15.386,0.838 -30.73,2.644 -46.312,2.52c-23.189,-0.184 -46.928,-2.54 -66.807,-5.42c-2.814,-0.407 -7.177,-1.071 -10.538,-1.587Zm-364.202,24.254c0.483,0.854 0.973,1.654 1.414,2.255c6.349,8.64 19.26,27.698 34.485,37.719c17.63,11.604 41.419,29.865 76.567,23.14c15.7,-3.004 32.2,-6.209 55.035,-27.785c15.015,-14.187 22.966,-34.22 26.06,-48.916c5.895,-28 -2.68,-57.634 -24.134,-89.839l-0.85,-0.269l-4.036,-7.165l-164.541,110.86Zm670.117,-0.419c-1.054,1.727 -2.252,3.707 -2.794,4.671c-1.086,1.932 -1.509,3.228 0.496,4.639c0.742,0.522 2.253,1.49 3.853,2.495l0.95,0.144l2.271,-0.593l0.844,-1.388l3.68,2.008c0,0 4.147,-5.892 4.901,-7.539c0.329,-0.719 0.193,-1.792 -0.374,-2.342c-0.996,-0.965 -5.598,-3.448 -5.598,-3.448l-8.229,1.353Zm-1067.03,-97.931c-3.436,4.239 -5.679,8.676 -7.387,11.777c-5.997,10.892 -11.039,22.174 -14.349,32.895c-3.073,9.949 -4.476,22.932 -5.453,30.923l2.905,3.535l14.261,-2.059l1.151,-15.965l3.887,0.783l1.862,-19.935l8.234,-10.036l0.562,-3.817l10.462,-13.702l-6.658,-12.927l-9.477,-1.472Zm1206.12,34.642c1.968,-7.182 3.837,-14.71 4.912,-21.058c2.505,-14.792 3.362,-30.104 3.434,-44.877c0.072,-14.622 -1.597,-29.208 -2.998,-43.762c-1.55,-16.094 -5.165,-43.457 -6.31,-52.898l-0.22,-1.481l-0.22,-1.475c-0.056,-0.344 -0.093,-0.569 -0.093,-0.569l0.008,-0.001c-0.465,-3.109 -1.121,-7.452 -1.489,-9.708c-0.675,-4.132 -3.751,-8.119 -5.694,-8.206c-3.698,-0.167 -5.106,3.525 -6.388,6.202c-2.575,5.379 -7.243,16.799 -10.731,23.845c-3.166,6.398 -6.789,12.628 -10.196,18.432c-3.204,5.456 -6.197,11.071 -9.959,16.159c-0.154,0.209 -0.314,0.424 -0.48,0.645c-0.547,0.864 -1.041,1.736 -1.295,2.41c-0.752,1.993 -0.983,4.201 -0.889,6.33c0.102,2.308 0.17,5.395 1.322,7.677c1.747,3.46 6.345,8.556 9.16,13.087c3.606,5.807 9.135,14.035 12.659,21.594c3.523,7.559 6.605,18.197 8.481,23.762c1.067,3.165 1.795,6.435 2.775,9.629c2.025,6.602 4.732,18.691 6.859,24.527c0.692,1.899 3.46,10.447 5.903,10.489c0.803,0.013 1.199,-0.266 1.449,-0.753Zm22.671,-47.996c-0.606,13.306 -2.239,26.598 -4.917,39.631c-0.488,2.377 -1.03,4.811 -1.617,7.287l12.29,-0.584l4.982,-5.634l-0.319,-16.635l1.608,-1.941l-1.001,-9.798l-6.052,-3.412l-2.124,-8.141l-2.85,-0.773Zm-201.96,-153.871l-0.022,0.013l0.745,-14.506l-12.5,-45.737l-210.936,-15.894l-15.324,15.228l4.33,44.052l5.336,12.53l19.439,15.821l-1.276,14.229c0,0 -1.363,10.776 -1.084,16.172c0.323,6.235 2.044,16.954 3.02,21.241c0.393,1.726 1.278,3.659 2.712,4.696c1.561,1.129 4.366,1.8 6.654,2.081c2.839,0.349 10.509,-0.198 10.509,-0.198l2.037,15.874c0,0 -5.26,0.909 -6.874,1.469c-1.067,0.37 -2.487,0.809 -2.811,1.891c-0.327,1.092 0.049,3.299 0.847,4.662c3.066,5.235 12.317,20.815 17.451,26.997c3.582,4.312 8.075,8.427 13.227,10.636c5.737,2.459 15.253,3.04 21.293,3.876c4.95,0.685 11.082,1.775 15.018,1.488c3.037,-0.222 6.339,-1.913 8.601,-3.212c2.01,-1.155 3.786,-3.334 4.701,-4.902c0.759,-1.299 0.795,-4.506 0.795,-4.506l27.948,1.054l-0.95,8.973l96.296,7.677l0.004,-0.027l0.344,-3.414l9.023,0.592l0.616,-9.09l-4.551,-6.894l2.575,-42.857l-2.966,-1.433l1.22,-23.815l2.774,-1.985l-3.006,-3.99l-7.764,-0.88l-4.487,-9.659l-14.889,-3.784l1.143,-17.229l-11.695,-0.818l22.212,-11.797l0.265,-4.625Z" style="fill:#f5ecd7;"/></g></g></svg>