<?xml version="1.0" encoding="UTF-8" standalone="no"?><!DOCTYPE svg PUBLIC "-//W3C//DTD SVG 1.1//EN" "http://www.w3.org/Graphics/SVG/1.1/DTD/svg11.dtd">
<svg width="100%" height="100%" viewBox="0 0 2550 1994" version="1.1"
    xmlns="http://www.w3.org/2000/svg"
    xmlns:xlink="http://www.w3.org/1999/xlink" xml:space="preserve"
    xmlns:serif="http://www.serif.com/" style="fill-rule:evenodd;clip-rule:evenodd;stroke-linecap:round;stroke-linejoin:round;stroke-miterlimit:1.5;">
    <MetaInfo xmlns="http://www.prognoz.ru">
        <Geo>
            <GeoItem X="0" Y="0" Latitude="51.24177020918754" Longitude="7.105611562728882"/>
            <GeoItem X="2550" Y="1994" Latitude="51.236776961813064" Longitude="7.115809321403503"/>
        </Geo>
    </MetaInfo>
    <path id="Außengrenze" d="M1135.98,42.969l936.876,28.688l29.753,68.103l17.205,45.545l54.206,164.683l-19.045,198.811l-6.701,44.86l4.266,171.165l4.295,173.515l-8.97,142.052l85.588,-47.05l200.304,-20.057l-26.98,123.035l-16.017,108.629l-5.525,40.04l-18.286,114.402l-31.678,138.872l-24.872,103.91l-28.506,137.987l-25.064,195.836l-112.793,-18.029l-220.187,-33.441l-538.381,-74.199l-157.458,-24.765l0.757,-89.209l301.673,-10.639l89.98,-105.094l-1.173,-20.429l-12.483,-26.991l-38.669,-11.673l-132.203,-40.396l-84.428,-25.5l-116.544,37.629l-131.389,41.041l-76.941,18.94l-38.361,0.766l-53.093,-28.168l-13.825,-22.789l-23.328,-99.999l-9.023,-14.244l-8.916,-7.399l-8.747,-6.121l-62.624,-22.012l-80.923,-16.648l-48.7,-11.973l-82.247,-27.58l-63.158,-30.178l-20.794,-10.652l-28.014,-16.189l-48.608,-23.736l-0.517,-21.545l-39.165,3.778l-86.685,22.323l-65.98,26.186l-40.315,29.123l-11.824,-12.179l24.402,-38.339l42.968,-81.032l28.222,-64.747l-1.676,-26.3l-20.711,-57.315l-28.646,-57.179l21.08,-1.301l-5.892,-37.549l-18.793,-5.911l-4.362,-3.843l-20.737,-67.795l4.758,-21.693l100.563,-43.227l190.08,-106.026l45.155,-93.219l13.57,-162.561l10.759,-135.698l162.829,-16.347l400.668,-240.953Z" style="fill:#cdebb0;"/>
</svg>