<?xml version="1.0" encoding="UTF-8" standalone="no"?><!DOCTYPE svg PUBLIC "-//W3C//DTD SVG 1.1//EN" "http://www.w3.org/Graphics/SVG/1.1/DTD/svg11.dtd"><svg width="100%" height="100%" viewBox="0 0 2550 1994" version="1.1" xmlns="http://www.w3.org/2000/svg" xmlns:xlink="http://www.w3.org/1999/xlink" xml:space="preserve" xmlns:serif="http://www.serif.com/" style="fill-rule:evenodd;clip-rule:evenodd;stroke-linejoin:round;stroke-miterlimit:2;"><MetaInfo xmlns="http://www.prognoz.ru"><Geo><GeoItem X="0" Y="0" Latitude="51.24177020918754" Longitude="7.105611562728882"/><GeoItem X="2550" Y="1994" Latitude="51.236776961813064" Longitude="7.115809321403503"/></Geo></MetaInfo><g id="Zoo"><g id="Reactangle"></g><g id="Elefantenanlage"><path id="Freigehege" d="M825.432,1211.44l-8.643,-24.249l13.723,-16.647l-1.906,-15.136l-3.049,-14.171l-48.15,-25.7l-14.07,-7.449l-0.023,0.002l-26.875,-14.141l10.445,-14.248c0,0 -8.453,-5.524 -9.067,-9.273c-0.505,-3.08 -1.209,-7.266 -1.279,-11.569c-0.048,-2.937 0.338,-7.231 1.234,-11.569c0.863,-4.181 2.42,-7.843 3.244,-10.529c1.13,-3.681 2.996,-6.927 5.114,-10.127c2.241,-3.389 4.969,-7.42 7.957,-10.529c3.842,-3.997 9.828,-9.132 15.831,-12.042c5.976,-2.897 12.908,-5.513 18.823,-7.037c5.395,-1.39 14.027,-2.125 19.592,-2.04c6.278,0.097 12.353,0.302 18.428,2.402c5.678,1.962 10.763,5.098 15.422,7.488c4.496,2.306 8.572,4.577 12.981,6.315c4.889,1.928 11.182,4.756 15.801,6.324c3.845,1.305 10.8,4.113 14.68,5.306c4.375,1.346 15.003,3.949 19.405,5.78c4.132,1.72 7.919,2.688 11.789,4.975c4.614,2.727 9.331,6.331 11.466,10.416c2.029,3.883 2.14,6.445 1.821,12.778c-0.225,4.48 -8.313,11.226 -12.089,14.281c-2.995,2.423 -6.115,4.789 -9.086,7.201c-2.814,2.284 -5.121,4.033 -7.992,6.244c-4.953,3.814 -14.535,11.967 -17.09,14.149l8.687,12.531c0,0 -2.944,3.243 -4.456,4.827c-1.765,1.847 -3.168,4.341 -3.17,6.96c-0.745,4.123 -3.266,9.828 -2.705,14.818c0.64,5.682 6.541,19.275 6.541,19.275l41.209,3.441l-0.406,12.154c0,0 2.987,2.314 4.555,3.279c1.552,0.956 3.436,1.398 4.854,2.517c1.419,1.119 3.069,2.438 3.658,4.198c0.661,1.972 0.803,5.136 0.306,7.633c-0.719,3.615 -2.546,9.583 -4.623,14.057c-2.122,4.573 -8.112,13.385 -8.112,13.385l-3.625,0.693c-15.668,-8.075 -35.96,-14.275 -58.708,-14.247c-15.11,0.018 -29.789,2.916 -42.442,7.274Z" style="fill:#c1b693;"/><path id="Elefantenbad" d="M766.919,1055.35c-0.302,-3.013 -0.911,-10.554 0.114,-14.165c1.298,-4.573 4.326,-8.82 7.812,-11.988c3.486,-3.167 8.838,-5.793 13.104,-7.019c3.025,-0.869 8.607,-0.618 11.16,-0.442c-0.23,1.51 -0.46,2.942 -0.659,4.046c-0.73,4.049 -0.862,8.445 -2.584,12.068c-1.721,3.624 -4.537,7.07 -7.743,9.675c-3.368,2.736 -7.87,5.639 -12.463,6.742c-2.002,0.48 -5.285,0.83 -8.741,1.083Z" style="fill:#0079ff;"/><path d="M752.959,1055.96l-0.083,2.966c0,0 16.604,-0.226 22.896,-1.832c5.419,-1.383 11.069,-4.664 14.856,-7.802c3.477,-2.88 6.05,-7.152 7.867,-11.025c1.782,-3.797 2.269,-8.088 3.039,-12.211c0.775,-4.144 1.608,-12.654 1.608,-12.654l-2.735,-0.755c0,0 -1.2,8.931 -1.957,13.131c-0.73,4.049 -0.862,8.445 -2.584,12.068c-1.721,3.624 -4.537,7.07 -7.743,9.675c-3.368,2.736 -7.87,5.639 -12.463,6.742c-5.861,1.406 -22.701,1.697 -22.701,1.697Z" style="fill:#767575;"/><path id="Bullenanlage" d="M817.332,1188.71l8.1,22.723c-23.017,7.927 -39.329,20.686 -39.329,29.723c0,6.276 2.078,9.864 5.965,14.627l-25.12,19.132l-9.713,12.313l-10.577,-12.718c0,0 -7.566,6.482 -10.97,8.081c-2.888,1.356 -6.309,2.068 -9.451,1.511c-5.211,-0.924 -15.738,-5.161 -21.778,-6.714c-4.712,-1.211 -14.458,-2.603 -14.458,-2.603c0,0 -17.071,-0.399 -24.846,-1.489c-7.39,-1.036 -15.655,-3.033 -21.808,-5.051c-2.834,-0.93 -6.784,-2.609 -8.973,-5.219c-2.27,-2.705 -2.424,-6.353 -2.91,-9.083c-0.693,-3.892 -2.183,-11.657 -2.183,-11.657l-1.256,-6.495l4.447,-19.643l49.138,-12.413l38.294,5.095l15.03,26.445l20.748,1.804l23.397,-17.509l2.733,-2.195l-5.519,-7.109c0,0 13.451,-9.442 20.346,-13.055c6.566,-3.441 15.567,-6.577 20.693,-8.501Z" style="fill:#c1b693;"/><path id="Elefantenhaus" d="M802.054,1267.87c-10.225,-13.283 -15.951,-16.292 -15.951,-26.711c0,-14.003 39.171,-36.946 81.771,-36.997c52.079,-0.063 91.285,32.511 91.57,45.492c0.18,8.183 -6.812,12.304 -12.903,17.871l6.77,38.427l15.788,3.134l-4.135,20.834l-85.143,15.355l-9.943,-10.624c0.86,-0.697 1.41,-1.762 1.41,-2.954c0,-2.098 -1.704,-3.801 -3.802,-3.801c-2.098,0 -3.802,1.703 -3.802,3.801c0,1.375 0.732,2.581 1.826,3.248l-10.741,10.054l-50.109,-11.327l3.514,-13.455l-10.522,-2.99l0.264,-2.96l-23.717,-4.679l1.459,-7.395l18.517,-13.891l5.952,1.175l1.927,-21.607Z" style="fill:#bbbfb3;"/></g></g></svg>