<?xml version="1.0" encoding="UTF-8" standalone="no"?><!DOCTYPE svg PUBLIC "-//W3C//DTD SVG 1.1//EN" "http://www.w3.org/Graphics/SVG/1.1/DTD/svg11.dtd"><svg width="100%" height="100%" viewBox="0 0 2550 1994" version="1.1" xmlns="http://www.w3.org/2000/svg" xmlns:xlink="http://www.w3.org/1999/xlink" xml:space="preserve" xmlns:serif="http://www.serif.com/" style="fill-rule:evenodd;clip-rule:evenodd;stroke-linejoin:round;stroke-miterlimit:2;"><MetaInfo xmlns="http://www.prognoz.ru"><Geo><GeoItem X="0" Y="0" Latitude="51.24177020918754" Longitude="7.105611562728882"/><GeoItem X="2550" Y="1994" Latitude="51.236776961813064" Longitude="7.115809321403503"/></Geo></MetaInfo><g id="Zoo"><g id="ententeich"><path d="M647.845,405.481l20.949,-30.562c0,0 7.986,-5.487 12.166,-7.927c8.472,-4.946 13.369,-11.309 26.684,-8.689c6.82,1.343 13.598,5.397 17.321,13.695c6.722,14.979 16.093,18.148 30.551,22.406c13.502,3.976 31.023,8.297 40.855,9.881c5.971,0.962 12.114,-0.893 18.14,-0.377c9.17,0.786 12.475,4.417 19.257,5.762c25.764,5.112 30.094,17.514 35.764,31.385c3.563,8.715 3.62,21.901 7.976,32.995c4.777,12.165 7.621,17.129 12.596,25.037c6.026,9.579 16.652,23.201 23.563,32.437c10.882,14.544 33.751,24.839 59.694,24.377c8.917,-0.159 18.007,-1.661 20.818,-1.305c8.113,1.027 19.916,3.643 27.86,7.449c7.539,3.611 16.333,11.25 19.803,15.385c0.037,0.212 -3.83,13.53 -3.969,13.445c7.648,2.238 4.657,11.976 3.883,17.211c-0.792,5.355 -3.86,13.214 -9.504,14.774c-12.752,3.524 -13.947,1.815 -23.93,-2.842c-7.921,-3.695 -17.863,-8.915 -25.515,-8.32c-20.629,1.605 -20.16,14.198 -19.987,23.811c0.142,7.861 -0.946,16.689 -2.326,23.472c-2.64,12.974 -9.13,12.888 -18.67,12.361c-7.858,-0.434 -22.622,-2.782 -29.269,-5.057c-4.309,-1.475 -7.829,-5.34 -10.617,-8.597c-1.786,-2.085 -11.546,-8.359 -13.603,-8.549c-10.291,-0.949 -14.152,-2.234 -22.509,-4.731c-9.34,-2.791 -19.444,-5.055 -26.42,-6.851c-8.488,-2.185 -12.128,-1.927 -23.008,1.503c-2.431,0.766 -4.081,-1.816 -7.817,-1.933c-16.13,-0.506 -25.581,2.23 -35.129,8.866c-10.82,7.521 -15.257,11.471 -22.488,20.396c-4.671,5.766 -8.145,17.56 -13.986,24.861c-5.785,7.231 -9.143,7.088 -18.375,10.648c-25.882,9.982 -42.243,12.001 -67.457,1.964c-21.135,-8.413 -28.22,-20.013 -34.484,-31.565c-2.805,-5.173 -4.167,-12.851 -3.852,-19.051c0.479,-9.451 4.796,-15.681 5.877,-19.214c2.798,-9.139 4.707,-13.932 7.924,-19.215c2.928,-4.809 8.67,-7.546 11.379,-12.482c1.313,-2.391 1.238,-5.154 2.212,-8.07c1.127,-3.374 3.216,-6.952 3.398,-10.398c0.403,-7.636 -3.352,-18.171 -3.188,-27.347c0.169,-9.489 -0.02,-21.188 4.202,-29.586c2.412,-4.8 4.428,-7.868 6.951,-11.711c2.59,-3.943 4.343,-8.379 4.012,-12.942c-0.35,-4.821 -2.48,-11.135 -4.625,-17.864c-1.731,-5.431 -3.316,-8.549 -2.906,-17.191c0.767,-16.17 -0.201,-61.745 -0.201,-61.745Zm72.15,270.782c1.454,-1.562 3.551,-4.327 4.669,-6.043c1.08,-1.657 3.441,-2.811 4.691,-1.914c0.964,0.692 2.318,3.081 1.859,4.702c-0.84,2.967 -4.841,10.391 -6.898,13.099c-1.269,1.67 -3.646,2.757 -5.445,3.151c-2.629,0.575 -5.728,-1.977 -5.554,-4.217c0.132,-1.679 1.507,-3.988 2.62,-5.452c1.059,-1.392 2.866,-2.046 4.058,-3.326Zm-46.892,-45.805c5.412,-5.017 16.729,-15.737 23.688,-20.134c5.735,-3.624 14.167,-5.836 19.32,-4.146c5.074,1.665 10.133,7.21 11.592,12.57c1.459,5.36 -0.367,13.639 -2.839,19.591c-2.513,6.05 -6.002,11.784 -9.449,17.077c-4.074,6.254 -13.161,14.797 -17.109,18.985c-2.058,2.184 -6.577,6.146 -6.577,6.146c0,0 -5.722,1.042 -8.572,1.623c-3.885,0.791 -10.189,2.372 -14.74,3.127c-5.034,0.834 -9.84,-2.077 -12.656,-7.094c-2.722,-4.85 -3.458,-14.592 -0.791,-21.423c2.284,-5.848 6.327,-11.963 9.349,-16.35c2.513,-3.648 5.535,-6.96 8.784,-9.972Zm-32.16,-5.613c1.186,-1.625 2.713,-3.022 3.666,-4.793c1.006,-1.869 1.05,-4.851 2.369,-6.417c1.41,-1.676 5.429,-1.872 7.306,-0.887c1.788,0.937 3.471,3.604 2.667,5.805c-0.801,2.194 -3.801,5.306 -5.614,7.65c-1.691,2.187 -3.496,4.778 -5.26,6.412c-2.282,2.112 -3.818,2.594 -5.976,2.636c-1.906,0.037 -3.419,-2.792 -2.961,-4.969c0.358,-1.702 2.558,-3.732 3.803,-5.437Z" style="fill:#0079ff;"/></g><g id="routen"></g></g></svg>